<svg width="20" height="21" viewBox="0 0 20 21" fill="current" xmlns="http://www.w3.org/2000/svg">
<path d="M10 10.8945C10 11.0603 9.93415 11.2193 9.81694 11.3365C9.69973 11.4537 9.54076 11.5195 9.375 11.5195H5.625C5.45924 11.5195 5.30027 11.4537 5.18306 11.3365C5.06585 11.2193 5 11.0603 5 10.8945C5 10.7288 5.06585 10.5698 5.18306 10.4526C5.30027 10.3354 5.45924 10.2695 5.625 10.2695H9.375C9.54076 10.2695 9.69973 10.3354 9.81694 10.4526C9.93415 10.5698 10 10.7288 10 10.8945ZM9.375 7.76953H5.625C5.45924 7.76953 5.30027 7.83538 5.18306 7.95259C5.06585 8.0698 5 8.22877 5 8.39453C5 8.56029 5.06585 8.71926 5.18306 8.83647C5.30027 8.95368 5.45924 9.01953 5.625 9.01953H9.375C9.54076 9.01953 9.69973 8.95368 9.81694 8.83647C9.93415 8.71926 10 8.56029 10 8.39453C10 8.22877 9.93415 8.0698 9.81694 7.95259C9.69973 7.83538 9.54076 7.76953 9.375 7.76953ZM18.125 12.8844V17.7695C18.126 17.8797 18.0978 17.9882 18.0434 18.084C17.9889 18.1798 17.9101 18.2595 17.8149 18.315C17.7198 18.3705 17.6116 18.3999 17.5014 18.4002C17.3912 18.4004 17.2829 18.3715 17.1875 18.3164L15.3125 17.243L13.4375 18.3164C13.3421 18.3715 13.2338 18.4004 13.1236 18.4002C13.0134 18.3999 12.9052 18.3705 12.8101 18.315C12.7149 18.2595 12.6361 18.1798 12.5816 18.084C12.5272 17.9882 12.499 17.8797 12.5 17.7695V15.8945H3.125C2.79348 15.8945 2.47554 15.7628 2.24112 15.5284C2.0067 15.294 1.875 14.9761 1.875 14.6445V4.64453C1.875 4.31301 2.0067 3.99507 2.24112 3.76065C2.47554 3.52623 2.79348 3.39453 3.125 3.39453H16.875C17.2065 3.39453 17.5245 3.52623 17.7589 3.76065C17.9933 3.99507 18.125 4.31301 18.125 4.64453V7.02969C18.5201 7.40803 18.8345 7.86244 19.0493 8.36554C19.2641 8.86863 19.3748 9.41 19.3748 9.95703C19.3748 10.5041 19.2641 11.0454 19.0493 11.5485C18.8345 12.0516 18.5201 12.506 18.125 12.8844ZM12.5 14.6445V12.8844C11.8189 12.2275 11.3885 11.3535 11.283 10.4132C11.1774 9.4729 11.4035 8.52524 11.922 7.73378C12.4406 6.94231 13.2192 6.35668 14.1234 6.07796C15.0277 5.79923 16.0008 5.84488 16.875 6.20703V4.64453H3.125V14.6445H12.5ZM16.875 13.707C16.38 13.9138 15.8489 14.0203 15.3125 14.0203C14.7761 14.0203 14.245 13.9138 13.75 13.707V16.693L15 15.9773C15.0945 15.9234 15.2014 15.895 15.3102 15.895C15.419 15.895 15.5259 15.9234 15.6203 15.9773L16.8703 16.693L16.875 13.707ZM18.125 9.95703C18.125 9.40077 17.9601 8.857 17.651 8.39449C17.342 7.93198 16.9027 7.57149 16.3888 7.35862C15.8749 7.14575 15.3094 7.09005 14.7638 7.19857C14.2182 7.30709 13.7171 7.57496 13.3238 7.96829C12.9304 8.36163 12.6626 8.86277 12.554 9.40834C12.4455 9.95391 12.5012 10.5194 12.7141 11.0333C12.927 11.5472 13.2874 11.9865 13.75 12.2955C14.2125 12.6046 14.7562 12.7695 15.3125 12.7695C15.6818 12.7695 16.0476 12.6968 16.3888 12.5554C16.73 12.4141 17.0401 12.2069 17.3012 11.9458C17.5624 11.6846 17.7696 11.3746 17.9109 11.0333C18.0523 10.6921 18.125 10.3264 18.125 9.95703Z" fill="current"/>
</svg>
