<svg width="20" height="21" viewBox="0 0 20 21" fill="none" xmlns="http://www.w3.org/2000/svg">
<path d="M16.875 4.64453H13.75V4.01953C13.75 3.52225 13.5525 3.04534 13.2008 2.69371C12.8492 2.34208 12.3723 2.14453 11.875 2.14453H8.125C7.62772 2.14453 7.15081 2.34208 6.79917 2.69371C6.44754 3.04534 6.25 3.52225 6.25 4.01953V4.64453H3.125C2.79348 4.64453 2.47554 4.77623 2.24112 5.01065C2.0067 5.24507 1.875 5.56301 1.875 5.89453V15.8945C1.875 16.2261 2.0067 16.544 2.24112 16.7784C2.47554 17.0128 2.79348 17.1445 3.125 17.1445H16.875C17.2065 17.1445 17.5245 17.0128 17.7589 16.7784C17.9933 16.544 18.125 16.2261 18.125 15.8945V5.89453C18.125 5.56301 17.9933 5.24507 17.7589 5.01065C17.5245 4.77623 17.2065 4.64453 16.875 4.64453ZM7.5 4.01953C7.5 3.85377 7.56585 3.6948 7.68306 3.57759C7.80027 3.46038 7.95924 3.39453 8.125 3.39453H11.875C12.0408 3.39453 12.1997 3.46038 12.3169 3.57759C12.4342 3.6948 12.5 3.85377 12.5 4.01953V4.64453H7.5V4.01953ZM16.875 5.89453V9.14531C14.7655 10.2936 12.4018 10.895 10 10.8945C7.59828 10.895 5.23471 10.2939 3.125 9.14609V5.89453H16.875ZM16.875 15.8945H3.125V10.5539C5.26557 11.6009 7.61708 12.145 10 12.1445C12.383 12.1446 14.7344 11.6003 16.875 10.5531V15.8945ZM8.125 9.01953C8.125 8.85377 8.19085 8.6948 8.30806 8.57759C8.42527 8.46038 8.58424 8.39453 8.75 8.39453H11.25C11.4158 8.39453 11.5747 8.46038 11.6919 8.57759C11.8092 8.6948 11.875 8.85377 11.875 9.01953C11.875 9.18529 11.8092 9.34426 11.6919 9.46147C11.5747 9.57868 11.4158 9.64453 11.25 9.64453H8.75C8.58424 9.64453 8.42527 9.57868 8.30806 9.46147C8.19085 9.34426 8.125 9.18529 8.125 9.01953Z" fill="current"/>
</svg>
