<svg width="60" height="61" viewBox="0 0 60 61" fill="none" xmlns="http://www.w3.org/2000/svg">
<g id="Frame 1321315627">
<g id="Group">
<path id="Vector" d="M49.1028 29.7665H34.5384C34.1191 27.6426 32.2441 26.0361 29.9994 26.0361C27.7547 26.0361 25.8797 27.6432 25.461 29.7665H10.8972C10.4013 29.7665 10 30.1678 10 30.6637C10 31.1595 10.4013 31.5608 10.8972 31.5608H25.461C25.8803 33.6847 27.7547 35.2912 29.9994 35.2912C32.2441 35.2912 34.1191 33.6841 34.5384 31.5608H49.1028C49.5981 31.5608 50 31.1595 50 30.6637C50 30.1678 49.5981 29.7665 49.1028 29.7665ZM29.9994 33.4969C28.4378 33.4969 27.1674 32.2265 27.1668 30.6649V30.6637V30.6619C27.1674 29.1008 28.4378 27.8304 29.9994 27.8304C31.5616 27.8304 32.8326 29.1014 32.8326 30.6637C32.8332 32.2259 31.5622 33.4969 29.9994 33.4969Z" fill="#001938"/>
<path id="Vector_2" d="M14.6275 23.0247C16.8614 23.0247 18.7305 21.4337 19.1618 19.3254H49.1022C49.5975 19.3254 49.9994 18.9241 49.9994 18.4283C49.9994 17.9324 49.5975 17.5311 49.1022 17.5311H19.1713C18.7646 15.3923 16.883 13.769 14.6275 13.769C12.076 13.769 10 15.8451 10 18.3966C10 20.9487 12.076 23.0247 14.6275 23.0247ZM14.6275 15.564C16.1898 15.564 17.4613 16.8349 17.4613 18.3972C17.4613 19.9594 16.1904 21.231 14.6275 21.231C13.0653 21.231 11.7943 19.96 11.7943 18.3972C11.7943 16.8349 13.0653 15.564 14.6275 15.564Z" fill="#001938"/>
<path id="Vector_3" d="M45.3719 37.9248C43.1272 37.9248 41.2521 39.5319 40.8335 41.6552H10.8972C10.4013 41.6552 10 42.0571 10 42.5523C10 43.0476 10.4013 43.4495 10.8972 43.4495H40.8335C41.2527 45.5734 43.1278 47.1799 45.3719 47.1799C47.924 47.1799 49.9994 45.1032 49.9994 42.5517C49.9994 40.0002 47.9234 37.9248 45.3719 37.9248ZM45.3719 45.3856C43.8102 45.3856 42.5393 44.114 42.5393 42.5517C42.5393 40.9901 43.8102 39.7191 45.3719 39.7191C46.9341 39.7191 48.2051 40.9901 48.2051 42.5517C48.2051 44.114 46.9341 45.3856 45.3719 45.3856Z" fill="#001938"/>
</g>
</g>
</svg>
