<svg width="40" height="43" viewBox="0 0 40 43" fill="none" xmlns="http://www.w3.org/2000/svg">
<path d="M39.0473 3.473H22.3489C22.0963 3.473 21.854 3.37266 21.6754 3.19405C21.4968 3.01545 21.3965 2.77321 21.3965 2.52062C21.3965 2.26803 21.4968 2.02579 21.6754 1.84718C21.854 1.66858 22.0963 1.56824 22.3489 1.56824H39.0473C39.2999 1.56824 39.5421 1.66858 39.7207 1.84718C39.8993 2.02579 39.9997 2.26803 39.9997 2.52062C39.9997 2.77321 39.8993 3.01545 39.7207 3.19405C39.5421 3.37266 39.2999 3.473 39.0473 3.473Z" fill="#FAFAFA"/>
<path d="M39.0473 10.254H22.3489C22.0963 10.254 21.854 10.1537 21.6754 9.97506C21.4968 9.79645 21.3965 9.55421 21.3965 9.30162C21.3965 9.04904 21.4968 8.80679 21.6754 8.62819C21.854 8.44958 22.0963 8.34924 22.3489 8.34924H39.0473C39.2999 8.34924 39.5421 8.44958 39.7207 8.62819C39.8993 8.80679 39.9997 9.04904 39.9997 9.30162C39.9997 9.55421 39.8993 9.79645 39.7207 9.97506C39.5421 10.1537 39.2999 10.254 39.0473 10.254Z" fill="#FAFAFA"/>
<path d="M39.0473 17.0349H22.3489C22.0963 17.0349 21.854 16.9345 21.6754 16.7559C21.4968 16.5773 21.3965 16.3351 21.3965 16.0825C21.3965 15.8299 21.4968 15.5877 21.6754 15.4091C21.854 15.2305 22.0963 15.1301 22.3489 15.1301H39.0473C39.2999 15.1301 39.5421 15.2305 39.7207 15.4091C39.8993 15.5877 39.9997 15.8299 39.9997 16.0825C39.9997 16.3351 39.8993 16.5773 39.7207 16.7559C39.5421 16.9345 39.2999 17.0349 39.0473 17.0349Z" fill="#FAFAFA"/>
<path d="M0.952381 18.5905C0.699794 18.5905 0.457552 18.4901 0.278946 18.3115C0.10034 18.1329 0 17.8907 0 17.6381V0.952381C0 0.699794 0.10034 0.457552 0.278946 0.278946C0.457552 0.10034 0.699794 0 0.952381 0C1.20497 0 1.44721 0.10034 1.62582 0.278946C1.80442 0.457552 1.90476 0.699794 1.90476 0.952381V17.6508C1.90142 17.9012 1.79961 18.1402 1.62137 18.316C1.44312 18.4919 1.20278 18.5905 0.952381 18.5905Z" fill="#FAFAFA"/>
<path d="M7.73363 18.5905C7.48104 18.5905 7.2388 18.4901 7.0602 18.3115C6.88159 18.1329 6.78125 17.8907 6.78125 17.6381V0.952381C6.78125 0.699794 6.88159 0.457552 7.0602 0.278946C7.2388 0.10034 7.48104 0 7.73363 0C7.98622 0 8.22846 0.10034 8.40707 0.278946C8.58567 0.457552 8.68601 0.699794 8.68601 0.952381V17.6508C8.68267 17.9012 8.58086 18.1402 8.40262 18.316C8.22437 18.4919 7.98403 18.5905 7.73363 18.5905Z" fill="#FAFAFA"/>
<path d="M14.5207 18.5905C14.2682 18.5905 14.0259 18.4901 13.8473 18.3115C13.6687 18.1329 13.5684 17.8907 13.5684 17.6381V0.952381C13.5684 0.699794 13.6687 0.457552 13.8473 0.278946C14.0259 0.10034 14.2682 0 14.5207 0C14.7733 0 15.0156 0.10034 15.1942 0.278946C15.3728 0.457552 15.4731 0.699794 15.4731 0.952381V17.6508C15.4698 17.9012 15.368 18.1402 15.1897 18.316C15.0115 18.4919 14.7711 18.5905 14.5207 18.5905Z" fill="#FAFAFA"/>
<path d="M17.6508 27.1301H0.952381C0.699794 27.1301 0.457552 27.0298 0.278946 26.8512C0.10034 26.6726 0 26.4303 0 26.1777C0 25.9251 0.10034 25.6829 0.278946 25.5043C0.457552 25.3257 0.699794 25.2253 0.952381 25.2253H17.6508C17.9034 25.2253 18.1456 25.3257 18.3242 25.5043C18.5028 25.6829 18.6032 25.9251 18.6032 26.1777C18.6032 26.4303 18.5028 26.6726 18.3242 26.8512C18.1456 27.0298 17.9034 27.1301 17.6508 27.1301Z" fill="#FAFAFA"/>
<path d="M17.6508 33.9111H0.952381C0.699794 33.9111 0.457552 33.8108 0.278946 33.6322C0.10034 33.4536 0 33.2113 0 32.9587C0 32.7061 0.10034 32.4639 0.278946 32.2853C0.457552 32.1067 0.699794 32.0063 0.952381 32.0063H17.6508C17.9034 32.0063 18.1456 32.1067 18.3242 32.2853C18.5028 32.4639 18.6032 32.7061 18.6032 32.9587C18.6032 33.2113 18.5028 33.4536 18.3242 33.6322C18.1456 33.8108 17.9034 33.9111 17.6508 33.9111Z" fill="#FAFAFA"/>
<path d="M17.6508 40.6921H0.952381C0.699794 40.6921 0.457552 40.5918 0.278946 40.4132C0.10034 40.2346 0 39.9923 0 39.7397C0 39.4871 0.10034 39.2449 0.278946 39.0663C0.457552 38.8877 0.699794 38.7874 0.952381 38.7874H17.6508C17.9034 38.7874 18.1456 38.8877 18.3242 39.0663C18.5028 39.2449 18.6032 39.4871 18.6032 39.7397C18.6032 39.9923 18.5028 40.2346 18.3242 40.4132C18.1456 40.5918 17.9034 40.6921 17.6508 40.6921Z" fill="#FAFAFA"/>
<path d="M39.0481 42.2603C38.7955 42.2603 38.5533 42.1599 38.3746 41.9813C38.196 41.8027 38.0957 41.5605 38.0957 41.3079V24.6095C38.0957 24.3569 38.196 24.1147 38.3746 23.936C38.5533 23.7574 38.7955 23.6571 39.0481 23.6571C39.3007 23.6571 39.5429 23.7574 39.7215 23.936C39.9001 24.1147 40.0005 24.3569 40.0005 24.6095V41.3079C40.0005 41.5605 39.9001 41.8027 39.7215 41.9813C39.5429 42.1599 39.3007 42.2603 39.0481 42.2603Z" fill="#FAFAFA"/>
<path d="M32.2668 42.2603C32.0142 42.2603 31.772 42.1599 31.5934 41.9813C31.4148 41.8027 31.3145 41.5605 31.3145 41.3079V24.6095C31.3145 24.3569 31.4148 24.1147 31.5934 23.936C31.772 23.7574 32.0142 23.6571 32.2668 23.6571C32.5194 23.6571 32.7617 23.7574 32.9403 23.936C33.1189 24.1147 33.2192 24.3569 33.2192 24.6095V41.3079C33.2192 41.5605 33.1189 41.8027 32.9403 41.9813C32.7617 42.1599 32.5194 42.2603 32.2668 42.2603Z" fill="#FAFAFA"/>
<path d="M25.4797 42.2603C25.2271 42.2603 24.9849 42.1599 24.8063 41.9813C24.6277 41.8027 24.5273 41.5605 24.5273 41.3079V24.6095C24.5273 24.3569 24.6277 24.1147 24.8063 23.936C24.9849 23.7574 25.2271 23.6571 25.4797 23.6571C25.7323 23.6571 25.9746 23.7574 26.1532 23.936C26.3318 24.1147 26.4321 24.3569 26.4321 24.6095V41.3079C26.4321 41.5605 26.3318 41.8027 26.1532 41.9813C25.9746 42.1599 25.7323 42.2603 25.4797 42.2603Z" fill="#FAFAFA"/>
</svg>
