<svg width="40" height="43" viewBox="0 0 40 43" fill="none" xmlns="http://www.w3.org/2000/svg">
<path d="M39.0473 3.56589H22.3489C22.0963 3.56589 21.854 3.46555 21.6754 3.28695C21.4968 3.10834 21.3965 2.8661 21.3965 2.61351C21.3965 2.36093 21.4968 2.11868 21.6754 1.94008C21.854 1.76147 22.0963 1.66113 22.3489 1.66113H39.0473C39.2999 1.66113 39.5421 1.76147 39.7207 1.94008C39.8993 2.11868 39.9997 2.36093 39.9997 2.61351C39.9997 2.8661 39.8993 3.10834 39.7207 3.28695C39.5421 3.46555 39.2999 3.56589 39.0473 3.56589Z" fill="#001938"/>
<path d="M39.0473 10.3469H22.3489C22.0963 10.3469 21.854 10.2466 21.6754 10.068C21.4968 9.88935 21.3965 9.64711 21.3965 9.39452C21.3965 9.14193 21.4968 8.89969 21.6754 8.72108C21.854 8.54248 22.0963 8.44214 22.3489 8.44214H39.0473C39.2999 8.44214 39.5421 8.54248 39.7207 8.72108C39.8993 8.89969 39.9997 9.14193 39.9997 9.39452C39.9997 9.64711 39.8993 9.88935 39.7207 10.068C39.5421 10.2466 39.2999 10.3469 39.0473 10.3469Z" fill="#001938"/>
<path d="M39.0473 17.1279H22.3489C22.0963 17.1279 21.854 17.0276 21.6754 16.849C21.4968 16.6704 21.3965 16.4281 21.3965 16.1755C21.3965 15.9229 21.4968 15.6807 21.6754 15.5021C21.854 15.3235 22.0963 15.2231 22.3489 15.2231H39.0473C39.2999 15.2231 39.5421 15.3235 39.7207 15.5021C39.8993 15.6807 39.9997 15.9229 39.9997 16.1755C39.9997 16.4281 39.8993 16.6704 39.7207 16.849C39.5421 17.0276 39.2999 17.1279 39.0473 17.1279Z" fill="#001938"/>
<path d="M0.952381 18.6835C0.699794 18.6835 0.457552 18.5832 0.278946 18.4046C0.10034 18.2259 0 17.9837 0 17.7311V1.0454C0 0.792811 0.10034 0.55057 0.278946 0.371964C0.457552 0.193358 0.699794 0.0930176 0.952381 0.0930176C1.20497 0.0930176 1.44721 0.193358 1.62582 0.371964C1.80442 0.55057 1.90476 0.792811 1.90476 1.0454V17.7438C1.90142 17.9942 1.79961 18.2332 1.62137 18.4091C1.44312 18.5849 1.20278 18.6835 0.952381 18.6835Z" fill="#001938"/>
<path d="M7.73363 18.6835C7.48104 18.6835 7.2388 18.5832 7.0602 18.4046C6.88159 18.2259 6.78125 17.9837 6.78125 17.7311V1.0454C6.78125 0.792811 6.88159 0.55057 7.0602 0.371964C7.2388 0.193358 7.48104 0.0930176 7.73363 0.0930176C7.98622 0.0930176 8.22846 0.193358 8.40707 0.371964C8.58567 0.55057 8.68601 0.792811 8.68601 1.0454V17.7438C8.68267 17.9942 8.58086 18.2332 8.40262 18.4091C8.22437 18.5849 7.98403 18.6835 7.73363 18.6835Z" fill="#001938"/>
<path d="M14.5207 18.6835C14.2682 18.6835 14.0259 18.5832 13.8473 18.4046C13.6687 18.2259 13.5684 17.9837 13.5684 17.7311V1.0454C13.5684 0.792811 13.6687 0.55057 13.8473 0.371964C14.0259 0.193358 14.2682 0.0930176 14.5207 0.0930176C14.7733 0.0930176 15.0156 0.193358 15.1942 0.371964C15.3728 0.55057 15.4731 0.792811 15.4731 1.0454V17.7438C15.4698 17.9942 15.368 18.2332 15.1897 18.4091C15.0115 18.5849 14.7711 18.6835 14.5207 18.6835Z" fill="#001938"/>
<path d="M17.6508 27.2231H0.952381C0.699794 27.2231 0.457552 27.1228 0.278946 26.9442C0.10034 26.7656 0 26.5233 0 26.2707C0 26.0182 0.10034 25.7759 0.278946 25.5973C0.457552 25.4187 0.699794 25.3184 0.952381 25.3184H17.6508C17.9034 25.3184 18.1456 25.4187 18.3242 25.5973C18.5028 25.7759 18.6032 26.0182 18.6032 26.2707C18.6032 26.5233 18.5028 26.7656 18.3242 26.9442C18.1456 27.1228 17.9034 27.2231 17.6508 27.2231Z" fill="#001938"/>
<path d="M17.6508 34.0041H0.952381C0.699794 34.0041 0.457552 33.9038 0.278946 33.7252C0.10034 33.5466 0 33.3043 0 33.0517C0 32.7992 0.10034 32.5569 0.278946 32.3783C0.457552 32.1997 0.699794 32.0994 0.952381 32.0994H17.6508C17.9034 32.0994 18.1456 32.1997 18.3242 32.3783C18.5028 32.5569 18.6032 32.7992 18.6032 33.0517C18.6032 33.3043 18.5028 33.5466 18.3242 33.7252C18.1456 33.9038 17.9034 34.0041 17.6508 34.0041Z" fill="#001938"/>
<path d="M17.6508 40.7851H0.952381C0.699794 40.7851 0.457552 40.6848 0.278946 40.5062C0.10034 40.3276 0 40.0853 0 39.8328C0 39.5802 0.10034 39.3379 0.278946 39.1593C0.457552 38.9807 0.699794 38.8804 0.952381 38.8804H17.6508C17.9034 38.8804 18.1456 38.9807 18.3242 39.1593C18.5028 39.3379 18.6032 39.5802 18.6032 39.8328C18.6032 40.0853 18.5028 40.3276 18.3242 40.5062C18.1456 40.6848 17.9034 40.7851 17.6508 40.7851Z" fill="#001938"/>
<path d="M39.0481 42.3532C38.7955 42.3532 38.5533 42.2528 38.3746 42.0742C38.196 41.8956 38.0957 41.6534 38.0957 41.4008V24.7024C38.0957 24.4498 38.196 24.2076 38.3746 24.0289C38.5533 23.8503 38.7955 23.75 39.0481 23.75C39.3007 23.75 39.5429 23.8503 39.7215 24.0289C39.9001 24.2076 40.0005 24.4498 40.0005 24.7024V41.4008C40.0005 41.6534 39.9001 41.8956 39.7215 42.0742C39.5429 42.2528 39.3007 42.3532 39.0481 42.3532Z" fill="#001938"/>
<path d="M32.2668 42.3534C32.0142 42.3534 31.772 42.2531 31.5934 42.0745C31.4148 41.8959 31.3145 41.6536 31.3145 41.401V24.7026C31.3145 24.45 31.4148 24.2078 31.5934 24.0292C31.772 23.8506 32.0142 23.7502 32.2668 23.7502C32.5194 23.7502 32.7617 23.8506 32.9403 24.0292C33.1189 24.2078 33.2192 24.45 33.2192 24.7026V41.401C33.2192 41.6536 33.1189 41.8959 32.9403 42.0745C32.7617 42.2531 32.5194 42.3534 32.2668 42.3534Z" fill="#001938"/>
<path d="M25.4797 42.3534C25.2271 42.3534 24.9849 42.2531 24.8063 42.0745C24.6277 41.8959 24.5273 41.6536 24.5273 41.401V24.7026C24.5273 24.45 24.6277 24.2078 24.8063 24.0292C24.9849 23.8506 25.2271 23.7502 25.4797 23.7502C25.7323 23.7502 25.9746 23.8506 26.1532 24.0292C26.3318 24.2078 26.4321 24.45 26.4321 24.7026V41.401C26.4321 41.6536 26.3318 41.8959 26.1532 42.0745C25.9746 42.2531 25.7323 42.3534 25.4797 42.3534Z" fill="#001938"/>
</svg>
