<svg width="40" height="46" viewBox="0 0 40 46" fill="none" xmlns="http://www.w3.org/2000/svg">
<path fill-rule="evenodd" clip-rule="evenodd" d="M19.9991 20.2998C20.5749 20.2998 21.1376 20.4705 21.6163 20.7904C22.095 21.1102 22.4681 21.5649 22.6884 22.0967C22.9087 22.6286 22.9664 23.2139 22.8541 23.7786C22.7418 24.3432 22.4645 24.8619 22.0574 25.269C21.6503 25.6761 21.1317 25.9533 20.567 26.0656C20.0024 26.1779 19.4171 26.1203 18.8852 25.9C18.3533 25.6796 17.8987 25.3066 17.5789 24.8279C17.259 24.3492 17.0883 23.7864 17.0883 23.2107C17.0891 22.4389 17.396 21.699 17.9417 21.1533C18.4875 20.6076 19.2274 20.3006 19.9991 20.2998ZM19.9991 27.1831C20.7848 27.1831 21.5528 26.9501 22.2061 26.5136C22.8594 26.0771 23.3685 25.4567 23.6692 24.7309C23.9698 24.005 24.0485 23.2063 23.8952 22.4357C23.742 21.6651 23.3636 20.9573 22.8081 20.4018C22.2525 19.8462 21.5447 19.4679 20.7741 19.3146C20.0036 19.1613 19.2048 19.24 18.479 19.5406C17.7531 19.8413 17.1327 20.3505 16.6962 21.0037C16.2597 21.657 16.0267 22.425 16.0267 23.2107C16.0278 24.2639 16.4467 25.2737 17.1914 26.0184C17.9361 26.7632 18.9459 27.182 19.9991 27.1831ZM1.30282 12.4159C2.08452 11.0614 4.80712 10.7966 8.77199 11.6896C10.3214 12.048 11.8468 12.5031 13.3394 13.0521C13.0409 14.9246 12.827 16.9234 12.7041 19.0012C10.9751 20.1428 9.34882 21.3297 7.87502 22.5246C6.65249 21.5053 5.49472 20.4108 4.40847 19.2473C1.65214 16.2645 0.51961 13.7714 1.30282 12.4159ZM15.6356 7.72772C16.8437 3.84742 18.4337 1.62162 19.9991 1.62162C21.2072 1.62162 22.2164 2.92579 22.912 4.18416C22.4307 4.50489 22.052 4.95759 21.8214 5.48804C21.5907 6.01849 21.518 6.60418 21.6117 7.17495C21.7055 7.74571 21.9618 8.27734 22.35 8.70614C22.7382 9.13494 23.2418 9.44273 23.8004 9.59262C24.1584 9.69067 24.5319 9.71955 24.9007 9.67769C25.1096 10.5304 25.2969 11.4288 25.4635 12.3656C23.6952 13.0421 21.858 13.8555 19.9991 14.7867C18.1393 13.855 16.3016 13.0411 14.5323 12.3641C14.8025 10.797 15.171 9.24851 15.6356 7.72772ZM26.2643 5.71433C26.0718 5.38092 25.7848 5.11207 25.4395 4.94179C25.0942 4.77151 24.7062 4.70745 24.3245 4.7577C23.9428 4.80795 23.5846 4.97027 23.2952 5.22411C23.0057 5.47796 22.7981 5.81194 22.6985 6.18381C22.5988 6.55569 22.6117 6.94875 22.7355 7.3133C22.8593 7.67784 23.0884 7.99749 23.3938 8.23183C23.6993 8.46616 24.0674 8.60465 24.4515 8.62978C24.8357 8.65491 25.2187 8.56556 25.5521 8.37301C25.9987 8.11458 26.3246 7.68947 26.4581 7.191C26.5917 6.69253 26.522 6.16145 26.2643 5.71433ZM31.2263 11.6901C35.1902 10.7971 37.9133 11.0619 38.6955 12.4164C39.4777 13.7709 38.3461 16.2645 35.5903 19.2478C34.5049 20.4097 33.3478 21.5024 32.1258 22.5196C30.6545 21.3251 29.0302 20.1403 27.2937 18.9962C27.1688 16.9284 26.9544 14.9261 26.6564 13.0526C28.1502 12.5032 29.6768 12.0477 31.2273 11.6886L31.2263 11.6901ZM35.5903 27.1735C38.3461 30.1604 39.4777 32.6499 38.6955 34.006C38.0915 35.0504 36.4581 35.2734 35.021 35.2462C34.9781 34.5742 34.7109 33.936 34.2621 33.4338C33.8134 32.9317 33.2091 32.5947 32.5461 32.4769C31.8831 32.359 31.1997 32.467 30.6054 32.7837C30.0111 33.1004 29.5402 33.6073 29.2683 34.2234C28.4257 33.9773 27.5534 33.6904 26.6594 33.3677C26.9579 31.4973 27.1708 29.5005 27.2942 27.4252C29.0317 26.2801 30.6555 25.0952 32.1263 23.9018C33.3482 24.9191 34.5048 26.0118 35.5903 27.1735ZM32.0191 37.3854C32.4042 37.3855 32.7806 37.2714 33.1009 37.0576C33.4211 36.8437 33.6707 36.5397 33.8182 36.1839C33.9656 35.8282 34.0042 35.4367 33.9292 35.059C33.8541 34.6813 33.6687 34.3343 33.3965 34.062C33.1242 33.7896 32.7773 33.6042 32.3996 33.529C32.0219 33.4538 31.6304 33.4924 31.2746 33.6397C30.9188 33.787 30.6147 34.0366 30.4008 34.3568C30.1868 34.677 30.0726 35.0534 30.0726 35.4385C30.0732 35.9546 30.2784 36.4494 30.6433 36.8144C31.0082 37.1794 31.503 37.3848 32.0191 37.3854ZM24.3632 38.6941C23.1551 42.5744 21.5641 44.8002 19.9991 44.8002C18.4342 44.8002 16.8437 42.5744 15.6356 38.6941C15.171 37.1734 14.8025 35.6249 14.5323 34.0578C16.3016 33.3803 18.1398 32.5664 20.0017 31.6337C21.8545 32.5599 23.6957 33.3748 25.467 34.0543C25.1959 35.6222 24.8272 37.1722 24.3632 38.6941ZM12.6387 26.1029C12.5994 25.1511 12.5803 24.1852 12.5803 23.2107C12.5803 22.2362 12.5994 21.2728 12.6372 20.3225C11.2449 21.2657 9.92566 22.2352 8.71108 23.2132C9.92314 24.1882 11.2384 25.1571 12.6372 26.1029H12.6387ZM18.8238 31.0302C17.9772 30.5872 17.1326 30.1225 16.29 29.6359C15.4474 29.1493 14.6221 28.6504 13.814 28.139C13.9338 29.8242 14.116 31.4505 14.3541 32.9882C15.8063 32.4265 17.3052 31.7706 18.8238 31.0302ZM26.1848 28.139C25.3794 28.649 24.5541 29.1478 23.7088 29.6354C22.8635 30.123 22.0201 30.5877 21.1785 31.0297C22.6926 31.7651 24.192 32.4204 25.6447 32.9837C25.8838 31.4475 26.0645 29.8226 26.1848 28.139ZM27.3586 20.3179C27.3983 21.2743 27.418 22.2397 27.418 23.2107C27.418 24.1816 27.3983 25.1511 27.3596 26.1029C28.7594 25.1566 30.0777 24.1867 31.2902 23.2107C30.0767 22.2342 28.7594 21.2642 27.3586 20.3179ZM21.175 15.3897C22.0182 15.8326 22.8625 16.2979 23.7078 16.7855C24.5531 17.273 25.3776 17.7705 26.1813 18.2779C26.0605 16.5992 25.8792 14.9719 25.6407 13.4322C24.19 13.9939 22.6926 14.6498 21.175 15.3877V15.3897ZM13.8135 18.2829C14.6222 17.7715 15.4477 17.2724 16.29 16.7855C17.1322 16.2985 17.9767 15.8333 18.8233 15.3897C17.3042 14.6508 15.8032 13.9949 14.3541 13.4327C14.1145 14.9714 13.9338 16.5972 13.8135 18.2829ZM16.821 17.7051C15.764 18.3141 14.7336 18.9473 13.734 19.5956C13.6726 20.779 13.6419 21.987 13.6419 23.2107C13.6419 24.4343 13.6726 25.6439 13.734 26.8277C14.7293 27.4727 15.7583 28.102 16.821 28.7158C17.8755 29.3253 18.9421 29.9052 19.9991 30.4438C21.0552 29.9049 22.1144 29.3289 23.1768 28.7158C24.2392 28.1027 25.2678 27.4734 26.2628 26.8277C26.3237 25.6439 26.3549 24.4348 26.3549 23.2107C26.3549 21.9865 26.3227 20.782 26.2613 19.5921C25.2667 18.9478 24.2382 18.3188 23.1758 17.7051C22.1172 17.093 21.0562 16.5162 19.9991 15.9761C18.9421 16.5157 17.8811 17.093 16.821 17.7051ZM8.7745 34.7313C4.80964 35.6252 2.08703 35.3605 1.30533 34.0055C0.701318 32.96 1.32547 31.4334 2.06791 30.2022C2.48062 30.4081 2.9355 30.5155 3.39674 30.5158C3.66154 30.5154 3.92516 30.4805 4.18096 30.4121C4.65313 30.2856 5.08736 30.0459 5.44605 29.7139C5.80474 29.3818 6.07708 28.9673 6.23948 28.5062C6.40189 28.0452 6.44947 27.5515 6.37811 27.0679C6.30675 26.5843 6.11859 26.1254 5.82992 25.7309C6.46414 25.1239 7.1492 24.5113 7.87754 23.8998C9.34782 25.0932 10.9706 26.2771 12.7067 27.4232C12.8295 29.5005 13.0434 31.5003 13.3419 33.3697C11.8493 33.9184 10.3239 34.3732 8.7745 34.7313ZM1.71456 26.5328C1.48819 26.9235 1.40439 27.3807 1.47743 27.8263C1.55047 28.2719 1.77583 28.6784 2.11508 28.9765C2.45434 29.2745 2.88647 29.4456 3.3378 29.4606C3.78912 29.4757 4.23168 29.3337 4.59001 29.0588C4.94833 28.784 5.20023 28.3934 5.30274 27.9536C5.40526 27.5139 5.35204 27.0521 5.15217 26.6472C4.95229 26.2423 4.61814 25.9192 4.20669 25.7331C3.79524 25.547 3.33198 25.5094 2.89591 25.6267C2.64885 25.6921 2.41721 25.8058 2.21442 25.9614C2.01164 26.1169 1.84173 26.3111 1.71456 26.5328ZM3.62727 19.9681C4.69996 21.1168 5.84112 22.1997 7.0445 23.2107C6.33981 23.8076 5.6759 24.4041 5.05879 24.9966C5.00846 24.9633 4.95813 24.9306 4.90376 24.8999C4.27842 24.5393 3.54429 24.4156 2.8353 24.5512C2.12631 24.6869 1.4897 25.0729 1.04162 25.6388C0.593529 26.2047 0.363823 26.9129 0.394401 27.6341C0.424979 28.3553 0.713805 29.0415 1.20819 29.5675C-0.0340719 31.6025 -0.322993 33.3134 0.383706 34.536C0.937388 35.4949 2.02965 36.0722 3.62979 36.2509C4.0071 36.2915 4.38636 36.3112 4.76585 36.3098C6.19481 36.2837 7.61664 36.1016 9.00604 35.7667C10.5367 35.4136 12.0443 34.9675 13.5206 34.4308C13.7948 35.9784 14.1624 37.508 14.6214 39.0112C15.1087 40.7557 15.8751 42.4098 16.891 43.9093C17.8453 45.2039 18.8918 45.8613 19.9991 45.8613C21.1065 45.8613 22.1525 45.2039 23.1073 43.9073C24.123 42.4076 24.8894 40.7536 25.3769 39.0092C25.8357 37.506 26.2033 35.9764 26.4777 34.4288C27.3465 34.7409 28.1957 35.0182 29.0166 35.2558C29.0136 35.3162 29.0111 35.3771 29.0111 35.439C29.0106 36.1613 29.27 36.8596 29.7419 37.4064C30.2139 37.9531 30.8668 38.3118 31.5813 38.4169C32.2959 38.5221 33.0244 38.3665 33.6338 37.9788C34.2432 37.5911 34.6927 36.9971 34.9002 36.3053C35.009 36.3078 35.1172 36.3093 35.2234 36.3093C37.4311 36.3093 38.9421 35.7028 39.6151 34.5365C40.1688 33.5766 40.1235 32.3424 39.4777 30.8671C38.6864 29.2381 37.6372 27.7476 36.3705 26.4532C35.2988 25.3043 34.1583 24.2214 32.9553 23.2107C34.1582 22.2001 35.2986 21.1172 36.37 19.9681C37.6372 18.6741 38.687 17.1837 39.4787 15.5548C40.1245 14.0795 40.1703 12.8447 39.6161 11.8854C39.0619 10.926 37.9696 10.3487 36.37 10.1705C34.5636 10.0409 32.7481 10.2042 30.9938 10.6542C29.4625 11.0081 27.954 11.4546 26.4767 11.9911C26.3116 11.085 26.1244 10.2092 25.923 9.3782C25.9777 9.35102 26.0316 9.32233 26.0846 9.29212C26.7101 8.93123 27.1849 8.35735 27.4222 7.67533C27.6596 6.9933 27.6436 6.24865 27.3773 5.57741C27.111 4.90616 26.6121 4.35313 25.9717 4.01933C25.3314 3.68553 24.5923 3.59324 23.8895 3.75933C22.7499 1.6639 21.4115 0.560059 19.9991 0.560059C18.8918 0.560059 17.8453 1.21743 16.891 2.51405C15.8751 4.01341 15.1087 5.66732 14.6214 7.41162C14.1625 8.91487 13.7949 10.4445 13.5206 11.9921C12.0441 11.4561 10.5365 11.01 9.00604 10.6562C7.25174 10.2062 5.43623 10.0429 3.62979 10.1725C2.02965 10.3492 0.937388 10.926 0.383706 11.8854C-0.169976 12.8447 -0.124674 14.0795 0.52112 15.5548C1.31237 17.1835 2.36143 18.6738 3.62778 19.9681H3.62727Z" fill="#001938"/>
</svg>
