<svg width="40" height="46" viewBox="0 0 40 46" fill="none" xmlns="http://www.w3.org/2000/svg">
<path fill-rule="evenodd" clip-rule="evenodd" d="M19.9991 19.7398C20.5749 19.7398 21.1376 19.9105 21.6163 20.2303C22.095 20.5502 22.4681 21.0048 22.6884 21.5367C22.9087 22.0686 22.9664 22.6539 22.8541 23.2185C22.7418 23.7832 22.4645 24.3018 22.0574 24.7089C21.6503 25.116 21.1317 25.3932 20.567 25.5055C20.0024 25.6179 19.4171 25.5602 18.8852 25.3399C18.3533 25.1196 17.8987 24.7465 17.5789 24.2678C17.259 23.7891 17.0883 23.2263 17.0883 22.6506C17.0891 21.8789 17.396 21.1389 17.9417 20.5932C18.4875 20.0475 19.2274 19.7406 19.9991 19.7398ZM19.9991 26.623C20.7848 26.623 21.5528 26.3901 22.2061 25.9536C22.8594 25.5171 23.3685 24.8967 23.6692 24.1708C23.9698 23.4449 24.0485 22.6462 23.8952 21.8756C23.742 21.1051 23.3636 20.3973 22.8081 19.8417C22.2525 19.2861 21.5447 18.9078 20.7741 18.7545C20.0036 18.6013 19.2048 18.6799 18.479 18.9806C17.7531 19.2813 17.1327 19.7904 16.6962 20.4437C16.2597 21.0969 16.0267 21.865 16.0267 22.6506C16.0278 23.7038 16.4467 24.7136 17.1914 25.4584C17.9361 26.2031 18.9459 26.622 19.9991 26.623ZM1.30282 11.8558C2.08452 10.5013 4.80712 10.2366 8.77199 11.1295C10.3214 11.488 11.8468 11.943 13.3394 12.4921C13.0409 14.3645 12.827 16.3633 12.7041 18.4411C10.9751 19.5827 9.34882 20.7696 7.87502 21.9646C6.65249 20.9453 5.49472 19.8507 4.40847 18.6873C1.65214 15.7044 0.51961 13.2114 1.30282 11.8558ZM15.6356 7.16766C16.8437 3.28736 18.4337 1.06156 19.9991 1.06156C21.2072 1.06156 22.2164 2.36573 22.912 3.6241C22.4307 3.94483 22.052 4.39753 21.8214 4.92798C21.5907 5.45843 21.518 6.04412 21.6117 6.61489C21.7055 7.18565 21.9618 7.71728 22.35 8.14608C22.7382 8.57489 23.2418 8.88267 23.8004 9.03256C24.1584 9.13062 24.5319 9.15949 24.9007 9.11763C25.1096 9.9703 25.2969 10.8688 25.4635 11.8055C23.6952 12.482 21.858 13.2954 19.9991 14.2266C18.1393 13.2949 16.3016 12.481 14.5323 11.804C14.8025 10.237 15.171 8.68845 15.6356 7.16766ZM26.2643 5.15427C26.0718 4.82086 25.7848 4.55201 25.4395 4.38173C25.0942 4.21145 24.7062 4.14739 24.3245 4.19764C23.9428 4.24789 23.5846 4.41021 23.2952 4.66406C23.0057 4.9179 22.7981 5.25188 22.6985 5.62375C22.5988 5.99563 22.6117 6.38869 22.7355 6.75324C22.8593 7.11778 23.0884 7.43743 23.3938 7.67177C23.6993 7.9061 24.0674 8.04459 24.4515 8.06972C24.8357 8.09485 25.2187 8.0055 25.5521 7.81295C25.9987 7.55452 26.3246 7.12941 26.4581 6.63094C26.5917 6.13248 26.522 5.60139 26.2643 5.15427ZM31.2263 11.13C35.1902 10.2371 37.9133 10.5018 38.6955 11.8563C39.4777 13.2108 38.3461 15.7044 35.5903 18.6878C34.5049 19.8496 33.3478 20.9423 32.1258 21.9595C30.6545 20.7651 29.0302 19.5802 27.2937 18.4361C27.1688 16.3683 26.9544 14.366 26.6564 12.4926C28.1502 11.9432 29.6768 11.4876 31.2273 11.1285L31.2263 11.13ZM35.5903 26.6135C38.3461 29.6003 39.4777 32.0899 38.6955 33.4459C38.0915 34.4904 36.4581 34.7133 35.021 34.6862C34.9781 34.0141 34.7109 33.3759 34.2621 32.8738C33.8134 32.3717 33.2091 32.0347 32.5461 31.9168C31.8831 31.7989 31.1997 31.907 30.6054 32.2236C30.0111 32.5403 29.5402 33.0473 29.2683 33.6634C28.4257 33.4172 27.5534 33.1303 26.6594 32.8077C26.9579 30.9372 27.1708 28.9404 27.2942 26.8651C29.0317 25.72 30.6555 24.5352 32.1263 23.3417C33.3482 24.3591 34.5048 25.4518 35.5903 26.6135ZM32.0191 36.8254C32.4042 36.8255 32.7806 36.7114 33.1009 36.4975C33.4211 36.2836 33.6707 35.9796 33.8182 35.6238C33.9656 35.2681 34.0042 34.8766 33.9292 34.4989C33.8541 34.1212 33.6687 33.7743 33.3965 33.5019C33.1242 33.2296 32.7773 33.0441 32.3996 32.9689C32.0219 32.8938 31.6304 32.9323 31.2746 33.0796C30.9188 33.227 30.6147 33.4765 30.4008 33.7967C30.1868 34.1169 30.0726 34.4933 30.0726 34.8784C30.0732 35.3945 30.2784 35.8894 30.6433 36.2544C31.0082 36.6194 31.503 36.8247 32.0191 36.8254ZM24.3632 38.1341C23.1551 42.0144 21.5641 44.2402 19.9991 44.2402C18.4342 44.2402 16.8437 42.0144 15.6356 38.1341C15.171 36.6133 14.8025 35.0648 14.5323 33.4978C16.3016 32.8203 18.1398 32.0063 20.0017 31.0736C21.8545 31.9998 23.6957 32.8147 25.467 33.4942C25.1959 35.0621 24.8272 36.6121 24.3632 38.1341ZM12.6387 25.5429C12.5994 24.591 12.5803 23.6251 12.5803 22.6506C12.5803 21.6761 12.5994 20.7127 12.6372 19.7624C11.2449 20.7057 9.92566 21.6751 8.71108 22.6531C9.92314 23.6281 11.2384 24.5971 12.6372 25.5429H12.6387ZM18.8238 30.4701C17.9772 30.0272 17.1326 29.5624 16.29 29.0758C15.4474 28.5893 14.6221 28.0903 13.814 27.5789C13.9338 29.2641 14.116 30.8904 14.3541 32.4281C15.8063 31.8664 17.3052 31.2105 18.8238 30.4701ZM26.1848 27.5789C25.3794 28.089 24.5541 28.5878 23.7088 29.0753C22.8635 29.5629 22.0201 30.0277 21.1785 30.4696C22.6926 31.205 24.192 31.8604 25.6447 32.4236C25.8838 30.8874 26.0645 29.2626 26.1848 27.5789ZM27.3586 19.7579C27.3983 20.7142 27.418 21.6797 27.418 22.6506C27.418 23.6216 27.3983 24.591 27.3596 25.5429C28.7594 24.5966 30.0777 23.6266 31.2902 22.6506C30.0767 21.6741 28.7594 20.7042 27.3586 19.7579ZM21.175 14.8296C22.0182 15.2726 22.8625 15.7378 23.7078 16.2254C24.5531 16.713 25.3776 17.2104 26.1813 17.7178C26.0605 16.0392 25.8792 14.4118 25.6407 12.8721C24.19 13.4338 22.6926 14.0897 21.175 14.8276V14.8296ZM13.8135 17.7229C14.6222 17.2115 15.4477 16.7123 16.29 16.2254C17.1322 15.7385 17.9767 15.2732 18.8233 14.8296C17.3042 14.0907 15.8032 13.4348 14.3541 12.8726C14.1145 14.4113 13.9338 16.0371 13.8135 17.7229ZM16.821 17.145C15.764 17.7541 14.7336 18.3873 13.734 19.0356C13.6726 20.219 13.6419 21.427 13.6419 22.6506C13.6419 23.8743 13.6726 25.0838 13.734 26.2677C14.7293 26.9126 15.7583 27.542 16.821 28.1557C17.8755 28.7653 18.9421 29.3451 19.9991 29.8837C21.0552 29.3448 22.1144 28.7688 23.1768 28.1557C24.2392 27.5427 25.2678 26.9133 26.2628 26.2677C26.3237 25.0838 26.3549 23.8748 26.3549 22.6506C26.3549 21.4265 26.3227 20.222 26.2613 19.0321C25.2667 18.3878 24.2382 17.7588 23.1758 17.145C22.1172 16.5329 21.0562 15.9561 19.9991 15.416C18.9421 15.9556 17.8811 16.5329 16.821 17.145ZM8.7745 34.1712C4.80964 35.0652 2.08703 34.8004 1.30533 33.4454C0.701318 32.4 1.32547 30.8733 2.06791 29.6421C2.48062 29.8481 2.9355 29.9554 3.39674 29.9557C3.66154 29.9553 3.92516 29.9205 4.18096 29.852C4.65313 29.7255 5.08736 29.4859 5.44605 29.1538C5.80474 28.8217 6.07708 28.4072 6.23948 27.9461C6.40189 27.4851 6.44947 26.9914 6.37811 26.5078C6.30675 26.0243 6.11859 25.5654 5.82992 25.1709C6.46414 24.5638 7.1492 23.9513 7.87754 23.3397C9.34782 24.5331 10.9706 25.717 12.7067 26.8631C12.8295 28.9404 13.0434 30.9402 13.3419 32.8097C11.8493 33.3584 10.3239 33.8131 8.7745 34.1712ZM1.71456 25.9727C1.48819 26.3635 1.40439 26.8206 1.47743 27.2662C1.55047 27.7119 1.77583 28.1184 2.11508 28.4164C2.45434 28.7144 2.88647 28.8856 3.3378 28.9006C3.78912 28.9156 4.23168 28.7736 4.59001 28.4988C4.94833 28.224 5.20023 27.8334 5.30274 27.3936C5.40526 26.9538 5.35204 26.4921 5.15217 26.0872C4.95229 25.6822 4.61814 25.3592 4.20669 25.1731C3.79524 24.987 3.33198 24.9494 2.89591 25.0667C2.64885 25.132 2.41721 25.2458 2.21442 25.4013C2.01164 25.5568 1.84173 25.751 1.71456 25.9727ZM3.62727 19.4081C4.69996 20.5568 5.84112 21.6396 7.0445 22.6506C6.33981 23.2476 5.6759 23.8441 5.05879 24.4365C5.00846 24.4033 4.95813 24.3706 4.90376 24.3399C4.27842 23.9793 3.54429 23.8555 2.8353 23.9912C2.12631 24.1268 1.4897 24.5128 1.04162 25.0787C0.593529 25.6447 0.363823 26.3528 0.394401 27.074C0.424979 27.7952 0.713805 28.4814 1.20819 29.0074C-0.0340719 31.0424 -0.322993 32.7533 0.383706 33.9759C0.937388 34.9348 2.02965 35.5121 3.62979 35.6908C4.0071 35.7315 4.38636 35.7511 4.76585 35.7497C6.19481 35.7237 7.61664 35.5415 9.00604 35.2066C10.5367 34.8536 12.0443 34.4074 13.5206 33.8707C13.7948 35.4184 14.1624 36.948 14.6214 38.4512C15.1087 40.1956 15.8751 41.8497 16.891 43.3493C17.8453 44.6439 18.8918 45.3012 19.9991 45.3012C21.1065 45.3012 22.1525 44.6439 23.1073 43.3472C24.123 41.8476 24.8894 40.1936 25.3769 38.4492C25.8357 36.9459 26.2033 35.4163 26.4777 33.8687C27.3465 34.1808 28.1957 34.4581 29.0166 34.6957C29.0136 34.7561 29.0111 34.817 29.0111 34.8789C29.0106 35.6012 29.27 36.2995 29.7419 36.8463C30.2139 37.3931 30.8668 37.7518 31.5813 37.8569C32.2959 37.962 33.0244 37.8065 33.6338 37.4188C34.2432 37.031 34.6927 36.437 34.9002 35.7452C35.009 35.7477 35.1172 35.7492 35.2234 35.7492C37.4311 35.7492 38.9421 35.1427 39.6151 33.9764C40.1688 33.0166 40.1235 31.7823 39.4777 30.307C38.6864 28.678 37.6372 27.1875 36.3705 25.8932C35.2988 24.7442 34.1583 23.6613 32.9553 22.6506C34.1582 21.64 35.2986 20.5572 36.37 19.4081C37.6372 18.114 38.687 16.6237 39.4787 14.9947C40.1245 13.5194 40.1703 12.2847 39.6161 11.3253C39.0619 10.3659 37.9696 9.78859 36.37 9.61041C34.5636 9.48083 32.7481 9.64417 30.9938 10.0941C29.4625 10.4481 27.954 10.8945 26.4767 11.431C26.3116 10.525 26.1244 9.64916 25.923 8.81814C25.9777 8.79096 26.0316 8.76227 26.0846 8.73207C26.7101 8.37117 27.1849 7.79729 27.4222 7.11527C27.6596 6.43324 27.6436 5.68859 27.3773 5.01735C27.111 4.3461 26.6121 3.79307 25.9717 3.45927C25.3314 3.12547 24.5923 3.03318 23.8895 3.19927C22.7499 1.10384 21.4115 0 19.9991 0C18.8918 0 17.8453 0.657371 16.891 1.95399C15.8751 3.45335 15.1087 5.10727 14.6214 6.85156C14.1625 8.35481 13.7949 9.88442 13.5206 11.432C12.0441 10.896 10.5365 10.4499 9.00604 10.0961C7.25174 9.64619 5.43623 9.48284 3.62979 9.61242C2.02965 9.7891 0.937388 10.3659 0.383706 11.3253C-0.169976 12.2847 -0.124674 13.5194 0.52112 14.9947C1.31237 16.6235 2.36143 18.1137 3.62778 19.4081H3.62727Z" fill="#FAFAFA"/>
</svg>
