<svg width="40" height="40" viewBox="0 0 40 40" fill="none" xmlns="http://www.w3.org/2000/svg">
<g id="Frame">
<path id="Vector" d="M35 31.25H33.75V6.25C33.75 5.91848 33.6183 5.60054 33.3839 5.36612C33.1495 5.1317 32.8315 5 32.5 5H23.75C23.4185 5 23.1005 5.1317 22.8661 5.36612C22.6317 5.60054 22.5 5.91848 22.5 6.25V12.5H15C14.6685 12.5 14.3505 12.6317 14.1161 12.8661C13.8817 13.1005 13.75 13.4185 13.75 13.75V20H7.5C7.16848 20 6.85054 20.1317 6.61612 20.3661C6.3817 20.6005 6.25 20.9185 6.25 21.25V31.25H5C4.66848 31.25 4.35054 31.3817 4.11612 31.6161C3.8817 31.8505 3.75 32.1685 3.75 32.5C3.75 32.8315 3.8817 33.1495 4.11612 33.3839C4.35054 33.6183 4.66848 33.75 5 33.75H35C35.3315 33.75 35.6495 33.6183 35.8839 33.3839C36.1183 33.1495 36.25 32.8315 36.25 32.5C36.25 32.1685 36.1183 31.8505 35.8839 31.6161C35.6495 31.3817 35.3315 31.25 35 31.25ZM25 7.5H31.25V31.25H25V7.5ZM16.25 15H22.5V31.25H16.25V15ZM8.75 22.5H13.75V31.25H8.75V22.5Z" fill="#001938"/>
</g>
</svg>
