<svg width="60" height="61" viewBox="0 0 60 61" fill="none" xmlns="http://www.w3.org/2000/svg">
<g id="Frame 1321315652">
<g id="Group">
<g id="Group_2">
<path id="Vector" fill-rule="evenodd" clip-rule="evenodd" d="M25.8201 33.4444L30.0151 35.5344L34.2098 33.4444V27.9674L30.0151 25.8774L25.8201 27.9674V33.4444ZM30.0151 36.647C29.9348 36.647 29.8544 36.6279 29.7805 36.5914L25.0605 34.2396C24.8826 34.1511 24.7695 33.9688 24.7695 33.77L24.7696 27.6419C24.7696 27.4431 24.8826 27.2608 25.0604 27.1724L29.7805 24.8205C29.9283 24.7467 30.1015 24.7467 30.2493 24.8205L34.9694 27.1723C35.1481 27.2607 35.2603 27.4432 35.2603 27.642L35.2603 33.7699C35.2603 33.9687 35.1481 34.1512 34.9694 34.2396L30.2494 36.5914C30.1755 36.6278 30.0951 36.6471 30.0151 36.647Z" fill="#001938"/>
<path id="Vector_2" fill-rule="evenodd" clip-rule="evenodd" d="M30.0149 30.5201C29.9347 30.5201 29.8542 30.5019 29.7803 30.4654L25.0604 28.1127C24.8004 27.9831 24.6955 27.6677 24.825 27.4078C24.9537 27.1488 25.2691 27.043 25.529 27.1725L30.0149 29.4085L34.5006 27.1725C34.7603 27.043 35.0759 27.1488 35.2053 27.4078C35.335 27.6677 35.2291 27.9832 34.9692 28.1127L30.2492 30.4654C30.1754 30.5018 30.095 30.5201 30.0149 30.5201Z" fill="#001938"/>
<path id="Vector_3" fill-rule="evenodd" clip-rule="evenodd" d="M44.7715 34.4349C44.4813 34.4349 44.2461 34.1997 44.2461 33.9097L44.2462 27.6039C44.2462 27.3138 44.4813 27.0786 44.7714 27.0786C45.0614 27.0786 45.2966 27.3139 45.2966 27.6039L45.2967 33.9096C45.2967 34.1996 45.0613 34.435 44.7715 34.4349Z" fill="#001938"/>
<path id="Vector_4" fill-rule="evenodd" clip-rule="evenodd" d="M11.0497 24.9274L15.2455 27.0183L19.4402 24.9274V19.4513L15.2455 17.3604L11.0497 19.4513V24.9274ZM15.2455 28.1299C15.1653 28.1299 15.0848 28.1117 15.011 28.0753L10.291 25.7225C10.1122 25.6332 10 25.4517 10 25.252V19.1258C10 18.927 10.1122 18.7446 10.2909 18.6562L15.0112 16.3035C15.1579 16.2295 15.332 16.2296 15.4797 16.3035L20.1998 18.6562C20.3777 18.7446 20.4907 18.927 20.4907 19.1258L20.4907 25.2519C20.4907 25.4517 20.3776 25.6332 20.1998 25.7226L15.4798 28.0752C15.4059 28.1117 15.3256 28.13 15.2455 28.1299Z" fill="#001938"/>
<path id="Vector_5" fill-rule="evenodd" clip-rule="evenodd" d="M15.246 22.0029C15.1658 22.0029 15.0854 21.9847 15.0115 21.9482L10.2915 19.5963C10.0316 19.4669 9.92578 19.1514 10.0553 18.8915C10.1848 18.6325 10.5003 18.5267 10.7593 18.6553L15.246 20.8904L19.7318 18.6553C19.9907 18.5267 20.3062 18.6325 20.4356 18.8915C20.5652 19.1514 20.4594 19.4669 20.1995 19.5964L15.4795 21.9482C15.4065 21.9846 15.3262 22.0029 15.246 22.0029Z" fill="#001938"/>
<path id="Vector_6" fill-rule="evenodd" clip-rule="evenodd" d="M15.2324 28.1297C14.9415 28.1297 14.707 27.8945 14.707 27.6045L14.7071 21.4773C14.7071 21.1873 14.9414 20.9521 15.2323 20.9521C15.5223 20.9521 15.7576 21.1874 15.7576 21.4774L15.7577 27.6044C15.7577 27.8944 15.5223 28.1297 15.2324 28.1297Z" fill="#001938"/>
<path id="Vector_7" fill-rule="evenodd" clip-rule="evenodd" d="M11.0497 42.0643L15.2455 44.1543L19.4402 42.0643V36.5874L15.2455 34.4964L11.0497 36.5874V42.0643ZM15.2455 45.2669C15.1653 45.2669 15.0848 45.2487 15.011 45.2122L10.291 42.8594C10.1122 42.7701 10 42.5877 10 42.3889V36.2627C10 36.063 10.1122 35.8816 10.2909 35.7922L15.0112 33.4395C15.1579 33.3665 15.332 33.3665 15.4797 33.4395L20.1998 35.7922C20.3777 35.8815 20.4907 36.063 20.4907 36.2628L20.4907 42.3889C20.4907 42.5877 20.3776 42.7701 20.1998 42.8595L15.4798 45.2121C15.4059 45.2486 15.3256 45.2669 15.2455 45.2669Z" fill="#001938"/>
<path id="Vector_8" fill-rule="evenodd" clip-rule="evenodd" d="M15.246 39.1406C15.1658 39.1406 15.0854 39.1224 15.0115 39.085L10.2915 36.7322C10.0316 36.6037 9.92578 36.2882 10.0553 36.0283C10.1848 35.7684 10.5003 35.6635 10.7593 35.7921L15.246 38.0281L19.7318 35.7921C19.9907 35.6626 20.3062 35.7684 20.4356 36.0283C20.5652 36.2881 20.4594 36.6037 20.2004 36.7323L15.4804 39.085C15.4065 39.1223 15.3262 39.1406 15.246 39.1406Z" fill="#001938"/>
<path id="Vector_9" fill-rule="evenodd" clip-rule="evenodd" d="M15.2324 45.2665C14.9415 45.2665 14.707 45.0313 14.707 44.7413L14.7071 38.6151C14.7071 38.325 14.9414 38.0898 15.2323 38.0898C15.5223 38.0898 15.7576 38.3251 15.7576 38.6151L15.7577 44.7413C15.7577 45.0312 15.5223 45.2665 15.2324 45.2665Z" fill="#001938"/>
<path id="Vector_10" fill-rule="evenodd" clip-rule="evenodd" d="M40.5583 24.9278L44.7533 27.0188L48.948 24.9278V19.4518L44.7533 17.3608L40.5583 19.4518V24.9278ZM44.7533 28.1304C44.6731 28.1304 44.5927 28.1122 44.5188 28.0758L39.7988 25.723C39.6201 25.6336 39.5078 25.4522 39.5078 25.2525V19.1263C39.5078 18.9275 39.62 18.7451 39.7987 18.6567L44.519 16.304C44.6667 16.23 44.8398 16.2301 44.9875 16.304L49.7076 18.6567C49.8855 18.7451 49.9985 18.9275 49.9985 19.1263L49.9986 25.2524C49.9986 25.4522 49.8854 25.6337 49.7076 25.723L44.9876 28.0757C44.9137 28.1122 44.8334 28.1304 44.7533 28.1304Z" fill="#001938"/>
<path id="Vector_11" fill-rule="evenodd" clip-rule="evenodd" d="M44.7539 22.0034C44.6736 22.0034 44.5932 21.9852 44.5193 21.9487L39.7993 19.5968C39.5394 19.4674 39.4336 19.1519 39.5631 18.892C39.6926 18.633 40.0081 18.5272 40.268 18.6558L44.7539 20.8909L49.2395 18.6558C49.4995 18.5272 49.8149 18.633 49.9444 18.892C50.073 19.1519 49.9681 19.4674 49.7082 19.5969L44.9882 21.9487C44.9143 21.9851 44.834 22.0034 44.7539 22.0034Z" fill="#001938"/>
<path id="Vector_12" fill-rule="evenodd" clip-rule="evenodd" d="M44.7715 28.1297C44.4813 28.1297 44.2461 27.8945 44.2461 27.6045L44.2462 21.4773C44.2462 21.1873 44.4813 20.9521 44.7714 20.9521C45.0614 20.9521 45.2966 21.1874 45.2966 21.4774L45.2967 27.6044C45.2967 27.8944 45.0613 28.1297 44.7715 28.1297Z" fill="#001938"/>
<path id="Vector_13" fill-rule="evenodd" clip-rule="evenodd" d="M40.5583 42.0638L44.7533 44.1538L48.948 42.0638V36.5869L44.7533 34.4959L40.5583 36.5869V42.0638ZM44.7533 45.2664C44.6731 45.2664 44.5927 45.2482 44.5188 45.2117L39.7988 42.859C39.6201 42.7696 39.5078 42.5872 39.5078 42.3884V36.2622C39.5078 36.0625 39.62 35.8811 39.7987 35.7917L44.519 33.439C44.6667 33.366 44.8398 33.366 44.9875 33.439L49.7076 35.7917C49.8855 35.881 49.9985 36.0625 49.9985 36.2623L49.9986 42.3884C49.9986 42.5872 49.8854 42.7696 49.7076 42.859L44.9876 45.2116C44.9137 45.2481 44.8334 45.2664 44.7533 45.2664Z" fill="#001938"/>
<path id="Vector_14" fill-rule="evenodd" clip-rule="evenodd" d="M44.7539 39.1406C44.6736 39.1406 44.5932 39.1224 44.5193 39.085L39.7993 36.7322C39.5394 36.6037 39.4336 36.2882 39.5631 36.0283C39.6926 35.7684 40.0081 35.6635 40.268 35.7921L44.7539 38.0281L49.2395 35.7921C49.4995 35.6626 49.8149 35.7684 49.9444 36.0283C50.073 36.2881 49.9681 36.6037 49.7082 36.7323L44.9882 39.085C44.9143 39.1223 44.834 39.1406 44.7539 39.1406Z" fill="#001938"/>
<path id="Vector_15" fill-rule="evenodd" clip-rule="evenodd" d="M44.7715 45.2665C44.4813 45.2665 44.2461 45.0313 44.2461 44.7413L44.2462 38.6151C44.2462 38.325 44.4813 38.0898 44.7714 38.0898C45.0614 38.0898 45.2966 38.3251 45.2966 38.6151L45.2967 44.7413C45.2967 45.0312 45.0613 45.2665 44.7715 45.2665Z" fill="#001938"/>
<path id="Vector_16" fill-rule="evenodd" clip-rule="evenodd" d="M25.8201 16.4486L30.0151 18.5386L34.2098 16.4486V10.9716L30.0151 8.88064L25.8201 10.9716V16.4486ZM30.0151 19.6512C29.9348 19.6512 29.8544 19.6329 29.7805 19.5965L25.0605 17.2437C24.8826 17.1544 24.7695 16.972 24.7695 16.7732L24.7696 10.647C24.7696 10.4473 24.8826 10.2659 25.0604 10.1765L29.7805 7.82375C29.9283 7.7508 30.1024 7.7508 30.2493 7.82378L34.9694 10.1764C35.1481 10.2658 35.2603 10.4473 35.2603 10.647L35.2603 16.7731C35.2603 16.972 35.1481 17.1544 34.9694 17.2438L30.2494 19.5964C30.1755 19.6329 30.0951 19.6512 30.0151 19.6512Z" fill="#001938"/>
<path id="Vector_17" fill-rule="evenodd" clip-rule="evenodd" d="M30.0147 13.524C29.9345 13.524 29.854 13.5058 29.7802 13.4684L25.0602 11.1166C24.8013 10.9879 24.6953 10.6725 24.8248 10.4126C24.9535 10.1527 25.2689 10.0478 25.5288 10.1764L30.0147 12.4115L34.5004 10.1764C34.7602 10.0469 35.0757 10.1527 35.2052 10.4126C35.3349 10.6725 35.2289 10.988 34.969 11.1166L30.249 13.4684C30.1752 13.5057 30.0948 13.524 30.0147 13.524Z" fill="#001938"/>
<path id="Vector_18" fill-rule="evenodd" clip-rule="evenodd" d="M25.8201 50.4405L30.0151 52.5315L34.2098 50.4405V44.9635L30.0151 42.8735L25.8201 44.9635V50.4405ZM30.0151 53.6431C29.9348 53.6431 29.8544 53.6249 29.7805 53.5884L25.0605 51.2356C24.8826 51.1463 24.7695 50.9649 24.7695 50.7652L24.7696 44.639C24.7696 44.4401 24.8826 44.2578 25.0604 44.1694L29.7805 41.8166C29.9283 41.7428 30.1024 41.7428 30.2493 41.8167L34.9694 44.1693C35.1481 44.2577 35.2603 44.4402 35.2603 44.639L35.2603 50.7651C35.2603 50.9648 35.1481 51.1463 34.9694 51.2357L30.2494 53.5884C30.1755 53.6249 30.0951 53.6432 30.0151 53.6431Z" fill="#001938"/>
<path id="Vector_19" fill-rule="evenodd" clip-rule="evenodd" d="M30.0149 47.5168C29.9347 47.5168 29.8542 47.4987 29.7803 47.4622L25.0604 45.1094C24.8004 44.9799 24.6955 44.6644 24.825 44.4046C24.9537 44.1446 25.2691 44.0398 25.529 44.1693L30.0149 46.4053L34.5006 44.1692C34.7603 44.0397 35.0759 44.1447 35.2053 44.4046C35.335 44.6644 35.2291 44.9799 34.9692 45.1094L30.2492 47.4621C30.1754 47.4987 30.095 47.5169 30.0149 47.5168Z" fill="#001938"/>
<path id="Vector_20" fill-rule="evenodd" clip-rule="evenodd" d="M30.002 53.6435C29.7119 53.6435 29.4766 53.4082 29.4766 53.1182L29.4767 46.992C29.4767 46.702 29.7118 46.4668 30.0018 46.4668C30.2919 46.4667 30.5271 46.7021 30.5271 46.9921L30.5273 53.1182C30.5273 53.4081 30.2918 53.6435 30.002 53.6435Z" fill="#001938"/>
<path id="Vector_21" fill-rule="evenodd" clip-rule="evenodd" d="M25.6415 44.9933C25.553 44.9933 25.4627 44.9705 25.3797 44.9222L19.7121 41.6502C19.4606 41.5053 19.3747 41.1843 19.5197 40.9326C19.6647 40.6818 19.9857 40.5952 20.2374 40.7402L25.9049 44.013C26.1559 44.158 26.2423 44.479 26.0974 44.7298C25.9999 44.8984 25.8228 44.9933 25.6415 44.9933Z" fill="#001938"/>
<path id="Vector_22" fill-rule="evenodd" clip-rule="evenodd" d="M15.2324 34.4349C14.9415 34.4349 14.707 34.1997 14.707 33.9097L14.7071 27.6039C14.7071 27.3138 14.9414 27.0786 15.2323 27.0786C15.5223 27.0786 15.7576 27.3139 15.7576 27.6039L15.7577 33.9096C15.7577 34.1996 15.5223 34.435 15.2324 34.4349Z" fill="#001938"/>
<path id="Vector_23" fill-rule="evenodd" clip-rule="evenodd" d="M19.5643 19.4545C19.2744 19.4545 19.0391 19.2192 19.0391 18.9292C19.0391 18.7258 19.154 18.5498 19.3227 18.4623L25.0177 15.173C25.2694 15.028 25.5903 15.1138 25.7353 15.3655C25.8805 15.6162 25.7945 15.9372 25.5429 16.0832L19.828 19.3842C19.7478 19.4298 19.6574 19.4545 19.5643 19.4545Z" fill="#001938"/>
<path id="Vector_24" fill-rule="evenodd" clip-rule="evenodd" d="M40.4591 19.4538C40.3706 19.4538 40.2803 19.431 40.1973 19.3836L34.4815 16.0833C34.2308 15.9384 34.144 15.6165 34.289 15.3657C34.4349 15.1149 34.755 15.0284 35.0067 15.1733L40.7227 18.4735C40.9745 18.6184 41.06 18.9404 40.915 19.1912C40.8175 19.3598 40.6414 19.4538 40.4591 19.4538Z" fill="#001938"/>
<path id="Vector_25" fill-rule="evenodd" clip-rule="evenodd" d="M34.389 44.9915C34.2074 44.9915 34.0313 44.8976 33.9337 44.7289C33.7888 44.4781 33.8745 44.1562 34.1262 44.0112L39.7928 40.7402C40.0446 40.5952 40.3655 40.6819 40.5105 40.9326C40.6556 41.1843 40.5689 41.5053 40.3181 41.6503L34.6516 44.9213C34.5685 44.9687 34.4782 44.9915 34.389 44.9915Z" fill="#001938"/>
<path id="Vector_26" fill-rule="evenodd" clip-rule="evenodd" d="M30.002 25.8157C29.7119 25.8157 29.4766 25.5814 29.4766 25.2914L29.4767 12.9988C29.4767 12.7088 29.7118 12.4736 30.0018 12.4736C30.2919 12.4736 30.5271 12.7089 30.5271 12.9989L30.5273 25.2913C30.5273 25.5814 30.2918 25.8157 30.002 25.8157Z" fill="#001938"/>
<path id="Vector_27" fill-rule="evenodd" clip-rule="evenodd" d="M30.002 42.8118C29.7119 42.8118 29.4766 42.5765 29.4766 42.2865L29.4767 29.9949C29.4767 29.705 29.7118 29.4697 30.0018 29.4697C30.2919 29.4697 30.5271 29.705 30.5271 29.995L30.5273 42.2865C30.5273 42.5765 30.2918 42.8118 30.002 42.8118Z" fill="#001938"/>
</g>
</g>
</g>
</svg>
