<svg width="33" height="33" viewBox="0 0 33 33" fill="none" xmlns="http://www.w3.org/2000/svg">
<g id="Frame">
<path id="Vector" d="M18.582 11.9998C18.582 11.7526 18.6553 11.5109 18.7927 11.3054C18.93 11.0998 19.1253 10.9396 19.3537 10.845C19.5821 10.7504 19.8334 10.7256 20.0759 10.7738C20.3184 10.8221 20.5411 10.9411 20.7159 11.1159C20.8907 11.2908 21.0098 11.5135 21.058 11.756C21.1062 11.9984 21.0815 12.2498 20.9869 12.4782C20.8923 12.7066 20.7321 12.9018 20.5265 13.0392C20.3209 13.1765 20.0793 13.2498 19.832 13.2498C19.5005 13.2498 19.1826 13.1181 18.9481 12.8837C18.7137 12.6493 18.582 12.3313 18.582 11.9998ZM12.832 10.7498C12.5848 10.7498 12.3431 10.8231 12.1376 10.9605C11.932 11.0978 11.7718 11.2931 11.6772 11.5215C11.5826 11.7499 11.5578 12.0012 11.606 12.2437C11.6543 12.4862 11.7733 12.7089 11.9481 12.8837C12.123 13.0585 12.3457 13.1776 12.5882 13.2258C12.8306 13.274 13.082 13.2493 13.3104 13.1547C13.5388 13.0601 13.734 12.8999 13.8714 12.6943C14.0087 12.4887 14.082 12.2471 14.082 11.9998C14.082 11.6683 13.9503 11.3504 13.7159 11.1159C13.4815 10.8815 13.1636 10.7498 12.832 10.7498ZM31.082 16.4998C31.082 16.6987 31.003 16.8895 30.8624 17.0302C30.7217 17.1708 30.5309 17.2498 30.332 17.2498H27.082V18.4998C27.0818 19.5185 26.9366 20.532 26.6508 21.5098L29.632 22.8123C29.8144 22.8919 29.9576 23.0406 30.0303 23.2258C30.103 23.411 30.0991 23.6175 30.0195 23.7998C29.94 23.9822 29.7912 24.1254 29.606 24.1981C29.4208 24.2708 29.2144 24.2669 29.032 24.1873L26.1283 22.9186C25.2767 24.8032 23.8995 26.4022 22.1619 27.5237C20.4243 28.6453 18.4001 29.2418 16.332 29.2418C14.2639 29.2418 12.2397 28.6453 10.5021 27.5237C8.76458 26.4022 7.3874 24.8032 6.53578 22.9186L3.63203 24.1873C3.54175 24.2267 3.44459 24.2479 3.3461 24.2498C3.24761 24.2516 3.14973 24.2341 3.05803 24.1981C2.96633 24.1621 2.88262 24.1084 2.81167 24.0401C2.74072 23.9718 2.68393 23.8901 2.64453 23.7998C2.56497 23.6175 2.56109 23.411 2.63376 23.2258C2.70643 23.0406 2.84969 22.8919 3.03203 22.8123L6.01328 21.5098C5.72744 20.532 5.58223 19.5185 5.58203 18.4998V17.2498H2.33203C2.13312 17.2498 1.94235 17.1708 1.8017 17.0302C1.66105 16.8895 1.58203 16.6987 1.58203 16.4998C1.58203 16.3009 1.66105 16.1102 1.8017 15.9695C1.94235 15.8288 2.13312 15.7498 2.33203 15.7498H5.58203V14.4998C5.58223 13.4811 5.72744 12.4676 6.01328 11.4898L3.03203 10.1873C2.84969 10.1078 2.70643 9.95902 2.63376 9.77383C2.56109 9.58864 2.56497 9.38216 2.64453 9.19983C2.7241 9.01749 2.87284 8.87423 3.05803 8.80156C3.24322 8.72889 3.44969 8.73276 3.63203 8.81233L6.53578 10.0811C7.3874 8.19646 8.76458 6.59749 10.5021 5.47593C12.2397 4.35436 14.2639 3.75781 16.332 3.75781C18.4001 3.75781 20.4243 4.35436 22.1619 5.47593C23.8995 6.59749 25.2767 8.19646 26.1283 10.0811L29.032 8.81233C29.2144 8.73276 29.4208 8.72889 29.606 8.80156C29.7912 8.87423 29.94 9.01749 30.0195 9.19983C30.0991 9.38216 30.103 9.58864 30.0303 9.77383C29.9576 9.95902 29.8144 10.1078 29.632 10.1873L26.6508 11.4898C26.9366 12.4676 27.0818 13.4811 27.082 14.4998V15.7498H30.332C30.5309 15.7498 30.7217 15.8288 30.8624 15.9695C31.003 16.1102 31.082 16.3009 31.082 16.4998ZM7.08203 15.7498H25.582V14.4998C25.582 12.0466 24.6075 9.6938 22.8728 7.95909C21.1381 6.22438 18.7853 5.24983 16.332 5.24983C13.8788 5.24983 11.526 6.22438 9.79129 7.95909C8.05658 9.6938 7.08203 12.0466 7.08203 14.4998V15.7498ZM15.582 27.7173V17.2498H7.08203V18.4998C7.08514 20.8221 7.96063 23.0585 9.53496 24.7658C11.1093 26.473 13.2676 27.5264 15.582 27.7173ZM25.582 17.2498H17.082V27.7173C19.3965 27.5264 21.5548 26.473 23.1291 24.7658C24.7034 23.0585 25.5789 20.8221 25.582 18.4998V17.2498Z" fill="#001938"/>
</g>
</svg>
