<svg width="60" height="61" viewBox="0 0 60 61" fill="none" xmlns="http://www.w3.org/2000/svg">
<g id="Frame 1321315633">
<g id="Group 48095509">
<path id="Vector" fill-rule="evenodd" clip-rule="evenodd" d="M32.4028 33.0548C32.4028 32.8181 32.3686 32.5893 32.3048 32.3732L34.036 29.3746C34.2072 29.0781 34.1439 28.7018 33.8851 28.4776C33.6263 28.2534 33.2448 28.2444 32.9757 28.4561L30.1768 30.6586C30.1185 30.6544 30.0596 30.6522 30.0002 30.6522C28.6733 30.6522 27.5977 31.7279 27.5977 33.0548C27.5977 34.3817 28.6733 35.4574 30.0002 35.4574C31.3272 35.4574 32.4028 34.3817 32.4028 33.0548ZM30.0002 32.0808C29.4623 32.0808 29.0262 32.5169 29.0262 33.0548C29.0262 33.5927 29.4623 34.0288 30.0002 34.0288C30.5382 34.0288 30.9742 33.5927 30.9742 33.0548C30.9742 32.5169 30.5382 32.0808 30.0002 32.0808Z" fill="#001938"/>
<path id="Vector_2" fill-rule="evenodd" clip-rule="evenodd" d="M20 33.0547C20 27.5318 24.4771 23.0547 30 23.0547C35.5229 23.0547 40 27.5318 40 33.0547C40 38.5775 35.5229 43.0547 30 43.0547C24.4771 43.0547 20 38.5775 20 33.0547ZM30 24.4833C25.2661 24.4833 21.4286 28.3208 21.4286 33.0547C21.4286 37.7885 25.2661 41.6261 30 41.6261C34.7339 41.6261 38.5714 37.7885 38.5714 33.0547C38.5714 28.3208 34.7339 24.4833 30 24.4833Z" fill="#001938"/>
<path id="Vector_3" fill-rule="evenodd" clip-rule="evenodd" d="M47.8571 18.0548H30.2959L26.6378 14.3967C26.2359 13.9948 25.6909 13.769 25.1226 13.769H12.1429C10.9594 13.769 10 14.7284 10 15.9119V45.9119C10 47.0954 10.9594 48.0548 12.1429 48.0548H47.8571C49.0406 48.0548 50 47.0954 50 45.9119V20.1976C50 19.0141 49.0406 18.0548 47.8571 18.0548ZM12.1429 15.1976C11.7484 15.1976 11.4286 15.5174 11.4286 15.9119V45.9119C11.4286 46.3064 11.7484 46.6262 12.1429 46.6262H47.8571C48.2516 46.6262 48.5714 46.3064 48.5714 45.9119V20.1976C48.5714 19.8031 48.2516 19.4833 47.8571 19.4833H15.7143C15.3198 19.4833 15 19.1635 15 18.769C15 18.3745 15.3198 18.0548 15.7143 18.0548H28.2756L25.6276 15.4068C25.4936 15.2729 25.312 15.1976 25.1226 15.1976H12.1429Z" fill="#001938"/>
</g>
</g>
</svg>
