<svg width="40" height="38" viewBox="0 0 40 38" fill="none" xmlns="http://www.w3.org/2000/svg">
<path fill-rule="evenodd" clip-rule="evenodd" d="M29.6306 11.1113C29.4327 10.9551 29.398 10.6687 29.5542 10.469C29.7105 10.2711 29.9969 10.2364 30.1965 10.3927L31.9273 11.7537L34.6476 8.61155C34.8125 8.42059 35.1006 8.39976 35.2916 8.56467C35.4826 8.72959 35.5034 9.01775 35.3385 9.20871L32.3491 12.6616L32.3456 12.665C32.1894 12.8629 31.903 12.8977 31.7033 12.7414L29.6306 11.1113ZM19.7878 28.5753L25.2665 33.0821L26.2977 31.8287L20.819 27.322L19.7878 28.5753ZM29.4035 26.6102L26.1694 30.5422L22.1055 27.2005L25.3396 23.2685L29.4035 26.6102ZM28.0668 22.2286C28.0599 22.2234 28.0547 22.2182 28.0477 22.213L26.1312 20.6367L25.1 21.89L30.5787 26.3968L31.6099 25.1434L28.0668 22.2286ZM28.5182 4.15174C28.4904 4.16216 28.4609 4.17084 28.4314 4.17605L25.8222 4.92772V9.24162C25.8222 11.3283 26.5148 13.3038 27.7075 14.9025C27.9956 15.2879 28.3133 15.6525 28.6553 15.991C28.664 15.9996 28.6727 16.0066 28.6813 16.0153C29.7229 17.0343 31.0041 17.8207 32.4519 18.2686C34.391 17.6679 36.0315 16.4649 37.1964 14.9025C38.389 13.3019 39.0817 11.3264 39.0817 9.24161V4.92772L32.4502 3.0164L28.5165 4.15L28.5182 4.15174ZM28.8063 31.5194L33.4971 35.3785C33.5769 35.4445 33.6412 35.5174 33.6915 35.599C33.7418 35.6806 33.7783 35.7726 33.8009 35.8733C33.853 36.1041 33.9432 36.3263 34.07 36.5329C34.1915 36.7308 34.3477 36.9114 34.5369 37.0676C35.0022 37.4495 35.5785 37.6057 36.1358 37.5485C36.6913 37.4912 37.226 37.2221 37.6114 36.7551C37.995 36.2881 38.1565 35.71 38.1044 35.1545C38.0541 34.5955 37.7884 34.0609 37.3249 33.6789C37.1357 33.5227 36.9274 33.4047 36.7087 33.3231C36.483 33.238 36.2469 33.1946 36.0108 33.1877C35.9049 33.1842 35.8077 33.1668 35.7192 33.1338C35.6306 33.1009 35.5473 33.0505 35.4657 32.9845L30.027 28.5111C29.9559 28.4521 29.8951 28.3879 29.85 28.3184C29.8031 28.249 29.7666 28.1691 29.7406 28.0806C29.7111 27.9799 29.6746 27.8809 29.633 27.7837L29.6295 27.7751L30.1086 27.1918L30.1711 27.2438C30.3187 27.3654 30.5009 27.4157 30.6763 27.3983C30.8533 27.381 31.0235 27.2959 31.145 27.1501L32.4574 25.5548C32.5789 25.4072 32.6292 25.2249 32.6119 25.0496C32.5945 24.8725 32.5095 24.7024 32.3636 24.5809L28.8083 21.6575V17.354C29.8308 18.1734 31.0183 18.807 32.3255 19.1907C32.414 19.2167 32.506 19.215 32.5893 19.1889C34.7784 18.5449 36.6289 17.2047 37.9325 15.4566C39.2414 13.7015 40 11.535 40 9.24686V4.59077C40 4.36683 39.8386 4.17934 39.625 4.13943L32.5789 2.10834C32.4921 2.08403 32.4036 2.08577 32.322 2.11007L28.8084 3.12213V1.86876C28.8084 1.45212 28.6383 1.0754 28.3657 0.801152C28.0914 0.526866 27.7147 0.358479 27.2981 0.358479L4.63851 0.353271V0.355007C4.50658 0.355007 4.37638 0.412296 4.28611 0.521661L0.135406 5.55061L0.130198 5.55582C0.123254 5.5645 0.11631 5.57144 0.10763 5.58012C0.102422 5.58533 0.0989505 5.59054 0.0954784 5.59574L0.0937426 5.59748L0.0885344 5.60442L0.0867987 5.60616V5.6079L0.0815905 5.61484L0.0798548 5.61658L0.0746466 5.62352L0.0729109 5.62526V5.62699L0.0677027 5.63393L0.0659669 5.63567L0.064231 5.63914L0.0607588 5.64435L0.059023 5.64609V5.64782L0.0538149 5.6565C0.0503432 5.66345 0.0468711 5.66865 0.0451352 5.6756V5.67734L0.0433992 5.67907L0.0364553 5.69643V5.69817L0.0347191 5.6999L0.0312474 5.70685V5.70858L0.0277756 5.71726V5.719L0.0260392 5.72073C0.0225675 5.73115 0.0190954 5.73983 0.0173596 5.75025V5.75198V5.75372L0.0138878 5.7624V5.76413L0.0121514 5.77455V5.77629L0.0104157 5.78497V5.7867V5.78844L0.00867968 5.79885V5.80059L0.00694349 5.811V5.81274L0.00520751 5.82316V5.82489L0.00347174 5.83357V5.83531L0.00173577 5.84572L0 5.85788V5.87003V5.88218V35.0484C0 35.465 0.170125 35.8417 0.442673 36.116C0.716958 36.3903 1.09364 36.5587 1.51028 36.5587H27.2932C27.7098 36.5587 28.0866 36.3885 28.3608 36.116C28.6351 35.8417 28.8035 35.465 28.8035 35.0484V31.5278L28.8063 31.5194ZM28.6032 30.1705C28.6275 30.1862 28.6484 30.2035 28.6692 30.2226L34.0785 34.6721C34.2417 34.8057 34.3719 34.9533 34.4743 35.1182C34.5768 35.2831 34.6497 35.4671 34.6948 35.672C34.7243 35.8057 34.7764 35.9359 34.8493 36.0522C34.9188 36.1667 35.009 36.2709 35.1201 36.3612C35.3892 36.5816 35.7225 36.6719 36.0454 36.6389C36.37 36.6059 36.6842 36.448 36.9082 36.1737C37.1339 35.8994 37.2276 35.5609 37.1981 35.2362C37.1686 34.9133 37.0158 34.6026 36.7467 34.3821C36.6374 34.2919 36.5176 34.2241 36.3926 34.1773C36.2624 34.1287 36.1253 34.1026 35.9881 34.0992C35.7798 34.0939 35.5871 34.0575 35.4031 33.9881C35.2191 33.9186 35.0489 33.8197 34.8893 33.6877L29.4506 29.2143C29.3082 29.0963 29.1902 28.9678 29.093 28.8237C29.0426 28.7473 28.9992 28.6692 28.961 28.5859L27.9299 29.8392C28.0184 29.8601 28.1052 29.8878 28.1868 29.9226C28.3326 29.9833 28.4713 30.0647 28.6032 30.1705ZM1.42975 5.41556L4.30628 1.93147V4.82014C4.30628 4.98332 4.23858 5.13261 4.13095 5.24024C4.02332 5.34788 3.87403 5.41558 3.71084 5.41558L1.42975 5.41556ZM5.2211 1.27005H27.2959C27.459 1.27005 27.6083 1.33776 27.716 1.44539C27.8236 1.55302 27.8913 1.70231 27.8913 1.86549V3.38275L25.2405 4.14661C25.0408 4.2039 24.9106 4.38617 24.9106 4.58408H24.9089V9.24016C24.9089 11.5282 25.6692 13.6945 26.9764 15.4499C27.2577 15.8266 27.5632 16.1842 27.893 16.5192V20.8991L26.5442 19.7881C26.3966 19.6666 26.2143 19.6162 26.039 19.6336C25.8758 19.6492 25.7178 19.7221 25.5998 19.8489L25.5963 19.8523L24.2596 21.4772C24.1381 21.6248 24.0878 21.807 24.1051 21.9824C24.1225 22.1594 24.2075 22.3295 24.3534 22.4511L24.6381 22.6854L21.4039 26.6174L21.2304 26.4751C21.0828 26.3536 20.9005 26.3032 20.7252 26.3206C20.5481 26.3379 20.378 26.423 20.2565 26.5688L18.9441 28.1642C18.8226 28.3117 18.7722 28.494 18.7896 28.6693C18.8069 28.8464 18.892 29.0165 19.0378 29.1381L24.8587 33.9257C25.0063 34.0472 25.1885 34.0975 25.3639 34.0802C25.5409 34.0628 25.7111 33.9795 25.8326 33.8319L27.145 32.2366C27.2665 32.089 27.3168 31.9068 27.2995 31.7314C27.2821 31.5544 27.1971 31.3842 27.0512 31.2627L26.8776 31.1204L27.2613 30.6534L27.27 30.6551C27.3741 30.6777 27.4783 30.6933 27.5842 30.7037C27.6762 30.7124 27.7595 30.7332 27.8376 30.7662C27.8567 30.7732 27.8741 30.7818 27.8932 30.7923V35.0385C27.8932 35.2017 27.8255 35.3509 27.7179 35.4586C27.6102 35.5662 27.4609 35.6339 27.2978 35.6339H1.51484C1.35166 35.6339 1.20237 35.5662 1.09474 35.4586C0.987103 35.3509 0.919402 35.2017 0.919402 35.0385V6.33223H3.71083C4.12747 6.33223 4.50419 6.16211 4.77844 5.88956C5.05272 5.61527 5.22111 5.23859 5.22111 4.82195L5.2211 1.27005ZM12.929 11.7555C12.6755 11.7555 12.4707 11.5506 12.4707 11.2972C12.4707 11.0437 12.6755 10.8389 12.929 10.8389H23.4037C23.6572 10.8389 23.862 11.0438 23.862 11.2972C23.862 11.5506 23.6571 11.7555 23.4037 11.7555H12.929ZM12.929 14.6181C12.6755 14.6181 12.4707 14.4133 12.4707 14.1598C12.4707 13.9064 12.6755 13.7015 12.929 13.7015H24.369C24.6224 13.7015 24.8272 13.9064 24.8272 14.1598C24.8272 14.4133 24.6224 14.6181 24.369 14.6181H12.929ZM9.43616 10.5472V11.1079L7.50226 12.9932L6.14472 11.9256C5.94682 11.7694 5.65862 11.8041 5.50241 12.002C5.34618 12.1999 5.38089 12.4881 5.5788 12.6443L7.25054 13.9584C7.43976 14.1077 7.71059 14.0834 7.87027 13.9081L9.43437 12.3821V14.908H5.07186V10.5455H9.43437L9.43616 10.5472ZM4.61697 9.63061H9.89434C10.1478 9.63061 10.3526 9.83546 10.3526 10.0889V10.2139L10.5592 10.0125C10.7397 9.83718 11.0297 9.84065 11.205 10.0212C11.3803 10.2017 11.3768 10.4916 11.1963 10.667L10.3526 11.4898V15.3663C10.3526 15.6197 10.1478 15.8246 9.89435 15.8246H4.61697C4.36352 15.8246 4.1587 15.6197 4.1587 15.3663V10.0889C4.1587 9.83546 4.36354 9.63061 4.61697 9.63061ZM12.9288 19.9667C12.6753 19.9667 12.4705 19.7619 12.4705 19.5084C12.4705 19.255 12.6753 19.0502 12.9288 19.0502H23.4035C23.657 19.0502 23.8618 19.255 23.8618 19.5084C23.8618 19.7619 23.657 19.9667 23.4035 19.9667H12.9288ZM12.9288 22.8293C12.6753 22.8293 12.4705 22.6245 12.4705 22.3711C12.4705 22.1176 12.6753 21.9128 12.9288 21.9128H22.1365C22.39 21.9128 22.5948 22.1176 22.5948 22.3711C22.5948 22.6245 22.3899 22.8293 22.1365 22.8293H12.9288ZM9.43598 18.7584V19.3192L7.50208 21.2044L6.14454 20.1368C5.94664 19.9806 5.65845 20.0153 5.50223 20.2132C5.346 20.4111 5.38072 20.6993 5.57862 20.8555L7.25036 22.1696C7.43958 22.3189 7.71041 22.2946 7.87009 22.1193L9.43419 20.5934V23.1192H5.07168V18.7567H9.43419L9.43598 18.7584ZM4.61679 17.8419H9.89417C10.1476 17.8419 10.3524 18.0467 10.3524 18.3001V18.4251L10.559 18.2237C10.7396 18.0484 11.0295 18.0519 11.2048 18.2324C11.3801 18.413 11.3767 18.7029 11.1961 18.8782L10.3524 19.7011V23.5775C10.3524 23.831 10.1476 24.0358 9.89417 24.0358H4.6168C4.36334 24.0358 4.15852 23.831 4.15852 23.5775V18.3002C4.15852 18.0467 4.36336 17.8419 4.61679 17.8419ZM12.9286 28.1779C12.6751 28.1779 12.4703 27.9731 12.4703 27.7197C12.4703 27.4662 12.6752 27.2614 12.9286 27.2614H17.5322C17.7857 27.2614 17.9905 27.4662 17.9905 27.7197C17.9905 27.9731 17.7857 28.1779 17.5322 28.1779H12.9286ZM12.9286 31.0406C12.6751 31.0406 12.4703 30.8357 12.4703 30.5823C12.4703 30.3289 12.6752 30.124 12.9286 30.124H18.1971C18.4505 30.124 18.6554 30.3289 18.6554 30.5823C18.6554 30.8357 18.4505 31.0406 18.1971 31.0406H12.9286ZM9.4358 26.9697V27.5304L7.5019 29.4157L6.14436 28.3481C5.94646 28.1918 5.65827 28.2265 5.50206 28.4245C5.34582 28.6224 5.38054 28.9105 5.57844 29.0668L7.25018 30.3809C7.4394 30.5302 7.71023 30.5059 7.86991 30.3305L9.43401 28.8046V31.3305H5.0715V26.9679H9.43401L9.4358 26.9697ZM4.61661 26.0531H9.89399C10.1474 26.0531 10.3523 26.2579 10.3523 26.5114V26.6364L10.5588 26.435C10.7394 26.2596 11.0293 26.2631 11.2046 26.4437C11.3799 26.6242 11.3765 26.9141 11.1959 27.0894L10.3523 27.9123V31.7888C10.3523 32.0422 10.1474 32.247 9.89399 32.247H4.61662C4.36317 32.247 4.15834 32.0422 4.15834 31.7888V26.5114C4.15834 26.2579 4.36318 26.0531 4.61661 26.0531Z" fill="#001938"/>
</svg>
