<svg width="40" height="38" viewBox="0 0 40 38" fill="none" xmlns="http://www.w3.org/2000/svg">
<path fill-rule="evenodd" clip-rule="evenodd" d="M29.6306 10.7581C29.4327 10.6018 29.398 10.3154 29.5542 10.1158C29.7105 9.91787 29.9969 9.88314 30.1965 10.0394L31.9273 11.4004L34.6476 8.25827C34.8125 8.06732 35.1006 8.04648 35.2916 8.2114C35.4826 8.37632 35.5034 8.66448 35.3385 8.85544L32.3491 12.3083L32.3456 12.3118C32.1894 12.5097 31.903 12.5444 31.7033 12.3881L29.6306 10.7581ZM19.7878 28.2221L25.2665 32.7288L26.2977 31.4755L20.819 26.9687L19.7878 28.2221ZM29.4035 26.2569L26.1694 30.1889L22.1055 26.8472L25.3396 22.9152L29.4035 26.2569ZM28.0668 21.8753C28.0599 21.8701 28.0547 21.8649 28.0477 21.8597L26.1312 20.2834L25.1 21.5368L30.5787 26.0435L31.6099 24.7902L28.0668 21.8753ZM28.5182 3.79847C28.4904 3.80889 28.4609 3.81757 28.4314 3.82278L25.8222 4.57445V8.88834C25.8222 10.975 26.5148 12.9505 27.7075 14.5492C27.9956 14.9346 28.3133 15.2992 28.6553 15.6377C28.664 15.6464 28.6727 15.6533 28.6813 15.662C29.7229 16.681 31.0041 17.4674 32.4519 17.9153C34.391 17.3146 36.0315 16.1116 37.1964 14.5492C38.389 12.9486 39.0817 10.9731 39.0817 8.88834V4.57445L32.4502 2.66313L28.5165 3.79673L28.5182 3.79847ZM28.8063 31.1661L33.4971 35.0252C33.5769 35.0912 33.6412 35.1641 33.6915 35.2457C33.7418 35.3273 33.7783 35.4193 33.8009 35.52C33.853 35.7509 33.9432 35.9731 34.07 36.1797C34.1915 36.3776 34.3477 36.5581 34.5369 36.7143C35.0022 37.0963 35.5785 37.2525 36.1358 37.1952C36.6913 37.1379 37.226 36.8688 37.6114 36.4018C37.995 35.9348 38.1565 35.3568 38.1044 34.8012C38.0541 34.2423 37.7884 33.7076 37.3249 33.3257C37.1357 33.1694 36.9274 33.0514 36.7087 32.9698C36.483 32.8847 36.2469 32.8413 36.0108 32.8344C35.9049 32.8309 35.8077 32.8135 35.7192 32.7806C35.6306 32.7476 35.5473 32.6972 35.4657 32.6313L30.027 28.1578C29.9559 28.0988 29.8951 28.0346 29.85 27.9651C29.8031 27.8957 29.7666 27.8159 29.7406 27.7273C29.7111 27.6266 29.6746 27.5277 29.633 27.4305L29.6295 27.4218L30.1086 26.8385L30.1711 26.8906C30.3187 27.0121 30.5009 27.0624 30.6763 27.0451C30.8533 27.0277 31.0235 26.9427 31.145 26.7968L32.4574 25.2015C32.5789 25.0539 32.6292 24.8717 32.6119 24.6963C32.5945 24.5193 32.5095 24.3491 32.3636 24.2276L28.8083 21.3042V17.0007C29.8308 17.8201 31.0183 18.4537 32.3255 18.8374C32.414 18.8634 32.506 18.8617 32.5893 18.8357C34.7784 18.1916 36.6289 16.8515 37.9325 15.1033C39.2414 13.3483 40 11.1818 40 8.89359V4.2375C40 4.01356 39.8386 3.82607 39.625 3.78615L32.5789 1.75507C32.4921 1.73076 32.4036 1.7325 32.322 1.7568L28.8084 2.76886V1.51549C28.8084 1.09885 28.6383 0.722126 28.3657 0.447881C28.0914 0.173595 27.7147 0.00520793 27.2981 0.00520793L4.63851 0V0.00173555C4.50658 0.00173555 4.37638 0.0590245 4.28611 0.168389L0.135406 5.19734L0.130198 5.20254C0.123254 5.21122 0.11631 5.21817 0.10763 5.22685C0.102422 5.23206 0.0989505 5.23726 0.0954784 5.24247L0.0937426 5.24421L0.0885344 5.25115L0.0867987 5.25289V5.25462L0.0815905 5.26157L0.0798548 5.2633L0.0746466 5.27025L0.0729109 5.27198V5.27372L0.0677027 5.28066L0.0659669 5.2824L0.064231 5.28587L0.0607588 5.29108L0.059023 5.29282V5.29455L0.0538149 5.30323C0.0503432 5.31018 0.0468711 5.31538 0.0451352 5.32233V5.32406L0.0433992 5.3258L0.0364553 5.34316V5.34489L0.0347191 5.34663L0.0312474 5.35357V5.35531L0.0277756 5.36399V5.36573L0.0260392 5.36746C0.0225675 5.37788 0.0190954 5.38656 0.0173596 5.39697V5.39871V5.40045L0.0138878 5.40913V5.41086L0.0121514 5.42128V5.42301L0.0104157 5.43169V5.43343V5.43517L0.00867968 5.44558V5.44732L0.00694349 5.45773V5.45947L0.00520751 5.46989V5.47162L0.00347174 5.4803V5.48204L0.00173577 5.49245L0 5.50461V5.51676V5.52891V34.6951C0 35.1117 0.170125 35.4885 0.442673 35.7627C0.716958 36.037 1.09364 36.2054 1.51028 36.2054H27.2932C27.7098 36.2054 28.0866 36.0353 28.3608 35.7627C28.6351 35.4884 28.8035 35.1117 28.8035 34.6951V31.1745L28.8063 31.1661ZM28.6032 29.8173C28.6275 29.8329 28.6484 29.8503 28.6692 29.8694L34.0785 34.3188C34.2417 34.4525 34.3719 34.6 34.4743 34.7649C34.5768 34.9298 34.6497 35.1139 34.6948 35.3187C34.7243 35.4524 34.7764 35.5826 34.8493 35.6989C34.9188 35.8135 35.009 35.9176 35.1201 36.0079C35.3892 36.2284 35.7225 36.3186 36.0454 36.2857C36.37 36.2527 36.6842 36.0947 36.9082 35.8204C37.1339 35.5461 37.2276 35.2076 37.1981 34.883C37.1686 34.5601 37.0158 34.2493 36.7467 34.0288C36.6374 33.9386 36.5176 33.8709 36.3926 33.824C36.2624 33.7754 36.1253 33.7494 35.9881 33.7459C35.7798 33.7407 35.5871 33.7042 35.4031 33.6348C35.2191 33.5653 35.0489 33.4664 34.8893 33.3345L29.4506 28.861C29.3082 28.743 29.1902 28.6145 29.093 28.4704C29.0426 28.394 28.9992 28.3159 28.961 28.2326L27.9299 29.486C28.0184 29.5068 28.1052 29.5346 28.1868 29.5693C28.3326 29.6301 28.4713 29.7114 28.6032 29.8173ZM1.42975 5.06229L4.30628 1.5782V4.46687C4.30628 4.63005 4.23858 4.77934 4.13095 4.88697C4.02332 4.9946 3.87403 5.0623 3.71084 5.0623L1.42975 5.06229ZM5.2211 0.916783H27.2959C27.459 0.916783 27.6083 0.984485 27.716 1.09212C27.8236 1.19975 27.8913 1.34904 27.8913 1.51222V3.02948L25.2405 3.79334C25.0408 3.85062 24.9106 4.0329 24.9106 4.2308H24.9089V8.88689C24.9089 11.1749 25.6692 13.3412 26.9764 15.0966C27.2577 15.4733 27.5632 15.8309 27.893 16.166V20.5459L26.5442 19.4348C26.3966 19.3133 26.2143 19.263 26.039 19.2803C25.8758 19.296 25.7178 19.3689 25.5998 19.4956L25.5963 19.4991L24.2596 21.1239C24.1381 21.2715 24.0878 21.4538 24.1051 21.6291C24.1225 21.8062 24.2075 21.9763 24.3534 22.0978L24.6381 22.3322L21.4039 26.2642L21.2304 26.1218C21.0828 26.0003 20.9005 25.95 20.7252 25.9673C20.5481 25.9847 20.378 26.0697 20.2565 26.2156L18.9441 27.8109C18.8226 27.9585 18.7722 28.1407 18.7896 28.3161C18.8069 28.4931 18.892 28.6633 19.0378 28.7848L24.8587 33.5724C25.0063 33.6939 25.1885 33.7443 25.3639 33.7269C25.5409 33.7096 25.7111 33.6262 25.8326 33.4787L27.145 31.8833C27.2665 31.7358 27.3168 31.5535 27.2995 31.3782C27.2821 31.2011 27.1971 31.031 27.0512 30.9094L26.8776 30.7671L27.2613 30.3001L27.27 30.3018C27.3741 30.3244 27.4783 30.34 27.5842 30.3505C27.6762 30.3591 27.7595 30.38 27.8376 30.413C27.8567 30.4199 27.8741 30.4286 27.8932 30.439V34.6852C27.8932 34.8484 27.8255 34.9977 27.7179 35.1053C27.6102 35.2129 27.4609 35.2806 27.2978 35.2806H1.51484C1.35166 35.2806 1.20237 35.2129 1.09474 35.1053C0.987103 34.9977 0.919402 34.8484 0.919402 34.6852V5.97896H3.71083C4.12747 5.97896 4.50419 5.80884 4.77844 5.53629C5.05272 5.262 5.22111 4.88532 5.22111 4.46868L5.2211 0.916783ZM12.929 11.4022C12.6755 11.4022 12.4707 11.1974 12.4707 10.9439C12.4707 10.6905 12.6755 10.4856 12.929 10.4856H23.4037C23.6572 10.4856 23.862 10.6905 23.862 10.9439C23.862 11.1974 23.6571 11.4022 23.4037 11.4022H12.929ZM12.929 14.2648C12.6755 14.2648 12.4707 14.06 12.4707 13.8066C12.4707 13.5531 12.6755 13.3483 12.929 13.3483H24.369C24.6224 13.3483 24.8272 13.5531 24.8272 13.8066C24.8272 14.06 24.6224 14.2648 24.369 14.2648H12.929ZM9.43616 10.1939V10.7547L7.50226 12.6399L6.14472 11.5723C5.94682 11.4161 5.65862 11.4508 5.50241 11.6487C5.34618 11.8466 5.38089 12.1348 5.5788 12.291L7.25054 13.6051C7.43976 13.7544 7.71059 13.7301 7.87027 13.5548L9.43437 12.0289V14.5547H5.07186V10.1922H9.43437L9.43616 10.1939ZM4.61697 9.27734H9.89434C10.1478 9.27734 10.3526 9.48219 10.3526 9.73562V9.86061L10.5592 9.65924C10.7397 9.4839 11.0297 9.48737 11.205 9.66792C11.3803 9.84846 11.3768 10.1384 11.1963 10.3137L10.3526 11.1366V15.013C10.3526 15.2665 10.1478 15.4713 9.89435 15.4713H4.61697C4.36352 15.4713 4.1587 15.2664 4.1587 15.013V9.73565C4.1587 9.48219 4.36354 9.27734 4.61697 9.27734ZM12.9288 19.6134C12.6753 19.6134 12.4705 19.4086 12.4705 19.1552C12.4705 18.9017 12.6753 18.6969 12.9288 18.6969H23.4035C23.657 18.6969 23.8618 18.9017 23.8618 19.1552C23.8618 19.4086 23.657 19.6134 23.4035 19.6134H12.9288ZM12.9288 22.4761C12.6753 22.4761 12.4705 22.2712 12.4705 22.0178C12.4705 21.7643 12.6753 21.5595 12.9288 21.5595H22.1365C22.39 21.5595 22.5948 21.7644 22.5948 22.0178C22.5948 22.2712 22.3899 22.4761 22.1365 22.4761H12.9288ZM9.43598 18.4052V18.9659L7.50208 20.8512L6.14454 19.7836C5.94664 19.6273 5.65845 19.662 5.50223 19.8599C5.346 20.0578 5.38072 20.346 5.57862 20.5022L7.25036 21.8164C7.43958 21.9657 7.71041 21.9414 7.87009 21.766L9.43419 20.2401V22.766H5.07168V18.4034H9.43419L9.43598 18.4052ZM4.61679 17.4886H9.89417C10.1476 17.4886 10.3524 17.6934 10.3524 17.9469V18.0718L10.559 17.8705C10.7396 17.6951 11.0295 17.6986 11.2048 17.8792C11.3801 18.0597 11.3767 18.3496 11.1961 18.5249L10.3524 19.3478V23.2243C10.3524 23.4777 10.1476 23.6825 9.89417 23.6825H4.6168C4.36334 23.6825 4.15852 23.4777 4.15852 23.2243V17.9469C4.15852 17.6934 4.36336 17.4886 4.61679 17.4886ZM12.9286 27.8247C12.6751 27.8247 12.4703 27.6198 12.4703 27.3664C12.4703 27.1129 12.6752 26.9081 12.9286 26.9081H17.5322C17.7857 26.9081 17.9905 27.113 17.9905 27.3664C17.9905 27.6198 17.7857 27.8247 17.5322 27.8247H12.9286ZM12.9286 30.6873C12.6751 30.6873 12.4703 30.4824 12.4703 30.229C12.4703 29.9756 12.6752 29.7707 12.9286 29.7707H18.1971C18.4505 29.7707 18.6554 29.9756 18.6554 30.229C18.6554 30.4824 18.4505 30.6873 18.1971 30.6873H12.9286ZM9.4358 26.6164V27.1771L7.5019 29.0624L6.14436 27.9948C5.94646 27.8386 5.65827 27.8733 5.50206 28.0712C5.34582 28.2691 5.38054 28.5573 5.57844 28.7135L7.25018 30.0276C7.4394 30.1769 7.71023 30.1526 7.86991 29.9773L9.43401 28.4513V30.9772H5.0715V26.6147H9.43401L9.4358 26.6164ZM4.61661 25.6998H9.89399C10.1474 25.6998 10.3523 25.9047 10.3523 26.1581V26.2831L10.5588 26.0817C10.7394 25.9064 11.0293 25.9098 11.2046 26.0904C11.3799 26.2709 11.3765 26.5608 11.1959 26.7362L10.3523 27.559V31.4355C10.3523 31.6889 10.1474 31.8938 9.89399 31.8938H4.61662C4.36317 31.8938 4.15834 31.6889 4.15834 31.4355V26.1581C4.15834 25.9047 4.36318 25.6998 4.61661 25.6998Z" fill="#FAFAFA"/>
</svg>
