<svg width="60" height="61" viewBox="0 0 60 61" fill="none" xmlns="http://www.w3.org/2000/svg">
<g id="Frame 1321315650">
<g id="Group 48095510">
<path id="Vector" d="M40.211 28.8636C39.9387 24.0444 36.1043 20.119 31.2987 19.7346C27.7919 19.4524 24.3915 21.0844 22.4278 23.9933C21.7904 24.9386 21.4924 26.1247 21.5694 27.4232C21.5753 27.5199 21.5792 27.6146 21.5792 27.7153C21.5792 28.6645 21.5141 29.3177 21.155 30.4228C20.9576 31.009 20.5392 32.1852 19.9077 33.4639C19.7261 33.833 19.7419 34.2671 19.9432 34.6204C20.1445 34.9697 20.5096 35.1966 20.9142 35.2223C21.2832 35.2479 21.7174 35.2322 22.2127 35.1828C22.0864 36.0216 22.041 37.4306 22.8146 38.6679C23.3711 39.5579 24.5216 39.8342 25.7452 39.8342C27.1286 39.8342 28.5948 39.481 29.3783 39.258C29.5401 39.929 29.625 40.6177 29.625 41.3143C29.625 41.5275 29.7572 41.713 29.9526 41.7899C30.0276 41.8195 31.0281 42.1846 32.5951 42.1846C34.0495 42.1846 35.9993 41.8708 38.1584 40.6888C38.3853 40.5625 38.482 40.2901 38.3814 40.0514C38.2393 39.7178 38.0183 38.4351 38.0183 37.5451C38.0183 36.7419 38.1288 35.9485 38.3419 35.1848C39.6759 33.3653 40.343 31.1274 40.2108 28.8597L40.211 28.8636ZM30.6222 40.9431C30.5926 40.1241 30.4565 39.3209 30.2236 38.5433C30.2236 38.5177 30.2236 38.4979 30.2137 38.4723C30.1269 38.2098 29.8407 38.0638 29.5763 38.1486C28.3034 38.567 24.4788 39.457 23.6599 38.1427C22.7462 36.6666 23.3204 34.7681 23.3263 34.7524C23.3777 34.5866 23.3421 34.4031 23.2296 34.2728C23.1191 34.1406 22.9415 34.0755 22.7698 34.1011C22.0416 34.2116 21.4358 34.2531 20.9661 34.2215C20.8753 34.2156 20.8299 34.1564 20.8102 34.1248C20.7944 34.0952 20.7589 34.0143 20.8043 33.9235C21.4654 32.5855 21.9055 31.362 22.1067 30.7502C22.5054 29.5168 22.5824 28.7649 22.5824 27.7288C22.5824 27.6124 22.5824 27.496 22.5725 27.3795C22.5113 26.304 22.7501 25.3291 23.2593 24.5713C25.0176 21.9644 28.0685 20.504 31.2102 20.7566C35.5142 21.1 38.9499 24.6206 39.1929 28.9364C39.3093 31.0026 38.6976 33.0431 37.4602 34.6851C37.4444 34.7009 37.4444 34.7206 37.4345 34.7404C37.4148 34.7759 37.3892 34.8055 37.3793 34.8469C37.1267 35.7251 36.9945 36.6349 36.9945 37.5604C36.9945 38.2926 37.1306 39.3385 37.2984 40.0115C34.1349 41.608 31.5042 41.1778 30.6145 40.9568L30.6222 40.9431Z" fill="#001938"/>
<path id="Vector_2" d="M47.2628 24.98C47.4641 25.5109 47.9812 25.8937 48.5811 25.8937C49.3646 25.8937 50 25.2563 50 24.4788C50 23.7012 49.3626 23.0599 48.5811 23.0599C47.9752 23.0599 47.4641 23.4388 47.2628 23.9696H44.2572V23.0599C44.2572 19.4485 41.3168 16.5079 37.7052 16.5079H36.7955L36.7935 11.6729C36.7935 11.3946 36.5666 11.1677 36.2883 11.1677C36.01 11.1677 35.7831 11.3946 35.7831 11.6729V16.5079H30.5042V11.6729C30.5042 11.3946 30.2773 11.1677 29.999 11.1677C29.7208 11.1677 29.4938 11.3946 29.4938 11.6729V16.5079H24.2149V13.5023C24.7458 13.301 25.1247 12.7839 25.1247 12.184C25.1247 11.4005 24.4873 10.769 23.7058 10.769C22.9223 10.769 22.2869 11.4065 22.2869 12.184C22.2869 12.7899 22.6658 13.301 23.2006 13.5023V16.5079H22.2908C18.6794 16.5079 15.7388 19.4483 15.7388 23.0599V23.9696H10.9078C10.6295 23.9696 10.4026 24.1966 10.4026 24.4748C10.4026 24.7531 10.6295 24.98 10.9078 24.98H15.7428V30.2589H10.9078C10.6295 30.2589 10.4026 30.4859 10.4026 30.7641C10.4026 31.0424 10.6295 31.2693 10.9078 31.2693H15.7428V36.5482H12.7372C12.5359 36.0173 12.0188 35.6345 11.4189 35.6345C10.6354 35.6345 10 36.2719 10 37.0534C10 37.8369 10.6374 38.4684 11.4189 38.4684C12.0248 38.4684 12.5359 38.0895 12.7372 37.5586H15.7428V38.4684C15.7428 42.0798 18.6832 45.0204 22.2948 45.0204H23.2045V49.8553C23.2045 50.1336 23.4315 50.3605 23.7097 50.3605C23.988 50.3605 24.2149 50.1336 24.2149 49.8553V45.0204H29.4938V49.8553C29.4938 50.1336 29.7208 50.3605 29.999 50.3605C30.2773 50.3605 30.5042 50.1336 30.5042 49.8553V45.0204H35.7831V48.0318C35.2581 48.2391 34.8832 48.7502 34.8832 49.3501C34.8832 50.1336 35.5206 50.769 36.3021 50.769C37.0856 50.769 37.7171 50.1316 37.7171 49.3501C37.7171 48.7384 37.3323 48.2292 36.7936 48.0259V45.0204H37.7033C41.3147 45.0204 44.2553 42.0799 44.2553 38.4684V37.5586H49.0903C49.3685 37.5586 49.5955 37.3317 49.5955 37.0534C49.5955 36.7751 49.3685 36.5482 49.0903 36.5482H44.2553V31.2693H49.0903C49.3685 31.2693 49.5955 31.0424 49.5955 30.7641C49.5955 30.4859 49.3685 30.2589 49.0903 30.2589H44.2553V24.98H47.2628ZM43.2468 38.4685C43.2468 41.5254 40.7603 44.0101 37.7052 44.0101H22.2965C19.2396 44.0101 16.7549 41.5235 16.7549 38.4685V23.0598C16.7549 20.0029 19.2415 17.5182 22.2965 17.5182H37.7052C40.7621 17.5182 43.2468 20.0047 43.2468 23.0598V38.4685Z" fill="#001938"/>
<path id="Vector_3" d="M36.7913 26.707C36.4933 25.9946 35.8066 25.5546 35.0329 25.596C34.8001 25.6118 34.5929 25.525 34.431 25.3631C34.2692 25.2013 34.1883 24.9901 34.1982 24.7612C34.2376 23.9877 33.7995 23.2969 33.0871 23.0029C32.3747 22.7049 31.5774 22.8864 31.0565 23.4627C30.7525 23.8021 30.1822 23.8021 29.8803 23.4627C29.3652 22.8864 28.5659 22.7108 27.8496 23.0029C27.1372 23.3009 26.6971 23.9876 26.7386 24.7612C26.7484 24.9882 26.6675 25.2013 26.5057 25.3631C26.3439 25.5249 26.1367 25.6098 25.9038 25.596C25.1262 25.5565 24.4435 25.9946 24.1454 26.707C23.8475 27.4195 24.029 28.2167 24.6053 28.7377C24.771 28.8897 24.8677 29.1008 24.8677 29.3298C24.8677 29.5567 24.7769 29.7639 24.6053 29.9218C24.029 30.4428 23.8534 31.2361 24.1454 31.9525C24.4434 32.6649 25.1302 33.1089 25.9038 33.0635C26.1308 33.0477 26.3439 33.1346 26.5057 33.2964C26.6675 33.4582 26.7484 33.6694 26.7386 33.8983C26.6991 34.6719 27.1333 35.3626 27.8496 35.6567C28.0766 35.7534 28.3154 35.7987 28.5462 35.7987C29.0416 35.7987 29.527 35.5915 29.8744 35.2028C30.1783 34.8633 30.7486 34.8633 31.0505 35.2028C31.5715 35.779 32.3649 35.9546 33.0812 35.6626C33.7936 35.3646 34.2337 34.6778 34.1923 33.9042C34.1824 33.6773 34.2633 33.4641 34.4251 33.3023C34.5869 33.1405 34.7981 33.0596 35.027 33.0694C35.8006 33.1148 36.4913 32.6708 36.7854 31.9584C37.0834 31.246 36.9018 30.4487 36.3256 29.9277C36.1598 29.7758 36.0631 29.5646 36.0631 29.3357C36.0631 29.1087 36.1539 28.9015 36.3256 28.7436C36.9018 28.2227 37.0775 27.4293 36.7854 26.713L36.7913 26.707ZM35.6546 30.6618C35.9625 30.9401 35.9585 31.3032 35.8559 31.5558C35.7493 31.8025 35.5066 32.0669 35.0823 32.0452C34.5712 32.0156 34.0778 32.211 33.7128 32.5702C33.3536 32.9293 33.1622 33.4286 33.1878 33.9397C33.2075 34.3541 32.951 34.6107 32.6984 34.7133C32.4458 34.8139 32.0826 34.8199 31.8044 34.512C31.461 34.1331 30.9756 33.916 30.4664 33.916C29.9553 33.916 29.4718 34.1331 29.1285 34.512C28.8502 34.8199 28.4871 34.8159 28.2345 34.7133C27.9878 34.6067 27.7234 34.3541 27.7451 33.9397C27.7707 33.4286 27.5793 32.9352 27.2201 32.5702C26.8807 32.2307 26.4229 32.0393 25.9473 32.0393H25.8565C25.448 32.059 25.1855 31.8025 25.0829 31.5499C24.9823 31.2973 24.9763 30.9341 25.2842 30.6559C25.6631 30.3125 25.8802 29.8271 25.8802 29.3179C25.8802 28.8068 25.6631 28.3233 25.2842 27.98C24.9763 27.7017 24.9803 27.3386 25.0829 27.086C25.1836 26.8334 25.446 26.5749 25.8565 26.5966C26.3676 26.6262 26.861 26.4308 27.226 26.0716C27.5852 25.7125 27.7766 25.2132 27.751 24.7021C27.7313 24.2876 27.9878 24.0311 28.2404 23.9285C28.493 23.8219 28.8562 23.8219 29.1344 24.1298C29.4778 24.5087 29.9632 24.7258 30.4724 24.7258C30.9835 24.7258 31.467 24.5087 31.8103 24.1298C32.0886 23.8219 32.4517 23.8259 32.7043 23.9285C32.9569 24.0291 33.2154 24.2877 33.1937 24.7021C33.1681 25.2132 33.3595 25.7066 33.7187 26.0716C34.0778 26.4308 34.5771 26.6282 35.0882 26.5966C35.5027 26.5768 35.7592 26.8334 35.8618 27.086C35.9624 27.3386 35.9684 27.7017 35.6605 27.98C35.2816 28.3233 35.0645 28.8088 35.0645 29.3179C35.0645 29.8291 35.2816 30.3126 35.6605 30.6559L35.6546 30.6618Z" fill="#001938"/>
<path id="Vector_4" d="M30.4732 25.8643C28.5629 25.8643 27.0078 27.4193 27.0078 29.3297C27.0078 31.24 28.5629 32.7951 30.4732 32.7951C32.3835 32.7951 33.9386 31.24 33.9386 29.3297C33.9386 27.4193 32.3835 25.8643 30.4732 25.8643ZM30.4732 31.7847C29.1194 31.7847 28.0182 30.6836 28.0182 29.3298C28.0182 27.976 29.1194 26.8748 30.4732 26.8748C31.827 26.8748 32.9282 27.976 32.9282 29.3298C32.9282 30.6836 31.827 31.7847 30.4732 31.7847Z" fill="#001938"/>
</g>
</g>
</svg>
