<svg width="40" height="40" viewBox="0 0 40 40" fill="none" xmlns="http://www.w3.org/2000/svg">
<g id="Group">
<path id="Vector" d="M22.1641 10.6741C21.9044 10.596 21.6256 10.6231 21.3866 10.7506C21.1476 10.878 20.9692 11.0947 20.8911 11.3544L17.0593 23.8933C16.9813 24.153 17.0084 24.4318 17.1358 24.6707C17.2633 24.9081 17.4816 25.0866 17.7397 25.1646C17.8369 25.1949 17.9372 25.2108 18.0376 25.2093C18.4853 25.2093 18.8804 24.9161 19.0127 24.4875L22.8444 11.9487H22.8428C22.9225 11.689 22.8954 11.4086 22.768 11.1696C22.6405 10.9306 22.4238 10.7522 22.1641 10.6741Z" fill="#001938"/>
<path id="Vector_2" d="M14.077 12.594C13.8858 12.4028 13.6261 12.2944 13.3552 12.2944C13.0844 12.2944 12.8263 12.4028 12.6335 12.594L8.28232 16.9452H8.28391C8.09272 17.1363 7.98438 17.3961 7.98438 17.6653C7.98438 17.9362 8.09271 18.1959 8.28391 18.387L12.6351 22.7382H12.6335C13.0334 23.1365 13.6787 23.1365 14.077 22.7382C14.4753 22.3399 14.4753 21.693 14.077 21.2947L10.4428 17.6701L14.077 14.0375V14.0359C14.2682 13.8447 14.375 13.5866 14.375 13.3157C14.375 13.0449 14.2682 12.7851 14.077 12.594Z" fill="#001938"/>
<path id="Vector_3" d="M27.2579 12.5932C26.8596 12.1949 26.2127 12.1949 25.8144 12.5932C25.416 12.9915 25.416 13.6368 25.8144 14.0351L29.4486 17.6677L25.8144 21.3035C25.416 21.7018 25.416 22.3487 25.8144 22.747C26.2127 23.1453 26.8595 23.1453 27.2579 22.747L31.6091 18.3958H31.6075C31.7987 18.2046 31.907 17.9449 31.907 17.6741C31.907 17.4048 31.7987 17.1451 31.6075 16.9539L27.2579 12.5932Z" fill="#001938"/>
<path id="Vector_4" d="M30.8228 0.769083H9.17698C6.7441 0.772269 4.41139 1.73937 2.69262 3.46011C0.97188 5.18084 0.00318141 7.51335 0 9.94611V25.896C0.00318631 28.3289 0.97188 30.6616 2.69262 32.382C4.41172 34.1027 6.74427 35.0698 9.17698 35.073H13.3609C13.6382 35.0746 13.8979 35.2037 14.0636 35.4251C14.0955 35.4666 14.1289 35.5048 14.164 35.5414L17.376 38.7056V38.704C18.8354 40.1284 21.1647 40.1284 22.6241 38.704L25.8361 35.5414C25.8727 35.5064 25.9062 35.4681 25.938 35.4267C26.1037 35.2053 26.3635 35.0746 26.6407 35.0746H30.823C33.2559 35.0714 35.5886 34.1043 37.3074 32.3836C39.0281 30.6628 39.9968 28.3303 40 25.8976V9.94607C39.9968 7.51319 39.0281 5.18048 37.3074 3.46007C35.5883 1.73933 33.2555 0.772305 30.8228 0.769083ZM37.9606 25.8961C37.9574 27.7889 37.2054 29.6036 35.8671 30.9403C34.5288 32.2786 32.714 33.0322 30.8229 33.0338H26.6406C25.7515 33.0354 24.9103 33.4417 24.3558 34.1363L21.1916 37.2511C20.5288 37.8964 19.4709 37.8964 18.8081 37.2511L15.6487 34.1379C15.0942 33.4433 14.2546 33.037 13.3655 33.0354H9.17666C7.28547 33.0338 5.47076 32.2802 4.13249 30.9419C2.79422 29.6036 2.04214 27.7904 2.03896 25.8977V9.94619C2.04214 8.05341 2.79418 6.2387 4.13249 4.90039C5.4708 3.56367 7.28555 2.81004 9.17666 2.80845H30.8225C32.7137 2.81004 34.5284 3.56367 35.8667 4.90039C37.205 6.2387 37.957 8.05345 37.9602 9.94619L37.9606 25.8961Z" fill="#001938"/>
</g>
</svg>
