<svg width="60" height="61" viewBox="0 0 60 61" fill="none" xmlns="http://www.w3.org/2000/svg">
<g id="Frame 1321315648">
<path id="Vector" d="M43.5935 14.0642C43.2373 14.0642 42.9484 13.7752 42.9484 13.419C42.9484 13.0629 43.2373 12.7739 43.5935 12.7739H43.6893C44.0454 12.7739 44.3344 13.0629 44.3344 13.419C44.3344 13.7752 44.0454 14.0642 43.6893 14.0642H43.5935ZM13.988 45.9346C13.6318 45.9346 13.3428 45.6456 13.3428 45.2894C13.3428 44.9333 13.6318 44.6443 13.988 44.6443H21.9682C22.3244 44.6443 22.6134 44.9333 22.6134 45.2894C22.6134 45.6456 22.3244 45.9346 21.9682 45.9346H13.988ZM13.988 42.1746C13.6318 42.1746 13.3428 41.8857 13.3428 41.5295C13.3428 41.1733 13.6318 40.8844 13.988 40.8844H21.9682C22.3244 40.8844 22.6134 41.1733 22.6134 41.5295C22.6134 41.8857 22.3244 42.1746 21.9682 42.1746H13.988ZM13.988 38.4147C13.6318 38.4147 13.3428 38.1257 13.3428 37.7696C13.3428 37.4134 13.6318 37.1245 13.988 37.1245H21.9682C22.3244 37.1245 22.6134 37.4134 22.6134 37.7696C22.6134 38.1257 22.3244 38.4147 21.9682 38.4147H13.988ZM13.988 34.6548C13.6318 34.6548 13.3428 34.3658 13.3428 34.0097C13.3428 33.6535 13.6318 33.3645 13.988 33.3645H21.9682C22.3244 33.3645 22.6134 33.6535 22.6134 34.0097C22.6134 34.3658 22.3244 34.6548 21.9682 34.6548H13.988ZM13.988 30.8949C13.6318 30.8949 13.3428 30.6059 13.3428 30.2498C13.3428 29.8936 13.6318 29.6046 13.988 29.6046H21.9682C22.3244 29.6046 22.6134 29.8936 22.6134 30.2498C22.6134 30.6059 22.3244 30.8949 21.9682 30.8949H13.988ZM13.988 27.135C13.6318 27.135 13.3428 26.846 13.3428 26.4898C13.3428 26.1337 13.6318 25.8447 13.988 25.8447H21.9682C22.3244 25.8447 22.6134 26.1337 22.6134 26.4898C22.6134 26.846 22.3244 27.135 21.9682 27.135H13.988ZM13.988 23.3751C13.6318 23.3751 13.3428 23.0861 13.3428 22.7299C13.3428 22.3738 13.6318 22.0848 13.988 22.0848H21.9682C22.3244 22.0848 22.6134 22.3738 22.6134 22.7299C22.6134 23.0861 22.3244 23.3751 21.9682 23.3751H13.988ZM28.134 30.3726L30.9581 28.249C30.9027 28.0709 30.8724 27.8794 30.8724 27.6829C30.8724 27.157 31.0858 26.6782 31.4319 26.3338C31.7763 25.9894 32.2551 25.7743 32.7809 25.7743C33.3085 25.7743 33.7856 25.9877 34.13 26.3338C34.4711 26.6748 34.6844 27.1452 34.6895 27.6644L36.9894 28.4624C37.0331 28.4087 37.0785 28.3583 37.1272 28.3096L37.1709 28.2692C37.5119 27.9483 37.9723 27.7501 38.4763 27.7501C38.7451 27.7501 39.0005 27.8056 39.2323 27.9064L42.4748 24.4371C42.3404 24.175 42.2631 23.8776 42.2631 23.5635C42.2631 23.0376 42.4765 22.5605 42.8225 22.2144C43.167 21.87 43.6458 21.655 44.1716 21.655C44.6974 21.655 45.1746 21.8683 45.5207 22.2144C45.8651 22.5588 46.0801 23.0377 46.0801 23.5635C46.0801 24.0893 45.8668 24.5681 45.5207 24.9126C45.1763 25.257 44.6974 25.472 44.1716 25.472C43.9028 25.472 43.6474 25.4166 43.4156 25.3158L40.1748 28.785C40.3092 29.0471 40.3848 29.3445 40.3848 29.6586C40.3848 30.1845 40.1714 30.6616 39.8253 31.0077C39.4809 31.3521 39.0021 31.5671 38.4763 31.5671C37.9521 31.5671 37.4733 31.3521 37.1289 31.006C36.7862 30.6666 36.5745 30.1962 36.5678 29.6771L34.2678 28.8791C34.2258 28.9329 34.1787 28.9833 34.13 29.032C33.7856 29.3764 33.3068 29.5914 32.781 29.5914C32.3946 29.5914 32.0333 29.4755 31.7326 29.2773L28.9085 31.4008C28.9639 31.5789 28.9942 31.7704 28.9942 31.967C28.9942 32.4929 28.7808 32.9716 28.4347 33.3161C28.0903 33.6605 27.6115 33.8755 27.0857 33.8755C26.5581 33.8755 26.081 33.6622 25.7366 33.3161C25.3922 32.9717 25.1771 32.4928 25.1771 31.967C25.1771 31.4411 25.3905 30.964 25.7366 30.6179C26.081 30.2735 26.5598 30.0585 27.0857 30.0585C27.4721 30.0585 27.8333 30.1743 28.134 30.3726ZM44.6051 23.1282C44.4942 23.0173 44.3396 22.9467 44.1683 22.9467C43.9986 22.9467 43.8423 23.0156 43.7315 23.1282C43.6206 23.2391 43.55 23.3936 43.55 23.565C43.55 23.7347 43.6189 23.8909 43.7315 24.0018C43.8424 24.1127 43.9986 24.1832 44.1683 24.1832C44.338 24.1832 44.4942 24.1143 44.6051 24.0018C44.7159 23.8909 44.7865 23.7347 44.7865 23.565C44.7865 23.3953 44.7176 23.2391 44.6051 23.1282ZM38.9098 29.2217C38.799 29.1108 38.6444 29.0402 38.473 29.0402C38.3134 29.0402 38.1673 29.099 38.0598 29.1965L38.0362 29.2217C37.9254 29.3325 37.8548 29.4871 37.8548 29.6585C37.8548 29.8281 37.9237 29.9844 38.0362 30.0953C38.1454 30.2078 38.3017 30.2767 38.473 30.2767C38.6427 30.2767 38.799 30.2078 38.9098 30.0953C39.0207 29.9844 39.0913 29.8298 39.0913 29.6585C39.0913 29.4871 39.0224 29.3325 38.9098 29.2217ZM33.2146 27.2443C33.1037 27.1334 32.9492 27.0628 32.7778 27.0628C32.6081 27.0628 32.4519 27.1317 32.341 27.2443C32.2301 27.3551 32.1596 27.5114 32.1596 27.681C32.1596 27.8507 32.2285 28.007 32.341 28.1178C32.4519 28.2287 32.6065 28.2993 32.7778 28.2993C32.9475 28.2993 33.1037 28.2304 33.2146 28.1178C33.3255 28.007 33.3961 27.8524 33.3961 27.681C33.3961 27.5097 33.3272 27.3551 33.2146 27.2443ZM27.5194 31.5266C27.4085 31.4158 27.2539 31.3452 27.0826 31.3452C26.9129 31.3452 26.7567 31.4141 26.6458 31.5266C26.5349 31.6375 26.4643 31.7921 26.4643 31.9634C26.4643 32.1348 26.5332 32.2894 26.6458 32.4002C26.7567 32.5111 26.9112 32.5817 27.0826 32.5817C27.2523 32.5817 27.4085 32.5128 27.5194 32.4002C27.6303 32.2894 27.7008 32.1331 27.7008 31.9634C27.7008 31.7938 27.6319 31.6375 27.5194 31.5266ZM42.3136 30.5606H46.0197C46.3759 30.5606 46.6648 30.8496 46.6648 31.2058V45.2877C46.6648 45.6439 46.3759 45.9328 46.0197 45.9328H42.3136C41.9574 45.9328 41.6684 45.6439 41.6684 45.2877V31.2058C41.6684 30.8496 41.9574 30.5606 42.3136 30.5606ZM45.3746 31.8509H42.9587V44.6426H45.3746V31.8509ZM36.6184 36.6541H40.3246C40.6807 36.6541 40.9697 36.9431 40.9697 37.2992V45.2877C40.9697 45.6439 40.6807 45.9328 40.3246 45.9328H36.6184C36.2623 45.9328 35.9733 45.6439 35.9733 45.2877V37.2992C35.9733 36.9431 36.2623 36.6541 36.6184 36.6541ZM39.6794 37.9444H37.2635V44.6426H39.6794V37.9444ZM30.9233 34.6767H34.6294C34.9856 34.6767 35.2746 34.9657 35.2746 35.3218V45.2861C35.2746 45.6423 34.9856 45.9312 34.6294 45.9312H30.9233C30.5671 45.9312 30.2781 45.6423 30.2781 45.2861V35.3218C30.2781 34.9657 30.5671 34.6767 30.9233 34.6767ZM33.9843 35.967H31.5684V44.641H33.9843V35.967ZM25.2281 38.9591H28.9343C29.2905 38.9591 29.5794 39.248 29.5794 39.6042V45.2861C29.5794 45.6423 29.2905 45.9312 28.9343 45.9312H25.2281C24.872 45.9312 24.583 45.6423 24.583 45.2861V39.6042C24.583 39.248 24.872 38.9591 25.2281 38.9591ZM28.2892 40.2493H25.8733V44.641H28.2892V40.2493ZM20.8147 16.7373C20.4585 16.7373 20.1695 16.4483 20.1695 16.0922C20.1695 15.736 20.4585 15.447 20.8147 15.447H20.8197C21.1759 15.447 21.4648 15.736 21.4648 16.0922C21.4648 16.4483 21.1759 16.7373 20.8197 16.7373H20.8147ZM17.2211 16.7373C16.8649 16.7373 16.5759 16.4483 16.5759 16.0922C16.5759 15.736 16.8649 15.447 17.2211 15.447H17.2261C17.5823 15.447 17.8712 15.736 17.8712 16.0922C17.8712 16.4483 17.5823 16.7373 17.2261 16.7373H17.2211ZM13.6291 16.7373C13.2713 16.7373 12.9806 16.4483 12.9806 16.0922C12.9806 15.736 13.2696 15.447 13.6258 15.447C13.987 15.447 14.2759 15.736 14.2759 16.0922C14.2759 16.4483 13.987 16.7373 13.6275 16.7373H13.6291ZM11.2922 18.088H22.3536L26.9939 16.3929C27.0661 16.366 27.14 16.3542 27.2139 16.3542L48.7098 16.3525V15.2757C48.7098 14.943 48.572 14.6389 48.3519 14.4172C48.1318 14.1971 47.8277 14.0593 47.4934 14.0593H46.0167C45.6605 14.0593 45.3715 13.7703 45.3715 13.4142C45.3715 13.058 45.6605 12.769 46.0167 12.769H47.4934C48.1822 12.769 48.8106 13.0513 49.2642 13.5049C49.7178 13.9585 50 14.5851 50 15.2756V46.9912C50 47.6817 49.7178 48.3083 49.2642 48.762C48.8106 49.2156 48.1839 49.4978 47.4934 49.4978H12.5066C11.8161 49.4978 11.1895 49.2155 10.7358 48.762C10.2822 48.3083 10 47.6817 10 46.9912V15.2756C10 14.5868 10.2822 13.9585 10.7358 13.5049C11.1895 13.0513 11.8161 12.769 12.5066 12.769H41.2588C41.615 12.769 41.904 13.058 41.904 13.4142C41.904 13.7703 41.615 14.0593 41.2588 14.0593H12.5066C12.1739 14.0593 11.8699 14.1971 11.6481 14.4172C11.428 14.6372 11.2903 14.9413 11.2903 15.2757V18.088L11.2922 18.088ZM48.7099 17.6428H27.3229L22.7278 19.3211C22.6472 19.3564 22.5581 19.3782 22.4641 19.3782H11.2917V46.9895C11.2917 47.3238 11.4294 47.6262 11.6495 47.848C11.8696 48.0681 12.1737 48.2058 12.508 48.2058H47.4948C47.8291 48.2058 48.1315 48.0681 48.3533 47.848C48.5734 47.6279 48.7112 47.3238 48.7112 46.9895V17.6428L48.7099 17.6428Z" fill="#001938"/>
</g>
</svg>
