<svg width="50" height="51" viewBox="0 0 50 51" fill="none" xmlns="http://www.w3.org/2000/svg">
<g id="Frame 1321315625">
<g id="Group 48095506">
<path id="Vector" d="M43.125 11.769H6.875C6.37789 11.7696 5.90129 11.9673 5.54977 12.3188C5.19826 12.6703 5.00054 13.1469 5 13.644V35.519C5.00054 36.0162 5.19826 36.4928 5.54977 36.8443C5.90129 37.1958 6.37789 37.3935 6.875 37.394H21.7938L20.8627 39.269H18.4375C18.2717 39.269 18.1128 39.3349 17.9956 39.4521C17.8783 39.5693 17.8125 39.7283 17.8125 39.894C17.8125 40.0598 17.8783 40.2188 17.9956 40.336C18.1128 40.4532 18.2717 40.519 18.4375 40.519H31.5625C31.7283 40.519 31.8872 40.4532 32.0044 40.336C32.1217 40.2188 32.1875 40.0598 32.1875 39.894C32.1875 39.7283 32.1217 39.5693 32.0044 39.4521C31.8872 39.3349 31.7283 39.269 31.5625 39.269H29.1373L28.2062 37.394H43.125C43.6221 37.3935 44.0987 37.1958 44.4502 36.8443C44.8017 36.4928 44.9995 36.0162 45 35.519V13.644C44.9995 13.1469 44.8017 12.6703 44.4502 12.3188C44.0987 11.9673 43.6221 11.7696 43.125 11.769ZM6.875 13.019H43.125C43.2907 13.0192 43.4496 13.0851 43.5667 13.2023C43.6839 13.3195 43.7498 13.4783 43.75 13.644V15.519H6.25V13.644C6.25019 13.4783 6.3161 13.3195 6.43327 13.2023C6.55044 13.0851 6.7093 13.0192 6.875 13.019ZM27.7417 39.269H22.2583L23.1894 37.394H26.8106L27.7417 39.269ZM43.125 36.144H6.875C6.7093 36.1439 6.55044 36.0779 6.43327 35.9608C6.3161 35.8436 6.25019 35.6847 6.25 35.519V16.769H43.75V35.519C43.7498 35.6847 43.6839 35.8436 43.5667 35.9608C43.4496 36.0779 43.2907 36.1438 43.125 36.144Z" fill="#001938"/>
<path id="Vector_2" d="M9.375 14.894C9.72018 14.894 10 14.6142 10 14.269C10 13.9239 9.72018 13.644 9.375 13.644C9.02982 13.644 8.75 13.9239 8.75 14.269C8.75 14.6142 9.02982 14.894 9.375 14.894Z" fill="#001938"/>
<path id="Vector_3" d="M11.875 14.894C12.2202 14.894 12.5 14.6142 12.5 14.269C12.5 13.9239 12.2202 13.644 11.875 13.644C11.5298 13.644 11.25 13.9239 11.25 14.269C11.25 14.6142 11.5298 14.894 11.875 14.894Z" fill="#001938"/>
<path id="Vector_4" d="M14.375 14.894C14.7202 14.894 15 14.6142 15 14.269C15 13.9239 14.7202 13.644 14.375 13.644C14.0298 13.644 13.75 13.9239 13.75 14.269C13.75 14.6142 14.0298 14.894 14.375 14.894Z" fill="#001938"/>
<path id="Vector_5" d="M10.625 18.3315H8.125C7.95924 18.3315 7.80027 18.3974 7.68306 18.5146C7.56585 18.6318 7.5 18.7908 7.5 18.9565C7.5 19.1223 7.56585 19.2813 7.68306 19.3985C7.80027 19.5157 7.95924 19.5815 8.125 19.5815H10.625C10.7908 19.5815 10.9497 19.5157 11.0669 19.3985C11.1842 19.2813 11.25 19.1223 11.25 18.9565C11.25 18.7908 11.1842 18.6318 11.0669 18.5146C10.9497 18.3974 10.7908 18.3315 10.625 18.3315Z" fill="#001938"/>
<path id="Vector_6" d="M10.625 20.8315H8.125C7.95924 20.8315 7.80027 20.8974 7.68306 21.0146C7.56585 21.1318 7.5 21.2908 7.5 21.4565C7.5 21.6223 7.56585 21.7813 7.68306 21.8985C7.80027 22.0157 7.95924 22.0815 8.125 22.0815H10.625C10.7908 22.0815 10.9497 22.0157 11.0669 21.8985C11.1842 21.7813 11.25 21.6223 11.25 21.4565C11.25 21.2908 11.1842 21.1318 11.0669 21.0146C10.9497 20.8974 10.7908 20.8315 10.625 20.8315Z" fill="#001938"/>
<path id="Vector_7" d="M10.625 23.3315H9.375C9.20924 23.3315 9.05027 23.3974 8.93306 23.5146C8.81585 23.6318 8.75 23.7908 8.75 23.9565C8.75 24.1223 8.81585 24.2813 8.93306 24.3985C9.05027 24.5157 9.20924 24.5815 9.375 24.5815H10.625C10.7908 24.5815 10.9497 24.5157 11.0669 24.3985C11.1842 24.2813 11.25 24.1223 11.25 23.9565C11.25 23.7908 11.1842 23.6318 11.0669 23.5146C10.9497 23.3974 10.7908 23.3315 10.625 23.3315Z" fill="#001938"/>
<path id="Vector_8" d="M10.625 25.8315H9.375C9.20924 25.8315 9.05027 25.8974 8.93306 26.0146C8.81585 26.1318 8.75 26.2908 8.75 26.4565C8.75 26.6223 8.81585 26.7813 8.93306 26.8985C9.05027 27.0157 9.20924 27.0815 9.375 27.0815H10.625C10.7908 27.0815 10.9497 27.0157 11.0669 26.8985C11.1842 26.7813 11.25 26.6223 11.25 26.4565C11.25 26.2908 11.1842 26.1318 11.0669 26.0146C10.9497 25.8974 10.7908 25.8315 10.625 25.8315Z" fill="#001938"/>
<path id="Vector_9" d="M41.875 18.3315H39.375C39.2092 18.3315 39.0503 18.3974 38.9331 18.5146C38.8158 18.6318 38.75 18.7908 38.75 18.9565C38.75 19.1223 38.8158 19.2813 38.9331 19.3985C39.0503 19.5157 39.2092 19.5815 39.375 19.5815H41.875C42.0408 19.5815 42.1997 19.5157 42.3169 19.3985C42.4342 19.2813 42.5 19.1223 42.5 18.9565C42.5 18.7908 42.4342 18.6318 42.3169 18.5146C42.1997 18.3974 42.0408 18.3315 41.875 18.3315Z" fill="#001938"/>
<path id="Vector_10" d="M41.875 20.8315H39.375C39.2092 20.8315 39.0503 20.8974 38.9331 21.0146C38.8158 21.1318 38.75 21.2908 38.75 21.4565C38.75 21.6223 38.8158 21.7813 38.9331 21.8985C39.0503 22.0157 39.2092 22.0815 39.375 22.0815H41.875C42.0408 22.0815 42.1997 22.0157 42.3169 21.8985C42.4342 21.7813 42.5 21.6223 42.5 21.4565C42.5 21.2908 42.4342 21.1318 42.3169 21.0146C42.1997 20.8974 42.0408 20.8315 41.875 20.8315Z" fill="#001938"/>
<path id="Vector_11" d="M40.625 23.3315H39.375C39.2092 23.3315 39.0503 23.3974 38.9331 23.5146C38.8158 23.6318 38.75 23.7908 38.75 23.9565C38.75 24.1223 38.8158 24.2813 38.9331 24.3985C39.0503 24.5157 39.2092 24.5815 39.375 24.5815H40.625C40.7908 24.5815 40.9497 24.5157 41.0669 24.3985C41.1842 24.2813 41.25 24.1223 41.25 23.9565C41.25 23.7908 41.1842 23.6318 41.0669 23.5146C40.9497 23.3974 40.7908 23.3315 40.625 23.3315Z" fill="#001938"/>
<path id="Vector_12" d="M40.625 25.8315H39.375C39.2092 25.8315 39.0503 25.8974 38.9331 26.0146C38.8158 26.1318 38.75 26.2908 38.75 26.4565C38.75 26.6223 38.8158 26.7813 38.9331 26.8985C39.0503 27.0157 39.2092 27.0815 39.375 27.0815H40.625C40.7908 27.0815 40.9497 27.0157 41.0669 26.8985C41.1842 26.7813 41.25 26.6223 41.25 26.4565C41.25 26.2908 41.1842 26.1318 41.0669 26.0146C40.9497 25.8974 40.7908 25.8315 40.625 25.8315Z" fill="#001938"/>
<path id="Vector_13" d="M36.875 18.3315H13.125C12.9592 18.3315 12.8003 18.3974 12.6831 18.5146C12.5659 18.6318 12.5 18.7908 12.5 18.9565V33.9565C12.5 34.1223 12.5659 34.2813 12.6831 34.3985C12.8003 34.5157 12.9592 34.5815 13.125 34.5815H36.875C37.0408 34.5815 37.1997 34.5157 37.3169 34.3985C37.4341 34.2813 37.5 34.1223 37.5 33.9565V18.9565C37.5 18.7908 37.4341 18.6318 37.3169 18.5146C37.1997 18.3974 37.0408 18.3316 36.875 18.3315ZM36.25 33.3315H13.75V19.5815H36.25V33.3315Z" fill="#001938"/>
<path id="Vector_14" d="M25 31.4565C25.9889 31.4565 26.9556 31.1633 27.7779 30.6139C28.6001 30.0645 29.241 29.2836 29.6194 28.37C29.9978 27.4563 30.0969 26.451 29.9039 25.4811C29.711 24.5112 29.2348 23.6203 28.5355 22.921C27.8363 22.2217 26.9454 21.7455 25.9755 21.5526C25.0055 21.3597 24.0002 21.4587 23.0866 21.8371C22.173 22.2156 21.3921 22.8564 20.8427 23.6787C20.2932 24.5009 20 25.4676 20 26.4565C20.0015 27.7822 20.5288 29.0531 21.4661 29.9904C22.4035 30.9278 23.6744 31.455 25 31.4565ZM25 22.7065C25.7417 22.7065 26.4667 22.9265 27.0834 23.3385C27.7001 23.7506 28.1807 24.3363 28.4645 25.0215C28.7484 25.7067 28.8226 26.4607 28.6779 27.1881C28.5333 27.9156 28.1761 28.5837 27.6517 29.1082C27.1272 29.6326 26.459 29.9898 25.7316 30.1345C25.0042 30.2792 24.2502 30.2049 23.5649 29.9211C22.8797 29.6373 22.294 29.1566 21.882 28.5399C21.4699 27.9232 21.25 27.1982 21.25 26.4565C21.2511 25.4623 21.6466 24.5091 22.3496 23.8061C23.0526 23.1031 24.0058 22.7077 25 22.7065Z" fill="#001938"/>
<path id="Vector_15" d="M25 27.0815C25.1658 27.0815 25.3247 27.0157 25.4419 26.8985C25.5591 26.7813 25.625 26.6223 25.625 26.4565V24.5815C25.625 24.4158 25.5592 24.2568 25.4419 24.1396C25.3247 24.0224 25.1658 23.9565 25 23.9565C24.8342 23.9565 24.6753 24.0224 24.5581 24.1396C24.4408 24.2568 24.375 24.4158 24.375 24.5815V26.4565C24.375 26.6223 24.4409 26.7813 24.5581 26.8985C24.6753 27.0157 24.8342 27.0815 25 27.0815Z" fill="#001938"/>
<path id="Vector_16" d="M25 28.9565C25.3452 28.9565 25.625 28.6767 25.625 28.3315C25.625 27.9864 25.3452 27.7065 25 27.7065C24.6548 27.7065 24.375 27.9864 24.375 28.3315C24.375 28.6767 24.6548 28.9565 25 28.9565Z" fill="#001938"/>
</g>
</g>
</svg>
