<svg width="33" height="33" viewBox="0 0 33 33" fill="none" xmlns="http://www.w3.org/2000/svg">
<g id="Frame">
<path id="Vector" d="M28.7205 13.525C28.233 13.0162 27.7292 12.4913 27.5267 12.0025C27.3392 11.5487 27.3292 10.8775 27.318 10.1675C27.3005 8.995 27.2805 7.6675 26.3905 6.7775C25.5005 5.8875 24.168 5.8675 23.0005 5.85C22.2905 5.83875 21.6255 5.82875 21.1655 5.64125C20.6767 5.43875 20.1517 4.935 19.643 4.4475C18.813 3.6525 17.873 2.75 16.668 2.75C15.463 2.75 14.523 3.6525 13.693 4.4475C13.1842 4.935 12.6592 5.43875 12.1705 5.64125C11.7167 5.82875 11.0455 5.83875 10.3355 5.85C9.16297 5.8675 7.83547 5.8875 6.94547 6.7775C6.05547 7.6675 6.03547 9 6.01797 10.1675C6.00672 10.8775 5.99672 11.5425 5.80922 12.0025C5.60672 12.4913 5.10297 13.0162 4.61547 13.525C3.82047 14.355 2.91797 15.295 2.91797 16.5C2.91797 17.705 3.82047 18.645 4.61547 19.475C5.10297 19.9838 5.60672 20.5087 5.80922 20.9975C5.99672 21.4513 6.00672 22.1225 6.01797 22.8325C6.03547 24.005 6.05547 25.3325 6.94547 26.2225C7.83547 27.1125 9.16797 27.1325 10.3355 27.15C11.0455 27.1612 11.7105 27.1712 12.1705 27.3587C12.6592 27.5612 13.1842 28.065 13.693 28.5525C14.523 29.3475 15.463 30.25 16.668 30.25C17.873 30.25 18.813 29.3475 19.643 28.5525C20.1517 28.065 20.6767 27.5612 21.1655 27.3587C21.6192 27.1712 22.2905 27.1612 23.0005 27.15C24.173 27.1325 25.5005 27.1125 26.3905 26.2225C27.2805 25.3325 27.3005 24.005 27.318 22.8325C27.3292 22.1225 27.3392 21.4575 27.5267 20.9975C27.7292 20.5087 28.233 19.9838 28.7205 19.475C29.5155 18.645 30.418 17.705 30.418 16.5C30.418 15.295 29.5155 14.355 28.7205 13.525ZM27.638 18.4363C27.0542 19.045 26.4505 19.675 26.138 20.425C25.8405 21.1425 25.828 21.99 25.8155 22.81C25.8017 23.74 25.7867 24.7025 25.328 25.1625C24.8692 25.6225 23.9055 25.6362 22.9755 25.65C22.1555 25.6625 21.308 25.675 20.5905 25.9725C19.8405 26.2825 19.2155 26.8862 18.6017 27.4725C17.9455 28.0975 17.2667 28.7525 16.6655 28.7525C16.0642 28.7525 15.3855 28.1012 14.728 27.4725C14.1205 26.8888 13.4905 26.285 12.7405 25.9725C12.023 25.675 11.1755 25.6625 10.3555 25.65C9.42547 25.6362 8.46297 25.6213 8.00297 25.1625C7.54297 24.7038 7.52922 23.74 7.51547 22.81C7.50297 21.99 7.49047 21.1425 7.19297 20.425C6.88297 19.675 6.27922 19.05 5.69297 18.4363C5.06922 17.78 4.41797 17.1012 4.41797 16.5C4.41797 15.8988 5.06922 15.22 5.69797 14.5638C6.28172 13.955 6.88547 13.325 7.19797 12.575C7.49547 11.8575 7.50797 11.01 7.52047 10.19C7.53422 9.26 7.54922 8.2975 8.00797 7.8375C8.46672 7.3775 9.43047 7.36375 10.3605 7.35C11.1805 7.3375 12.028 7.325 12.7455 7.0275C13.4955 6.7175 14.1205 6.11375 14.7342 5.5275C15.388 4.90125 16.0667 4.25 16.668 4.25C17.2692 4.25 17.948 4.90125 18.6055 5.53C19.213 6.11375 19.843 6.7175 20.593 7.03C21.3105 7.3275 22.158 7.34 22.978 7.3525C23.908 7.36625 24.8705 7.38125 25.3305 7.84C25.7905 8.29875 25.8042 9.2625 25.818 10.1925C25.8305 11.0125 25.843 11.86 26.1405 12.5775C26.4505 13.3275 27.0542 13.9525 27.6405 14.5662C28.2655 15.2225 28.9205 15.9013 28.9205 16.5025C28.9205 17.1038 28.2667 17.78 27.638 18.4363ZM15.418 12.5C15.418 11.9561 15.2567 11.4244 14.9545 10.9722C14.6523 10.5199 14.2228 10.1675 13.7203 9.95933C13.2179 9.75119 12.6649 9.69673 12.1315 9.80284C11.598 9.90895 11.108 10.1709 10.7234 10.5555C10.3388 10.9401 10.0769 11.4301 9.97081 11.9635C9.8647 12.497 9.91916 13.0499 10.1273 13.5524C10.3354 14.0549 10.6879 14.4844 11.1402 14.7865C11.5924 15.0887 12.1241 15.25 12.668 15.25C13.3973 15.25 14.0968 14.9603 14.6125 14.4445C15.1282 13.9288 15.418 13.2293 15.418 12.5ZM11.418 12.5C11.418 12.2528 11.4913 12.0111 11.6286 11.8055C11.766 11.6 11.9612 11.4398 12.1896 11.3452C12.418 11.2505 12.6694 11.2258 12.9118 11.274C13.1543 11.3222 13.377 11.4413 13.5519 11.6161C13.7267 11.7909 13.8457 12.0137 13.894 12.2561C13.9422 12.4986 13.9174 12.7499 13.8228 12.9784C13.7282 13.2068 13.568 13.402 13.3624 13.5393C13.1569 13.6767 12.9152 13.75 12.668 13.75C12.3364 13.75 12.0185 13.6183 11.7841 13.3839C11.5497 13.1495 11.418 12.8315 11.418 12.5ZM20.668 17.75C20.1241 17.75 19.5924 17.9113 19.1402 18.2135C18.6879 18.5156 18.3354 18.9451 18.1273 19.4476C17.9192 19.9501 17.8647 20.5031 17.9708 21.0365C18.0769 21.5699 18.3388 22.0599 18.7234 22.4445C19.108 22.8291 19.598 23.091 20.1315 23.1972C20.6649 23.3033 21.2179 23.2488 21.7203 23.0407C22.2228 22.8325 22.6523 22.4801 22.9545 22.0278C23.2567 21.5756 23.418 21.0439 23.418 20.5C23.418 19.7707 23.1282 19.0712 22.6125 18.5555C22.0968 18.0397 21.3973 17.75 20.668 17.75ZM20.668 21.75C20.4207 21.75 20.1791 21.6767 19.9735 21.5393C19.7679 21.402 19.6077 21.2068 19.5131 20.9784C19.4185 20.7499 19.3938 20.4986 19.442 20.2561C19.4902 20.0137 19.6093 19.7909 19.7841 19.6161C19.9589 19.4413 20.1816 19.3223 20.4241 19.274C20.6666 19.2258 20.9179 19.2505 21.1463 19.3451C21.3747 19.4398 21.57 19.6 21.7073 19.8055C21.8447 20.0111 21.918 20.2528 21.918 20.5C21.918 20.8315 21.7863 21.1495 21.5519 21.3839C21.3174 21.6183 20.9995 21.75 20.668 21.75ZM22.198 12.03L12.198 22.03C12.0558 22.1625 11.8677 22.2346 11.6734 22.2312C11.4791 22.2277 11.2938 22.149 11.1563 22.0116C11.0189 21.8742 10.9402 21.6888 10.9368 21.4945C10.9334 21.3002 11.0055 21.1122 11.138 20.97L21.138 10.97C21.2801 10.8375 21.4682 10.7654 21.6625 10.7688C21.8568 10.7723 22.0422 10.851 22.1796 10.9884C22.317 11.1258 22.3957 11.3112 22.3991 11.5055C22.4026 11.6998 22.3305 11.8878 22.198 12.03Z" fill="#001938"/>
</g>
</svg>
