<svg width="21" height="32" viewBox="0 0 21 32" fill="none" xmlns="http://www.w3.org/2000/svg">
<g id="Ethereum 2.0">
<path id="Union" fill-rule="evenodd" clip-rule="evenodd" d="M9.92101 0.921423L0.984598 15.1431C0.879814 15.2297 0.808013 15.3468 0.776266 15.4747L0.5 15.9144L10.5 21.7014L20.5 15.9144L11.079 0.921423C11.0514 0.853772 11.0123 0.792039 10.9641 0.738656L10.5 0L10.0359 0.738656C9.98768 0.792039 9.94859 0.853772 9.92101 0.921423ZM9.875 3.34407L3.10957 14.1108L9.875 10.8903V3.34407ZM9.875 12.2747L2.64966 15.7141L9.875 19.8955V12.2747ZM11.125 19.8955V12.2883L18.2305 15.7835L11.125 19.8955ZM11.125 10.8953V3.34407L17.9926 14.2734L11.125 10.8953ZM10.4269 23.3951L0.5 17.6504L10.5 31.2499L20.5 17.6504L10.5731 23.3951C10.5491 23.3923 10.5247 23.3909 10.5 23.3909C10.4753 23.3909 10.4509 23.3923 10.4269 23.3951ZM9.875 24.52L5.04947 21.7274L9.875 28.2899V24.52ZM11.125 28.2899L15.9505 21.7274L11.125 24.52V28.2899Z" fill="#001938"/>
</g>
</svg>
