<svg width="60" height="61" viewBox="0 0 60 61" fill="none" xmlns="http://www.w3.org/2000/svg">
<g id="Frame 1321315642">
<g id="Group">
<path id="Compound Path" d="M29.9982 25.021C28.8613 25.021 27.75 25.3581 26.8047 25.9897C25.8594 26.6214 25.1226 27.5191 24.6876 28.5695C24.2525 29.6198 24.1387 30.7756 24.3605 31.8906C24.5822 33.0057 25.1297 34.0299 25.9336 34.8338C26.7375 35.6377 27.7618 36.1852 28.8768 36.407C29.9918 36.6288 31.1476 36.5149 32.198 36.0799C33.2483 35.6448 34.1461 34.908 34.7777 33.9628C35.4093 33.0175 35.7464 31.9061 35.7464 30.7692C35.7464 29.2447 35.1408 27.7826 34.0628 26.7046C32.9848 25.6266 31.5227 25.021 29.9982 25.021ZM29.9982 34.5697C29.2352 34.5696 28.4893 34.3427 27.8555 33.9177C27.2218 33.4928 26.7286 32.889 26.4388 32.1831C26.149 31.4772 26.0757 30.7011 26.228 29.9534C26.3804 29.2057 26.7516 28.5201 27.2945 27.9839C27.8374 27.4477 28.5275 27.085 29.2771 26.942C30.0266 26.7989 30.8018 26.8819 31.504 27.1805C32.2062 27.479 32.8039 27.9796 33.2209 28.6186C33.638 29.2576 33.8556 30.0062 33.8462 30.7692C33.8462 31.7898 33.4408 32.7685 32.7192 33.4901C31.9975 34.2118 31.0188 34.6172 29.9982 34.6172V34.5697Z" fill="#001938"/>
<path id="Compound Path_2" d="M35.7464 10.769H24.25V22.2655H35.7464V10.769ZM33.8462 20.3177H26.1502V12.6693H33.8462V20.3177Z" fill="#001938"/>
<path id="Compound Path_3" d="M35.7464 39.2725H24.25V50.7689H35.7464V39.2725ZM33.8462 48.8212H26.1502V41.1727H33.8462V48.8212Z" fill="#001938"/>
<path id="Compound Path_4" d="M21.4964 25.021H10V36.5174H21.4964V25.021ZM19.5962 34.5697H11.9002V26.9212H19.5962V34.5697Z" fill="#001938"/>
<path id="Compound Path_5" d="M21.4964 10.769H10V22.2655H21.4964V10.769ZM19.5962 20.3177H11.9002V12.6693H19.5962V20.3177Z" fill="#001938"/>
<path id="Compound Path_6" d="M15.7482 39.2725C14.6113 39.2725 13.5 39.6096 12.5547 40.2412C11.6094 40.8728 10.8726 41.7706 10.4376 42.8209C10.0025 43.8713 9.88866 45.0271 10.1105 46.1421C10.3322 47.2571 10.8797 48.2814 11.6836 49.0853C12.4875 49.8892 13.5118 50.4366 14.6268 50.6584C15.7418 50.8802 16.8976 50.7664 17.948 50.3313C18.9983 49.8963 19.8961 49.1595 20.5277 48.2142C21.1593 47.2689 21.4964 46.1576 21.4964 45.0207C21.4964 44.2658 21.3478 43.5183 21.0589 42.8209C20.77 42.1235 20.3466 41.4898 19.8128 40.9561C19.2791 40.4223 18.6454 39.9989 17.948 39.71C17.2506 39.4211 16.5031 39.2725 15.7482 39.2725ZM15.7482 48.8212C14.9852 48.8211 14.2393 48.5942 13.6055 48.1692C12.9718 47.7442 12.4786 47.1404 12.1888 46.4345C11.899 45.7286 11.8257 44.9525 11.978 44.2048C12.1304 43.4571 12.5016 42.7716 13.0445 42.2354C13.5874 41.6992 14.2775 41.3365 15.0271 41.1934C15.7766 41.0504 16.5518 41.1334 17.254 41.4319C17.9562 41.7305 18.5539 42.2311 18.9709 42.8701C19.388 43.5091 19.6056 44.2577 19.5962 45.0207C19.5962 46.0412 19.1908 47.02 18.4692 47.7416C17.7475 48.4632 16.7688 48.8687 15.7482 48.8687V48.8212Z" fill="#001938"/>
<path id="Compound Path_7" d="M50.0003 25.021H38.5039V36.5174H50.0003V25.021ZM48.1001 34.5697H40.4041V26.9212H48.1001V34.5697Z" fill="#001938"/>
<path id="Compound Path_8" d="M44.2521 10.769C43.1152 10.769 42.0039 11.1062 41.0586 11.7378C40.1133 12.3694 39.3765 13.2672 38.9415 14.3175C38.5064 15.3679 38.3926 16.5236 38.6144 17.6387C38.8362 18.7537 39.3836 19.778 40.1875 20.5819C40.9914 21.3858 42.0157 21.9332 43.1307 22.155C44.2457 22.3768 45.4015 22.263 46.4519 21.8279C47.5022 21.3929 48.4 20.6561 49.0316 19.7108C49.6632 18.7655 50.0003 17.6542 50.0003 16.5173C50.0003 14.9927 49.3947 13.5307 48.3167 12.4527C47.2387 11.3747 45.7766 10.769 44.2521 10.769ZM44.2521 20.3177C43.4891 20.3177 42.7432 20.0907 42.1094 19.6658C41.4757 19.2408 40.9825 18.637 40.6927 17.9311C40.4029 17.2252 40.3296 16.4491 40.4819 15.7014C40.6343 14.9537 41.0055 14.2682 41.5484 13.732C42.0914 13.1958 42.7814 12.8331 43.531 12.69C44.2805 12.5469 45.0557 12.63 45.7579 12.9285C46.4601 13.227 47.0578 13.7276 47.4748 14.3666C47.8919 15.0057 48.1095 15.7543 48.1001 16.5173C48.1001 17.5378 47.6947 18.5166 46.9731 19.2382C46.2514 19.9598 45.2727 20.3652 44.2521 20.3652V20.3177Z" fill="#001938"/>
<path id="Compound Path_9" d="M50.0003 39.2725H38.5039V50.7689H50.0003V39.2725ZM48.1001 48.8212H40.4041V41.1727H48.1001V48.8212Z" fill="#001938"/>
</g>
</g>
</svg>
