<svg width="60" height="61" viewBox="0 0 60 61" fill="none" xmlns="http://www.w3.org/2000/svg">
<g id="Frame 1321315638">
<path id="Vector" fill-rule="evenodd" clip-rule="evenodd" d="M38.5718 44.9027H21.9022C21.516 44.9044 21.2028 45.2158 21.2011 45.602V49.5476H39.2709V45.602C39.2691 45.2158 38.958 44.9044 38.5718 44.9027ZM32.6205 36.5679V36.5731V36.5783V36.5661V36.5679ZM27.7635 36.5679V36.58V36.5748V36.5696V36.5679ZM36.3245 43.8378H24.1503V41.8059L24.1625 41.7989L24.1921 41.7781C24.2617 41.7311 24.3434 41.6737 24.4304 41.6093C24.5383 41.531 24.6705 41.4284 24.8183 41.3136C24.8879 41.2596 24.9645 41.2005 25.1071 41.0909C25.3229 40.9274 25.4307 40.8456 25.5473 40.7586C25.683 40.656 25.8274 40.5481 26.0587 40.3724C26.2692 40.2124 26.471 40.061 26.6102 39.9479C26.7998 39.7966 26.979 39.6505 27.1286 39.5165L27.1304 39.5148C27.2887 39.3791 27.4348 39.2312 27.5688 39.0729C27.7097 38.9076 27.8175 38.718 27.8889 38.5127C27.9358 38.3579 27.9689 38.1996 27.9863 38.0395C27.9932 37.9351 28.0141 37.8325 28.0489 37.7351C28.1202 37.6377 28.2072 37.5507 28.3046 37.4794C28.3829 37.415 28.4577 37.3471 28.5273 37.2741C28.6735 37.1314 28.7726 36.9453 28.8074 36.7435C28.8387 36.5399 28.8057 36.3329 28.7152 36.1485C28.6543 36.0215 28.5847 35.8998 28.5082 35.7815C28.4316 35.6684 28.3655 35.5483 28.3116 35.4231C28.2925 35.3692 28.2873 35.3135 28.2942 35.2561C28.3116 35.1395 28.3412 35.0264 28.3829 34.9151C28.4038 34.856 28.463 34.7029 28.5221 34.5463C28.6317 34.2819 28.7222 34.0105 28.797 33.7339C28.8492 33.5356 28.8631 33.3285 28.837 33.125C28.8074 32.9249 28.7204 32.7371 28.583 32.5857C28.5117 32.5074 28.4316 32.4396 28.3429 32.3804C28.376 32.3317 28.4108 32.283 28.449 32.2291C28.5586 32.0743 28.6804 31.902 28.7761 31.7559C28.9031 31.5698 29.0092 31.3697 29.0945 31.161C29.2041 30.8774 29.2789 30.5834 29.3171 30.2824C29.3954 29.5622 29.4372 28.8402 29.4424 28.1165C29.4476 27.9408 29.4511 27.7651 29.4563 27.5894V27.5911C29.4928 26.9753 29.4789 26.356 29.4198 25.7419C29.3745 25.3957 29.305 25.053 29.2075 24.7172C29.1223 24.4128 29.0057 24.1188 28.8596 23.8387C28.6578 23.482 28.3707 23.1793 28.0246 22.9566V21.5092C28.0246 21.4379 28.0089 21.3666 27.9793 21.3005C27.741 20.6325 27.5009 19.9714 27.0538 19.6635V19.6617C26.7164 19.453 26.3075 19.3938 25.923 19.4999C25.8413 19.5138 25.7595 19.5243 25.676 19.5295C25.5856 19.5295 25.4951 19.5121 25.4116 19.4773C25.3072 19.4338 25.208 19.3816 25.1124 19.319C25.0393 19.2738 25.088 19.3033 24.9923 19.2407V19.2425C24.801 19.1085 24.5922 19.0006 24.373 18.9224C24.206 18.8719 24.032 18.8475 23.8563 18.8545C23.6667 18.8615 23.4788 18.8945 23.2962 18.9502C23.0804 19.0146 22.8699 19.0963 22.6664 19.192C22.4385 19.2981 22.2158 19.4182 22.0018 19.5486C21.7096 19.7261 21.4225 19.9244 21.1389 20.1227C20.965 20.2445 20.791 20.3663 20.704 20.4237C20.5074 20.5577 20.3039 20.6829 20.1004 20.8082C19.862 20.9526 19.6828 21.0587 19.5089 21.1613C19.3419 21.2587 19.1783 21.3562 18.9418 21.4884C18.7504 21.5962 18.573 21.6919 18.4164 21.765C18.2598 21.8398 18.0893 21.9111 17.9119 21.979C17.7327 22.0468 17.5622 22.106 17.4074 22.1529C17.2456 22.2016 17.0821 22.2469 16.9203 22.2799V22.2817C16.7915 22.3112 16.6576 22.3269 16.5254 22.3321C16.421 22.3339 16.3166 22.3199 16.2174 22.2956C16.1235 22.273 16.033 22.2399 15.9478 22.1964C15.873 22.1634 15.8051 22.1199 15.7408 22.0694C15.6921 22.0311 15.6486 21.9877 15.612 21.9372C15.5738 21.8798 15.5442 21.8206 15.5216 21.7563C15.5007 21.6937 15.4885 21.6275 15.4868 21.5632C15.485 21.5075 15.492 21.4518 15.5042 21.3979C15.5198 21.3388 15.5424 21.2796 15.572 21.2257C15.5964 21.1805 15.6259 21.1387 15.6607 21.1004C15.6973 21.0587 15.7373 21.0187 15.7808 20.9856C15.8278 20.9473 15.8765 20.9143 15.9286 20.8864C15.9687 20.8638 16.0122 20.8447 16.0574 20.8325C16.0991 20.8221 16.1426 20.8169 16.1844 20.8169C16.2279 20.8169 16.2731 20.8221 16.3149 20.8308C16.367 20.8464 16.4192 20.8656 16.4679 20.8882C16.5515 20.923 16.6437 20.9595 16.7359 20.9891C16.8994 21.043 17.0699 21.0726 17.2421 21.0743C17.4822 21.0778 17.7188 21.0326 17.9414 20.9421C18.2041 20.8273 18.4546 20.6847 18.6895 20.5159C18.9417 20.3419 19.2183 20.1314 19.5245 19.8966C19.7159 19.7487 19.9212 19.5904 20.1247 19.4321C20.5353 19.1137 20.9476 18.7936 21.3268 18.5101C21.586 18.317 21.7565 18.1952 21.8835 18.1099C22.0105 18.0247 22.1462 17.9377 22.2871 17.849C22.428 17.7603 22.569 17.6715 22.7046 17.5915C22.8403 17.5115 22.9969 17.4263 23.1691 17.3428C23.3431 17.2593 23.5206 17.181 23.698 17.1131C23.8824 17.0418 24.0616 16.9792 24.2199 16.9357L24.2217 16.9322C24.3469 16.8939 24.4739 16.8661 24.6044 16.847C24.7001 16.833 24.7975 16.8313 24.8949 16.84C24.9906 16.8487 25.0845 16.8678 25.175 16.8957C25.2533 16.92 25.3281 16.9513 25.3977 16.9931C25.4742 17.0418 25.5438 17.0975 25.6099 17.1601C25.6795 17.2245 25.7543 17.2853 25.8326 17.341C25.9474 17.4176 26.0761 17.4732 26.2118 17.5028C26.3266 17.5272 26.4415 17.5428 26.558 17.5515C26.6798 17.562 26.8225 17.5741 26.9616 17.5811C27.113 17.5881 27.2765 17.5915 27.44 17.5846C27.6088 17.5794 27.7775 17.5602 27.9428 17.5272C28.1202 17.4924 28.2925 17.4297 28.449 17.341C28.5899 17.2593 28.7169 17.1514 28.823 17.0261C28.9274 16.9009 29.0127 16.76 29.0753 16.6069C29.1188 16.4938 29.1501 16.3738 29.164 16.2537C29.1745 16.1789 29.1779 16.1059 29.1779 16.031C29.1779 15.4483 29.1501 14.7959 29.1205 14.1505C29.1118 13.9626 29.1049 13.7747 29.0962 13.5972L30.2235 12.9292L31.2603 13.5868C31.2533 13.7643 31.2446 13.9574 31.2359 14.1505C31.2081 14.7959 31.1785 15.4483 31.1785 16.031H31.1803C31.175 16.2276 31.2116 16.4225 31.2864 16.6052C31.3473 16.7582 31.4325 16.8992 31.5386 17.0244C31.643 17.1497 31.77 17.2575 31.9109 17.3393C32.0692 17.428 32.2397 17.4906 32.4172 17.5254C32.5824 17.5585 32.7512 17.5776 32.9199 17.5828C33.0817 17.5898 33.2452 17.5863 33.3983 17.5794C33.5392 17.5724 33.6819 17.562 33.8019 17.5498C33.9185 17.5411 34.035 17.5254 34.1481 17.5011C34.2838 17.4715 34.4125 17.4158 34.5273 17.3393C34.6056 17.2836 34.6804 17.2227 34.75 17.1584C34.8161 17.0957 34.8857 17.0401 34.9623 16.9914C35.0319 16.9496 35.1067 16.9183 35.1849 16.8939C35.2754 16.8661 35.3711 16.847 35.465 16.8383C35.5625 16.8296 35.6599 16.8313 35.7556 16.8452C35.886 16.8644 36.0148 16.8922 36.14 16.9305C36.2983 16.9757 36.4775 17.0383 36.6619 17.1079C36.8394 17.1758 37.0186 17.2541 37.1908 17.3376C37.363 17.4211 37.5161 17.5063 37.6553 17.5863C37.7945 17.6681 37.9354 17.7568 38.0728 17.8438C38.2102 17.9308 38.3459 18.016 38.4764 18.1047C38.6069 18.1935 38.7739 18.3135 39.0331 18.5049C39.4123 18.7884 39.8246 19.1085 40.2352 19.4269C40.4405 19.5852 40.644 19.7435 40.8354 19.8914C41.1416 20.128 41.4182 20.3367 41.6704 20.5107V20.5142C41.9036 20.6829 42.1541 20.8256 42.4185 20.9404C42.6412 21.0309 42.8778 21.0761 43.1178 21.0726C43.2901 21.0709 43.4606 21.0413 43.6241 20.9874C43.6415 20.9821 43.6571 20.9769 43.6728 20.97C43.7615 20.9387 43.8311 20.9108 43.8955 20.8865C43.9459 20.8639 43.9964 20.8447 44.0468 20.8291C44.092 20.8204 44.1355 20.8151 44.1808 20.8151C44.2243 20.8151 44.266 20.8204 44.3078 20.8308C44.353 20.843 44.3965 20.8621 44.4365 20.8847C44.4887 20.9126 44.5391 20.9456 44.5844 20.9821C44.6279 21.0169 44.6679 21.0569 44.7044 21.0987C44.7392 21.137 44.7688 21.1787 44.7949 21.224C44.8244 21.2779 44.8471 21.337 44.861 21.3962C44.8749 21.4501 44.8819 21.5058 44.8801 21.5615C44.8766 21.6258 44.8645 21.6919 44.8436 21.7546C44.8227 21.8172 44.7931 21.8781 44.7549 21.9355C44.7183 21.9859 44.6748 22.0294 44.6261 22.0677C44.5618 22.1181 44.4922 22.1599 44.4191 22.1947C44.3339 22.2364 44.2434 22.2695 44.1512 22.2939C44.0503 22.3182 43.9477 22.3321 43.8433 22.3304C43.7111 22.3252 43.5771 22.3095 43.4484 22.2799C43.2866 22.2469 43.1231 22.2017 42.9612 22.1529C42.8082 22.106 42.6411 22.0503 42.4567 21.979C42.2723 21.9094 42.1088 21.8398 41.9522 21.765C41.7957 21.6884 41.6182 21.5945 41.4269 21.4884C41.1903 21.3544 41.0267 21.2588 40.8597 21.1613C40.6858 21.0587 40.5066 20.9526 40.2683 20.8082C40.0647 20.6847 39.8612 20.5559 39.6646 20.4237C39.5776 20.3646 39.4036 20.2463 39.2279 20.1228C38.9444 19.9244 38.6591 19.7261 38.3651 19.5486L38.3668 19.5469C38.1528 19.4164 37.9302 19.2964 37.7023 19.1903C37.4987 19.0946 37.2882 19.0128 37.0725 18.9485C36.8898 18.8928 36.7019 18.8597 36.5106 18.8528C36.3366 18.8458 36.1626 18.8684 35.9957 18.9206C35.7765 18.9989 35.5677 19.1068 35.3763 19.2407C35.2807 19.3016 35.3294 19.272 35.2563 19.319V19.3173C35.1606 19.3799 35.0615 19.4321 34.9571 19.4756C34.8718 19.5104 34.7814 19.5278 34.6892 19.5278C34.6109 19.5226 34.5326 19.5139 34.4543 19.4999C34.0716 19.3938 33.6611 19.453 33.3235 19.6617C33.0643 19.8653 32.8643 20.1314 32.739 20.4341C32.6085 20.7108 32.4972 21.0222 32.3876 21.3335H32.3858C32.3667 21.391 32.3563 21.4501 32.3563 21.511V22.9584C32.0101 23.1811 31.723 23.4838 31.5195 23.8404C31.3751 24.1205 31.2585 24.4145 31.1733 24.719C31.0759 25.0547 31.0063 25.3974 30.9611 25.7436C30.9002 26.3577 30.888 26.977 30.9245 27.5929C30.9298 27.7686 30.935 27.9443 30.9385 28.12V28.1183C30.9419 28.842 30.9837 29.5639 31.0637 30.2841C31.102 30.5851 31.1768 30.8791 31.2864 31.1627C31.3716 31.3715 31.4778 31.5715 31.6047 31.7576C31.7004 31.9038 31.8222 32.076 31.9301 32.2308C31.9683 32.283 32.0031 32.3335 32.0362 32.3822C31.9492 32.4413 31.8692 32.5092 31.7961 32.5875C31.6604 32.7388 31.5734 32.9267 31.5439 33.1267C31.5178 33.3303 31.5317 33.5373 31.5839 33.7356C31.6587 34.0122 31.7491 34.2836 31.857 34.548C31.9179 34.7046 31.977 34.8594 31.9962 34.9169H31.9979C32.0397 35.0282 32.0692 35.1413 32.0866 35.2578C32.0936 35.3152 32.0866 35.3709 32.0692 35.4248C32.0153 35.5501 31.9492 35.6701 31.8726 35.7832C31.7961 35.9015 31.7265 36.0233 31.6656 36.1503C31.5752 36.3347 31.5421 36.5417 31.5717 36.7452C31.6082 36.947 31.7056 37.1332 31.8518 37.2758C31.9231 37.3489 31.9979 37.4167 32.0745 37.4811C32.1736 37.5524 32.2589 37.6394 32.3319 37.7368C32.365 37.8343 32.3876 37.9352 32.3945 38.0378C32.4119 38.1996 32.445 38.3579 32.492 38.5127C32.5633 38.718 32.6712 38.9076 32.8103 39.0729C32.946 39.2312 33.0921 39.3791 33.2487 39.5148C33.4001 39.6487 33.5775 39.7949 33.7672 39.9462C33.9081 40.0575 34.1081 40.2106 34.3186 40.3707C34.5483 40.5446 34.6944 40.6542 34.8301 40.7569C34.9466 40.8456 35.0528 40.9256 35.2702 41.0892C35.4129 41.197 35.4894 41.2579 35.559 41.3118C35.7086 41.4284 35.8408 41.5293 35.9469 41.6076C36.0896 41.712 36.2236 41.8007 36.3192 41.8616L36.3227 43.8378H36.3245ZM11.4141 32.9458L20.8551 32.9597L16.1161 24.07L11.4141 32.9458ZM19.6986 37.0271H19.6968C20.5162 36.2216 21.0346 35.1604 21.1703 34.0192L11.096 34.0053C11.3221 35.9311 12.6251 37.5594 14.4535 38.2014C16.2837 38.8433 18.3192 38.3875 19.6986 37.0271ZM39.1463 32.9458L48.5873 32.9597L43.8519 24.07L39.1463 32.9458ZM47.429 37.0271C48.2466 36.2216 48.7668 35.1604 48.9025 34.0192L38.8264 34.0053C39.0525 35.9311 40.3555 37.5594 42.1839 38.2014C44.0123 38.8433 46.0479 38.3875 47.429 37.0271ZM49.9967 33.546C49.9254 36.8948 47.1802 39.5654 43.8313 39.548C40.4824 39.5289 37.7687 36.8272 37.7321 33.4783V33.4748C37.7321 33.3757 37.76 33.2782 37.8122 33.193L43.0678 23.2785C42.9338 23.2455 42.7999 23.2072 42.6624 23.1655C42.4572 23.1028 42.2641 23.0385 42.0883 22.9706C41.9126 22.9028 41.7126 22.8193 41.5038 22.7184C41.2951 22.6175 41.1037 22.5148 40.9176 22.4122C40.7784 22.3339 40.5609 22.2052 40.3348 22.0729C40.1173 21.9459 39.8964 21.8155 39.7259 21.7111C39.5206 21.5858 39.3084 21.4519 39.0857 21.3023C38.8787 21.1631 38.7551 21.0796 38.6334 20.9926C38.362 20.803 38.0888 20.6134 37.8296 20.4585H37.8279C37.647 20.3489 37.4591 20.248 37.2677 20.1576C37.1112 20.0845 36.9511 20.0219 36.7876 19.9714C36.6919 19.9401 36.5928 19.9227 36.4919 19.9175C36.4362 19.9158 36.3805 19.9227 36.3266 19.9401C36.1944 19.9923 36.0709 20.0602 35.9543 20.1419L35.8204 20.2237H35.8221C35.6725 20.3194 35.5159 20.4011 35.3524 20.469C35.1384 20.5542 34.9105 20.596 34.6791 20.5925C34.5521 20.589 34.4251 20.5751 34.2999 20.5542C34.1781 20.5212 34.0511 20.516 33.9259 20.5368C33.8267 20.6377 33.7484 20.7578 33.6997 20.89C33.604 21.0918 33.5118 21.344 33.4196 21.6033V23.2333V23.2316C33.4196 23.4195 33.3222 23.5917 33.1622 23.6891L33.0386 23.7778C32.802 23.9205 32.602 24.1136 32.4541 24.3467C32.3428 24.5607 32.2541 24.7851 32.1897 25.0165C32.1097 25.2983 32.0523 25.5853 32.0157 25.8741C31.9601 26.4378 31.9496 27.0032 31.9827 27.5668L31.9896 27.8052L31.9966 28.0974C32.0001 28.7793 32.0401 29.4596 32.1131 30.138C32.141 30.3538 32.1932 30.566 32.2715 30.7713C32.3306 30.9157 32.4054 31.0531 32.4941 31.1836C32.6055 31.3541 32.7064 31.495 32.7951 31.6237C32.8977 31.7698 32.9917 31.9003 33.0456 31.9873H33.0473C33.1395 32.1213 33.2004 32.2726 33.2248 32.4327C33.2596 32.664 33.1639 32.8954 32.976 33.0363C32.9047 33.0955 32.8281 33.1477 32.7464 33.1929C32.6907 33.2225 32.6385 33.2573 32.5898 33.2973C32.5863 33.3634 32.595 33.4295 32.6124 33.4921C32.6803 33.7235 32.7586 33.9496 32.849 34.1723C32.8943 34.2854 32.9343 34.395 32.9969 34.5759C33.0665 34.7621 33.1152 34.9569 33.1395 35.1535C33.1639 35.364 33.1395 35.578 33.0682 35.778C32.9899 35.9763 32.8908 36.1677 32.7725 36.3451C32.722 36.4269 32.6733 36.5069 32.6385 36.5713C32.6664 36.5956 32.7098 36.6322 32.7551 36.6687C32.9673 36.8235 33.1448 37.0201 33.277 37.248C33.3727 37.4516 33.4301 37.6708 33.4475 37.8952C33.4579 37.9909 33.4753 38.0865 33.4997 38.1787C33.531 38.2588 33.5762 38.3336 33.6336 38.3979C33.7328 38.511 33.8406 38.6171 33.9555 38.7146C34.1033 38.845 34.2669 38.979 34.4321 39.1112C34.6478 39.2834 34.8183 39.4139 34.9627 39.5235C35.0897 39.6209 35.2863 39.767 35.4707 39.9062C35.6742 40.0593 35.8656 40.202 35.9195 40.2437C35.9874 40.2959 36.1039 40.3864 36.2118 40.4699C36.3457 40.5725 36.4605 40.663 36.5806 40.75C36.7267 40.8578 36.845 40.9344 36.9216 40.9848H36.9233C37.1895 41.0196 37.3895 41.2458 37.3895 41.5137V43.8379H38.5743C39.5467 43.8414 40.3348 44.6294 40.3383 45.6036V50.0799C40.3365 50.3739 40.0999 50.6105 39.8059 50.6122H20.6695C20.3773 50.6105 20.1389 50.3739 20.1372 50.0799V45.6018C20.1407 44.6294 20.9287 43.8413 21.9029 43.8378H23.0859V41.5154C23.0859 41.3153 23.199 41.1327 23.3747 41.0422L23.4112 41.0196L23.5713 40.9135C23.5799 40.9065 23.5904 40.9013 23.5991 40.8961C23.66 40.8543 23.7278 40.8074 23.8009 40.7534C23.9192 40.6647 24.0357 40.576 24.1697 40.4734C24.2776 40.3881 24.3958 40.2976 24.462 40.2472L24.9108 39.9097C25.0952 39.7723 25.2935 39.6227 25.4188 39.527C25.5631 39.4174 25.7336 39.2852 25.9493 39.1147C26.1146 38.9807 26.2781 38.8468 26.426 38.718L26.4278 38.7163C26.5443 38.6189 26.6504 38.5128 26.7496 38.3997C26.807 38.3353 26.8522 38.2605 26.8835 38.1805C26.9096 38.0883 26.927 37.9943 26.9357 37.9004C26.9531 37.6742 27.0105 37.4533 27.1062 37.248C27.2367 37.0184 27.4124 36.8201 27.6247 36.6618C27.6699 36.6235 27.7134 36.5887 27.7412 36.5643C27.7099 36.5 27.6612 36.42 27.6073 36.3382H27.6055C27.4872 36.1607 27.3881 35.9711 27.3098 35.7711C27.2385 35.571 27.2141 35.3588 27.2385 35.1483C27.2645 34.95 27.3115 34.7551 27.3811 34.569C27.4437 34.3881 27.4855 34.2785 27.529 34.1689V34.1671C27.6212 33.9462 27.6995 33.7183 27.7656 33.4869C27.7847 33.4243 27.7917 33.3582 27.7899 33.2921C27.7395 33.2521 27.6873 33.2173 27.6316 33.1877C27.5516 33.1425 27.4733 33.0903 27.402 33.0311C27.2158 32.892 27.1202 32.6588 27.1549 32.4275C27.1793 32.2674 27.2402 32.1161 27.3324 31.9821C27.3863 31.8934 27.4803 31.7646 27.5829 31.6185C27.6716 31.4915 27.7725 31.3506 27.8839 31.1784H27.8856C27.9726 31.0496 28.0474 30.9105 28.1083 30.7661C28.1866 30.5625 28.2388 30.3486 28.2666 30.1328C28.3397 29.4544 28.3779 28.7741 28.3831 28.0922L28.3971 27.5616C28.4301 26.998 28.4179 26.4326 28.364 25.8707C28.3275 25.5801 28.2683 25.2931 28.1883 25.013C28.1239 24.7799 28.0352 24.5555 27.9256 24.3415C27.776 24.1101 27.5759 23.9153 27.3411 23.7726C27.2941 23.7396 27.2471 23.7065 27.1758 23.6526H27.1741C27.0401 23.5517 26.9618 23.3951 26.9618 23.2281V21.598C26.8662 21.2136 26.6939 20.8517 26.4556 20.5351C26.3321 20.5125 26.2034 20.5177 26.0816 20.5508C25.9563 20.5716 25.8293 20.5856 25.7023 20.589C25.4727 20.5925 25.2431 20.5508 25.0291 20.4655C24.8656 20.3994 24.709 20.3159 24.5611 20.2202C24.3993 20.1211 24.4428 20.1472 24.4272 20.1385C24.3106 20.0584 24.1871 19.9906 24.0566 19.9367C24.0027 19.9193 23.947 19.9123 23.8896 19.9141C23.7904 19.9193 23.6913 19.9384 23.5956 19.968C23.4303 20.0184 23.2703 20.0811 23.1155 20.1559C22.9224 20.2446 22.7362 20.3455 22.5536 20.4551C22.2944 20.6117 22.0195 20.8013 21.7498 20.9892C21.6281 21.0744 21.5045 21.1596 21.2975 21.2988C21.0749 21.4484 20.8609 21.5824 20.6573 21.7076C20.4869 21.812 20.2659 21.9425 20.0485 22.0695C19.8223 22.2034 19.6031 22.3304 19.4657 22.4087C19.2813 22.5131 19.0882 22.6157 18.8794 22.7149C18.6689 22.8158 18.4793 22.8976 18.2949 22.9672C18.1122 23.0367 17.9261 23.1011 17.7208 23.162C17.5242 23.2229 17.3276 23.2768 17.1414 23.3151C17.0736 23.329 17.0058 23.3412 16.9379 23.3516L22.1828 33.1948L22.1811 33.1966C22.2472 33.2992 22.2768 33.421 22.2646 33.5428C22.1915 36.8916 19.4481 39.5622 16.0991 39.543C12.7503 39.5256 10.0347 36.8239 10 33.4751V33.4716C10 33.3724 10.0278 33.275 10.08 33.1898L15.4207 23.1172C15.3024 23.0563 15.1893 22.9833 15.085 22.9015C14.9545 22.7971 14.8397 22.6736 14.744 22.5362C14.6483 22.397 14.5735 22.2456 14.5213 22.0856C14.4674 21.9273 14.4378 21.7603 14.4308 21.5933C14.4274 21.4402 14.443 21.2888 14.4796 21.141C14.5161 20.9931 14.5735 20.8487 14.6466 20.7147C14.7075 20.5999 14.7823 20.4921 14.8692 20.3946C14.9493 20.3042 15.0362 20.2241 15.1302 20.1511C15.2241 20.0763 15.3233 20.0084 15.4277 19.951C15.5442 19.8867 15.6695 19.8379 15.7982 19.8032C15.9235 19.7718 16.0522 19.7544 16.1827 19.7544C16.3132 19.7527 16.4419 19.7684 16.5672 19.7979C16.675 19.824 16.7794 19.8606 16.8786 19.904C16.9273 19.9249 16.9795 19.9458 17.0647 19.9719V19.9736C17.1308 19.9963 17.1986 20.0084 17.2682 20.0119C17.3674 20.0119 17.4648 19.9928 17.5553 19.9528C17.7449 19.8675 17.9276 19.7631 18.0963 19.6414C18.3277 19.483 18.5904 19.2813 18.8861 19.0551C19.0775 18.9072 19.2827 18.7489 19.4863 18.5906C19.9525 18.2287 20.4222 17.8652 20.7006 17.6546C20.9233 17.4876 21.1164 17.3519 21.2991 17.2284C21.4817 17.1049 21.6018 17.0284 21.7322 16.9466C21.8627 16.8648 22.0071 16.7726 22.1776 16.6717C22.3481 16.5708 22.5273 16.4734 22.7169 16.3812C22.9065 16.289 23.1153 16.2003 23.324 16.1185C23.5345 16.0368 23.7433 15.9654 23.9329 15.9098V15.908C24.1121 15.8558 24.2948 15.8158 24.4792 15.7897C24.6514 15.7671 24.8254 15.7636 24.9976 15.7793C25.1664 15.7932 25.3334 15.8263 25.4952 15.8767C25.6552 15.9254 25.8083 15.9933 25.9527 16.0785C26.0849 16.1603 26.2084 16.2542 26.3215 16.3603C26.3563 16.3916 26.3928 16.423 26.4311 16.4491C26.4415 16.456 26.452 16.4595 26.4641 16.4612C26.5302 16.4751 26.5981 16.4838 26.6642 16.4891C26.7616 16.4978 26.8834 16.5065 27.0226 16.5134C27.1513 16.5204 27.287 16.5221 27.414 16.5169V16.5186C27.5236 16.5152 27.6315 16.503 27.7393 16.4821C27.8054 16.4699 27.8681 16.4473 27.9289 16.416C27.9637 16.3951 27.995 16.3673 28.0229 16.3342C28.0559 16.296 28.082 16.2525 28.0994 16.2055C28.1116 16.1777 28.1203 16.1464 28.1238 16.115C28.1255 16.0994 28.1255 16.0576 28.1255 16.0263C28.1255 15.3948 28.0994 14.7894 28.0716 14.191C28.0594 13.9091 28.0472 13.6291 28.0368 13.3124H28.0385C28.0316 13.1176 28.1307 12.9367 28.2978 12.8375L29.9765 11.8424H29.9783C30.1487 11.7415 30.3645 11.745 30.5332 11.8511L32.1024 12.8462V12.8479C32.2729 12.9558 32.3685 13.1524 32.3459 13.3542C32.3355 13.6534 32.3233 13.9213 32.3111 14.1909C32.285 14.7894 32.2589 15.393 32.2589 16.0263C32.2555 16.0872 32.2642 16.1481 32.285 16.2055C32.3042 16.2507 32.3303 16.2942 32.3633 16.3342C32.3894 16.3655 32.4207 16.3934 32.4573 16.4142C32.5164 16.4473 32.5808 16.4682 32.6469 16.4803C32.753 16.5012 32.8626 16.5134 32.9705 16.5169C33.0975 16.5221 33.2314 16.5169 33.3619 16.5134C33.5011 16.5064 33.6228 16.4977 33.7185 16.489V16.4873C33.7846 16.4821 33.8525 16.4734 33.9186 16.4612C33.9308 16.4577 33.9412 16.4542 33.9516 16.449C33.9899 16.4212 34.0264 16.3916 34.0612 16.3586C34.1743 16.2524 34.2978 16.1585 34.43 16.0767C34.5744 15.9915 34.7275 15.9236 34.8876 15.8749C35.0493 15.8262 35.2163 15.7932 35.3851 15.7775C35.5573 15.7619 35.7313 15.7653 35.9035 15.788C36.0879 15.814 36.2706 15.8541 36.4498 15.908C36.6394 15.9637 36.8499 16.035 37.0587 16.1168C37.2675 16.1985 37.478 16.289 37.6658 16.3794C37.8555 16.4716 38.0347 16.5708 38.2051 16.67C38.3756 16.7691 38.52 16.8613 38.6522 16.9448C38.7862 17.0283 38.9062 17.1049 39.0854 17.2267C39.2646 17.3484 39.4594 17.4859 39.6839 17.6529C39.9639 17.8616 40.4337 18.2252 40.8999 18.5888C41.1052 18.7471 41.307 18.9054 41.5001 19.0533C41.7941 19.2812 42.0585 19.4813 42.2899 19.6396C42.4586 19.7614 42.6396 19.8658 42.8292 19.951C42.9196 19.9893 43.0171 20.0101 43.1162 20.0101C43.1858 20.0067 43.2537 19.9927 43.3198 19.9701C43.3319 19.9667 43.3441 19.9632 43.3563 19.9597C43.4067 19.9423 43.4572 19.9214 43.5059 19.9005V19.9023C43.6068 19.8588 43.7112 19.8223 43.8173 19.7962C43.9426 19.7666 44.073 19.7509 44.2018 19.7509C44.3322 19.7527 44.461 19.7683 44.5862 19.8014C44.715 19.8344 44.8402 19.8849 44.9568 19.9493C45.0612 20.0067 45.1603 20.0728 45.2543 20.1476C45.3482 20.2206 45.4352 20.3024 45.5152 20.3911C45.6022 20.4903 45.677 20.5982 45.7379 20.713C45.8127 20.8469 45.8684 20.9913 45.9049 21.1392C45.9414 21.2871 45.9571 21.4384 45.9536 21.5898C45.9467 21.7585 45.9171 21.9238 45.8632 22.0838C45.811 22.2439 45.7362 22.3952 45.6405 22.5344C45.5465 22.6718 45.4317 22.7936 45.2995 22.898C45.1742 22.9971 45.0385 23.0824 44.8942 23.1502C44.8054 23.192 44.715 23.2303 44.6245 23.2616L49.9149 33.2001C49.981 33.3027 50.0107 33.4242 49.9967 33.546Z" fill="#001938"/>
</g>
</svg>
