<svg width="20" height="18" viewBox="0 0 20 18" fill="none" xmlns="http://www.w3.org/2000/svg">
<g id="Group">
<path id="Vector" d="M15.1042 5.36458C14.7396 5.15625 14.2708 5.15625 13.8542 5.36458L10.9375 7.08333L8.95833 8.17708L6.09375 9.89583C5.72917 10.1042 5.26042 10.1042 4.84375 9.89583L2.60417 8.54167C2.23958 8.33333 1.97917 7.91667 1.97917 7.44792V4.84375C1.97917 4.42708 2.1875 4.01042 2.60417 3.75L4.84375 2.44792C5.20833 2.23958 5.67708 2.23958 6.09375 2.44792L8.33333 3.80208C8.69792 4.01042 8.95833 4.42708 8.95833 4.89583V6.61458L10.9375 5.46875V3.69792C10.9375 3.28125 10.7292 2.86458 10.3125 2.60417L6.14583 0.15625C5.78125 -0.0520833 5.3125 -0.0520833 4.89583 0.15625L0.625 2.65625C0.208333 2.86458 0 3.28125 0 3.69792V8.59375C0 9.01042 0.208333 9.42708 0.625 9.6875L4.84375 12.1354C5.20833 12.3438 5.67708 12.3438 6.09375 12.1354L8.95833 10.4688L10.9375 9.32292L13.8021 7.65625C14.1667 7.44792 14.6354 7.44792 15.0521 7.65625L17.2917 8.95833C17.6562 9.16667 17.9167 9.58333 17.9167 10.0521V12.6562C17.9167 13.0729 17.7083 13.4896 17.2917 13.75L15.1042 15.0521C14.7396 15.2604 14.2708 15.2604 13.8542 15.0521L11.6146 13.75C11.25 13.5417 10.9896 13.125 10.9896 12.6562V10.9896L9.01042 12.1354V13.8542C9.01042 14.2708 9.21875 14.6875 9.63542 14.9479L13.8542 17.3958C14.2187 17.6042 14.6875 17.6042 15.1042 17.3958L19.3229 14.9479C19.6875 14.7396 19.9479 14.3229 19.9479 13.8542V8.90625C19.9479 8.48958 19.7396 8.07292 19.3229 7.8125L15.1042 5.36458Z" fill="#001938"/>
</g>
</svg>
