<svg width="40" height="57" viewBox="0 0 40 57" fill="none" xmlns="http://www.w3.org/2000/svg">
<path d="M22.7571 10.6263V17.13C22.7571 17.4261 22.917 17.6927 23.1776 17.8349L23.6218 18.0422L36.3272 9.69041C36.5523 9.54233 36.6826 9.29355 36.6826 9.02701L36.6589 8.58276L23.995 0.248776L23.5685 0C23.0651 0.290238 22.7571 0.823329 22.7571 1.40381V9.1277C21.8449 9.00331 20.9209 8.93816 19.9968 8.93816C8.96777 8.93816 0 17.9119 0 28.935H1.48081C1.48081 18.7233 9.78518 10.419 19.9968 10.419C20.9209 10.419 21.8449 10.49 22.7571 10.6263ZM24.2379 2.17975L34.6391 9.02108L24.2379 15.8624V2.17975Z" fill="#FAFAFA"/>
<path d="M38.5137 28.9349C38.5137 38.6846 31.0859 46.6454 21.4607 47.3917V39.0814C21.4607 38.7853 21.3007 38.5187 21.0401 38.3825L20.5959 38.1752L7.89647 46.521C7.67139 46.6691 7.53516 46.9179 7.53516 47.1844L7.55885 47.6346L20.2286 55.9626C20.359 56.0515 20.513 56.093 20.667 56.093C20.7973 56.093 20.9276 56.0633 21.046 55.9982L21.4666 55.7376V48.8725C31.9152 48.1203 40.0004 39.502 40.0004 28.9349H38.5196H38.5137ZM19.9799 54.0257L9.57867 47.1903L19.9799 40.349V54.0257Z" fill="#FAFAFA"/>
</svg>
