<svg width="60" height="61" viewBox="0 0 60 61" fill="none" xmlns="http://www.w3.org/2000/svg">
<g id="Frame 1321315646">
<path id="Vector" d="M44.2859 11.769H20.393C19.4468 11.769 18.6804 12.5354 18.6788 13.4833V14.3488H18.3611V14.3471C17.262 14.3488 16.3713 15.2395 16.3696 16.3402V16.6982H15.9898C14.8907 16.7016 14 17.5923 14 18.6914V47.7019C14.0017 48.801 14.8924 49.6934 15.9915 49.6934H39.3264C40.4272 49.6934 41.3179 48.801 41.3196 47.7019V47.3439H41.6994C42.7985 47.3422 43.6892 46.4515 43.6909 45.3524V42.4467L45.8454 40.2922V40.2939C45.9445 40.193 46 40.0586 46 39.9174V13.4836C46 12.5357 45.232 11.769 44.2859 11.769ZM19.7407 13.4833C19.7407 13.1219 20.0332 12.8295 20.3928 12.8295H44.2857C44.647 12.8295 44.9394 13.1219 44.9394 13.4833V39.3862H41.1581C41.0169 39.3862 40.8808 39.4417 40.78 39.5408C40.6808 39.6416 40.6237 39.7761 40.6253 39.9189V43.702H20.3928C20.0332 43.702 19.7408 43.4095 19.7408 43.0482L19.7407 13.4833ZM44.1882 40.4484L41.6858 42.9508V40.4484H44.1882ZM40.2573 47.7017C40.2573 48.216 39.8405 48.6328 39.3262 48.6328H15.9896C15.4754 48.6328 15.0603 48.216 15.0586 47.7017V18.6912C15.0603 18.1786 15.4754 17.7618 15.9896 17.7601H16.3695V45.3504C16.3711 46.4496 17.2618 47.3403 18.361 47.3419H40.2576L40.2573 47.7017ZM42.6286 45.3506C42.6286 45.8648 42.2135 46.2816 41.6992 46.2816H18.3609C17.8483 46.2816 17.4315 45.8649 17.4315 45.3523V16.34C17.4315 15.8258 17.8483 15.409 18.3609 15.409H18.6785V43.0479C18.6802 43.9941 19.4466 44.7604 20.3928 44.7621H41.1583C41.2995 44.7621 41.4339 44.7066 41.5331 44.6075L42.6322 43.5101L42.6286 45.3506ZM25.6749 25.8422C26.3522 25.8422 26.9774 25.4808 27.3152 24.896C27.6547 24.3095 27.653 23.5868 27.3135 23.002L29.2613 21.0626C30.0511 21.5937 31.1133 21.4542 31.7385 20.7366L33.0913 21.6575C33.0006 22.1802 33.1333 22.7163 33.4577 23.1364C33.7804 23.5566 34.2644 23.8204 34.7938 23.8675C35.3215 23.9129 35.8442 23.7347 36.2357 23.3768C36.6256 23.0188 36.8492 22.5129 36.8492 21.9835C36.8492 21.6844 36.7786 21.3886 36.6425 21.1214L39.0054 17.8056H39.0037C39.9011 18.1014 40.8776 17.693 41.2977 16.8477C41.7178 16.0023 41.4523 14.9771 40.6742 14.4428C39.8961 13.9066 38.844 14.026 38.2037 14.7201C37.5651 15.4141 37.5332 16.4729 38.1298 17.2039L35.8946 20.3416H35.8963C35.1316 19.903 34.1653 20.0526 33.567 20.6996L32.1906 19.7585C32.204 19.6694 32.2091 19.5803 32.2091 19.4896C32.2107 18.9199 31.9536 18.3804 31.5116 18.0207C31.0696 17.6611 30.4898 17.5199 29.9318 17.6359C29.3739 17.7518 28.8966 18.1132 28.6344 18.619C28.3723 19.1249 28.3521 19.7215 28.579 20.2441L26.5454 22.2676H26.5471C26.0312 22.0003 25.4211 21.9852 24.8917 22.2255C24.364 22.4659 23.9741 22.9364 23.838 23.5011C23.7002 24.0658 23.8296 24.6607 24.1876 25.1178C24.5472 25.5749 25.0951 25.8422 25.6765 25.8422L25.6749 25.8422ZM39.5954 15.1754C39.9316 15.1754 40.2341 15.3788 40.3635 15.6897C40.4929 16.0006 40.4206 16.3586 40.1837 16.5972C39.945 16.8342 39.5871 16.9065 39.2761 16.7771C38.9652 16.6476 38.7619 16.3451 38.7619 16.0073C38.7636 15.5485 39.135 15.1754 39.5954 15.1754ZM34.9554 21.1518C35.2916 21.1518 35.5958 21.3551 35.7235 21.666C35.8529 21.977 35.7806 22.3349 35.5437 22.5719C35.305 22.8105 34.9471 22.8811 34.6361 22.7517C34.3252 22.624 34.1219 22.3198 34.1219 21.9837C34.1236 21.5232 34.495 21.1518 34.9554 21.1518ZM30.3154 18.6595C30.6515 18.6595 30.9557 18.8611 31.0851 19.172C31.2128 19.4829 31.1423 19.8409 30.9036 20.0796C30.665 20.3182 30.307 20.3888 29.9961 20.2594C29.6852 20.13 29.4835 19.8275 29.4835 19.4897C29.4835 19.0309 29.8566 18.6595 30.3154 18.6595ZM25.6754 23.1162C26.0115 23.1162 26.3157 23.3196 26.4451 23.6305C26.5728 23.9414 26.5022 24.2994 26.2636 24.538C26.0266 24.775 25.6687 24.8472 25.3577 24.7178C25.0468 24.5884 24.8435 24.2859 24.8435 23.9498C24.8435 23.4893 25.2166 23.1179 25.6754 23.1162ZM24.3124 31.5866H27.0383C27.1795 31.5866 27.3139 31.5312 27.4131 31.432C27.5139 31.3328 27.5693 31.1967 27.5693 31.0572V27.3549C27.5693 27.0624 27.3324 26.8238 27.0383 26.8238H24.3124C24.0199 26.8238 23.783 27.0624 23.783 27.3549V31.0572C23.7813 31.1967 23.8384 31.3328 23.9376 31.432C24.0367 31.5328 24.1712 31.5883 24.3124 31.5883L24.3124 31.5866ZM24.8435 27.8859H26.5072V30.5261H24.8435V27.8859ZM28.9525 23.7029C28.8113 23.7029 28.6769 23.7584 28.5777 23.8575C28.4786 23.9567 28.4214 24.0928 28.4214 24.2323V31.0571C28.4214 31.1982 28.4786 31.3327 28.5777 31.4318C28.6769 31.5327 28.8113 31.5881 28.9525 31.5881H31.6784C31.9708 31.5881 32.2095 31.3512 32.2095 31.0571V24.2323C32.2095 23.9399 31.9708 23.7029 31.6784 23.7029L28.9525 23.7029ZM31.1491 30.526H29.4836V24.7647H31.1474L31.1491 30.526ZM33.5943 25.4557C33.3002 25.4557 33.0632 25.6927 33.0632 25.9851V31.0571C33.0632 31.1983 33.1187 31.3327 33.2179 31.4319C33.3187 31.5327 33.4531 31.5882 33.5943 31.5882H36.3185C36.611 31.5882 36.8496 31.3512 36.8496 31.0571V25.9868C36.8496 25.6927 36.611 25.4557 36.3185 25.4557L33.5943 25.4557ZM35.7909 30.526H34.122V26.5178H35.7858L35.7909 30.526ZM38.2361 21.0695H38.2344C37.942 21.0695 37.705 21.3064 37.705 21.6006V31.057V31.0554C37.705 31.1965 37.7605 31.331 37.8597 31.4318C37.9588 31.531 38.095 31.5864 38.2344 31.5864H40.9603C41.1015 31.5864 41.236 31.531 41.3351 31.4318C41.4343 31.331 41.4914 31.1965 41.4914 31.0554V21.5989V21.6006C41.4914 21.3065 41.2528 21.0695 40.9603 21.0695H38.2361ZM40.4327 30.526H38.7622V22.1296H40.426L40.4327 30.526ZM23.7832 34.0922C23.7815 33.951 23.8386 33.8166 23.9378 33.7174C24.0369 33.6166 24.1714 33.5611 24.3125 33.5611H41.1587C41.4461 33.5695 41.6746 33.8048 41.6746 34.0922C41.6746 34.3796 41.4461 34.6149 41.1587 34.6233H24.3125C24.0201 34.6233 23.7832 34.3846 23.7832 34.0922ZM23.7832 37.129C23.7848 36.8366 24.0218 36.6013 24.3126 36.6013H41.1587C41.4461 36.6097 41.6746 36.845 41.6746 37.1324C41.6746 37.4198 41.4461 37.655 41.1587 37.6635H24.3126C24.1714 37.6635 24.0369 37.6063 23.9378 37.5072C23.8369 37.4063 23.7815 37.2719 23.7832 37.1307L23.7832 37.129ZM23.7832 40.1659C23.7832 40.0247 23.8386 39.8902 23.9378 39.7894C24.0369 39.6903 24.1731 39.6348 24.3125 39.6348H39.2816C39.569 39.6432 39.7975 39.8785 39.7975 40.1659C39.7975 40.4532 39.569 40.6885 39.2816 40.6969H24.3125C24.0201 40.6953 23.7831 40.46 23.7831 40.1675L23.7832 40.1659Z" fill="#001938"/>
</g>
</svg>
