<svg width="40" height="41" viewBox="0 0 40 41" fill="none" xmlns="http://www.w3.org/2000/svg">
<g id="Frame">
<path id="Vector" d="M33.75 7.01904H21.25V4.51904C21.25 4.18752 21.1183 3.86958 20.8839 3.63516C20.6495 3.40074 20.3315 3.26904 20 3.26904C19.6685 3.26904 19.3505 3.40074 19.1161 3.63516C18.8817 3.86958 18.75 4.18752 18.75 4.51904V7.01904H6.25C5.58696 7.01904 4.95107 7.28243 4.48223 7.75128C4.01339 8.22012 3.75 8.856 3.75 9.51904V28.269C3.75 28.9321 4.01339 29.568 4.48223 30.0368C4.95107 30.5056 5.58696 30.769 6.25 30.769H12.4L9.02344 34.9878C8.81624 35.2468 8.72041 35.5775 8.75704 35.9072C8.79367 36.2368 8.95975 36.5384 9.21875 36.7456C9.47775 36.9528 9.80845 37.0486 10.1381 37.012C10.4678 36.9754 10.7694 36.8093 10.9766 36.5503L15.6 30.769H24.4L29.0234 36.5503C29.126 36.6785 29.2529 36.7853 29.3967 36.8645C29.5406 36.9438 29.6987 36.9939 29.8619 37.012C30.0251 37.0301 30.1903 37.0159 30.3481 36.9702C30.5058 36.9245 30.653 36.8482 30.7812 36.7456C30.9095 36.643 31.0163 36.5162 31.0955 36.3723C31.1747 36.2284 31.2248 36.0704 31.243 35.9072C31.2611 35.7439 31.2469 35.5787 31.2012 35.421C31.1555 35.2632 31.0792 35.116 30.9766 34.9878L27.6 30.769H33.75C34.413 30.769 35.0489 30.5056 35.5178 30.0368C35.9866 29.568 36.25 28.9321 36.25 28.269V9.51904C36.25 8.856 35.9866 8.22012 35.5178 7.75128C35.0489 7.28243 34.413 7.01904 33.75 7.01904ZM33.75 28.269H6.25V9.51904H33.75V28.269ZM16.25 19.519V23.269C16.25 23.6006 16.1183 23.9185 15.8839 24.1529C15.6495 24.3873 15.3315 24.519 15 24.519C14.6685 24.519 14.3505 24.3873 14.1161 24.1529C13.8817 23.9185 13.75 23.6006 13.75 23.269V19.519C13.75 19.1875 13.8817 18.8696 14.1161 18.6352C14.3505 18.4007 14.6685 18.269 15 18.269C15.3315 18.269 15.6495 18.4007 15.8839 18.6352C16.1183 18.8696 16.25 19.1875 16.25 19.519ZM21.25 17.019V23.269C21.25 23.6006 21.1183 23.9185 20.8839 24.1529C20.6495 24.3873 20.3315 24.519 20 24.519C19.6685 24.519 19.3505 24.3873 19.1161 24.1529C18.8817 23.9185 18.75 23.6006 18.75 23.269V17.019C18.75 16.6875 18.8817 16.3696 19.1161 16.1352C19.3505 15.9007 19.6685 15.769 20 15.769C20.3315 15.769 20.6495 15.9007 20.8839 16.1352C21.1183 16.3696 21.25 16.6875 21.25 17.019ZM26.25 14.519V23.269C26.25 23.6006 26.1183 23.9185 25.8839 24.1529C25.6495 24.3873 25.3315 24.519 25 24.519C24.6685 24.519 24.3505 24.3873 24.1161 24.1529C23.8817 23.9185 23.75 23.6006 23.75 23.269V14.519C23.75 14.1875 23.8817 13.8696 24.1161 13.6352C24.3505 13.4007 24.6685 13.269 25 13.269C25.3315 13.269 25.6495 13.4007 25.8839 13.6352C26.1183 13.8696 26.25 14.1875 26.25 14.519Z" fill="#001938"/>
</g>
</svg>
