<svg width="32" height="46" viewBox="0 0 32 46" fill="none" xmlns="http://www.w3.org/2000/svg">
<path id="Vector" fill-rule="evenodd" clip-rule="evenodd" d="M11.1465 14.3982L6.87972 20.6825C6.75634 20.8634 6.55277 20.9765 6.33478 20.9868H6.306C6.09625 20.9868 5.8968 20.8922 5.76521 20.7277L3.64521 18.0895C3.40462 17.7913 3.45191 17.3554 3.75213 17.1148C4.05029 16.8742 4.48621 16.9215 4.72683 17.2217L6.25879 19.1279L9.99919 13.6211C10.2151 13.3045 10.6449 13.2222 10.9615 13.4361C11.2782 13.652 11.3604 14.0816 11.1465 14.3982ZM19.598 38.3909C19.598 38.7733 19.2875 39.0838 18.9051 39.0838L12.4523 39.0859C12.0699 39.0859 11.7594 38.7754 11.7594 38.3929C11.7594 38.0105 12.0699 37.7 12.4523 37.7H18.9051C19.2896 37.6979 19.598 38.0084 19.598 38.3909ZM21.4364 35.0042C21.4364 35.3866 21.1259 35.6971 20.7434 35.6971L12.4524 35.6992C12.07 35.6992 11.7595 35.3887 11.7595 35.0062C11.7595 34.6238 12.07 34.3133 12.4524 34.3133H20.7434C21.1259 34.3112 21.4364 34.6217 21.4364 35.0042ZM21.4364 31.6175C21.4364 31.9999 21.1259 32.3104 20.7434 32.3104H12.4524C12.07 32.3104 11.7595 31.9999 11.7595 31.6175C11.7595 31.235 12.07 30.9245 12.4524 30.9245H20.7434C21.1259 30.9245 21.4364 31.235 21.4364 31.6175ZM8.86413 30.0135L7.26021 31.6175L8.86413 33.2214C9.13556 33.4928 9.13556 33.9308 8.86413 34.2022C8.72841 34.3379 8.55157 34.4058 8.37473 34.4058C8.19789 34.4058 8.01899 34.3379 7.88533 34.2022L6.28141 32.5983L4.6775 34.2022C4.54179 34.3379 4.36494 34.4058 4.1881 34.4058C4.01126 34.4058 3.83237 34.3379 3.6987 34.2022C3.42728 33.9308 3.42728 33.4928 3.6987 33.2214L5.30262 31.6175L3.6987 30.0135C3.42728 29.7421 3.42728 29.3041 3.6987 29.0327C3.97014 28.7612 4.40815 28.7612 4.67956 29.0327L6.28348 30.6366L7.8874 29.0327C8.15882 28.7612 8.59684 28.7612 8.86825 29.0327C9.13557 29.3041 9.13556 29.7421 8.86413 30.0135ZM11.7594 23.9251C11.7594 23.5426 12.0699 23.2321 12.4523 23.2321H18.9051C19.2896 23.2321 19.598 23.5426 19.598 23.9251C19.598 24.3076 19.2875 24.6181 18.9051 24.6181H12.4523C12.0699 24.6181 11.7594 24.3076 11.7594 23.9251ZM21.4364 20.5384C21.4364 20.9209 21.1259 21.2313 20.7434 21.2313H12.4524C12.07 21.2313 11.7595 20.9209 11.7595 20.5384C11.7595 20.1559 12.07 19.8454 12.4524 19.8454H20.7434C21.1259 19.8454 21.4364 20.1559 21.4364 20.5384ZM21.4364 17.1517C21.4364 17.5341 21.1259 17.8446 20.7434 17.8446H12.4524C12.07 17.8446 11.7595 17.5341 11.7595 17.1517C11.7595 16.7692 12.07 16.4587 12.4524 16.4587H20.7434C21.1259 16.4567 21.4364 16.7672 21.4364 17.1517ZM30.6138 43.0073V10.0141C30.6138 9.25533 29.9969 8.63843 29.2381 8.63843H28.5061V25.3456C28.5061 25.3682 28.5061 25.3908 28.502 25.4114C28.502 25.4217 28.4999 25.4299 28.4979 25.4402C28.4958 25.4525 28.4958 25.4649 28.4917 25.4772C28.4896 25.4895 28.4876 25.4998 28.4835 25.5122C28.4814 25.5224 28.4794 25.5307 28.4752 25.541C28.4711 25.5533 28.467 25.5636 28.4629 25.5759C28.4608 25.5821 28.4588 25.5882 28.4567 25.5924L26.3881 31.0228C26.2853 31.2922 26.0283 31.469 25.7404 31.469C25.4525 31.469 25.1954 31.2922 25.0926 31.0228L23.024 25.5924C23.0219 25.5862 23.0199 25.58 23.0178 25.5759C23.0137 25.5636 23.0096 25.5533 23.0055 25.541C23.0034 25.5307 23.0014 25.5224 22.9973 25.5122C22.9952 25.5019 22.9911 25.4895 22.989 25.4772C22.987 25.4649 22.9849 25.4525 22.9829 25.4402C22.9808 25.4299 22.9787 25.4217 22.9787 25.4114C22.9767 25.3888 22.9767 25.3662 22.9767 25.3456L22.9829 8.63843H2.76137C2.00261 8.63843 1.38571 9.25533 1.38571 10.0141V43.0073C1.38571 43.7661 2.00261 44.383 2.76137 44.383H29.2382C29.9969 44.383 30.6138 43.7661 30.6138 43.0073ZM24.5685 1.38625H26.9209C27.0299 1.38625 27.1204 1.47673 27.1204 1.58571V3.94223H24.3711V1.58571C24.3711 1.47878 24.4616 1.38625 24.5685 1.38625ZM26.8078 26.0411L25.7447 28.8295L24.6816 26.0411H26.8078ZM27.1203 24.6532H24.3711V5.33026H27.1203V24.6532ZM29.2383 7.25271H28.5063V1.58539C28.5063 0.711442 27.7948 0 26.9209 0H24.5685C23.6945 0 22.9831 0.711495 22.9831 1.58539V7.25271H2.7616C1.2379 7.25271 0 8.49267 0 10.0143V43.0075C0 44.5312 1.23996 45.7691 2.7616 45.7691H29.2384C30.7621 45.7691 32 44.5292 32 43.0075V10.0143C32 8.49061 30.762 7.25271 29.2383 7.25271Z" fill="#001938"/>
</svg>
