<svg width="60" height="61" viewBox="0 0 60 61" fill="none" xmlns="http://www.w3.org/2000/svg">
<g id="Frame 1321315630">
<g id="Group 48095507">
<path id="Vector" d="M16.2215 18.8274C16.3134 18.8733 16.4103 18.8937 16.5098 18.8937C16.7522 18.8937 16.9793 18.7636 17.0966 18.534C17.862 16.993 19.0228 15.646 20.4413 14.6536C22.1072 13.4903 24.0538 12.8372 26.0718 12.7733C26.4316 12.7606 26.7173 12.4595 26.7045 12.0999C26.6918 11.7401 26.3856 11.4391 26.0311 11.4671C23.7579 11.5386 21.5639 12.2708 19.6887 13.5821C18.0891 14.6995 16.788 16.215 15.9206 17.9524C15.7573 18.2713 15.8951 18.6641 16.214 18.8274L16.2215 18.8274Z" fill="#001938"/>
<path id="Vector_2" d="M22.0769 32.622C20.4058 31.8566 18.9542 30.6499 17.898 29.1345C16.6504 27.3512 15.9973 25.2541 16.0177 23.0856C16.0177 22.7258 15.7294 22.4324 15.3723 22.4248C15.0126 22.4248 14.7192 22.7131 14.7192 23.0703C14.6988 25.5118 15.4309 27.8717 16.8341 29.8822C18.0281 31.5865 19.6558 32.9463 21.5437 33.8086C21.6279 33.8468 21.7274 33.8672 21.8192 33.8672C22.0667 33.8672 22.3014 33.7244 22.4136 33.4897C22.5642 33.1631 22.4136 32.7702 22.0947 32.6223L22.0769 32.622Z" fill="#001938"/>
<path id="Vector_3" d="M33.1202 32.7573C33.707 32.3466 34.2759 31.8619 34.8193 31.3134C35.401 30.7113 35.9164 30.0454 36.3475 29.3464C36.6358 28.8821 36.896 28.3923 37.118 27.8896C37.2608 27.5554 37.118 27.1702 36.7837 27.0273C36.4572 26.8844 36.0643 27.0273 35.9214 27.3615C35.725 27.8054 35.4979 28.2443 35.2351 28.655C34.8499 29.275 34.3984 29.8643 33.883 30.3924C33.4008 30.8823 32.8906 31.3135 32.3676 31.6783C31.8395 32.0431 31.2756 32.3697 30.6506 32.658C29.9771 32.959 29.2729 33.1861 28.5484 33.3366C27.8493 33.4871 27.1299 33.5586 26.413 33.5586H26.2625C25.9028 33.5586 25.617 33.8469 25.6094 34.204C25.6094 34.5637 25.89 34.8648 26.2548 34.8648H26.4181C27.2269 34.8648 28.0305 34.7806 28.8214 34.6173C29.6301 34.4464 30.4286 34.1938 31.1915 33.8519C31.8956 33.5254 32.5309 33.1656 33.1253 32.7549L33.1202 32.7573Z" fill="#001938"/>
<path id="Vector_4" d="M30.5649 13.636C32.3151 14.3937 33.8229 15.6285 34.9275 17.2026C36.1419 18.94 36.7951 20.9707 36.8078 23.0806C36.8078 23.4403 37.1012 23.726 37.4609 23.726C37.8206 23.726 38.114 23.425 38.1064 23.0653C38.0859 20.6876 37.3563 18.4017 35.9914 16.4499C34.7515 14.6794 33.0524 13.289 31.0803 12.4343C30.7461 12.2914 30.3608 12.4419 30.218 12.7736C30.0751 13.1078 30.2256 13.4931 30.5573 13.6359L30.5649 13.636Z" fill="#001938"/>
<path id="Vector_5" d="M40.3215 36.3774C40.6991 35.8366 40.9619 35.2141 41.0793 34.5482C41.2681 33.4843 41.0793 32.4052 40.5435 31.4791C43.7963 25.948 43.5412 19.0366 39.8445 13.7608C37.329 10.1686 33.5685 7.77811 29.2569 7.02063C24.9402 6.26289 20.59 7.22983 16.9979 9.74535C13.4058 12.2609 11.0153 16.0163 10.2526 20.333C9.49481 24.6446 10.4541 28.9998 12.9696 32.5867C16.0847 37.0335 21.1205 39.5874 26.397 39.5874C27.3843 39.5874 28.3819 39.4905 29.3819 39.3068C30.0733 40.1232 31.0147 40.664 32.0862 40.8554C32.3541 40.9013 32.6271 40.9268 32.895 40.9268C33.2878 40.9268 33.6782 40.8681 34.0583 40.7635L41.7193 53.0885C42.2091 53.8793 42.9873 54.4202 43.9006 54.609C44.1302 54.6549 44.3573 54.6804 44.5869 54.6804C45.2655 54.6804 45.9314 54.4712 46.5079 54.0732L48.5642 52.6292C49.3296 52.0935 49.8245 51.2898 49.9623 50.3689C50.1 49.4479 49.8577 48.5345 49.2836 47.7947L40.3288 36.3854L40.3215 36.3774ZM14.0415 31.8312C11.7301 28.5273 10.8423 24.5222 11.5414 20.5519C12.2404 16.5822 14.4472 13.1201 17.7536 10.8061C20.3278 9.00244 23.3178 8.06868 26.3943 8.06868C27.277 8.06868 28.1572 8.14777 29.0399 8.3034C33.0096 9.00242 36.4717 11.2041 38.7857 14.508C42.2604 19.4727 42.4441 26.0041 39.2372 31.1493C38.6811 32.0499 38.0152 32.9071 37.2703 33.6776C36.5661 34.3893 35.8263 35.017 35.0685 35.5451C34.3032 36.0808 33.4868 36.5451 32.5734 36.9636C31.5938 37.4024 30.5682 37.729 29.5222 37.9433C23.5931 39.1908 17.5186 36.7876 14.044 31.8229L14.0415 31.8312ZM32.3157 39.564C31.8003 39.4722 31.3156 39.263 30.9125 38.9568C30.9788 38.9364 31.0375 38.9186 31.1013 38.8982C31.3488 38.8267 31.5988 38.7476 31.8462 38.6558C31.9432 38.6226 32.0427 38.5895 32.1396 38.5512C32.4662 38.4262 32.8004 38.3037 33.1193 38.1583C34.1117 37.7016 34.9995 37.199 35.8287 36.6174C36.6527 36.0433 37.4487 35.3621 38.2115 34.5917C38.459 34.3365 38.6886 34.0763 38.9156 33.8084C38.9819 33.7294 39.0457 33.6528 39.1121 33.5661C39.283 33.3645 39.4386 33.1553 39.5942 32.9461C39.6325 32.8951 39.6733 32.8492 39.7116 32.7956C39.8621 33.2854 39.8953 33.8085 39.8034 34.3238C39.6529 35.1861 39.1707 35.9438 38.4513 36.4464L34.7673 39.0257C34.0479 39.5283 33.1805 39.717 32.3105 39.5665L32.3157 39.564ZM48.669 50.1641C48.5848 50.7253 48.2837 51.2228 47.8143 51.5494L45.758 52.9934C45.2886 53.3199 44.7274 53.4373 44.1635 53.3276C43.6023 53.2102 43.1329 52.8837 42.8318 52.3989L35.2824 40.2654L35.512 40.1021L39.196 37.5228L39.4256 37.3672L48.2505 48.6079C48.6025 49.0595 48.7531 49.6131 48.6689 50.1821L48.669 50.1641Z" fill="#001938"/>
<path id="Vector_6" d="M27.9705 28.2849V29.6421C27.7358 29.8309 27.5776 30.1192 27.5776 30.4458C27.5776 31.0198 28.0419 31.4918 28.6236 31.4918C29.2053 31.4918 29.6697 31.0275 29.6697 30.4458C29.6697 30.1192 29.5191 29.8309 29.2768 29.6421V28.2849H29.4783C30.634 28.2849 31.5754 27.3435 31.5754 26.1878V25.9862H37.1524C37.5121 25.9862 37.8055 25.6928 37.8055 25.3331C37.8055 24.9734 37.5121 24.68 37.1524 24.68H31.5754V21.4731H32.8816C33.0704 21.7078 33.3587 21.866 33.6853 21.866C34.2593 21.866 34.7313 21.4016 34.7313 20.8199C34.7313 20.2383 34.267 19.7739 33.6853 19.7739C33.3587 19.7739 33.0704 19.9295 32.8816 20.1668H31.5754V19.9653C31.5754 18.8096 30.634 17.8682 29.4783 17.8682H29.2768V12.3499C29.2768 11.9902 28.9834 11.6968 28.6237 11.6968C28.2639 11.6968 27.9705 11.9902 27.9705 12.3499V17.8682H24.7636V16.9012C24.9983 16.7125 25.1565 16.4242 25.1565 16.0976C25.1565 15.5236 24.6922 15.0516 24.1105 15.0516C23.5288 15.0516 23.0645 15.5159 23.0645 16.0976C23.0645 16.4241 23.2201 16.7124 23.4573 16.9012V17.8682H23.2558C22.1001 17.8682 21.1587 18.8096 21.1587 19.9653V20.1668H15.7195C15.3598 20.1668 15.0664 20.4602 15.0664 20.8199C15.0664 21.1796 15.3598 21.473 15.7195 21.473H21.1587V24.68H20.2122C20.0234 24.4452 19.7351 24.2871 19.4086 24.2871C18.8345 24.2871 18.3625 24.7514 18.3625 25.3331C18.3625 25.9148 18.8269 26.3791 19.4086 26.3791C19.7351 26.3791 20.0234 26.2235 20.2122 25.9862H21.1587V26.1878C21.1587 27.3435 22.1001 28.2849 23.2558 28.2849H23.4573V33.8746C23.4573 34.2343 23.7507 34.5277 24.1105 34.5277C24.4702 34.5277 24.7636 34.2343 24.7636 33.8746V28.2849H27.9705ZM22.4649 26.1878V19.9628C22.4649 19.524 22.817 19.172 23.2558 19.172H29.4808C29.9196 19.172 30.2716 19.524 30.2716 19.9628V26.1878C30.2716 26.6266 29.9195 26.9786 29.4808 26.9786H23.2558C22.817 26.9786 22.4649 26.6266 22.4649 26.1878Z" fill="#001938"/>
<path id="Vector_7" d="M25.4246 25.652H27.3915C28.2207 25.652 28.8942 24.9785 28.8942 24.1494V22.1824C28.8942 21.3532 28.2207 20.6797 27.3915 20.6797H25.4246C24.5954 20.6797 23.9219 21.3532 23.9219 22.1824V24.1494C23.9219 24.9785 24.5954 25.652 25.4246 25.652ZM25.2281 22.1849C25.2281 22.0727 25.3123 21.9885 25.4246 21.9885H27.3915C27.5038 21.9885 27.588 22.0727 27.588 22.1849V24.1519C27.588 24.2642 27.5038 24.3483 27.3915 24.3483H25.4246C25.3123 24.3483 25.2281 24.2642 25.2281 24.1519V22.1849Z" fill="#001938"/>
</g>
</g>
</svg>
