<svg width="40" height="40" viewBox="0 0 40 40" fill="none" xmlns="http://www.w3.org/2000/svg">
<path id="Vector" fill-rule="evenodd" clip-rule="evenodd" d="M33.3199 31.5452L39.4831 37.0471C40.1798 37.6687 40.1548 38.7804 39.5131 39.4537C38.8581 40.1387 37.6981 40.2137 37.0465 39.4837L31.5446 33.3205C31.4196 33.1788 31.4246 32.9655 31.5579 32.8322L31.8796 32.5105L30.4246 31.0555C30.3896 31.0205 30.3729 30.9772 30.3729 30.9288C30.3729 30.8788 30.3913 30.8372 30.4263 30.8022C30.5529 30.6788 30.6763 30.5555 30.7996 30.4288C30.8346 30.3938 30.8763 30.3755 30.9263 30.3755C30.9763 30.3755 31.0179 30.3922 31.0529 30.4272L32.508 31.8822L32.8296 31.5605C32.9646 31.4272 33.178 31.4205 33.3196 31.5455L33.3199 31.5452ZM15.0351 12.9135C14.7901 12.9135 14.5901 12.7152 14.5901 12.4685C14.5901 12.2235 14.7884 12.0235 15.0351 12.0235H25.6519C25.8969 12.0235 26.0969 12.2218 26.0969 12.4685C26.0969 12.7135 25.8986 12.9135 25.6519 12.9135H15.0351ZM9.32333 23.747C9.14667 23.577 9.14167 23.297 9.31167 23.1203C9.48167 22.9436 9.76167 22.9386 9.93836 23.1086L10.5883 23.7303L12.52 21.7736C12.6917 21.5986 12.9717 21.597 13.1467 21.7686C13.3217 21.9403 13.3233 22.2203 13.1517 22.3953L10.915 24.6587C10.745 24.8353 10.465 24.8403 10.2883 24.6703L9.32333 23.747ZM9.32333 18.3718C9.14667 18.2018 9.14167 17.9218 9.31167 17.7452C9.48167 17.5685 9.76167 17.5635 9.93836 17.7335L10.5883 18.3551L12.52 16.3985C12.6917 16.2235 12.9717 16.2218 13.1467 16.3935C13.3217 16.5652 13.3233 16.8452 13.1517 17.0202L10.915 19.2835C10.745 19.4602 10.465 19.4652 10.2883 19.2952L9.32333 18.3718ZM9.62667 12.5918C9.45 12.4218 9.445 12.1418 9.615 11.9651C9.785 11.7884 10.065 11.7834 10.2417 11.9534L10.8917 12.5751L12.8233 10.6184C12.995 10.4434 13.275 10.4418 13.45 10.6134C13.625 10.7851 13.6267 11.0651 13.455 11.2401L11.2183 13.5035C11.0483 13.6801 10.7683 13.6851 10.5917 13.5151L9.62667 12.5918ZM15.0351 23.6634C14.7901 23.6634 14.5901 23.465 14.5901 23.2184C14.5901 22.9734 14.7884 22.7733 15.0351 22.7733H25.6518C25.8968 22.7733 26.0969 22.9717 26.0969 23.2184C26.0969 23.4634 25.8985 23.6634 25.6518 23.6634H15.0351ZM15.0351 18.2882C14.7901 18.2882 14.5901 18.0899 14.5901 17.8432C14.5901 17.5982 14.7884 17.3982 15.0351 17.3982H25.6518C25.8968 17.3982 26.0969 17.5965 26.0969 17.8432C26.0969 18.0882 25.8985 18.2882 25.6518 18.2882H15.0351ZM17.6401 0C7.89846 0 0 7.89846 0 17.6401C0 27.3835 7.89846 35.2802 17.6401 35.2802C27.3835 35.2802 35.2802 27.3818 35.2802 17.6401C35.2819 7.89846 27.3835 0 17.6401 0ZM17.6401 1.51168C8.73174 1.51168 1.51168 8.73174 1.51168 17.6401C1.51168 26.5485 8.73344 33.7703 17.6418 33.7703C26.5502 33.7703 33.772 26.5485 33.772 17.6401C33.7703 8.73174 26.5485 1.51168 17.6401 1.51168Z" fill="#001938"/>
</svg>
