<svg width="60" height="61" viewBox="0 0 60 61" fill="none" xmlns="http://www.w3.org/2000/svg">
<g id="Frame 1321315629">
<g id="Group">
<path id="Vector" fill-rule="evenodd" clip-rule="evenodd" d="M22.6894 30.896C22.8048 30.896 22.9184 30.9375 23.0068 31.0186C24.1067 32.0103 25.3724 32.7424 26.7716 33.1968C26.9682 33.2599 27.0998 33.442 27.0998 33.6476V34.6609C27.0998 35.2848 27.6083 35.7933 28.2321 35.7933H31.7662C32.3901 35.7933 32.8985 35.2866 32.8985 34.6609V33.6476C32.8985 33.442 33.0301 33.2599 33.2267 33.1968C34.6259 32.7424 35.8934 32.0104 36.9934 31.0186C37.1466 30.8816 37.3702 30.8563 37.5469 30.9609L38.4268 31.4694C38.6865 31.6191 38.9912 31.6587 39.2851 31.5812C39.579 31.5037 39.8224 31.3162 39.9721 31.0565L41.7391 27.9966C42.0511 27.4557 41.8653 26.7615 41.3244 26.4496L40.4463 25.9429C40.2678 25.8401 40.1777 25.6345 40.2191 25.4344C40.3706 24.7221 40.4463 23.9901 40.4463 23.258C40.4463 22.526 40.3706 21.7939 40.2191 21.0817C40.1758 20.8816 40.2678 20.6742 40.4463 20.5732L41.3244 20.0665C41.584 19.9169 41.7716 19.6716 41.8491 19.3795C41.9266 19.0856 41.887 18.7809 41.7373 18.5212L39.9703 15.4614C39.6583 14.9204 38.9641 14.7347 38.425 15.0467L37.5433 15.5552C37.3648 15.6579 37.1412 15.6345 36.9897 15.4975C35.8898 14.5058 34.624 13.7737 33.2249 13.3193C33.0283 13.2562 32.8967 13.0741 32.8967 12.8685V11.8552C32.8967 11.2313 32.3882 10.7228 31.7644 10.7228H28.2303C27.6064 10.7228 27.098 11.2295 27.098 11.8552V12.8685C27.098 13.0741 26.9663 13.2562 26.7698 13.3193C25.3706 13.7737 24.103 14.5057 23.005 15.4975C22.8535 15.6345 22.6281 15.6579 22.4496 15.5552L21.5697 15.0467C21.0288 14.7347 20.3364 14.9204 20.0244 15.4614L18.2574 18.523C17.9455 19.064 18.1312 19.7564 18.6721 20.0683L19.5502 20.575C19.7287 20.6778 19.8207 20.8834 19.7774 21.0835C19.6278 21.7958 19.5502 22.5278 19.5502 23.2598C19.5502 23.9919 19.6259 24.724 19.7774 25.4362C19.8207 25.6363 19.7287 25.8437 19.5502 25.9447L18.6721 26.4514C18.1312 26.7633 17.9455 27.4575 18.2574 27.9984L20.0244 31.0583C20.1741 31.318 20.4193 31.5055 20.7114 31.583C21.0053 31.6605 21.3101 31.6209 21.5697 31.4712L22.4515 30.9627C22.5254 30.9194 22.6065 30.8978 22.6877 30.8978L22.6894 30.896ZM31.7662 36.7417H28.2322C27.0854 36.7417 26.1514 35.8077 26.1514 34.6609V33.9865C24.8621 33.5249 23.6811 32.8415 22.6335 31.9508L22.0457 32.2898C21.5661 32.5657 21.0053 32.6396 20.468 32.4953C19.9289 32.3511 19.4799 32.0067 19.204 31.5271L17.437 28.4672C16.8636 27.4737 17.2062 26.1989 18.1979 25.6237L18.7821 25.2865C18.6613 24.6193 18.6 23.9359 18.6 23.2544C18.6 22.5728 18.6613 21.8895 18.7803 21.2223L18.1961 20.8851C17.2026 20.3117 16.8618 19.037 17.4334 18.0435L19.2004 14.9818C19.7738 13.9883 21.0486 13.6475 22.0421 14.2209L22.6299 14.5599C23.6775 13.6692 24.8585 12.9858 26.1477 12.5242V11.8498C26.1477 10.703 27.0817 9.76904 28.2285 9.76904H31.7626C32.9093 9.76904 33.8433 10.703 33.8433 11.8498V12.5242C35.1326 12.9858 36.3136 13.6674 37.3612 14.5599L37.949 14.2209C38.9425 13.6475 40.2173 13.9901 40.7906 14.9836L42.5577 18.0435C42.8335 18.5231 42.9075 19.0839 42.7632 19.623C42.619 20.1603 42.2746 20.6093 41.7949 20.887L41.2107 21.2242C41.3315 21.8931 41.391 22.5747 41.391 23.2563C41.391 23.9378 41.3297 24.6194 41.2107 25.2883L41.7949 25.6255C42.7884 26.1989 43.1292 27.4737 42.5558 28.4672L40.7888 31.5289C40.5129 32.0085 40.064 32.3529 39.5248 32.4971C38.9875 32.6414 38.4267 32.5675 37.9471 32.2916L37.3611 31.9526C36.3135 32.8433 35.1307 33.5249 33.8414 33.9883V34.6627C33.8414 35.8095 32.9074 36.7435 31.7607 36.7435L31.7662 36.7417Z" fill="#001938"/>
<path id="Vector_2" fill-rule="evenodd" clip-rule="evenodd" d="M30.0017 16.2186C26.1214 16.2186 22.9642 19.3758 22.9642 23.2561C22.9642 27.1363 26.1214 30.2936 30.0017 30.2936C33.8819 30.2936 37.0391 27.1363 37.0391 23.2561C37.0391 19.3758 33.8819 16.2186 30.0017 16.2186ZM30.0017 31.2421C25.5985 31.2421 22.0156 27.6594 22.0156 23.2561C22.0156 18.8529 25.5984 15.27 30.0017 15.27C34.4049 15.27 37.9877 18.8528 37.9877 23.2561C37.9877 27.6593 34.4049 31.2421 30.0017 31.2421Z" fill="#001938"/>
<path id="Vector_3" fill-rule="evenodd" clip-rule="evenodd" d="M22.6897 42.1325H16.3336C16.0721 42.1325 15.8594 41.9216 15.8594 41.6583C15.8594 41.3969 16.0721 41.1841 16.3336 41.1841H22.2152V31.3697C22.2152 31.1083 22.4262 30.8955 22.6894 30.8955C22.9508 30.8955 23.1636 31.1083 23.1636 31.3697V41.6582C23.1636 41.9215 22.9511 42.1325 22.6897 42.1325Z" fill="#001938"/>
<path id="Vector_4" fill-rule="evenodd" clip-rule="evenodd" d="M43.6663 42.1343H37.3101C37.0487 42.1343 36.8359 41.9216 36.8359 41.6602V31.3717C36.8359 31.1102 37.0487 30.8975 37.3101 30.8975C37.5716 30.8975 37.7843 31.1102 37.7843 31.3717V41.1861H43.666C43.9274 41.1861 44.1402 41.3989 44.1402 41.6603C44.1402 41.9217 43.9277 42.1343 43.6663 42.1343Z" fill="#001938"/>
<path id="Vector_5" fill-rule="evenodd" clip-rule="evenodd" d="M30.0015 45.3409C29.7401 45.3409 29.5273 45.1281 29.5273 44.8667V36.2677C29.5273 36.0062 29.7401 35.7935 30.0015 35.7935C30.2648 35.7935 30.4757 36.0062 30.4757 36.2677V44.8667C30.4757 45.1282 30.2648 45.3409 30.0015 45.3409Z" fill="#001938"/>
<path id="Vector_6" fill-rule="evenodd" clip-rule="evenodd" d="M13.4043 39.2049C12.0501 39.2049 10.9484 40.3066 10.9484 41.6608C10.9484 43.0149 12.0501 44.1166 13.4043 44.1166C14.7584 44.1166 15.8601 43.0149 15.8601 41.6608C15.8601 40.3084 14.7584 39.2049 13.4043 39.2049ZM13.4043 45.0649C11.5272 45.0649 10 43.5376 10 41.6606C10 39.7836 11.5272 38.2563 13.4043 38.2563C15.2813 38.2563 16.8085 39.7836 16.8085 41.6606C16.8085 43.5376 15.2813 45.0649 13.4043 45.0649Z" fill="#001938"/>
<path id="Vector_7" fill-rule="evenodd" clip-rule="evenodd" d="M46.5957 39.2048C45.2433 39.2048 44.1398 40.3065 44.1398 41.6606C44.1398 43.0148 45.2415 44.1165 46.5957 44.1165C47.9498 44.1165 49.0515 43.0148 49.0515 41.6606C49.0515 40.3065 47.9498 39.2048 46.5957 39.2048ZM46.5957 45.0629C44.7186 45.0629 43.1914 43.5357 43.1914 41.6587C43.1914 39.7816 44.7186 38.2544 46.5957 38.2544C48.4727 38.2544 49.9999 39.7816 49.9999 41.6587C49.9999 43.5357 48.4727 45.0629 46.5957 45.0629Z" fill="#001938"/>
<path id="Vector_8" fill-rule="evenodd" clip-rule="evenodd" d="M29.998 45.3406C28.6457 45.3406 27.5422 46.4423 27.5422 47.7964C27.5422 49.1505 28.6439 50.2522 29.998 50.2522C31.3521 50.2522 32.4538 49.1505 32.4538 47.7964C32.4538 46.4423 31.3521 45.3406 29.998 45.3406ZM29.998 51.1987C28.121 51.1987 26.5938 49.6714 26.5938 47.7944C26.5938 45.9174 28.121 44.3901 29.998 44.3901C31.875 44.3901 33.4023 45.9174 33.4023 47.7944C33.4023 49.6714 31.875 51.1987 29.998 51.1987Z" fill="#001938"/>
</g>
</g>
</svg>
