<svg width="60" height="60" viewBox="0 0 60 60" fill="none" xmlns="http://www.w3.org/2000/svg">
<g id="Frame 1321315656">
<g id="Group">
<path id="Vector" d="M29.9941 18.8813C23.8682 18.8813 18.8828 23.8667 18.8828 29.9926C18.8828 36.1186 23.8682 41.1039 29.9941 41.1039C36.1201 41.1039 41.1054 36.1186 41.1054 29.9926C41.1054 23.8667 36.1201 18.8813 29.9941 18.8813ZM29.9941 39.622C24.6831 39.622 20.3648 35.3035 20.3648 29.9926C20.3648 24.6818 24.6833 20.3633 29.9941 20.3633C35.3049 20.3633 39.6235 24.6818 39.6235 29.9926C39.6235 35.3035 35.3049 39.622 29.9941 39.622Z" fill="#001938"/>
<path id="Vector_2" d="M28.9554 26.0668H31.0295C31.7628 26.0668 32.3628 26.6668 32.3628 27.4002C32.3628 27.8076 32.6961 28.1409 33.1036 28.1409C33.511 28.1409 33.8443 27.8076 33.8443 27.4002C33.8443 25.8446 32.5851 24.5854 31.0295 24.5854H30.7332V23.7705C30.7332 23.3631 30.3999 23.0298 29.9925 23.0298C29.5851 23.0298 29.2517 23.3631 29.2517 23.7705V24.5854H28.9554C27.3999 24.5854 26.1406 25.8446 26.1406 27.4002V27.9187C26.1406 29.4742 27.3999 30.7335 28.9554 30.7335H31.0295C31.7628 30.7335 32.3628 31.3335 32.3628 32.0668V32.5854C32.3628 33.3187 31.7628 33.9187 31.0295 33.9187H28.9554C28.2221 33.9187 27.6221 33.3187 27.6221 32.5854C27.6221 32.178 27.2888 31.8446 26.8814 31.8446C26.474 31.8446 26.1406 32.178 26.1406 32.5854C26.1406 34.1409 27.3999 35.4002 28.9554 35.4002H29.2517V36.215C29.2517 36.6224 29.5851 36.9557 29.9925 36.9557C30.3999 36.9557 30.7332 36.6224 30.7332 36.215V35.4002H31.0295C32.585 35.4002 33.8443 34.1409 33.8443 32.5854V32.0668C33.8443 30.5113 32.5851 29.252 31.0295 29.252H28.9554C28.2221 29.252 27.6221 28.652 27.6221 27.9187V27.4002C27.6221 26.6668 28.2221 26.0668 28.9554 26.0668Z" fill="#001938"/>
<path id="Vector_3" d="M49.2518 25.5481H45.6667C45.3259 24.3259 44.837 23.1555 44.2222 22.0519L46.7629 19.5111C47.0518 19.2222 47.0518 18.7555 46.7629 18.4667L41.5259 13.2296C41.3851 13.0889 41.1999 13.0148 40.9999 13.0148C40.7999 13.0148 40.6148 13.0963 40.474 13.2296L37.9333 15.7704C36.8296 15.1481 35.6592 14.6667 34.437 14.3259V10.7407C34.437 10.3333 34.1037 10 33.6962 10H26.2889C25.8815 10 25.5481 10.3333 25.5481 10.7407V14.3259C24.3259 14.6666 23.1555 15.1555 22.0519 15.7704L19.5111 13.2296C19.2296 12.9481 18.7407 12.9481 18.4667 13.2296L13.2296 18.4667C12.9407 18.7556 12.9407 19.2223 13.2296 19.5111L15.7704 22.0519C15.1481 23.1555 14.6667 24.3259 14.3259 25.5481H10.7407C10.3333 25.5481 10 25.8815 10 26.2889V33.6962C10 34.1036 10.3333 34.437 10.7407 34.437H14.3259C14.6666 35.6592 15.1555 36.8296 15.7704 37.9333L13.2296 40.474C12.9407 40.7629 12.9407 41.2296 13.2296 41.5184L18.4667 46.7555C18.6074 46.8962 18.7926 46.9703 18.9926 46.9703C19.1926 46.9703 19.3778 46.8888 19.5186 46.7555L22.0593 44.2148C23.163 44.837 24.3334 45.3184 25.5556 45.6592V49.2444C25.5556 49.6518 25.8889 49.9851 26.2963 49.9851H33.7037C34.1111 49.9851 34.4444 49.6518 34.4444 49.2444V45.6592C35.6666 45.3185 36.837 44.8296 37.9407 44.2148L40.4814 46.7555C40.6222 46.8962 40.8074 46.9703 41.0074 46.9703C41.2074 46.9703 41.3926 46.8888 41.5333 46.7555L46.7704 41.5184C47.0593 41.2295 47.0593 40.7628 46.7704 40.474L44.2296 37.9333C44.8519 36.8296 45.3333 35.6592 45.6741 34.437H49.2593C49.6667 34.437 50 34.1036 50 33.6962V26.2889C50 25.8815 49.6667 25.5481 49.2593 25.5481H49.2518ZM48.5111 32.9555H45.1037C45.1037 32.9555 45.0667 32.9629 45.0444 32.9703C44.9926 32.9703 44.9481 32.9851 44.9037 32.9999C44.8592 33.0148 44.8148 33.0296 44.7704 33.0518C44.7259 33.074 44.6963 33.0962 44.6592 33.1259C44.6222 33.1555 44.5852 33.1851 44.5555 33.2222C44.5259 33.2592 44.5037 33.2962 44.4815 33.3333C44.4592 33.3777 44.4296 33.4222 44.4148 33.474C44.4148 33.4962 44.3926 33.5111 44.3926 33.5259C44.037 34.9926 43.4592 36.3925 42.6741 37.674C42.6593 37.6962 42.6593 37.711 42.6518 37.7333C42.6296 37.7777 42.6148 37.8222 42.6 37.8666C42.5852 37.911 42.5778 37.9629 42.5704 38.0073V38.1407C42.5704 38.1925 42.5852 38.237 42.6 38.2888C42.6148 38.3333 42.6296 38.3703 42.6518 38.4073C42.6741 38.4518 42.7037 38.4962 42.7407 38.5407C42.7556 38.5555 42.7556 38.5703 42.7704 38.5851L45.1777 40.9925L40.9852 45.1851L38.5778 42.7777C38.5778 42.7777 38.5481 42.7555 38.5333 42.7481C38.4889 42.711 38.4518 42.6888 38.4 42.6592C38.363 42.637 38.3259 42.6222 38.2815 42.6073C38.237 42.5925 38.1852 42.5851 38.1407 42.5777C38.0963 42.5777 38.0518 42.5703 38.0074 42.5777C37.963 42.5777 37.9185 42.5925 37.8667 42.6073C37.8222 42.6222 37.7704 42.637 37.7259 42.6592C37.7037 42.6666 37.6889 42.6666 37.6667 42.6814C36.3777 43.4666 34.9852 44.0444 33.5185 44.3999C33.4963 44.3999 33.4815 44.4221 33.4667 44.4221C33.4148 44.437 33.3704 44.4592 33.3333 44.4888C33.2963 44.511 33.2519 44.5333 33.2222 44.5629C33.1852 44.5925 33.1556 44.6296 33.1259 44.6666C33.0963 44.7036 33.0667 44.7407 33.0519 44.7777C33.0296 44.8221 33.0148 44.8592 33 44.911C32.9852 44.9555 32.9778 45.0073 32.9704 45.0592C32.9704 45.0814 32.9556 45.0962 32.9556 45.1184V48.5258H27.0297V45.1184C27.0297 45.1184 27.0223 45.0814 27.0148 45.0592C27.0148 45.0073 27 44.9629 26.9852 44.911C26.9704 44.8666 26.9556 44.8221 26.9334 44.7777C26.9111 44.7333 26.8815 44.7036 26.8593 44.6666C26.8297 44.6296 26.8 44.5925 26.763 44.5629C26.726 44.5333 26.6889 44.511 26.6519 44.4888L26.5186 44.4221C26.4963 44.4221 26.4815 44.3999 26.4667 44.3999C25 44.0444 23.6 43.4666 22.3186 42.6814C22.3038 42.6666 22.2815 42.6666 22.2593 42.6592C22.2149 42.637 22.1704 42.6222 22.1186 42.6073C22.0741 42.5925 22.0297 42.5851 21.9778 42.5777H21.8445C21.7926 42.5777 21.7482 42.5925 21.7038 42.6073C21.6593 42.6222 21.6223 42.637 21.5852 42.6592C21.5408 42.6814 21.4963 42.711 21.4519 42.7481C21.4371 42.7629 21.4149 42.7629 21.4075 42.7777L19.0001 45.1851L14.8075 40.9925L17.2149 38.5851C17.2149 38.5851 17.2371 38.5555 17.2445 38.5407C17.2815 38.4962 17.3037 38.4518 17.3334 38.4073C17.3556 38.3703 17.3704 38.3333 17.3852 38.2888C17.4 38.237 17.4075 38.1925 17.4149 38.1407C17.4149 38.0962 17.4223 38.0518 17.4149 38.0073C17.4149 37.9555 17.4 37.911 17.3852 37.8666C17.3704 37.8221 17.3556 37.7777 17.3334 37.7333C17.326 37.711 17.326 37.6962 17.3112 37.674C16.526 36.3851 15.9482 34.9926 15.5926 33.5259C15.5926 33.5037 15.5704 33.4888 15.5704 33.474C15.5556 33.4222 15.5334 33.3777 15.5038 33.3333C15.4815 33.2962 15.4593 33.2518 15.4297 33.2222C15.4001 33.1851 15.363 33.1555 15.326 33.1259C15.2889 33.0962 15.2519 33.074 15.2149 33.0518C15.1704 33.0296 15.126 33.0148 15.0815 32.9999C15.0371 32.9851 14.9852 32.9777 14.9408 32.9703C14.9186 32.9703 14.9038 32.9555 14.8815 32.9555H11.4741V27.0296H14.8815C14.9778 27.0296 15.0667 27.0074 15.1482 26.9778C15.1778 26.9629 15.2001 26.9481 15.2297 26.9333C15.2815 26.9037 15.3334 26.8741 15.3704 26.837C15.3926 26.8148 15.4149 26.7852 15.4371 26.7629C15.4741 26.7185 15.5038 26.6741 15.526 26.6296C15.5408 26.6 15.5556 26.5629 15.5704 26.5259C15.5704 26.5037 15.5926 26.4889 15.6001 26.4666C15.9556 25 16.5334 23.6 17.3186 22.3185C17.3334 22.2963 17.3334 22.2815 17.3408 22.2593C17.363 22.2148 17.3778 22.1704 17.3926 22.1259C17.4075 22.0815 17.4149 22.0296 17.4223 21.9852V21.8519C17.4223 21.8 17.4075 21.7556 17.3926 21.7037C17.3778 21.6593 17.363 21.6222 17.3408 21.5852C17.3186 21.5407 17.2889 21.4963 17.2519 21.4519C17.2371 21.437 17.2371 21.4222 17.2223 21.4074L14.8149 19L19.0075 14.8074L21.4149 17.2148C21.4815 17.2741 21.5556 17.3259 21.6297 17.363C21.6445 17.3704 21.6667 17.3778 21.6815 17.3852C21.763 17.4148 21.8445 17.437 21.9334 17.437C22.0223 17.437 22.0963 17.4148 22.1778 17.3852C22.2 17.3778 22.2223 17.3704 22.2445 17.3556C22.2667 17.3407 22.2963 17.3407 22.3186 17.3259C23.6075 16.5408 25 15.963 26.4667 15.6074C26.4889 15.6074 26.5037 15.5852 26.5185 15.5852C26.5704 15.5704 26.6148 15.5482 26.6519 15.5185C26.6889 15.4963 26.7334 15.4741 26.763 15.4445C26.8 15.4148 26.8297 15.3778 26.8593 15.3408C26.8889 15.3037 26.9185 15.2667 26.9334 15.2296C26.9556 15.1852 26.9704 15.1482 26.9852 15.0963C27 15.0519 27.0074 15 27.0148 14.9482C27.0148 14.9259 27.0297 14.9111 27.0297 14.8889V11.4815H32.9555V14.8889C32.9555 14.8889 32.963 14.9259 32.9704 14.9482C32.9704 15 32.9852 15.0445 33 15.0963C33.0148 15.1407 33.0296 15.1852 33.0518 15.2296C33.0741 15.2741 33.1037 15.3037 33.1259 15.3408C33.1556 15.3778 33.1852 15.4148 33.2222 15.4445C33.2592 15.4741 33.2963 15.4963 33.3333 15.5185L33.4667 15.5852C33.4889 15.5852 33.5037 15.6074 33.5185 15.6074C34.9852 15.963 36.3852 16.5408 37.6666 17.3259C37.6889 17.3407 37.7185 17.3481 37.7407 17.3556C37.7629 17.363 37.7852 17.3778 37.8074 17.3852C37.8889 17.4148 37.9703 17.437 38.0518 17.437C38.1333 17.437 38.2222 17.4148 38.3037 17.3852C38.3185 17.3852 38.3407 17.3704 38.3555 17.363C38.437 17.3259 38.5111 17.2815 38.5703 17.2148L40.9777 14.8074L45.1703 19L42.7629 21.4074C42.7629 21.4074 42.7407 21.437 42.7333 21.4519C42.6963 21.4963 42.674 21.5407 42.6444 21.5852C42.6222 21.6222 42.6074 21.6593 42.5926 21.7037C42.5777 21.7556 42.5703 21.8 42.5629 21.8519C42.5629 21.8963 42.5555 21.9407 42.5629 21.9852C42.5629 22.037 42.5777 22.0815 42.5926 22.1259C42.6074 22.1704 42.6222 22.2148 42.6444 22.2593C42.6518 22.2815 42.6518 22.2963 42.6666 22.3185C43.4518 23.6074 44.0296 25 44.3852 26.4666C44.3852 26.4889 44.4074 26.5037 44.4148 26.5259C44.4296 26.5629 44.4444 26.5926 44.4592 26.6296C44.4814 26.6815 44.5111 26.7259 44.5481 26.7629C44.5703 26.7926 44.5926 26.8148 44.6148 26.837C44.6592 26.8741 44.7037 26.9037 44.7555 26.9333C44.7851 26.9481 44.8074 26.9629 44.837 26.9778C44.9185 27.0074 45.0074 27.0296 45.1037 27.0296H48.5111L48.5111 32.9555Z" fill="#001938"/>
</g>
</g>
</svg>
