<svg width="60" height="61" viewBox="0 0 60 61" fill="none" xmlns="http://www.w3.org/2000/svg">
<g id="Frame 1321315645">
<path id="Vector" d="M14.7304 27.2351V21.2319C14.7304 19.4706 16.042 18.0385 17.654 18.0385H23.2162L22.0234 16.8439C21.8011 16.6217 21.8028 16.2637 22.0234 16.0413C22.2457 15.8208 22.6037 15.8208 22.826 16.0413L24.986 18.2031C24.9996 18.2167 25.0115 18.2302 25.0251 18.2455C25.0302 18.2506 25.0336 18.2574 25.037 18.2625C25.0437 18.271 25.0505 18.2811 25.0573 18.2896C25.0624 18.2964 25.0658 18.3049 25.0709 18.3117C25.076 18.3202 25.0811 18.3286 25.0862 18.3371C25.0912 18.3456 25.0946 18.3524 25.098 18.3609C25.1031 18.3694 25.1065 18.3779 25.1099 18.388C25.1133 18.3965 25.115 18.4033 25.1184 18.4118C25.1218 18.422 25.1252 18.4305 25.1286 18.4406C25.1303 18.4491 25.132 18.4559 25.1354 18.4644C25.1388 18.4746 25.1405 18.4848 25.1422 18.4949C25.1439 18.5034 25.1455 18.5136 25.1472 18.5238C25.1489 18.5323 25.1506 18.5407 25.1506 18.5509C25.1523 18.5679 25.1523 18.5832 25.154 18.6001V18.6052V18.6069C25.154 18.6256 25.1523 18.6443 25.1506 18.6629C25.1489 18.6714 25.1472 18.6799 25.1472 18.6884C25.1455 18.6986 25.1439 18.7087 25.1422 18.7172C25.1405 18.7274 25.1371 18.7359 25.1354 18.7461C25.1337 18.7545 25.132 18.763 25.1286 18.7715C25.1252 18.78 25.1218 18.7885 25.1184 18.7987C25.115 18.8071 25.1133 18.8156 25.1099 18.8241C25.1065 18.8326 25.1031 18.8394 25.098 18.8479C25.0946 18.8564 25.0896 18.8648 25.0862 18.8733C25.0811 18.8818 25.0777 18.8886 25.0726 18.8954C25.0675 18.9039 25.0624 18.9123 25.0573 18.9208C25.0522 18.9293 25.0454 18.9378 25.0403 18.9446C25.0353 18.9514 25.0302 18.9582 25.0251 18.965C25.0132 18.9785 25.0013 18.9938 24.9877 19.0074L22.8277 21.1674C22.7174 21.2777 22.5715 21.3337 22.4272 21.3337C22.2813 21.3337 22.1371 21.2777 22.0268 21.1674C21.8045 20.9451 21.8045 20.5871 22.0268 20.3648L23.218 19.1737H17.6574C16.6699 19.1737 15.8673 20.0967 15.8673 21.2319V27.235C15.8673 27.5489 15.6128 27.8018 15.3006 27.8018C14.9867 27.8018 14.7338 27.5473 14.7338 27.235L14.7304 27.2351ZM50 22.6654V24.7032C50 25.4583 49.4502 26.0505 48.5662 26.2473L46.6709 26.68C46.491 27.2535 46.2602 27.8101 45.9803 28.3412L47.017 29.9905C47.5006 30.7557 47.4701 31.5617 46.939 32.0962L45.4984 33.5368C44.9622 34.0696 44.1545 34.0984 43.3892 33.6148L41.7416 32.5781C41.2088 32.8581 40.654 33.0889 40.0805 33.267L39.6478 35.1657C39.4493 36.048 38.8588 36.5978 38.1037 36.5978H36.0658C35.3107 36.5978 34.7185 36.0481 34.5217 35.164L34.0907 33.2687C33.5155 33.0888 32.959 32.8581 32.4279 32.5781L30.7786 33.6148C30.0133 34.0984 29.2056 34.0679 28.6728 33.5351L27.2322 32.0962C26.6994 31.56 26.6706 30.7523 27.1542 29.9871L28.1909 28.3395C27.911 27.8066 27.6802 27.2501 27.502 26.6783L25.6033 26.2456C24.721 26.0488 24.1712 25.4566 24.1712 24.7015V22.6637C24.1712 21.9086 24.721 21.3164 25.605 21.1196L27.502 20.6869C27.6802 20.1151 27.911 19.5585 28.1909 19.0257L27.1542 17.3764C26.6706 16.6112 26.7011 15.8052 27.2322 15.2707L28.6745 13.8301C29.2073 13.2973 30.0133 13.2667 30.7803 13.752L32.4279 14.7888C32.9607 14.5088 33.5155 14.278 34.089 14.0999L34.5217 12.2012C34.7186 11.3188 35.3107 10.769 36.0658 10.769H38.1037C38.8588 10.769 39.4493 11.3188 39.6478 12.2028L40.0805 14.0999C40.6523 14.278 41.2089 14.5088 41.7416 14.7888L43.3909 13.752C44.1545 13.2701 44.9622 13.299 45.4967 13.8301L46.9373 15.2707C47.4701 15.8069 47.4989 16.6146 47.0153 17.3781L45.9786 19.0257C46.2586 19.5568 46.4893 20.1134 46.6675 20.6869L48.5662 21.1196C49.4485 21.3164 49.9983 21.9086 49.9983 22.6637L50 22.6654ZM48.8665 22.6654C48.8665 22.3803 48.483 22.2632 48.3185 22.2276L46.0923 21.7202C45.8886 21.6744 45.7274 21.5183 45.6715 21.3181C45.478 20.6105 45.1946 19.9284 44.8298 19.2887C44.7263 19.1071 44.7314 18.8832 44.8417 18.7067L46.0566 16.7758C46.1483 16.6315 46.3366 16.2769 46.1347 16.0733L44.6975 14.6361C44.4956 14.4342 44.1392 14.6242 43.9967 14.7141L42.0658 15.9291C41.8893 16.041 41.6653 16.0444 41.4838 15.9409C40.8441 15.5761 40.1619 15.2944 39.4544 15.0993C39.2525 15.0433 39.0981 14.8821 39.0522 14.6785L38.5449 12.454C38.5076 12.2877 38.3905 11.9026 38.1054 11.9026H36.0676C35.7825 11.9026 35.6654 12.286 35.6298 12.4506L35.1224 14.6768C35.0766 14.8804 34.9205 15.0416 34.7203 15.0976C34.0127 15.2911 33.3306 15.5744 32.6909 15.9392C32.5093 16.0427 32.2854 16.0377 32.1089 15.9274L30.178 14.7124C30.066 14.6412 29.6842 14.4274 29.4789 14.6327L28.0366 16.0716C27.8364 16.2735 28.0247 16.6281 28.1146 16.7724L29.3296 18.7033C29.4416 18.8798 29.4449 19.1038 29.3414 19.2853C28.9766 19.925 28.695 20.6071 28.4998 21.3147C28.4438 21.5166 28.2826 21.671 28.079 21.7168L25.8545 22.2242C25.6882 22.2615 25.3031 22.3786 25.3031 22.6637V24.7015C25.3031 24.9866 25.6865 25.1037 25.8511 25.1393L28.0773 25.6466C28.2809 25.6925 28.4421 25.8486 28.4981 26.0488C28.6916 26.7564 28.975 27.4385 29.3397 28.0782C29.4433 28.2597 29.4382 28.4837 29.3279 28.6602L28.1129 30.5911C28.0213 30.7353 27.833 31.09 28.0349 31.2936L29.4755 32.7308C29.6825 32.9378 30.0626 32.724 30.1746 32.6527L32.1055 31.4378C32.1972 31.3801 32.3024 31.3513 32.4076 31.3513C32.5043 31.3513 32.601 31.3767 32.6875 31.4259C33.3256 31.7891 34.0077 32.0724 34.7203 32.2693C34.9222 32.3252 35.0766 32.4864 35.1224 32.6901L35.6264 34.9112C35.6637 35.0775 35.7808 35.4609 36.0659 35.4609H38.1037C38.3888 35.4609 38.5059 35.0775 38.5415 34.9129L39.0489 32.6867C39.0947 32.4831 39.2508 32.3219 39.451 32.2659C40.1586 32.0724 40.8407 31.789 41.4804 31.4242C41.662 31.3207 41.8859 31.3258 42.0624 31.4361L43.9933 32.651C44.1376 32.7427 44.4922 32.931 44.6958 32.7291L46.133 31.2919C46.3349 31.09 46.1449 30.7336 46.055 30.5911L44.84 28.6602C44.7281 28.4837 44.7247 28.2597 44.8282 28.0782C45.1913 27.4419 45.4747 26.758 45.6715 26.0471C45.7275 25.8469 45.8887 25.6925 46.0923 25.645L48.3134 25.1376C48.4814 25.1003 48.8648 24.9832 48.8648 24.6981V22.6603L48.8665 22.6654ZM42.9311 23.6852C42.9311 26.9091 40.3096 29.5306 37.0857 29.5306C33.8618 29.5306 31.2402 26.909 31.2402 23.6852C31.2402 20.4612 33.8618 17.8397 37.0857 17.8397C40.3096 17.8397 42.9311 20.4613 42.9311 23.6852ZM41.7977 23.6852C41.7977 21.0873 39.6834 18.973 37.0855 18.973C34.4875 18.973 32.3733 21.0872 32.3733 23.6852C32.3733 26.283 34.4875 28.3973 37.0855 28.3973C39.6834 28.3973 41.7977 26.2831 41.7977 23.6852ZM29.837 38.4407C30.0016 39.06 29.6876 39.6657 29.0157 40.0221L27.7618 40.6838C27.7397 41.0995 27.6854 41.5153 27.5989 41.9242L28.639 42.8863C29.1956 43.4055 29.3415 44.0706 29.0225 44.6255L28.242 45.9795C27.9179 46.5361 27.268 46.7414 26.5434 46.5157L25.1894 46.0966C24.8806 46.3749 24.548 46.6311 24.1967 46.8585L24.251 48.2753C24.2799 49.0355 23.9134 49.6107 23.294 49.777L21.7839 50.1808C21.6736 50.2096 21.565 50.2249 21.4581 50.2249C20.9576 50.2249 20.496 49.9144 20.2042 49.3612L19.5441 48.1073C19.1267 48.0869 18.711 48.0326 18.302 47.9444L17.3382 48.9845C16.8224 49.5411 16.1556 49.6887 15.599 49.368L14.2467 48.5875C13.6901 48.2668 13.4831 47.6152 13.7088 46.889L14.1279 45.5349C13.8462 45.2227 13.5917 44.8918 13.3677 44.5423L11.9526 44.5966C11.1941 44.6254 10.6189 44.2606 10.4492 43.643L10.0437 42.1294C9.87741 41.5084 10.193 40.9026 10.8666 40.5497L12.1172 39.8896C12.1392 39.4722 12.1935 39.0582 12.2801 38.6493L11.2416 37.6855C10.6834 37.1696 10.5358 36.5028 10.8565 35.9479L11.6404 34.5956C11.9594 34.0407 12.611 33.8354 13.3372 34.0594L14.6912 34.4785C15.0034 34.1968 15.3343 33.9406 15.6821 33.7166L15.6278 32.3015C15.599 31.5413 15.9655 30.9661 16.5882 30.7998L18.095 30.3943C18.716 30.228 19.3201 30.5436 19.6764 31.2172L20.3381 32.4712C20.7556 32.4915 21.1696 32.5458 21.5785 32.6341L22.5423 31.5939C23.0598 31.034 23.7267 30.8881 24.2832 31.2121L25.6356 31.991C26.1921 32.3117 26.3975 32.9616 26.1718 33.6895L25.7527 35.0436C26.0327 35.3524 26.2872 35.685 26.5145 36.0345L27.9314 35.9802C28.6898 35.9513 29.2667 36.3178 29.433 36.9406L29.8369 38.449L29.837 38.4407ZM28.7408 38.7325L28.337 37.2257C28.3099 37.1205 28.0876 37.1019 27.9739 37.107L26.2279 37.1731C26.0209 37.1816 25.824 37.073 25.7171 36.8932C25.4372 36.4163 25.0978 35.9769 24.7109 35.5832C24.5633 35.4339 24.5107 35.2167 24.5718 35.0165L25.0876 33.3451C25.1216 33.2365 25.1606 33.0176 25.069 32.9633L23.7149 32.1828C23.5978 32.1149 23.384 32.344 23.3739 32.3542L22.1844 33.637C22.0419 33.7914 21.8264 33.8524 21.6244 33.7998C21.0916 33.659 20.5419 33.586 19.9904 33.5844C19.7817 33.5827 19.5883 33.4673 19.4916 33.2823L18.6737 31.7348C18.6211 31.6347 18.4939 31.4515 18.3903 31.4786L16.8836 31.8842C16.7784 31.913 16.7597 32.1336 16.7631 32.2473L16.8293 33.995C16.8378 34.2037 16.7292 34.4005 16.5493 34.5057C16.0793 34.7806 15.6381 35.1183 15.2411 35.5119C15.0918 35.6595 14.8746 35.7121 14.6743 35.6511L13.003 35.1352C12.9911 35.1318 12.6874 35.0402 12.6212 35.1539L11.8373 36.5062C11.7711 36.6216 12.0018 36.8371 12.012 36.8456L13.2931 38.0351C13.4458 38.1776 13.5086 38.3914 13.456 38.5933C13.3169 39.1278 13.2439 39.681 13.2405 40.2341C13.2388 40.4428 13.1234 40.6346 12.9385 40.7313L11.3944 41.5457C11.3808 41.5525 11.1025 41.7002 11.1382 41.8291L11.542 43.3393C11.5776 43.4682 11.8932 43.4564 11.9068 43.4564L13.6528 43.3902C13.8615 43.3817 14.0583 43.4903 14.1636 43.6719C14.4401 44.1452 14.7778 44.5848 15.1681 44.9835C15.314 45.1328 15.3666 45.35 15.3055 45.5485L14.7897 47.2199C14.7846 47.2335 14.6947 47.5338 14.8117 47.6017L16.1641 48.3822C16.2812 48.4501 16.495 48.221 16.5035 48.2108L17.6929 46.9281C17.8015 46.811 17.9525 46.7465 18.1086 46.7465C18.1561 46.7465 18.2054 46.7533 18.2529 46.7652C18.7857 46.906 19.3371 46.979 19.8886 46.9807C20.099 46.9824 20.2907 47.0977 20.3874 47.2827L21.2019 48.8302C21.2087 48.8421 21.3563 49.1186 21.4852 49.0847L22.9954 48.6809C23.0972 48.6537 23.1176 48.4314 23.1125 48.3177L23.0463 46.5717C23.0378 46.363 23.1464 46.1679 23.3263 46.061C23.8065 45.7793 24.2477 45.44 24.6379 45.0548C24.7872 44.9072 25.0044 44.8546 25.2046 44.9157L26.876 45.4315C26.8896 45.4366 27.1899 45.5282 27.2578 45.4094L28.0366 44.0571C28.1028 43.9417 27.8738 43.7245 27.8636 43.716L26.5825 42.5316C26.4298 42.3908 26.367 42.1753 26.4179 41.9734C26.557 41.4355 26.63 40.884 26.6334 40.3326C26.6351 40.1239 26.7505 39.9321 26.9354 39.8354L28.4795 39.021C28.5084 39.0057 28.7697 38.8632 28.7357 38.7342L28.7408 38.7325ZM24.3987 39.0888C25.0571 41.5475 23.5927 44.0825 21.1358 44.741C20.7387 44.8479 20.3349 44.9005 19.9328 44.9005C19.1336 44.9005 18.3446 44.6901 17.6319 44.2812C16.5646 43.6652 15.801 42.6692 15.482 41.4798C15.163 40.2886 15.3276 39.0448 15.9436 37.9776C16.5595 36.9103 17.5555 36.1467 18.745 35.8277C21.2002 35.1694 23.7352 36.6337 24.3972 39.0907L24.3987 39.0888ZM23.3043 39.3824C22.8869 37.8298 21.4769 36.8016 19.9412 36.8016C19.6443 36.8016 19.3423 36.8406 19.0419 36.9203C18.1443 37.1613 17.3926 37.7365 16.9277 38.5425C16.4628 39.3485 16.3389 40.2851 16.5799 41.1844C16.8208 42.082 17.396 42.8337 18.202 43.2986C19.0063 43.7635 19.9463 43.8874 20.8439 43.6465C22.6968 43.1493 23.8014 41.237 23.3043 39.3824ZM41.9197 35.5765C41.6058 35.5765 41.353 35.831 41.353 36.1432V42.1464C41.353 43.2815 40.5504 44.2046 39.5629 44.2046H34.0023L35.1952 43.0134C35.4175 42.7928 35.4175 42.4331 35.1952 42.2108C34.9746 41.9885 34.6149 41.9885 34.3926 42.2108L32.2308 44.3709C32.2173 44.3844 32.2054 44.398 32.1935 44.4116C32.1918 44.415 32.1901 44.4167 32.1867 44.4201C32.1765 44.432 32.1681 44.4438 32.1596 44.4574C32.1579 44.4608 32.1562 44.4625 32.1545 44.4659C32.146 44.4795 32.1375 44.4913 32.1307 44.5066C32.129 44.5083 32.129 44.51 32.129 44.5117C32.1205 44.527 32.1138 44.5422 32.107 44.5575V44.5592C32.0934 44.5932 32.0815 44.6271 32.0747 44.6644C32.0747 44.6661 32.0747 44.6695 32.073 44.6712C32.0696 44.6865 32.0679 44.7034 32.0662 44.7187C32.0646 44.7374 32.0629 44.756 32.0629 44.7747V44.7832C32.0629 44.8002 32.0646 44.8154 32.0662 44.8324C32.0679 44.8477 32.0696 44.8629 32.073 44.8782C32.073 44.8816 32.0747 44.885 32.0747 44.8884C32.0781 44.9054 32.0832 44.9223 32.0866 44.9393C32.0866 44.941 32.0866 44.941 32.0883 44.9427C32.0934 44.9597 32.0985 44.9749 32.1053 44.9919C32.1053 44.9936 32.107 44.9936 32.107 44.9953C32.1138 45.0106 32.1205 45.0241 32.1273 45.0394C32.129 45.0411 32.129 45.0445 32.1307 45.0462C32.1375 45.0598 32.146 45.0717 32.1545 45.0852C32.1562 45.0886 32.1579 45.092 32.1596 45.0954C32.1681 45.1073 32.1765 45.1192 32.185 45.1293C32.1884 45.1327 32.1901 45.1361 32.1918 45.1395C32.2037 45.1531 32.2156 45.1684 32.2291 45.1803L34.3909 47.342C34.5012 47.4523 34.6471 47.5083 34.7913 47.5083C34.9373 47.5083 35.0815 47.4523 35.1918 47.342C35.4141 47.1197 35.4141 46.7617 35.1918 46.5394L33.9972 45.3448H39.5578C41.1697 45.3448 42.4814 43.9127 42.4814 42.1514V36.1483C42.4814 35.8344 42.2268 35.5815 41.9146 35.5815L41.9197 35.5765Z" fill="#001938"/>
</g>
</svg>
