<svg width="40" height="40" viewBox="0 0 40 40" fill="none" xmlns="http://www.w3.org/2000/svg">
<path fill-rule="evenodd" clip-rule="evenodd" d="M19.7978 31.6351C15.7795 29.7942 12.7871 26.914 11.0405 23.412C9.29362 19.9133 8.78722 15.7978 9.73736 11.4808L9.7819 11.2845L9.96005 11.1772C13.1998 9.26544 16.5878 8.31032 19.9745 8.31032C23.361 8.31032 26.7441 9.2621 29.9856 11.1723L30.1588 11.2745L30.2033 11.4708C31.2211 15.7878 30.7411 19.925 28.9942 23.4367C27.2424 26.9568 24.2287 29.8368 20.1757 31.6383L19.9843 31.7224L19.793 31.6333L19.7978 31.6351ZM13.1435 7.18698C13.2721 7.40966 13.1962 7.69338 12.9703 7.82205C12.7476 7.95071 12.4639 7.87484 12.3352 7.64885L9.83281 3.31537C9.70415 3.09268 9.78003 2.80897 10.006 2.6803C10.2287 2.55163 10.5124 2.62751 10.6411 2.8535L13.1435 7.18698ZM7.65377 12.335C7.87646 12.4637 7.95563 12.7491 7.82697 12.9701C7.69831 13.1928 7.41294 13.272 7.1919 13.1433L2.85842 10.6409C2.63574 10.5123 2.55656 10.2269 2.68522 10.0059C2.81388 9.78319 3.09926 9.70401 3.32029 9.83267L7.65377 12.335ZM5.47639 19.5354C5.73372 19.5354 5.94322 19.7449 5.94322 20.0022C5.94322 20.2596 5.73373 20.4691 5.47639 20.4691H0.466835C0.209503 20.4691 0 20.2596 0 20.0022C0 19.7449 0.209491 19.5354 0.466835 19.5354H5.47639ZM7.18698 26.8612C7.40966 26.7325 7.69338 26.8084 7.82205 27.0344C7.95071 27.2571 7.87483 27.5408 7.64885 27.6695L3.31537 30.1718C3.09268 30.3005 2.80897 30.2246 2.6803 29.9986C2.55163 29.7759 2.62751 29.4922 2.8535 29.3636L7.18698 26.8612ZM12.335 32.3509C12.4637 32.1282 12.7491 32.049 12.9701 32.1777C13.1928 32.3063 13.272 32.5917 13.1433 32.8127L10.6409 37.1462C10.5123 37.3689 10.2269 37.4481 10.0059 37.3194C9.78319 37.1908 9.70401 36.9054 9.83267 36.6844L12.335 32.3509ZM19.5354 34.5283C19.5354 34.2709 19.7449 34.0614 20.0022 34.0614C20.2596 34.0614 20.4691 34.2709 20.4691 34.5283V39.5332C20.4691 39.7905 20.2596 40 20.0022 40C19.7449 40 19.5354 39.7905 19.5354 39.5332V34.5283ZM26.8612 32.8177C26.7325 32.595 26.8084 32.3113 27.0344 32.1826C27.2571 32.0539 27.5408 32.1298 27.6695 32.3558L30.1718 36.6893C30.3005 36.912 30.2246 37.1957 29.9986 37.3244C29.7759 37.453 29.4922 37.3771 29.3636 37.1511L26.8612 32.8177ZM32.3509 27.6696C32.1282 27.5409 32.049 27.2556 32.1777 27.0345C32.3063 26.8118 32.5917 26.7327 32.8127 26.8613L37.1462 29.3637C37.3689 29.4924 37.4481 29.7777 37.3194 29.9988C37.1908 30.2215 36.9054 30.3006 36.6844 30.172L32.3509 27.6696ZM34.5283 20.4692C34.2709 20.4692 34.0614 20.2598 34.0614 20.0024C34.0614 19.7451 34.2709 19.5356 34.5283 19.5356H39.5332C39.7905 19.5356 40 19.7451 40 20.0024C40 20.2598 39.7905 20.4692 39.5332 20.4692H34.5283ZM32.8177 13.1435C32.595 13.2721 32.3113 13.1962 32.1826 12.9703C32.0539 12.7476 32.1298 12.4639 32.3558 12.3352L36.6893 9.83281C36.912 9.70415 37.1957 9.78003 37.3243 10.006C37.453 10.2287 37.3771 10.5124 37.1511 10.6411L32.8177 13.1435ZM27.6696 7.65377C27.5409 7.87646 27.2556 7.95564 27.0345 7.82697C26.8118 7.69831 26.7327 7.41294 26.8613 7.1919L29.3637 2.85842C29.4924 2.63574 29.7777 2.55656 29.9988 2.68522C30.2215 2.81388 30.3006 3.09926 30.172 3.32029L27.6696 7.65377ZM20.4692 5.47639C20.4692 5.73372 20.2598 5.94322 20.0024 5.94322C19.7451 5.94322 19.5356 5.73373 19.5356 5.47639V0.466835C19.5356 0.209503 19.7451 0 20.0024 0C20.2598 0 20.4692 0.209491 20.4692 0.466835V5.47639ZM19.5356 19.2863V21.3318C19.5356 21.5891 19.7451 21.7986 20.0024 21.7986C20.2598 21.7986 20.4693 21.5891 20.4693 21.3318V19.2863C20.4693 19.029 20.2598 18.8195 20.0024 18.8195C19.7451 18.8195 19.5356 19.029 19.5356 19.2863ZM22.3234 16.3831V15.4726C22.3234 15.0866 22.1634 14.7353 21.9093 14.4812C21.6553 14.2272 21.3056 14.0672 20.9179 14.0672H19.0902C18.7043 14.0672 18.3529 14.2272 18.0988 14.4812C17.8448 14.7352 17.6848 15.085 17.6848 15.4726V16.3831H22.3234ZM16.7479 16.3831H16.6853C16.4015 16.3831 16.1475 16.4986 15.9611 16.685C15.7747 16.8714 15.6593 17.1254 15.6593 17.4091V23.2105C15.6593 23.4909 15.7747 23.7482 15.9611 23.9346C16.1475 24.121 16.4049 24.2365 16.6853 24.2365H23.3215C23.6019 24.2365 23.8592 24.121 24.0456 23.9346C24.232 23.7482 24.3475 23.4942 24.3475 23.2105V17.4091C24.3475 17.1254 24.232 16.8714 24.0456 16.685C23.8592 16.4986 23.6051 16.3831 23.3215 16.3831H23.2588V15.4726C23.2588 14.8277 22.9965 14.242 22.5693 13.8197C22.142 13.3975 21.5598 13.1302 20.9164 13.1302H19.0887C18.4438 13.1302 17.8581 13.3925 17.4359 13.8197C17.0136 14.247 16.7464 14.8293 16.7464 15.4726V16.3831H16.7479ZM23.3229 17.3218H16.6867C16.6653 17.3218 16.6422 17.33 16.624 17.3481C16.6059 17.3663 16.5976 17.3844 16.5976 17.4108V23.2122C16.5976 23.2336 16.6059 23.2567 16.624 23.2748C16.624 23.2748 16.6603 23.3012 16.6867 23.3012H23.3229C23.3493 23.3012 23.3674 23.293 23.3856 23.2798C23.3856 23.2798 23.412 23.2402 23.412 23.2171V17.4158C23.412 17.3943 23.4037 17.3712 23.3856 17.3531C23.3674 17.3349 23.3493 17.3267 23.3229 17.3267V17.3218ZM11.8815 22.9947C13.508 26.2575 16.2775 28.951 19.9991 30.698C23.7469 28.9874 26.5428 26.2936 28.1644 23.0209C29.7876 19.7531 30.2494 15.9046 29.3422 11.8764C26.2971 10.1213 23.1367 9.24536 19.9759 9.24536C16.8151 9.24536 13.6501 10.1262 10.6097 11.8813C9.7651 15.9079 10.2534 19.7396 11.8765 22.9942L11.8815 22.9947Z" fill="#FAFAFA"/>
</svg>
