<svg width="60" height="60" viewBox="0 0 60 60" fill="none" xmlns="http://www.w3.org/2000/svg">
<g id="Frame 1321315640">
<g id="Layer 25">
<path id="Vector" d="M44.9806 18.8079L33.5899 11.8621C32.4721 11.292 31.2345 10.9964 29.9796 11C28.7248 11.0036 27.4888 11.3062 26.3743 11.8827L15.0194 18.8079C14.299 19.2473 13.7272 19.8929 13.3779 20.6611C13.0287 21.4292 12.918 22.2845 13.0604 23.1163L14.1321 29.367C14.8834 33.7634 16.7005 37.9088 19.4245 41.4405C22.1484 44.9722 25.6962 47.7826 29.7576 49.6261C29.8337 49.6608 29.9163 49.6787 30 49.6787C30.0836 49.6787 30.1663 49.6608 30.2424 49.6261C34.3038 47.7826 37.8516 44.9722 40.5755 41.4405C43.2995 37.9088 45.1166 33.7634 45.8679 29.367L46.9396 23.1163C47.082 22.2845 46.9713 21.4292 46.6221 20.6611C46.2728 19.8929 45.701 19.2473 44.9806 18.8079ZM45.7838 22.9182L44.7121 29.169C44.0007 33.3322 42.2906 37.2609 39.7283 40.6185C37.166 43.9761 33.8279 46.6624 30 48.4473C26.1721 46.6624 22.834 43.9761 20.2717 40.6185C17.7094 37.2609 15.9993 33.3322 15.2879 29.169L14.2162 22.9182C14.187 22.7486 14.1724 22.5768 14.1724 22.4047C14.1742 21.8837 14.3089 21.3717 14.5639 20.9174C14.8189 20.4631 15.1858 20.0814 15.6296 19.8086L26.9487 12.904C27.8858 12.4197 28.9247 12.1652 29.9796 12.1616C31.0345 12.158 32.0751 12.4054 33.0154 12.8834L44.3703 19.8086C44.8142 20.0814 45.181 20.4631 45.4361 20.9174C45.6911 21.3717 45.8258 21.8837 45.8276 22.4047C45.8276 22.5768 45.813 22.7486 45.7838 22.9182Z" fill="#001938"/>
<path id="Vector_2" d="M37.0359 26.8164C36.4679 26.815 35.9189 27.0204 35.4912 27.3941C35.0634 27.7678 34.7863 28.2843 34.7115 28.8474C34.6366 29.4104 34.7692 29.9814 35.0844 30.4539C35.3997 30.9263 35.876 31.268 36.4246 31.415C36.3438 32.4499 36.0146 33.45 35.465 34.3305C34.9154 35.2111 34.1616 35.9462 33.2674 36.4734C32.3732 37.0006 31.3651 37.3045 30.3286 37.3592C29.292 37.4139 28.2575 37.2178 27.3128 36.7876C27.1713 36.7233 27.0101 36.7179 26.8646 36.7725C26.719 36.8271 26.6012 36.9372 26.5369 37.0787C26.4726 37.2203 26.4671 37.3815 26.5217 37.527C26.5763 37.6725 26.6865 37.7904 26.828 37.8547C27.9498 38.3657 29.1788 38.597 30.4096 38.5289C31.6404 38.4608 32.8364 38.0954 33.895 37.4638C34.9536 36.8323 35.8434 35.9535 36.488 34.9028C37.1326 33.8521 37.5129 32.6607 37.5962 31.4309C38.1525 31.2948 38.6396 30.9596 38.9654 30.4886C39.2911 30.0176 39.4329 29.4435 39.3638 28.875C39.2948 28.3065 39.0198 27.783 38.5908 27.4037C38.1618 27.0243 37.6086 26.8154 37.0359 26.8164ZM37.0359 30.3337C36.804 30.3337 36.5774 30.2649 36.3846 30.1361C36.1918 30.0072 36.0415 29.8241 35.9527 29.6099C35.864 29.3957 35.8408 29.1599 35.886 28.9325C35.9313 28.7051 36.0429 28.4962 36.2069 28.3322C36.3709 28.1683 36.5798 28.0566 36.8072 28.0114C37.0346 27.9661 37.2703 27.9893 37.4846 28.0781C37.6988 28.1668 37.8819 28.3171 38.0107 28.5099C38.1396 28.7027 38.2083 28.9294 38.2083 29.1612C38.208 29.4721 38.0843 29.7701 37.8645 29.9899C37.6448 30.2097 37.3468 30.3333 37.0359 30.3337Z" fill="#001938"/>
<path id="Vector_3" d="M30.0032 20.9546C30.3632 20.955 30.7225 20.9857 31.0774 21.0462C31.2307 21.0723 31.3882 21.0363 31.515 20.9463C31.6418 20.8563 31.7277 20.7196 31.7538 20.5662C31.7798 20.4129 31.7439 20.2555 31.6539 20.1286C31.5638 20.0018 31.4271 19.9159 31.2738 19.8898C30.2239 19.7113 29.1483 19.7553 28.1165 20.0188C27.0847 20.2823 26.1198 20.7595 25.2841 21.4195C24.4484 22.0796 23.7606 22.9077 23.2652 23.8504C22.7699 24.7931 22.478 25.8293 22.4084 26.8919C21.8524 27.027 21.3648 27.3604 21.0371 27.8293C20.7093 28.2983 20.5639 28.8708 20.6281 29.4393C20.6923 30.0079 20.9618 30.5335 21.3858 30.9175C21.8099 31.3016 22.3596 31.5178 22.9317 31.5255C23.5038 31.5332 24.0591 31.332 24.4934 30.9595C24.9277 30.587 25.2112 30.0689 25.2908 29.5023C25.3703 28.9357 25.2404 28.3595 24.9255 27.8819C24.6105 27.4042 24.1321 27.0578 23.58 26.9077C23.7056 25.2895 24.4365 23.778 25.627 22.6746C26.8175 21.5713 28.38 20.9571 30.0032 20.9546ZM24.1411 29.1615C24.1411 29.3934 24.0723 29.6201 23.9435 29.8129C23.8147 30.0057 23.6316 30.156 23.4174 30.2447C23.2031 30.3334 22.9674 30.3566 22.74 30.3114C22.5125 30.2662 22.3036 30.1545 22.1397 29.9905C21.9757 29.8266 21.864 29.6177 21.8188 29.3903C21.7736 29.1628 21.7968 28.9271 21.8855 28.7129C21.9743 28.4986 22.1245 28.3155 22.3173 28.1867C22.5101 28.0579 22.7368 27.9891 22.9687 27.9891C23.2795 27.9895 23.5775 28.1131 23.7973 28.3329C24.0171 28.5527 24.1407 28.8507 24.1411 29.1615Z" fill="#001938"/>
<path id="Vector_4" d="M33.2254 21.8138C33.8308 22.1649 34.3754 22.6117 34.838 23.1368C34.8891 23.1944 34.9509 23.2414 35.0201 23.275C35.0893 23.3087 35.1645 23.3284 35.2413 23.333C35.3181 23.3376 35.3951 23.3271 35.4678 23.302C35.5406 23.2769 35.6076 23.2376 35.6652 23.1866C35.7228 23.1356 35.7698 23.0737 35.8035 23.0045C35.8371 22.9353 35.8568 22.8601 35.8615 22.7833C35.8661 22.7065 35.8555 22.6295 35.8304 22.5568C35.8053 22.484 35.7661 22.417 35.715 22.3594C35.1689 21.7393 34.5256 21.2121 33.8105 20.7983C33.7437 20.7595 33.67 20.7342 33.5936 20.7239C33.5171 20.7137 33.4393 20.7186 33.3647 20.7385C33.2902 20.7584 33.2203 20.7928 33.159 20.8398C33.0978 20.8868 33.0464 20.9454 33.0079 21.0122C32.9694 21.0791 32.9445 21.1529 32.9345 21.2295C32.9246 21.306 32.9299 21.3837 32.9501 21.4582C32.9703 21.5327 33.0051 21.6025 33.0523 21.6635C33.0995 21.7245 33.1583 21.7756 33.2254 21.8138Z" fill="#001938"/>
<path id="Vector_5" d="M24.1338 33.6048C24.0684 33.4638 23.9498 33.3546 23.8039 33.301C23.658 33.2475 23.4968 33.2541 23.3558 33.3193C23.2147 33.3846 23.1053 33.5031 23.0517 33.649C22.998 33.7949 23.0045 33.956 23.0696 34.0971C23.3816 34.7771 23.7932 35.4069 24.2907 35.9657C24.342 36.023 24.4041 36.0696 24.4735 36.103C24.5429 36.1363 24.6182 36.1556 24.695 36.1598C24.7718 36.164 24.8488 36.1531 24.9214 36.1276C24.994 36.1021 25.0609 36.0625 25.1182 36.0112C25.1755 35.9598 25.2221 35.8977 25.2555 35.8283C25.2888 35.759 25.3081 35.6837 25.3123 35.6069C25.3165 35.53 25.3056 35.4531 25.2801 35.3805C25.2546 35.3079 25.215 35.241 25.1637 35.1837C24.744 34.7114 24.3969 34.1792 24.1338 33.6048Z" fill="#001938"/>
<path id="Vector_6" d="M28.243 29.8601V33.2652C28.243 33.7316 28.4283 34.1789 28.7581 34.5087C29.0879 34.8385 29.5352 35.0238 30.0016 35.0238C30.468 35.0238 30.9153 34.8385 31.2451 34.5087C31.5749 34.1789 31.7602 33.7316 31.7602 33.2652V29.8601C32.4308 29.473 32.9548 28.8754 33.2511 28.1601C33.5474 27.4448 33.5994 26.6517 33.399 25.9038C33.1986 25.1559 32.757 24.495 32.1428 24.0237C31.5285 23.5524 30.7759 23.2969 30.0016 23.2969C29.2273 23.2969 28.4747 23.5524 27.8605 24.0237C27.2462 24.495 26.8046 25.1559 26.6042 25.9038C26.4038 26.6517 26.4558 27.4448 26.7521 28.1601C27.0484 28.8754 27.5725 29.473 28.243 29.8601ZM30.0016 24.4721C30.5402 24.4717 31.0625 24.6569 31.4806 24.9965C31.8987 25.3361 32.187 25.8094 32.297 26.3366C32.4071 26.8639 32.3321 27.4129 32.0848 27.8914C31.8374 28.3699 31.4328 28.7485 30.939 28.9636C30.8346 29.0093 30.7458 29.0844 30.6834 29.1798C30.621 29.2752 30.5878 29.3867 30.5878 29.5006V33.2652C30.5878 33.4206 30.5261 33.5697 30.4161 33.6797C30.3062 33.7896 30.1571 33.8514 30.0016 33.8514C29.8461 33.8514 29.697 33.7896 29.5871 33.6797C29.4772 33.5697 29.4154 33.4206 29.4154 33.2652V29.5006C29.4154 29.3867 29.3822 29.2752 29.3198 29.1798C29.2574 29.0844 29.1686 29.0093 29.0642 28.9637C28.5704 28.7485 28.1658 28.3699 27.9184 27.8914C27.6711 27.4129 27.5961 26.8639 27.7062 26.3366C27.8162 25.8094 28.1045 25.3361 28.5226 24.9965C28.9407 24.6569 29.463 24.4717 30.0016 24.4721Z" fill="#001938"/>
</g>
</g>
</svg>
