<svg width="41" height="41" viewBox="0 0 41 41" fill="none" xmlns="http://www.w3.org/2000/svg">
<g id="Frame">
<path id="Vector" d="M33.168 7.0625H8.16797C7.58781 7.0625 7.03141 7.29297 6.62117 7.7032C6.21094 8.11344 5.98047 8.66984 5.98047 9.25V18C5.98047 26.1156 9.90547 31.0312 13.1992 33.725C16.7508 36.6313 20.2727 37.6141 20.4211 37.6547C20.5827 37.6988 20.7532 37.6988 20.9148 37.6547C21.0633 37.6141 24.5852 36.6313 28.1367 33.725C31.4305 31.0312 35.3555 26.1156 35.3555 18V9.25C35.3555 8.66984 35.125 8.11344 34.7148 7.7032C34.3045 7.29297 33.7481 7.0625 33.168 7.0625ZM33.4805 18C33.4805 23.9 31.3023 28.6859 27.0055 32.2281C25.1205 33.776 22.9743 34.975 20.668 35.7687C18.3613 34.9758 16.215 33.7767 14.3305 32.2281C10.0336 28.6859 7.85547 23.9 7.85547 18V9.25C7.85547 9.16712 7.88839 9.08763 7.947 9.02903C8.0056 8.97042 8.08509 8.9375 8.16797 8.9375H33.168C33.2508 8.9375 33.3303 8.97042 33.3889 9.02903C33.4475 9.08763 33.4805 9.16712 33.4805 9.25V18ZM27.5805 16.0875C27.756 16.2633 27.8546 16.5016 27.8546 16.75C27.8546 16.9984 27.756 17.2367 27.5805 17.4125L18.8305 26.1625C18.6547 26.3381 18.4164 26.4367 18.168 26.4367C17.9195 26.4367 17.6813 26.3381 17.5055 26.1625L13.7555 22.4125C13.5899 22.2348 13.4997 21.9997 13.504 21.7568C13.5083 21.514 13.6067 21.2822 13.7784 21.1105C13.9502 20.9387 14.1819 20.8403 14.4248 20.836C14.6677 20.8317 14.9028 20.9219 15.0805 21.0875L18.168 24.1734L26.2555 16.0875C26.4312 15.9119 26.6695 15.8133 26.918 15.8133C27.1664 15.8133 27.4047 15.9119 27.5805 16.0875Z" fill="#001938"/>
</g>
</svg>
