<svg width="60" height="61" viewBox="0 0 60 61" fill="none" xmlns="http://www.w3.org/2000/svg">
<g id="Frame 1321315626">
<path id="Vector" d="M49.6067 14.6171L30.1861 8.04876C30.0656 8.00783 29.9349 8.00783 29.8144 8.04876L10.3938 14.6171C10.2783 14.6562 10.178 14.7308 10.1073 14.8303C10.0366 14.9297 9.99902 15.0489 10 15.1709C10.005 15.7754 10.0092 16.379 10.0124 16.9816C10.0663 25.5444 10.1202 33.632 12.5898 40.5624C13.7935 44.1027 15.81 47.3117 18.4777 49.9322C21.3993 52.7724 25.1085 54.9134 29.8176 56.4768C29.9362 56.5163 30.0644 56.5163 30.1829 56.4768C34.892 54.9144 38.6013 52.7724 41.5223 49.9322C44.1901 47.3124 46.2068 44.1039 47.4108 40.564C49.8825 33.632 49.9337 25.5444 49.9876 16.9816C49.9915 16.3793 49.9957 15.7758 50 15.1709C50.001 15.049 49.9636 14.9298 49.893 14.8304C49.8223 14.7309 49.7222 14.6563 49.6067 14.6171ZM48.8293 16.9741C48.7248 33.4596 48.6267 49.0292 30.0003 55.3142C11.3738 49.0298 11.2758 33.458 11.1712 16.9741C11.1684 16.5108 11.1653 16.0464 11.1621 15.5809L30.0003 9.20921L48.8385 15.5809C48.8352 16.0464 48.8322 16.5108 48.8293 16.9741ZM29.8144 11.5156L13.6882 16.9698C13.5731 17.0087 13.4732 17.0827 13.4025 17.1816C13.3318 17.2804 13.294 17.3989 13.2944 17.5204V17.5716C13.3165 25.6026 13.344 35.5973 17.0624 42.6134C19.5945 47.3931 23.7627 50.7882 29.8015 52.9928C29.9299 53.0394 30.0706 53.0394 30.1991 52.9928C36.2378 50.7882 40.4044 47.3931 42.9381 42.6134C46.6555 35.5973 46.684 25.6026 46.7061 17.5716V17.5204C46.7065 17.3989 46.6687 17.2804 46.598 17.1816C46.5273 17.0827 46.4274 17.0087 46.3123 16.9698L30.1861 11.5156C30.0656 11.4746 29.9349 11.4746 29.8144 11.5156ZM45.5457 17.9341C45.523 25.7734 45.4428 35.412 41.9135 42.0698C39.5484 46.5338 35.6501 49.728 30.0003 51.8307C24.3505 49.7296 20.4521 46.5338 18.0865 42.0703C14.5572 35.412 14.477 25.7734 14.4543 17.9347L30.0003 12.676L45.5457 17.9341ZM28.529 31.9888L28.2262 36.4809C28.2208 36.5601 28.2318 36.6395 28.2584 36.7143C28.285 36.7891 28.3267 36.8577 28.3809 36.9157C28.4351 36.9737 28.5007 37.0199 28.5735 37.0515C28.6463 37.0831 28.7249 37.0994 28.8043 37.0993H31.1963C31.2757 37.0994 31.3543 37.0831 31.4271 37.0515C31.5 37.0199 31.5656 36.9737 31.6198 36.9157C31.6741 36.8577 31.7158 36.7892 31.7425 36.7144C31.7692 36.6396 31.7802 36.5601 31.7749 36.4809L31.4716 31.9888C31.7924 31.6928 32.0164 31.3069 32.1144 30.8815C32.2124 30.4562 32.1798 30.0111 32.0209 29.6046C31.862 29.198 31.5841 28.8489 31.2236 28.6027C30.8631 28.3566 30.4368 28.2249 30.0003 28.2249C29.5638 28.2249 29.1374 28.3566 28.7769 28.6027C28.4164 28.8489 28.1386 29.198 27.9796 29.6046C27.8207 30.0111 27.7881 30.4562 27.8861 30.8815C27.9841 31.3069 28.2082 31.6928 28.529 31.9888ZM30.0003 29.3829C30.2176 29.3832 30.429 29.4535 30.6032 29.5835C30.7774 29.7134 30.9051 29.896 30.9673 30.1042C31.0295 30.3124 31.023 30.5351 30.9487 30.7393C30.8743 30.9435 30.7361 31.1183 30.5546 31.2378C30.4687 31.2941 30.3994 31.3722 30.3536 31.4641C30.3079 31.5561 30.2875 31.6585 30.2944 31.7609L30.5767 35.9389H29.4238L29.7061 31.7609C29.7131 31.6586 29.6927 31.5562 29.647 31.4643C29.6014 31.3723 29.5322 31.2942 29.4464 31.2378C29.265 31.1184 29.1268 30.9436 29.0525 30.7395C28.9781 30.5353 28.9715 30.3126 29.0337 30.1045C29.0958 29.8963 29.2234 29.7137 29.3975 29.5837C29.5716 29.4537 29.783 29.3833 30.0003 29.3829ZM22.9293 22.7661V24.6021H20.68C20.604 24.6021 20.5287 24.6171 20.4584 24.6462C20.3881 24.6753 20.3243 24.718 20.2705 24.7718C20.2167 24.8255 20.1741 24.8894 20.145 24.9597C20.1159 25.0299 20.1009 25.1052 20.1009 25.1813V40.1416C20.1012 40.295 20.1623 40.4421 20.2709 40.5504C20.3795 40.6588 20.5266 40.7197 20.68 40.7197H39.3205C39.3966 40.7197 39.472 40.7047 39.5423 40.6755C39.6126 40.6464 39.6764 40.6037 39.7302 40.5499C39.784 40.496 39.8266 40.4321 39.8557 40.3618C39.8848 40.2915 39.8997 40.2161 39.8996 40.14V25.1813C39.8996 25.0277 39.8386 24.8804 39.73 24.7718C39.6214 24.6632 39.4741 24.6021 39.3205 24.6021H24.0881V22.7661C24.0867 21.4708 24.511 20.211 25.2956 19.1804C26.0803 18.1499 27.1819 17.4057 28.4309 17.0625C29.6799 16.7193 31.007 16.796 32.2081 17.2808C33.4092 17.7657 34.4177 18.6318 35.0784 19.7459C35.1156 19.8147 35.1662 19.8752 35.2273 19.9239C35.2884 19.9726 35.3588 20.0084 35.4341 20.0292C35.5094 20.05 35.5882 20.0553 35.6656 20.0449C35.7431 20.0344 35.8176 20.0084 35.8847 19.9684C35.9518 19.9283 36.0102 19.8752 36.0562 19.812C36.1022 19.7489 36.135 19.677 36.1525 19.6009C36.17 19.5247 36.172 19.4458 36.1582 19.3689C36.1445 19.292 36.1153 19.2187 36.0724 19.1533C35.2811 17.8226 34.0747 16.7886 32.6386 16.2101C31.2025 15.6317 29.6162 15.5408 28.1234 15.9515C26.6307 16.3622 25.3141 17.2517 24.376 18.4833C23.4379 19.715 22.9302 21.2206 22.9309 22.7688L22.9293 22.7661ZM38.7392 39.5619H21.2613V25.761H38.7392V39.5619Z" fill="#001938"/>
</g>
</svg>
