<svg width="60" height="61" viewBox="0 0 60 61" fill="none" xmlns="http://www.w3.org/2000/svg">
<g id="Frame 1321315647">
<g id="Group 48095508">
<path id="Vector" d="M30.4707 34.1269C30.9349 34.1269 31.3086 33.7533 31.3086 33.2891C31.3086 33.0005 31.1624 32.749 30.9442 32.5973V31.6171C30.9442 31.3563 30.7315 31.1436 30.4707 31.1436C30.2099 31.1436 29.9972 31.3563 29.9972 31.6171V32.5973C29.7789 32.749 29.6328 33.0006 29.6328 33.2891C29.6328 33.7533 30.0065 34.1269 30.4707 34.1269Z" fill="#001938"/>
<path id="Vector_2" d="M35.3884 28.519H25.5633C25.3025 28.519 25.0898 28.7317 25.0898 28.9925V36.0803C25.0898 36.3411 25.3025 36.5538 25.5633 36.5538H35.3884C35.6492 36.5538 35.8619 36.3411 35.8619 36.0803V28.9925C35.8619 28.7317 35.6492 28.519 35.3884 28.519ZM34.9149 35.6068H26.0368V29.466H34.9149V35.6068Z" fill="#001938"/>
<path id="Vector_3" d="M27.3055 27.5923C27.5663 27.5923 27.779 27.3796 27.779 27.1188V26.427C27.779 24.94 28.9868 23.7322 30.4739 23.7322C31.961 23.7322 33.1688 24.94 33.1688 26.427V27.1188C33.1688 27.3796 33.3815 27.5923 33.6423 27.5923C33.9031 27.5923 34.1158 27.3796 34.1158 27.1188V26.427C34.1158 24.4202 32.4826 22.7852 30.4739 22.7852C28.4671 22.7852 26.832 24.4183 26.832 26.427V27.1188C26.832 27.3796 27.0447 27.5923 27.3055 27.5923Z" fill="#001938"/>
<path id="Vector_4" d="M30.4711 20.1143C24.6854 20.1143 19.9727 24.8215 19.9727 30.6127C19.9727 36.4039 24.6799 41.1111 30.4711 41.1111C36.2622 41.1111 40.9695 36.4039 40.9695 30.6127C40.9695 24.8215 36.2622 20.1143 30.4711 20.1143ZM30.4711 40.1622C25.2053 40.1622 20.9197 35.8767 20.9197 30.6108C20.9197 25.3449 25.2052 21.0594 30.4711 21.0594C35.7369 21.0594 40.0225 25.3449 40.0225 30.6108C40.0225 35.8767 35.7369 40.1622 30.4711 40.1622Z" fill="#001938"/>
<path id="Vector_5" d="M40.8137 14.793L43.6788 13.8942C43.9211 14.1919 44.2799 14.3862 44.6923 14.3862C45.4118 14.3862 46 13.7998 46 13.0785C46 12.359 45.4137 11.7708 44.6923 11.7708C43.9729 11.7708 43.442 12.3109 43.3958 12.9879L40.5307 13.8868C39.2896 14.2752 38.4 15.3073 38.1688 16.5484C35.1391 15.4737 32.4015 14.1143 31.3087 13.5465C30.7446 13.2524 30.0732 13.2524 29.509 13.5465C28.3012 14.1753 25.0774 15.7771 21.6721 16.8795C21.5482 15.4923 20.6216 14.3122 19.2714 13.8868L16.6153 13.0527C16.6005 12.3424 16.0234 11.769 15.3077 11.769C14.5919 11.769 14 12.3554 14 13.0767C14 13.7962 14.5863 14.3844 15.3077 14.3844C15.6961 14.3844 16.042 14.2087 16.2824 13.9386L18.9865 14.7857C20.0334 15.1131 20.7344 16.0638 20.7474 17.1588C19.4119 17.5509 18.0728 17.8505 16.841 17.9597C15.894 18.0447 15.1356 18.8308 15.0839 19.7871C14.8527 24.0486 14.9285 36.1469 22.2863 43.3621V44.5644C22.2863 45.9183 21.2727 47.0872 19.9336 47.287L18.489 47.496C18.2671 47.1039 17.8453 46.8339 17.3571 46.8339C16.6376 46.8339 16.0494 47.4202 16.0494 48.1415C16.0494 48.861 16.6357 49.4492 17.3571 49.4492C17.9767 49.4492 18.4927 49.0127 18.6259 48.4356L20.0649 48.2266C21.8683 47.9658 23.2333 46.3936 23.2333 44.5718V44.2351C25.0237 45.7592 27.1822 47.0188 29.814 47.853C30.0026 47.914 30.2024 47.9436 30.4003 47.9436C30.6001 47.9436 30.798 47.9158 30.9866 47.853C33.6056 47.0188 35.7586 45.7703 37.5455 44.2536V44.5717C37.5455 46.3955 38.905 47.9676 40.7139 48.2266L42.1529 48.4356C42.2861 49.0127 42.8021 49.4492 43.4218 49.4492C44.1412 49.4492 44.7294 48.8628 44.7294 48.1415C44.7294 47.422 44.1431 46.8338 43.4218 46.8338C42.9335 46.8338 42.5117 47.1039 42.2898 47.496L40.8453 47.287C39.5062 47.0928 38.4925 45.9238 38.4925 44.5644V43.3861C45.8801 36.171 45.9558 24.0484 45.7229 19.787C45.6711 18.8307 44.9183 18.0446 43.9658 17.9595C42.4269 17.8227 40.7271 17.3917 39.0698 16.8516C39.1974 15.8899 39.8614 15.0816 40.8084 14.7875L40.8137 14.793ZM44.7811 19.85C45.066 25.068 44.8995 42.4449 30.7092 46.9578C30.515 47.0189 30.2967 47.0189 30.1026 46.9578C15.9123 42.4448 15.7423 25.0732 16.0306 19.85C16.0584 19.358 16.4431 18.9548 16.9258 18.9122C21.6368 18.4868 27.598 15.607 29.9414 14.3863C30.0875 14.3104 30.2447 14.2734 30.4056 14.2734C30.5665 14.2734 30.7238 14.3104 30.8699 14.3863C33.2133 15.6033 39.1803 18.4869 43.8854 18.9122C44.3682 18.9548 44.751 19.358 44.7806 19.85H44.7811Z" fill="#001938"/>
<path id="Vector_6" d="M36.9336 40.173C36.8097 39.9418 36.5211 39.8549 36.2936 39.9788C36.0624 40.1027 35.9755 40.3913 36.0994 40.6188L36.8707 42.0485C36.9558 42.2094 37.1167 42.3001 37.2869 42.3001C37.3627 42.3001 37.4385 42.2816 37.5088 42.2427C37.74 42.1188 37.8269 41.8303 37.703 41.6027L36.9317 40.173H36.9336Z" fill="#001938"/>
<path id="Vector_7" d="M24.4911 39.979C24.2599 39.8514 23.9751 39.942 23.8512 40.1732L23.0799 41.6029C22.956 41.8341 23.0429 42.1189 23.2741 42.2429C23.3444 42.2799 23.4202 42.3002 23.496 42.3002C23.6662 42.3002 23.8271 42.2096 23.9122 42.0487L24.6835 40.619C24.8074 40.3878 24.7205 40.1029 24.4893 39.979H24.4911Z" fill="#001938"/>
<path id="Vector_8" d="M30.4071 15.6919C30.1463 15.6919 29.9336 15.9046 29.9336 16.1654V18.6938C29.9336 18.9546 30.1463 19.1673 30.4071 19.1673C30.6679 19.1673 30.8806 18.9546 30.8806 18.6938V16.1654C30.8806 15.9046 30.6679 15.6919 30.4071 15.6919Z" fill="#001938"/>
<path id="Vector_9" d="M30.4735 42.0581C30.2127 42.0581 30 42.2708 30 42.5316V45.0415C30 45.3023 30.2127 45.515 30.4735 45.515C30.7343 45.515 30.947 45.3023 30.947 45.0415V42.5316C30.947 42.2708 30.7343 42.0581 30.4735 42.0581Z" fill="#001938"/>
<path id="Vector_10" d="M18.7605 29.1348H17.7469C17.4861 29.1348 17.2734 29.3475 17.2734 29.6083C17.2734 29.8691 17.4861 30.0818 17.7469 30.0818H18.7605C19.0213 30.0818 19.234 29.8691 19.234 29.6083C19.234 29.3475 19.0213 29.1348 18.7605 29.1348Z" fill="#001938"/>
<path id="Vector_11" d="M42.2001 30.1721H43.0195C43.2802 30.1721 43.493 29.9594 43.493 29.6986C43.493 29.4378 43.2802 29.2251 43.0195 29.2251H42.2001C41.9393 29.2251 41.7266 29.4378 41.7266 29.6986C41.7266 29.9594 41.9393 30.1721 42.2001 30.1721Z" fill="#001938"/>
<path id="Vector_12" d="M37.4263 21.5259C37.4633 21.5352 37.5077 21.5407 37.5447 21.5407C37.7537 21.5407 37.9479 21.3983 38.0034 21.1856L38.5139 19.2065C38.5805 18.955 38.4288 18.6961 38.1736 18.6294C37.922 18.5629 37.6631 18.7145 37.5965 18.9698L37.086 20.9488C37.0194 21.2004 37.1711 21.4593 37.4263 21.5259Z" fill="#001938"/>
<path id="Vector_13" d="M21.8463 21.1854C21.9036 21.3981 22.0922 21.5405 22.305 21.5405C22.3419 21.5405 22.3863 21.535 22.4233 21.5257C22.6749 21.4591 22.8302 21.2039 22.7637 20.9486L22.2532 18.9695C22.1866 18.718 21.9258 18.5626 21.6761 18.6292C21.4245 18.6958 21.2692 18.951 21.3357 19.2063L21.8463 21.1854Z" fill="#001938"/>
</g>
</g>
</svg>
