<svg width="60" height="61" viewBox="0 0 60 61" fill="none" xmlns="http://www.w3.org/2000/svg">
<g id="Frame 1321315643">
<g id="Group">
<g id="Group_2">
<g id="Group_3">
<g id="Group_4">
<g id="Group_5">
<g id="Group_6">
<g id="Group_7">
<g id="Group_8">
<path id="Vector" d="M23.5325 37.0442C23.3954 37.0442 23.2636 36.9915 23.1581 36.8913C22.9525 36.6857 22.9525 36.3535 23.1581 36.1479L34.0727 25.2333C34.2783 25.0277 34.6105 25.0277 34.8161 25.2333C35.0218 25.439 35.0218 25.7711 34.8161 25.9768L23.9016 36.8913C23.8014 36.9915 23.6696 37.0442 23.5325 37.0442Z" fill="#001938"/>
</g>
</g>
</g>
</g>
</g>
</g>
<g id="Group_9">
<g id="Group_10">
<g id="Group_11">
<g id="Group_12">
<g id="Group_13">
<g id="Group_14">
<path id="Vector_2" d="M34.447 37.0442C34.31 37.0442 34.1781 36.9915 34.0727 36.8913L23.1581 25.9768C22.9525 25.7711 22.9525 25.439 23.1581 25.2333C23.3638 25.0277 23.696 25.0277 23.9016 25.2333L34.8161 36.1479C35.0218 36.3535 35.0218 36.6857 34.8161 36.8913C34.716 36.9915 34.5841 37.0442 34.447 37.0442Z" fill="#001938"/>
</g>
</g>
</g>
</g>
</g>
</g>
</g>
<g id="Group_15">
<g id="Group_16">
<g id="Group_17">
<g id="Group_18">
<g id="Group_19">
<g id="Group_20">
<path id="Vector_3" d="M29 56.0891C28.8471 56.0891 28.6942 56.0574 28.5518 55.9889C8.61563 46.5982 8.92145 36.638 9.01636 35.5676V15.0093C9.01636 14.4293 9.4909 13.9547 10.0709 13.9547C24.7027 13.9547 27.898 6.73108 28.0245 6.41999C28.188 6.02453 28.5676 5.73981 29.0053 5.77144C29.4324 5.77671 29.8173 6.02981 29.9755 6.43053C30.102 6.73108 33.2973 13.9547 47.9291 13.9547C48.5091 13.9547 48.9836 14.4293 48.9836 15.0093V35.5676C49.0785 36.6433 49.3844 46.6034 29.4482 55.9942C29.3058 56.0574 29.1529 56.0891 29 56.0891ZM11.1254 16.048V35.6204C11.1254 35.6625 11.1202 35.71 11.1149 35.7522C11.1096 35.8313 10.3662 44.9425 29 53.8693C47.6338 44.9425 46.8904 35.8365 46.8851 35.7416C46.8798 35.7047 46.8798 35.6573 46.8798 35.6204V16.048C35.6753 15.7844 30.8402 11.3447 29 8.85599C27.1598 11.3447 22.3247 15.7844 11.1254 16.048Z" fill="#001938"/>
</g>
</g>
</g>
</g>
</g>
</g>
<g id="Group_21">
<g id="Group_22">
<g id="Group_23">
<g id="Group_24">
<g id="Group_25">
<g id="Group_26">
<path id="Vector_4" d="M28.9901 43.5769C22.0881 43.5769 16.4727 37.9615 16.4727 31.0594C16.4727 24.1574 22.0881 18.542 28.9901 18.542C35.8921 18.542 41.5076 24.1574 41.5076 31.0594C41.5076 37.9615 35.8921 43.5769 28.9901 43.5769ZM28.9901 19.6018C22.6681 19.6018 17.5272 24.7427 17.5272 31.0647C17.5272 37.3867 22.6681 42.5276 28.9901 42.5276C35.3121 42.5276 40.453 37.3867 40.453 31.0647C40.453 24.7427 35.3121 19.6018 28.9901 19.6018Z" fill="#001938"/>
</g>
</g>
</g>
</g>
</g>
</g>
</g>
</g>
</svg>
