<svg width="24" height="18" viewBox="0 0 24 18" fill="none" xmlns="http://www.w3.org/2000/svg">
<g id="Vector">
<path d="M3.90033 13.7408C4.04719 13.6004 4.24629 13.5215 4.45389 13.5215H23.6077C23.9566 13.5215 24.1312 13.9253 23.8844 14.1614L20.0997 17.7807C19.9528 17.9211 19.7537 18 19.5461 18H0.392339C0.0434445 18 -0.131233 17.5962 0.11556 17.3601L3.90033 13.7408Z" fill="#001938"/>
<path d="M3.90033 0.219335C4.04717 0.0788858 4.24628 -7.01387e-06 4.45389 4.6769e-10H23.6077C23.9566 4.6769e-10 24.1312 0.403808 23.8844 0.639869L20.0997 4.25917C19.9528 4.39959 19.7537 4.47846 19.5461 4.47846H0.392339C0.0434445 4.47846 -0.131233 4.07466 0.11556 3.83864L3.90033 0.219335Z" fill="#001938"/>
<path d="M20.0997 6.93701C19.9528 6.79659 19.7537 6.71772 19.5461 6.71772H0.392339C0.0434445 6.71772 -0.131233 7.12153 0.11556 7.35754L3.90033 10.9768C4.04717 11.1173 4.24628 11.1962 4.45389 11.1962H23.6077C23.9566 11.1962 24.1312 10.7924 23.8844 10.5563L20.0997 6.93701Z" fill="#001938"/>
</g>
</svg>
