<svg width="40" height="41" viewBox="0 0 40 41" fill="none" xmlns="http://www.w3.org/2000/svg">
<g id="Frame">
<path id="Vector" d="M37.5 24.5623H30.825C30.8993 24.0448 30.9369 23.5227 30.9375 22.9998C30.9375 20.099 29.7852 17.317 27.734 15.2658C25.6828 13.2147 22.9008 12.0623 20 12.0623C17.0992 12.0623 14.3172 13.2147 12.266 15.2658C10.2148 17.317 9.0625 20.099 9.0625 22.9998C9.06309 23.5227 9.10068 24.0448 9.175 24.5623H2.5C2.25136 24.5623 2.0129 24.6611 1.83709 24.8369C1.66127 25.0127 1.5625 25.2512 1.5625 25.4998C1.5625 25.7485 1.66127 25.9869 1.83709 26.1627C2.0129 26.3386 2.25136 26.4373 2.5 26.4373H37.5C37.7486 26.4373 37.9871 26.3386 38.1629 26.1627C38.3387 25.9869 38.4375 25.7485 38.4375 25.4998C38.4375 25.2512 38.3387 25.0127 38.1629 24.8369C37.9871 24.6611 37.7486 24.5623 37.5 24.5623ZM10.9375 22.9998C10.9373 21.7435 11.1984 20.5009 11.704 19.3508C12.2097 18.2008 12.949 17.1684 13.8749 16.3193C14.8008 15.4702 15.8932 14.8229 17.0826 14.4185C18.2721 14.014 19.5326 13.8613 20.7842 13.97C22.0358 14.0788 23.2511 14.4465 24.353 15.05C25.4549 15.6534 26.4193 16.4794 27.185 17.4754C27.9506 18.4714 28.5008 19.6158 28.8007 20.8358C29.1005 22.0558 29.1433 23.3249 28.9266 24.5623H11.0734C10.9835 24.0463 10.9381 23.5236 10.9375 22.9998ZM33.4375 31.7498C33.4375 31.9985 33.3387 32.2369 33.1629 32.4127C32.9871 32.5886 32.7486 32.6873 32.5 32.6873H7.5C7.25136 32.6873 7.0129 32.5886 6.83709 32.4127C6.66127 32.2369 6.5625 31.9985 6.5625 31.7498C6.5625 31.5012 6.66127 31.2627 6.83709 31.0869C7.0129 30.9111 7.25136 30.8123 7.5 30.8123H32.5C32.7486 30.8123 32.9871 30.9111 33.1629 31.0869C33.3387 31.2627 33.4375 31.5012 33.4375 31.7498ZM11.6609 7.17013C11.5497 6.9476 11.5314 6.68998 11.61 6.45395C11.6887 6.21792 11.8579 6.02281 12.0805 5.91154C12.303 5.80027 12.5606 5.78196 12.7967 5.86064C13.0327 5.93932 13.2278 6.10854 13.3391 6.33107L14.5891 8.83107C14.7001 9.0536 14.7182 9.31114 14.6394 9.54703C14.5606 9.78291 14.3913 9.97782 14.1687 10.0889C13.9462 10.1999 13.6887 10.2181 13.4528 10.1392C13.2169 10.0604 13.022 9.8911 12.9109 9.66857L11.6609 7.17013ZM2.91094 15.0811C2.9659 14.9709 3.04205 14.8726 3.13501 14.7918C3.22798 14.711 3.33595 14.6493 3.45276 14.6103C3.56957 14.5713 3.69292 14.5556 3.81577 14.5643C3.93863 14.573 4.05857 14.6057 4.16875 14.6608L6.66875 15.9108C6.89128 16.0218 7.06058 16.2167 7.13941 16.4526C7.21823 16.6885 7.20012 16.946 7.08906 17.1686C6.978 17.3911 6.78309 17.5604 6.54721 17.6392C6.31132 17.7181 6.05378 17.6999 5.83125 17.5889L3.33125 16.3389C3.22104 16.2839 3.12274 16.2078 3.04197 16.1148C2.96119 16.0218 2.89953 15.9139 2.86049 15.7971C2.82146 15.6803 2.80583 15.5569 2.81448 15.434C2.82314 15.3112 2.85591 15.1913 2.91094 15.0811ZM32.9109 17.1686C32.8559 17.0584 32.8231 16.9384 32.8145 16.8156C32.8058 16.6927 32.8215 16.5694 32.8605 16.4526C32.8995 16.3358 32.9612 16.2278 33.042 16.1348C33.1227 16.0419 33.221 15.9657 33.3313 15.9108L35.8313 14.6608C36.0538 14.5497 36.3113 14.5316 36.5472 14.6104C36.7831 14.6892 36.978 14.8585 37.0891 15.0811C37.2001 15.3036 37.2182 15.5611 37.1394 15.797C37.0606 16.0329 36.8913 16.2278 36.6687 16.3389L34.1687 17.5889C34.0586 17.6439 33.9386 17.6767 33.8158 17.6853C33.6929 17.694 33.5696 17.6784 33.4528 17.6393C33.336 17.6003 33.228 17.5386 33.135 17.4579C33.042 17.3771 32.9659 17.2788 32.9109 17.1686ZM25.4109 8.83107L26.6609 6.33107C26.7722 6.10854 26.9673 5.93932 27.2033 5.86064C27.4394 5.78196 27.697 5.80027 27.9195 5.91154C28.1421 6.02281 28.3113 6.21792 28.39 6.45395C28.4686 6.68998 28.4503 6.9476 28.3391 7.17013L27.0891 9.67013C26.978 9.89267 26.7831 10.062 26.5472 10.1408C26.3113 10.2196 26.0538 10.2015 25.8313 10.0904C25.6087 9.97939 25.4394 9.78447 25.3606 9.54859C25.2818 9.3127 25.2999 9.05517 25.4109 8.83263V8.83107Z" fill="#001938"/>
</g>
</svg>
