<svg width="60" height="61" viewBox="0 0 60 61" fill="none" xmlns="http://www.w3.org/2000/svg">
<g id="Frame 1321315644">
<g id="Group">
<path id="Vector" d="M45.5077 8.93204C45.3565 8.83663 45.1836 8.78116 45.0051 8.77081C44.8266 8.76047 44.6485 8.79559 44.4873 8.87288L41.1977 10.4596L37.9102 8.88344C37.7677 8.81521 37.6118 8.77978 37.4538 8.77978C37.2959 8.77978 37.1399 8.81521 36.9975 8.88344L33.7142 10.4575L30.4416 8.88344C30.2986 8.81561 30.1424 8.78042 29.9842 8.78042C29.8259 8.78042 29.6697 8.81561 29.5267 8.88344L26.2477 10.4575L22.9729 8.88344C22.83 8.81561 22.6737 8.78042 22.5155 8.78042C22.3573 8.78042 22.201 8.81561 22.0581 8.88344L18.7875 10.4575L15.5127 8.88344C15.3517 8.8063 15.1737 8.77124 14.9955 8.78154C14.8172 8.79184 14.6445 8.84716 14.4934 8.94233C14.3423 9.0375 14.2178 9.16941 14.1315 9.32575C14.0452 9.48208 14 9.65774 14 9.8363V52.0917C14 52.2702 14.0452 52.4459 14.1315 52.6022C14.2178 52.7586 14.3423 52.8905 14.4934 52.9857C14.6445 53.0808 14.8172 53.1361 14.9955 53.1464C15.1737 53.1567 15.3517 53.1217 15.5127 53.0445L18.7875 51.4705L22.0581 53.0445C22.2008 53.1131 22.3572 53.1487 22.5155 53.1487C22.6739 53.1487 22.8302 53.1131 22.9729 53.0445L26.2477 51.4705L29.5267 53.0445C29.6697 53.1124 29.8259 53.1476 29.9842 53.1476C30.1424 53.1476 30.2986 53.1124 30.4416 53.0445L33.7142 51.4705L36.9975 53.0445C37.1399 53.1128 37.2959 53.1482 37.4538 53.1482C37.6118 53.1482 37.7677 53.1128 37.9102 53.0445L41.1977 51.4705L44.4873 53.0445C44.6483 53.1217 44.8263 53.1567 45.0045 53.1464C45.1828 53.1361 45.3555 53.0808 45.5066 52.9857C45.6577 52.8905 45.7822 52.7586 45.8685 52.6022C45.9548 52.4459 46 52.2702 46 52.0917V9.82574C46.0001 9.64732 45.955 9.47179 45.8689 9.31551C45.7828 9.15924 45.6586 9.02731 45.5077 8.93204ZM43.8872 50.4057L41.654 49.3345C41.5116 49.2663 41.3556 49.2309 41.1977 49.2309C41.0397 49.2309 40.8838 49.2663 40.7413 49.3345L37.4538 50.9106L34.1706 49.3345C34.0283 49.2656 33.8724 49.2295 33.7142 49.2289C33.5554 49.2292 33.3987 49.2653 33.2558 49.3345L29.9831 50.9064L26.7041 49.3345C26.5613 49.266 26.405 49.2304 26.2467 49.2304C26.0883 49.2304 25.932 49.266 25.7893 49.3345L22.5166 50.9064L19.246 49.3345C19.1033 49.266 18.9469 49.2304 18.7886 49.2304C18.6302 49.2304 18.4739 49.266 18.3312 49.3345L16.1128 50.3909V11.516L18.3312 12.5723C18.4739 12.6409 18.6302 12.6765 18.7886 12.6765C18.9469 12.6765 19.1033 12.6409 19.246 12.5723L22.5166 11.0004L25.7893 12.5723C25.932 12.6409 26.0883 12.6765 26.2467 12.6765C26.405 12.6765 26.5613 12.6409 26.7041 12.5723L29.9831 11.0004L33.2558 12.5723C33.3985 12.6409 33.5548 12.6765 33.7132 12.6765C33.8715 12.6765 34.0279 12.6409 34.1706 12.5723L37.4538 10.9983L40.7413 12.5745C40.8838 12.6427 41.0397 12.6781 41.1977 12.6781C41.3556 12.6781 41.5116 12.6427 41.654 12.5745L43.8872 11.5054V50.4057ZM23.1821 27.9723C23.1821 27.6921 23.2934 27.4234 23.4915 27.2253C23.6896 27.0272 23.9583 26.9159 24.2385 26.9159H33.2325L30.4859 24.1693C30.385 24.0719 30.3046 23.9553 30.2492 23.8264C30.1938 23.6975 30.1647 23.5589 30.1635 23.4187C30.1623 23.2784 30.189 23.1393 30.2421 23.0095C30.2952 22.8796 30.3737 22.7617 30.4728 22.6625C30.572 22.5633 30.69 22.4849 30.8198 22.4318C30.9496 22.3786 31.0887 22.3519 31.229 22.3531C31.3693 22.3544 31.5079 22.3835 31.6368 22.4389C31.7656 22.4942 31.8822 22.5747 31.9797 22.6756L36.5411 27.2371C36.6885 27.3849 36.7888 27.5731 36.8293 27.7779C36.8698 27.9828 36.8487 28.195 36.7687 28.3878C36.6887 28.5806 36.5533 28.7454 36.3797 28.8614C36.2061 28.9773 36.002 29.0392 35.7932 29.0393H24.2279C24.0883 29.0393 23.9501 29.0116 23.8212 28.9578C23.6923 28.9041 23.5754 28.8253 23.4772 28.7261C23.3789 28.6269 23.3014 28.5092 23.2489 28.3798C23.1964 28.2504 23.1701 28.1119 23.1715 27.9723H23.1821ZM36.839 33.9345C36.839 34.2147 36.7277 34.4834 36.5296 34.6815C36.3315 34.8796 36.0628 34.9909 35.7826 34.9909H26.778L29.5246 37.7375C29.6255 37.835 29.706 37.9515 29.7614 38.0804C29.8167 38.2093 29.8459 38.3479 29.8471 38.4882C29.8483 38.6285 29.8216 38.7676 29.7685 38.8974C29.7153 39.0272 29.6369 39.1452 29.5377 39.2444C29.4385 39.3435 29.3206 39.422 29.1908 39.4751C29.0609 39.5282 28.9218 39.5549 28.7816 39.5537C28.6413 39.5525 28.5027 39.5234 28.3738 39.468C28.2449 39.4126 28.1283 39.3321 28.0309 39.2313L23.48 34.6804C23.3326 34.5325 23.2323 34.3443 23.1918 34.1395C23.1513 33.9347 23.1724 33.7225 23.2524 33.5296C23.3325 33.3368 23.4678 33.172 23.6414 33.0561C23.8151 32.9401 24.0191 32.8782 24.2279 32.8782H35.7721C36.0523 32.8782 36.321 32.9895 36.5191 33.1876C36.7172 33.3857 36.8285 33.6544 36.8285 33.9345H36.839Z" fill="#001938"/>
</g>
</g>
</svg>
