<svg width="60" height="60" viewBox="0 0 60 60" fill="none" xmlns="http://www.w3.org/2000/svg">
<g id="Frame 1321315657">
<g id="Group">
<path id="Vector" d="M50 30.9331C50 23.2522 43.7517 17 36.0668 17C32.4481 17 29.0401 18.3702 26.4352 20.8653C23.9773 20.4178 21.3502 20.6271 18.8976 21.5781C18.5958 21.6951 18.4461 22.0345 18.5631 22.3362C18.6801 22.6379 19.0194 22.7877 19.3212 22.6707C20.6097 22.1711 21.9613 21.8875 23.3471 21.8252V23.0817C20.6152 23.2193 18.1316 24.3144 16.2255 26.037L15.3311 25.1426C15.8822 24.6417 16.4819 24.1841 17.1265 23.7769C17.4001 23.604 17.4817 23.2421 17.3089 22.9685C17.1361 22.695 16.7744 22.6133 16.5005 22.7861C12.4301 25.358 10 29.7644 10 34.5733C10 42.2543 16.2485 48.5063 23.9331 48.5063C27.6618 48.5063 31.053 47.0341 33.5561 44.6404C42.1616 46.2055 50 39.5711 50 30.9331ZM44.6069 38.6445C45.1855 38.0046 45.6968 37.2945 46.1267 36.5226C46.2841 36.2398 46.1825 35.883 45.8998 35.7256C45.617 35.5683 45.2603 35.6698 45.1029 35.9525C43.2911 39.2066 39.8665 41.2372 36.1503 41.2672C39.863 34.5182 37.3672 25.9334 30.4461 22.2582C32.1167 21.1696 34.0416 20.5986 36.0668 20.5986C42.866 20.5986 47.8592 27.1038 46.0252 33.7063C45.9386 34.0181 46.1212 34.3411 46.4329 34.4277C46.7447 34.5143 47.0678 34.3319 47.1544 34.02C47.3804 33.2063 47.5158 32.3675 47.5585 31.519H48.8148C48.6751 34.5967 47.44 37.3938 45.4911 39.5286L44.6069 38.6445ZM11.1852 35.1592H12.4417C12.5763 37.8084 13.6126 40.3138 15.3934 42.2843L14.5089 43.1688C12.5601 41.0339 11.3249 38.2369 11.1852 35.1592ZM14.5011 25.9698L15.3969 26.8656C13.6742 28.7717 12.5792 31.2554 12.4416 33.9873H11.1851C11.3212 30.9661 12.5062 28.1491 14.5011 25.9698ZM16.222 43.113C16.7897 43.6261 17.4087 44.0834 18.0698 44.4756C18.3482 44.6408 18.7076 44.549 18.8726 44.2707C19.0378 43.9924 18.946 43.6329 18.6677 43.4678C15.626 41.663 13.5986 38.3486 13.5986 34.5733C13.5986 28.8749 18.2346 24.2388 23.9331 24.2388C29.6316 24.2388 34.2675 28.8749 34.2675 34.5733C34.2675 41.4893 27.5511 46.4991 20.8941 44.4538C20.5847 44.359 20.257 44.5325 20.1619 44.8419C20.0669 45.1512 20.2405 45.479 20.5499 45.5741C21.4565 45.8526 22.3949 46.0171 23.3472 46.0649V47.3212C20.2695 47.1814 17.4725 45.9463 15.3376 43.9975L16.222 43.113ZM32.5286 25.149L31.6406 26.037C29.7345 24.3144 27.2509 23.2193 24.519 23.0817V21.8254C27.5967 21.9651 30.3938 23.2002 32.5286 25.149ZM36.681 33.9873H35.4247C35.287 31.2554 34.192 28.7717 32.4693 26.8657L33.3573 25.9778C35.3061 28.1126 36.5412 30.9096 36.681 33.9873ZM24.519 46.0648C27.2509 45.9272 29.7345 44.8322 31.6406 43.1095L32.5286 43.9974C30.3938 45.9462 27.5967 47.1813 24.519 47.3211V46.0648ZM32.4693 42.2808C34.192 40.3747 35.287 37.8911 35.4247 35.1592H36.681C36.5465 38.1192 35.3857 40.9468 33.3573 43.1687L32.4693 42.2808ZM48.8148 30.3471H47.5585C47.4208 27.6152 46.3258 25.1316 44.6032 23.2255L45.4911 22.3375C47.44 24.4725 48.6751 27.2695 48.8148 30.3471ZM43.7745 22.3968C41.8684 20.6742 39.3847 19.5792 36.6529 19.4415V18.1852C39.7305 18.3249 42.5276 19.56 44.6625 21.5089L43.7745 22.3968ZM35.4809 18.1851V19.4413C33.2026 19.5536 31.0559 20.3219 29.2223 21.683C28.7669 21.4954 28.2994 21.3314 27.8215 21.1922C29.9755 19.3628 32.6446 18.3124 35.4809 18.1851ZM34.5358 43.6033C34.8572 43.2265 35.159 42.8323 35.4394 42.4225C38.5824 42.5914 41.5574 41.4747 43.7776 39.4725L44.6623 40.3572C41.9311 42.8506 38.2674 44.0489 34.5358 43.6033Z" fill="#001938"/>
<path id="Vector_2" d="M36.0668 21.8535C35.7378 21.8535 35.4805 22.1225 35.4805 22.4396C35.4805 22.7511 35.7338 23.0256 36.0664 23.0256C36.3988 23.0256 36.6532 22.7526 36.6532 22.4396C36.6531 22.1193 36.3926 21.8535 36.0668 21.8535Z" fill="#001938"/>
<path id="Vector_3" d="M44.5587 30.3467C44.2387 30.3467 43.9727 30.6087 43.9727 30.9326C43.9727 31.2532 44.233 31.5186 44.5586 31.5186C44.8882 31.5186 45.1445 31.2521 45.1445 30.9326C45.1445 30.6055 44.8774 30.3467 44.5587 30.3467Z" fill="#001938"/>
<path id="Vector_4" d="M42.0731 36.3535C41.7542 36.3535 41.4883 36.6125 41.4883 36.9392C41.4883 37.2659 41.7551 37.5252 42.0742 37.5252C42.3954 37.5252 42.6602 37.2638 42.6602 36.9392C42.6602 36.616 42.3977 36.3535 42.0731 36.3535Z" fill="#001938"/>
<path id="Vector_5" d="M42.0742 24.3413C41.7494 24.3413 41.4883 24.6062 41.4883 24.9273C41.4883 25.2587 41.7602 25.5132 42.0742 25.5132C42.3941 25.5132 42.6602 25.2531 42.6602 24.9273C42.6602 24.5991 42.3933 24.3413 42.0742 24.3413Z" fill="#001938"/>
<path id="Vector_6" d="M23.9336 26.6655C24.2429 26.6655 24.5203 26.4166 24.5203 26.0796C24.5203 25.7515 24.2531 25.4937 23.934 25.4937C23.6145 25.4937 23.3477 25.7522 23.3477 26.0796C23.3477 26.4202 23.6265 26.6655 23.9336 26.6655Z" fill="#001938"/>
<path id="Vector_7" d="M23.934 42.481C23.6113 42.481 23.3477 42.7429 23.3477 43.0671C23.3477 43.3884 23.6109 43.6531 23.9336 43.6531C24.26 43.6531 24.5203 43.3855 24.5203 43.0671C24.5203 42.7424 24.2563 42.481 23.934 42.481Z" fill="#001938"/>
<path id="Vector_8" d="M32.4258 35.1593C32.7423 35.1593 33.0117 34.9025 33.0117 34.5734C33.0117 34.2496 32.7498 33.9873 32.4259 33.9873C32.1031 33.9873 31.8398 34.2501 31.8398 34.5734C31.8398 34.9052 32.1129 35.1593 32.4258 35.1593Z" fill="#001938"/>
<path id="Vector_9" d="M15.4414 35.1597C15.765 35.1597 16.0274 34.8973 16.0274 34.5737C16.0274 34.2501 15.765 33.9878 15.4414 33.9878C15.1178 33.9878 14.8555 34.2501 14.8555 34.5737C14.8555 34.8973 15.1178 35.1597 15.4414 35.1597Z" fill="#001938"/>
<path id="Vector_10" d="M29.935 39.9937C29.6175 39.9937 29.3516 40.2532 29.3516 40.579C29.3516 40.8991 29.6107 41.1649 29.9375 41.1649C30.2643 41.1649 30.5234 40.8994 30.5234 40.579C30.5235 40.2573 30.2634 39.9937 29.935 39.9937Z" fill="#001938"/>
<path id="Vector_11" d="M17.9258 29.1532C18.2613 29.1532 18.5117 28.8796 18.5117 28.5673C18.5117 28.244 18.2495 27.9819 17.9233 27.9819C17.6059 27.9819 17.3398 28.2414 17.3398 28.5673C17.3398 28.887 17.5984 29.1532 17.9258 29.1532Z" fill="#001938"/>
<path id="Vector_12" d="M29.9375 29.1532C30.2643 29.1532 30.5234 28.8876 30.5234 28.5673C30.5234 28.2392 30.2566 27.9819 29.935 27.9819C29.623 27.9819 29.3516 28.2362 29.3516 28.5673C29.3516 28.8874 29.6116 29.1532 29.9375 29.1532Z" fill="#001938"/>
<path id="Vector_13" d="M17.9233 39.9937C17.6107 39.9937 17.3398 40.2487 17.3398 40.579C17.3398 40.8962 17.5971 41.1649 17.9258 41.1649C18.245 41.1649 18.5117 40.9056 18.5117 40.579C18.5118 40.2557 18.2496 39.9937 17.9233 39.9937Z" fill="#001938"/>
<path id="Vector_14" d="M24.2261 40.7682L29.1515 37.9246C29.3327 37.8199 29.4445 37.6265 29.4445 37.4172V31.7299C29.4445 31.5205 29.3327 31.3271 29.1515 31.2224L24.2261 28.3788C24.0449 28.2741 23.8214 28.2741 23.6402 28.3788L18.7148 31.2224C18.5336 31.3271 18.4219 31.5205 18.4219 31.7299V37.4172C18.4219 37.6265 18.5336 37.8199 18.7148 37.9246L23.6402 40.7682C23.8215 40.8729 24.0449 40.8729 24.2261 40.7682ZM19.5938 32.0681L23.9332 29.5628L28.2726 32.0681V37.0789L23.9332 39.5842L19.5938 37.0789V32.0681Z" fill="#001938"/>
<path id="Vector_15" d="M24.2261 37.9714L26.7296 36.5261C26.9108 36.4214 27.0225 36.228 27.0225 36.0187V33.1279C27.0225 32.9186 26.9108 32.7252 26.7296 32.6205L24.2261 31.1752C24.0449 31.0705 23.8214 31.0705 23.6402 31.1752L21.1367 32.6205C20.9555 32.7252 20.8438 32.9186 20.8438 33.1279V36.0187C20.8438 36.228 20.9555 36.4214 21.1367 36.5261L23.6402 37.9714C23.8215 38.0761 24.0449 38.0761 24.2261 37.9714ZM22.0156 35.6803V33.4662L23.9331 32.3591L25.8507 33.4662V35.6803L23.9331 36.7873L22.0156 35.6803Z" fill="#001938"/>
</g>
</g>
</svg>
