<svg width="41" height="41" viewBox="0 0 41 41" fill="none" xmlns="http://www.w3.org/2000/svg">
<g id="Frame">
<path id="Vector" d="M38.3945 23.7501C38.296 23.8239 38.184 23.8777 38.0647 23.9082C37.9454 23.9388 37.8213 23.9456 37.6994 23.9281C37.5776 23.9107 37.4603 23.8695 37.3544 23.8068C37.2484 23.744 37.1559 23.6611 37.082 23.5626C36.2997 22.5109 35.2813 21.6575 34.1089 21.0713C32.9365 20.4851 31.6428 20.1824 30.332 20.1876C30.0834 20.1876 29.8449 20.0888 29.6691 19.913C29.4933 19.7372 29.3945 19.4987 29.3945 19.2501C29.3945 19.0014 29.4933 18.763 29.6691 18.5871C29.8449 18.4113 30.0834 18.3126 30.332 18.3126C31.0918 18.3124 31.8363 18.0992 32.481 17.6971C33.1257 17.295 33.6447 16.7202 33.9791 16.038C34.3135 15.3557 34.4498 14.5934 34.3727 13.8375C34.2955 13.0816 34.0079 12.3626 33.5426 11.762C33.0772 11.1613 32.4528 10.7033 31.7402 10.4397C31.0275 10.1762 30.2553 10.1178 29.5112 10.2712C28.767 10.4245 28.0808 10.7835 27.5304 11.3073C26.98 11.8311 26.5876 12.4988 26.3977 13.2344C26.3355 13.4752 26.1802 13.6814 25.966 13.8077C25.7518 13.934 25.4962 13.97 25.2555 13.9079C25.0147 13.8457 24.8085 13.6905 24.6822 13.4763C24.5559 13.2621 24.5199 13.0065 24.582 12.7657C24.8177 11.8492 25.269 11.0023 25.8983 10.2955C26.5277 9.58882 27.3168 9.04277 28.2 8.70289C29.0832 8.36302 30.0348 8.23917 30.9756 8.34167C31.9164 8.44417 32.819 8.77005 33.6083 9.29215C34.3975 9.81424 35.0506 10.5174 35.513 11.3431C35.9753 12.1688 36.2337 13.093 36.2664 14.0388C36.2992 14.9845 36.1054 15.9244 35.7012 16.7801C35.2971 17.6358 34.6942 18.3824 33.943 18.9579C35.7917 19.6477 37.4023 20.8559 38.582 22.4376C38.6559 22.5361 38.7096 22.6481 38.7402 22.7674C38.7708 22.8867 38.7775 23.0108 38.7601 23.1326C38.7427 23.2545 38.7015 23.3718 38.6387 23.4777C38.576 23.5836 38.493 23.6762 38.3945 23.7501ZM29.893 33.7813C29.9547 33.8879 29.9947 34.0056 30.0109 34.1277C30.0271 34.2498 30.0191 34.3738 29.9873 34.4928C29.9555 34.6118 29.9006 34.7234 29.8257 34.8211C29.7508 34.9189 29.6574 35.0009 29.5508 35.0626C29.4086 35.1459 29.2468 35.1896 29.082 35.1891C28.9174 35.1892 28.7556 35.146 28.6129 35.0637C28.4703 34.9814 28.3519 34.863 28.2695 34.7204C27.4546 33.3397 26.2937 32.1954 24.9015 31.4005C23.5092 30.6055 21.9337 30.1874 20.3305 30.1874C18.7272 30.1874 17.1517 30.6055 15.7595 31.4005C14.3672 32.1954 13.2063 33.3397 12.3914 34.7204C12.3328 34.8324 12.2521 34.9314 12.1543 35.0115C12.0564 35.0915 11.9433 35.151 11.8219 35.1862C11.7005 35.2214 11.5732 35.2317 11.4477 35.2165C11.3221 35.2012 11.201 35.1608 11.0915 35.0975C10.9821 35.0342 10.8865 34.9494 10.8107 34.8483C10.7348 34.7471 10.6802 34.6317 10.6501 34.5089C10.62 34.3861 10.6151 34.2584 10.6356 34.1337C10.6562 34.0089 10.7017 33.8896 10.7695 33.7829C12.0465 31.5889 14.0458 29.9066 16.4258 29.0235C15.1257 28.1794 14.1334 26.9376 13.5968 25.4834C13.0602 24.0291 13.0081 22.4404 13.4482 20.9542C13.8884 19.4679 14.7973 18.1638 16.0393 17.2363C17.2812 16.3088 18.7898 15.8077 20.3398 15.8077C21.8899 15.8077 23.3985 16.3088 24.6404 17.2363C25.8824 18.1638 26.7913 19.4679 27.2314 20.9542C27.6716 22.4404 27.6195 24.0291 27.0829 25.4834C26.5463 26.9376 25.554 28.1794 24.2539 29.0235C26.6273 29.9096 28.6201 31.591 29.893 33.7813ZM20.332 28.3126C21.3827 28.3126 22.4099 28.001 23.2835 27.4172C24.1571 26.8335 24.8381 26.0038 25.2401 25.0331C25.6422 24.0623 25.7474 22.9942 25.5425 21.9636C25.3375 20.9331 24.8315 19.9865 24.0885 19.2436C23.3456 18.5006 22.399 17.9946 21.3684 17.7896C20.3379 17.5847 19.2698 17.6899 18.299 18.092C17.3283 18.494 16.4986 19.175 15.9148 20.0486C15.3311 20.9222 15.0195 21.9493 15.0195 23.0001C15.0195 24.409 15.5792 25.7603 16.5755 26.7566C17.5718 27.7529 18.9231 28.3126 20.332 28.3126ZM11.2695 19.2501C11.2695 19.0014 11.1708 18.763 10.9949 18.5871C10.8191 18.4113 10.5807 18.3126 10.332 18.3126C9.57233 18.3123 8.82792 18.0991 8.18333 17.697C7.53873 17.295 7.01979 16.7202 6.68543 16.038C6.35107 15.3559 6.21469 14.5936 6.29178 13.8379C6.36886 13.0821 6.65633 12.363 7.12152 11.7624C7.58672 11.1618 8.211 10.7037 8.92349 10.44C9.63598 10.1764 10.4081 10.1178 11.1522 10.271C11.8963 10.4241 12.5826 10.7828 13.1331 11.3064C13.6835 11.8299 14.0762 12.4974 14.2664 13.2329C14.2972 13.3521 14.3511 13.4641 14.4252 13.5624C14.4993 13.6608 14.592 13.7436 14.698 13.8061C14.8041 13.8687 14.9214 13.9097 15.0433 13.9269C15.1653 13.9441 15.2894 13.9371 15.4086 13.9063C15.5278 13.8755 15.6398 13.8216 15.7382 13.7475C15.8365 13.6735 15.9193 13.5808 15.9819 13.4747C16.0444 13.3686 16.0854 13.2513 16.1026 13.1294C16.1198 13.0075 16.1128 12.8833 16.082 12.7641C15.8464 11.8476 15.3951 11.0007 14.7657 10.294C14.1364 9.58726 13.3472 9.04121 12.464 8.70133C11.5808 8.36146 10.6292 8.23761 9.68846 8.34011C8.7477 8.44261 7.84507 8.76849 7.0558 9.29058C6.26653 9.81268 5.61349 10.5159 5.1511 11.3415C4.68871 12.1672 4.43038 13.0914 4.39763 14.0372C4.36488 14.983 4.55866 15.9228 4.96283 16.7785C5.36699 17.6342 5.96983 18.3809 6.72109 18.9563C4.87222 19.6466 3.26155 20.8553 2.08203 22.4376C2.00816 22.5361 1.95442 22.6481 1.92386 22.7674C1.89331 22.8867 1.88654 23.0108 1.90395 23.1326C1.92136 23.2545 1.96261 23.3718 2.02534 23.4777C2.08806 23.5836 2.17104 23.6762 2.26953 23.7501C2.36802 23.8239 2.4801 23.8777 2.59936 23.9082C2.71862 23.9388 2.84274 23.9456 2.96461 23.9281C3.08649 23.9107 3.20374 23.8695 3.30968 23.8068C3.41562 23.744 3.50816 23.6611 3.58203 23.5626C4.36439 22.5109 5.38276 21.6575 6.55517 21.0713C7.72758 20.4851 9.02125 20.1824 10.332 20.1876C10.5807 20.1876 10.8191 20.0888 10.9949 19.913C11.1708 19.7372 11.2695 19.4987 11.2695 19.2501Z" fill="#001938"/>
</g>
</svg>
