<svg width="60" height="61" viewBox="0 0 60 61" fill="none" xmlns="http://www.w3.org/2000/svg">
<g id="Frame 1321315649">
<g id="Group">
<path id="Vector" d="M34.0495 22.9251V19.6072C34.0495 18.7967 33.389 18.131 32.5734 18.131H32.0088C32.6896 17.5581 33.126 16.6954 33.126 15.7365C33.126 14.011 31.719 12.604 29.9935 12.604C28.268 12.604 26.861 14.011 26.861 15.7365C26.861 16.6987 27.2974 17.5564 27.9781 18.131H27.4136C26.6031 18.131 25.9375 18.7916 25.9375 19.6072V22.9251C25.9375 23.7356 26.598 24.4012 27.4136 24.4012H32.5734C33.3839 24.4012 34.0495 23.7407 34.0495 22.9251ZM27.6008 15.7435C27.6008 14.4241 28.6742 13.349 29.9953 13.349C31.3147 13.349 32.3898 14.4224 32.3898 15.7435C32.3898 17.0629 31.3164 18.138 29.9953 18.138C28.6759 18.138 27.6008 17.0646 27.6008 15.7435ZM26.6774 22.9251V19.6072C26.6774 19.2011 27.0094 18.8691 27.4154 18.8691H32.5752C32.9813 18.8691 33.3132 19.2011 33.3132 19.6072V22.9251C33.3132 23.3312 32.9812 23.6631 32.5752 23.6631H27.4154C27.0093 23.6631 26.6774 23.3312 26.6774 22.9251Z" fill="#001938"/>
<path id="Vector_2" d="M12.8123 44.1179C12.8123 44.7043 13.0802 45.23 13.493 45.5805H13.1476C12.6522 45.5805 12.2461 45.9866 12.2461 46.482V48.5092C12.2461 49.0046 12.6522 49.4107 13.1476 49.4107H16.297C16.7924 49.4107 17.1985 49.0046 17.1985 48.5092V46.482C17.1985 45.9866 16.7924 45.5805 16.297 45.5805H15.9516C16.3695 45.2317 16.6323 44.7043 16.6323 44.1179C16.6323 43.0614 15.7746 42.207 14.7214 42.207C13.6683 42.207 12.8106 43.0647 12.8106 44.1179H12.8123ZM16.302 46.0338C16.5514 46.0338 16.7503 46.236 16.7503 46.4821V48.5092C16.7503 48.7586 16.5481 48.9575 16.302 48.9575H13.1526C12.9032 48.9575 12.7044 48.7552 12.7044 48.5092V46.4821C12.7044 46.2327 12.9066 46.0338 13.1526 46.0338H16.302ZM14.7265 42.6553C15.5337 42.6553 16.1891 43.3108 16.1891 44.1179C16.1891 44.9251 15.5337 45.5805 14.7265 45.5805C13.9194 45.5805 13.2639 44.9251 13.2639 44.1179C13.2639 43.3108 13.9194 42.6553 14.7265 42.6553Z" fill="#001938"/>
<path id="Vector_3" d="M28.0857 44.1179C28.0857 44.7043 28.3536 45.23 28.7665 45.5805H28.421C27.9256 45.5805 27.5195 45.9866 27.5195 46.482V48.5092C27.5195 49.0046 27.9256 49.4107 28.421 49.4107H31.5704C32.0658 49.4107 32.4719 49.0046 32.4719 48.5092V46.482C32.4719 45.9866 32.0658 45.5805 31.5704 45.5805H31.225C31.6429 45.2317 31.9058 44.7043 31.9058 44.1179C31.9058 43.0614 31.048 42.207 29.9949 42.207C28.9417 42.207 28.084 43.0647 28.084 44.1179H28.0857ZM31.5704 46.0338C31.8198 46.0338 32.0187 46.236 32.0187 46.4821V48.5092C32.0187 48.7586 31.8165 48.9575 31.5704 48.9575H28.421C28.1716 48.9575 27.9728 48.7552 27.9728 48.5092V46.4821C27.9728 46.2327 28.175 46.0338 28.421 46.0338H31.5704ZM29.9966 42.6553C30.8037 42.6553 31.4592 43.3108 31.4592 44.1179C31.4592 44.9251 30.8037 45.5805 29.9966 45.5805C29.1894 45.5805 28.534 44.9251 28.534 44.1179C28.534 43.3108 29.1894 42.6553 29.9966 42.6553Z" fill="#001938"/>
<path id="Vector_4" d="M46.8417 45.5805H46.4962C46.9141 45.2317 47.177 44.7043 47.177 44.1179C47.177 43.0614 46.3193 42.207 45.2661 42.207C44.2129 42.207 43.3552 43.0647 43.3552 44.1179C43.3552 44.7043 43.6232 45.23 44.036 45.5805H43.6906C43.1952 45.5805 42.7891 45.9866 42.7891 46.482V48.5092C42.7891 49.0046 43.1952 49.4107 43.6906 49.4107H46.84C47.3354 49.4107 47.7415 49.0046 47.7415 48.5092V46.482C47.7415 45.9866 47.3354 45.5805 46.84 45.5805H46.8417ZM43.8001 44.1179C43.8001 43.3108 44.4556 42.6553 45.2627 42.6553C46.0699 42.6553 46.7254 43.3108 46.7254 44.1179C46.7254 44.9251 46.0699 45.5805 45.2627 45.5805C44.4556 45.5805 43.8001 44.9251 43.8001 44.1179ZM47.2899 48.5093C47.2899 48.7587 47.0877 48.9576 46.8416 48.9576H43.6922C43.4428 48.9576 43.244 48.7554 43.244 48.5093V46.4822C43.244 46.2328 43.4462 46.034 43.6922 46.034H46.8416C47.091 46.034 47.2899 46.2362 47.2899 46.4822V48.5093Z" fill="#001938"/>
<path id="Vector_5" d="M45.5688 41.0984V41.0816V33.4466C45.5688 33.2781 45.4307 33.1399 45.2621 33.1399H30.2972V26.2245C34.4206 26.061 37.7298 22.6656 37.7298 18.5037C37.7298 14.3415 34.2619 10.769 29.9952 10.769C25.7285 10.769 22.2559 14.242 22.2559 18.5084C22.2559 22.775 25.5654 26.0662 29.6885 26.2292V33.1446H14.7283C14.5598 33.1446 14.4216 33.2828 14.4216 33.4513V41.0863V41.1031C11.9581 41.2582 10 43.3123 10 45.8147C10 48.317 12.1182 50.5378 14.7283 50.5378C17.3385 50.5378 19.4567 48.4197 19.4567 45.8147C19.4567 43.2095 17.4986 41.2597 15.035 41.1031V41.0863V33.758H29.6933V41.0863V41.1031C27.2297 41.2582 25.2717 43.3123 25.2717 45.8147C25.2717 48.317 27.3898 50.5378 30 50.5378C32.6102 50.5378 34.7283 48.4197 34.7283 45.8147C34.7283 43.2095 32.7703 41.2597 30.3067 41.1031V41.0863V33.758H44.965V41.0863V41.1031C42.5014 41.2582 40.5433 43.3123 40.5433 45.8147C40.5433 48.317 42.6615 50.5378 45.2717 50.5378C47.8818 50.5378 50 48.4197 50 45.8147C50 43.2095 48.0419 41.2597 45.5784 41.1031L45.5688 41.0984ZM22.9939 18.5032C22.9939 14.6427 26.1349 11.502 29.9952 11.502C33.8555 11.502 36.9965 14.6429 36.9965 18.5032C36.9965 22.3637 33.8555 25.5045 29.9952 25.5045C26.1349 25.5045 22.9939 22.3635 22.9939 18.5032ZM19.0037 45.8099C19.0037 48.169 17.0844 50.085 14.7286 50.085C12.3729 50.085 10.4536 48.1657 10.4536 45.8099C10.4536 43.4542 12.3729 41.5349 14.7286 41.5349C17.0844 41.5349 19.0037 43.4542 19.0037 45.8099ZM34.2706 45.8099C34.2706 48.169 32.3513 50.085 29.9955 50.085C27.6398 50.085 25.7205 48.1657 25.7205 45.8099C25.7205 43.4542 27.6398 41.5349 29.9955 41.5349C32.3513 41.5349 34.2706 43.4542 34.2706 45.8099ZM45.2621 50.085C42.903 50.085 40.9871 48.1657 40.9871 45.8099C40.9871 43.4542 42.9064 41.5349 45.2621 41.5349C47.6179 41.5349 49.5372 43.4542 49.5372 45.8099C49.5372 48.1657 47.6179 50.085 45.2621 50.085Z" fill="#001938"/>
</g>
</g>
</svg>
