<svg width="60" height="61" viewBox="0 0 60 61" fill="none" xmlns="http://www.w3.org/2000/svg">
<g id="Frame 1321315654">
<path id="Vector" d="M15.8657 35.2106C14.4522 35.2106 13.3006 36.3605 13.3006 37.7756C13.3006 39.1892 14.4506 40.3407 15.8657 40.3407C17.2792 40.3407 18.4307 39.1908 18.4307 37.7756C18.4307 37.0903 18.1638 36.4462 17.6795 35.9618C17.1935 35.4775 16.5494 35.2106 15.8657 35.2106ZM15.864 38.9667C15.2067 38.9667 14.6729 38.433 14.6729 37.7756C14.6729 37.1183 15.2067 36.5846 15.864 36.5846C16.182 36.5846 16.4818 36.7081 16.7059 36.9338C16.9316 37.1595 17.0551 37.4577 17.0551 37.7757C17.0568 38.4313 16.5214 38.9667 15.864 38.9667ZM21.0388 38.3753C20.8247 38.2518 20.6912 38.0211 20.6912 37.774C20.6912 37.5269 20.8247 37.2962 21.0388 37.1743C21.3419 36.9997 21.5545 36.7295 21.6583 36.4231H28.5711C28.95 36.4231 29.258 36.115 29.258 35.7361C29.258 32.5516 27.235 29.8317 24.4046 28.7938C25.2728 28.0673 25.8264 26.9751 25.8264 25.756C25.8264 23.5715 24.0488 21.7955 21.8659 21.7955C19.6814 21.7955 17.9055 23.5731 17.9055 25.756C17.9055 26.9718 18.4574 28.0624 19.3223 28.7889C17.8891 29.3095 16.6452 30.2699 15.7589 31.5714C15.497 31.5764 15.235 31.5961 14.9764 31.6324C14.2943 31.7312 13.7985 32.3029 13.8001 32.9932C13.8001 33.2403 13.6683 33.4709 13.4541 33.5945C13.24 33.7181 12.9747 33.7181 12.7606 33.5928C12.1626 33.2502 11.4212 33.3919 10.9945 33.9322C10.6222 34.4017 10.3224 34.9223 10.1 35.4775C9.84463 36.1184 10.0934 36.8317 10.6897 37.176C10.9039 37.2996 11.0374 37.5302 11.0374 37.7757C11.0374 38.0228 10.9039 38.2534 10.6897 38.3754C10.0917 38.7197 9.84461 39.433 10.1 40.0739C10.3207 40.629 10.6222 41.148 10.9929 41.6192C11.4196 42.1595 12.1609 42.3012 12.7573 41.9569C12.9715 41.8333 13.2367 41.8333 13.4509 41.9552C13.665 42.0788 13.7968 42.3094 13.7968 42.5566C13.7952 43.2468 14.2911 43.8185 14.9731 43.9157C15.2663 43.9585 15.5662 43.98 15.8627 43.98C16.1609 43.98 16.4591 43.9585 16.754 43.9157C17.436 43.8169 17.9319 43.2452 17.9303 42.5549C17.9303 42.3078 18.0621 42.0772 18.2762 41.9536C18.4904 41.83 18.7556 41.83 18.9698 41.9552C19.5645 42.2996 20.3075 42.1579 20.7342 41.6192C21.1065 41.148 21.4064 40.629 21.6288 40.0739C21.8841 39.433 21.6368 38.718 21.0388 38.3753ZM19.2761 25.7559C19.2761 24.3293 20.4375 23.1678 21.8642 23.1678C23.2908 23.1678 24.4523 24.3293 24.4523 25.7559C24.4523 27.1826 23.2908 28.344 21.8642 28.344C20.4375 28.344 19.2761 27.1842 19.2761 25.7559ZM20.3535 39.5646C20.1805 39.9962 19.9466 40.3999 19.6599 40.7673C19.0224 40.3983 18.23 40.3983 17.5924 40.7656C16.9549 41.1347 16.5595 41.8216 16.5611 42.5564C16.1032 42.6223 15.6271 42.6206 15.1723 42.558C15.174 41.82 14.7769 41.133 14.1394 40.7656C13.8214 40.5811 13.4639 40.4905 13.1081 40.4905C12.7506 40.4905 12.3915 40.5828 12.0735 40.7673C11.7836 40.4016 11.5496 39.9963 11.3783 39.5663C12.0175 39.1989 12.4146 38.5119 12.4146 37.7755C12.4146 37.0391 12.0175 36.3521 11.3783 35.9864C11.5513 35.5548 11.7852 35.1511 12.0719 34.7838C12.7094 35.1528 13.5018 35.1528 14.1394 34.7854C14.7769 34.4164 15.174 33.7294 15.1707 32.9946C15.627 32.9287 16.1031 32.9304 16.5595 32.993C16.5578 33.731 16.9532 34.418 17.5924 34.7854C18.23 35.1544 19.0224 35.1528 19.6583 34.7838C19.9482 35.1495 20.1822 35.5547 20.3551 35.9848C19.7159 36.3521 19.3189 37.0391 19.3189 37.7755C19.3173 38.5119 19.7143 39.1973 20.3535 39.5646ZM18.9713 33.5944C18.7571 33.718 18.4919 33.718 18.2778 33.5961C18.0636 33.4725 17.9318 33.2419 17.9318 32.9948C17.9318 32.5022 17.6797 32.0706 17.286 31.8268C18.4211 30.4923 20.0718 29.718 21.864 29.718C24.9513 29.718 27.5015 32.0541 27.8444 35.051L21.4389 35.0493C21.2445 34.6539 21.009 34.2783 20.7338 33.9307C20.3088 33.392 19.5677 33.2501 18.9713 33.5944ZM38.1522 44.9419C38.3235 45.2796 38.1884 45.6931 37.8507 45.8644C35.2922 47.1626 32.4241 47.8809 29.5559 47.9402C27.1588 47.9896 24.7404 47.5811 22.4883 46.7491L22.6909 47.5069C22.7881 47.8727 22.5707 48.2499 22.2049 48.3471C22.1456 48.3636 22.0863 48.3702 22.027 48.3702C21.7239 48.3702 21.4455 48.1676 21.3648 47.8612L20.8063 45.7689C20.7651 45.6207 20.7733 45.4576 20.8425 45.306C20.8442 45.301 20.8475 45.2961 20.8491 45.2928V45.2912C20.915 45.1544 21.0188 45.049 21.1424 44.9831L23.0122 43.9502C23.345 43.7673 23.7618 43.8876 23.9446 44.2187C24.1275 44.5515 24.0072 44.9683 23.6761 45.1511L23.0534 45.4954C27.6875 47.1906 32.7813 46.8974 37.2294 44.6388C37.5671 44.4675 37.9792 44.6025 38.1522 44.9419ZM20.854 17.1975C20.6826 16.8598 20.8177 16.4463 21.1554 16.2749C23.7139 14.9768 26.582 14.2585 29.4503 14.1992C31.8473 14.1497 34.2657 14.5583 36.5179 15.3902L36.3152 14.6324C36.218 14.2667 36.4355 13.8894 36.8012 13.7922C37.1686 13.695 37.5442 13.9125 37.6414 14.2782L38.1999 16.3704C38.2411 16.5203 38.2312 16.6851 38.162 16.8367V16.8383V16.8399V16.8416C38.0977 16.98 37.9923 17.0871 37.8654 17.1546L35.9956 18.1875C35.8902 18.2452 35.7765 18.2732 35.6645 18.2732C35.4223 18.2732 35.1884 18.1447 35.0631 17.919C34.8803 17.5862 35.0005 17.1694 35.3317 16.9866L35.9544 16.6423C31.3203 14.9471 26.2265 15.2403 21.7784 17.4989C21.439 17.6702 21.0253 17.5352 20.854 17.1975ZM48.2344 31.026H43.3265C42.4765 29.9964 41.3908 29.2336 40.175 28.7905C41.0399 28.0639 41.5918 26.9733 41.5918 25.7575C41.5918 23.573 39.8142 21.7971 37.6314 21.7971C35.4469 21.7971 33.6709 23.5747 33.6709 25.7575C33.6709 26.9766 34.2245 28.0672 35.0927 28.7954C32.2641 29.8333 30.2393 32.5532 30.2393 35.7377C30.2393 36.1166 30.5473 36.4247 30.9262 36.4247L37.2836 36.423V38.7163C37.2836 39.6899 38.076 40.4823 39.0497 40.4823H42.9541V41.5218H40.8041C40.4252 41.5218 40.1172 41.8299 40.1172 42.2088C40.1172 42.5877 40.4252 42.8958 40.8041 42.8958H46.4762C46.8551 42.8958 47.1631 42.5877 47.1631 42.2088C47.1631 41.8299 46.8551 41.5218 46.4762 41.5218H44.3279V40.4823H48.2323C49.2059 40.4823 49.9984 39.6899 49.9984 38.7163L50 32.792C50 31.8184 49.208 31.026 48.2344 31.026ZM35.0435 25.7559C35.0435 24.3293 36.2049 23.1678 37.6316 23.1678C39.0583 23.1678 40.2197 24.3293 40.2197 25.7559C40.2197 27.1826 39.0583 28.344 37.6316 28.344C36.2049 28.344 35.0435 27.1842 35.0435 25.7559ZM31.6514 35.049C31.9924 32.0523 34.5443 29.7161 37.6318 29.7161C39.0222 29.7161 40.3302 30.1807 41.3813 31.0242H39.0518C38.0782 31.0242 37.2858 31.8166 37.2858 32.7902V35.0472L31.6514 35.049ZM48.6266 38.7162C48.6266 38.9287 48.447 39.1099 48.2329 39.1099H39.0515C38.839 39.1099 38.6578 38.9304 38.6578 38.7162V32.792C38.6578 32.5795 38.8373 32.3983 39.0515 32.3983H48.2341C48.4466 32.3983 48.6279 32.5778 48.6279 32.792L48.6266 38.7162Z" fill="#001938"/>
</g>
</svg>
