<svg width="32" height="33" viewBox="0 0 32 33" fill="none" xmlns="http://www.w3.org/2000/svg">
<g id="Group 5">
<g id="Group 6">
<path id="Ellipse 4" d="M0 32.9396C-1.83688e-07 30.8384 0.41385 28.7578 1.21792 26.8166C2.022 24.8754 3.20055 23.1116 4.68629 21.6259C6.17202 20.1401 7.93585 18.9616 9.87705 18.1575C11.8183 17.3534 13.8988 16.9396 16 16.9396V32.9396L0 32.9396Z" fill="#8080FF"/>
<path id="Ellipse 6" d="M16 16.9396C16 19.0407 16.4139 21.1213 17.2179 23.0625C18.022 25.0037 19.2006 26.7675 20.6863 28.2533C22.172 29.739 23.9358 30.9176 25.8771 31.7216C27.8183 32.5257 29.8988 32.9396 32 32.9396L32 16.9396L16 16.9396Z" fill="#88CC00"/>
<path id="Ellipse 5" d="M16 16.9396C16 14.8384 15.5861 12.7578 14.7821 10.8166C13.978 8.87542 12.7994 7.1116 11.3137 5.62586C9.82796 4.14012 8.06414 2.96157 6.12293 2.1575C4.18172 1.35343 2.10115 0.939575 0 0.939575L1.10973e-06 16.9396H16Z" fill="#88CC00"/>
<path id="Ellipse 7" d="M32 0.939575C32 3.04072 31.5861 5.1213 30.7821 7.0625C29.978 9.00371 28.7994 10.7675 27.3137 12.2533C25.828 13.739 24.0641 14.9176 22.1229 15.7216C20.1817 16.5257 18.1011 16.9396 16 16.9396L16 0.939575H32Z" fill="#8080FF"/>
</g>
</g>
</svg>
