<svg width="32" height="33" viewBox="0 0 32 33" fill="none" xmlns="http://www.w3.org/2000/svg">
<path d="M0 16.9225C2.10115 16.9225 4.18173 17.3363 6.12294 18.1404C8.06414 18.9445 9.82797 20.123 11.3137 21.6088C12.7994 23.0945 13.978 24.8583 14.7821 26.7996C15.5861 28.7408 16 30.8213 16 32.9225L1.90798e-07 32.9225L0 16.9225Z" fill="#1C81FF"/>
<path d="M32 16.9225C29.8988 16.9225 27.8183 17.3363 25.8771 18.1404C23.9359 18.9445 22.172 20.123 20.6863 21.6088C19.2006 23.0945 18.022 24.8583 17.2179 26.7996C16.4139 28.7408 16 30.8213 16 32.9225H32L32 16.9225Z" fill="#1C81FF"/>
<path d="M0 16.9225C2.10115 16.9225 4.18173 16.5086 6.12294 15.7046C8.06414 14.9005 9.82797 13.7219 11.3137 12.2362C12.7994 10.7505 13.978 8.98663 14.7821 7.04542C15.5861 5.10421 16 3.02364 16 0.922485L1.90798e-07 0.922486L0 16.9225Z" fill="#12D576"/>
<path d="M32 16.9225C29.8988 16.9225 27.8183 16.5086 25.8771 15.7046C23.9359 14.9005 22.172 13.7219 20.6863 12.2362C19.2006 10.7505 18.022 8.98663 17.2179 7.04542C16.4139 5.10421 16 3.02364 16 0.922485L32 0.922489L32 16.9225Z" fill="#12D576"/>
</svg>
