<svg width="40" height="41" viewBox="0 0 40 41" fill="none" xmlns="http://www.w3.org/2000/svg">
<path d="M4 24.9224C4 31.5498 9.37259 36.9224 16 36.9224L16 28.9224C16 22.2949 10.6274 16.9224 4 16.9224L4 24.9224Z" fill="#12D576"/>
<path d="M24 12.9224C24 19.5498 29.3726 24.9224 36 24.9224L36 16.9224C36 10.2949 30.6274 4.92236 24 4.92236L24 12.9224Z" fill="#12D576"/>
<path d="M26 22.9224C26 16.2949 20.6274 10.9224 14 10.9224V18.9224C14 25.5498 19.3726 30.9224 26 30.9224V22.9224Z" fill="#12D576"/>
<path d="M24 36.9224C30.6274 36.9224 36 31.5498 36 24.9224L28 24.9224C21.3726 24.9224 16 30.2949 16 36.9224H24Z" fill="#1C81FF"/>
</svg>
