<svg width="40" height="41" viewBox="0 0 40 41" fill="none" xmlns="http://www.w3.org/2000/svg">
<path d="M4 36.9222C4 34.8211 4.41385 32.7405 5.21792 30.7993C6.022 28.8581 7.20055 27.0943 8.68629 25.6085C10.172 24.1228 11.9358 22.9442 13.8771 22.1402C15.8183 21.3361 17.8988 20.9222 20 20.9222V36.9222L4 36.9222Z" fill="#1C81FF"/>
<path d="M20 20.9222C20 23.0234 20.4139 25.104 21.2179 27.0452C22.022 28.9864 23.2006 30.7502 24.6863 32.2359C26.172 33.7217 27.9358 34.9002 29.8771 35.7043C31.8183 36.5084 33.8988 36.9222 36 36.9222L36 20.9222L20 20.9222Z" fill="#12D576"/>
<path d="M20 20.9222C20 18.8211 19.5861 16.7405 18.7821 14.7993C17.978 12.8581 16.7994 11.0943 15.3137 9.60853C13.828 8.12279 12.0641 6.94424 10.1229 6.14017C8.18172 5.33609 6.10115 4.92224 4 4.92224L4 20.9222H20Z" fill="#12D576"/>
<path d="M36 4.92224C36 7.02339 35.5861 9.10396 34.7821 11.0452C33.978 12.9864 32.7994 14.7502 31.3137 16.2359C29.828 17.7217 28.0641 18.9002 26.1229 19.7043C24.1817 20.5084 22.1011 20.9222 20 20.9222L20 4.92224H36Z" fill="#1C81FF"/>
</svg>
