<svg width="88" height="88" viewBox="0 0 88 88" fill="none" xmlns="http://www.w3.org/2000/svg">
<path fill-rule="evenodd" clip-rule="evenodd" d="M44 0C68.2968 0 88 19.7032 88 44C88 68.2968 68.2968 88 44 88C19.7032 88 0 68.2968 0 44C0 19.7032 19.7032 0 44 0Z" fill="#0055D5"/>
<path fill-rule="evenodd" clip-rule="evenodd" d="M23.9373 29.1105C23.9373 29.1105 19.2029 25.3265 18.8773 34.6721C18.5517 41.9145 18.5605 55.9769 21.9133 62.6209C23.3301 65.1201 25.2221 64.3545 28.7421 61.8641C31.8045 59.6025 42.8837 49.3945 47.5741 44.9153C52.2645 40.4361 61.7773 27.5881 63.7573 36.3177C64.5405 39.9873 65.5085 43.1025 64.7693 51.2425C64.5405 53.7505 63.4669 55.6513 58.5741 52.2545C54.8781 49.8785 51.3669 47.3265 51.3669 47.3265C51.3669 47.3265 50.6893 46.1121 49.0877 48.0833C47.8293 49.6585 47.1957 50.0457 49.2109 51.2425C51.2349 52.4393 61.4693 59.4969 65.3941 60.5969C68.6325 61.5385 70.4805 61.5209 70.5773 55.1585C70.5597 50.1073 70.2693 35.6489 68.4301 29.4889C67.0397 25.6521 64.9981 23.9097 60.5893 28.2217C56.1805 32.5337 42.2765 46.0153 34.6733 52.1225C29.6309 55.9065 27.4749 59.3209 25.5741 53.0113C24.2365 48.2329 22.5029 33.3609 27.9765 36.1945C31.3997 37.8313 33.1069 37.8225 31.7693 38.8521C30.4317 39.8729 26.5861 43.4017 26.5861 43.4017C26.5861 43.4017 25.3981 44.3609 25.9525 46.4377C26.5069 47.8897 26.5069 48.6113 29.4901 45.8041C32.4733 42.9969 34.6733 40.8761 34.6733 40.8761C34.6733 40.8761 35.1485 40.1281 36.5653 41.5097C37.9821 42.8913 38.2109 43.2785 38.2109 43.2785C38.2109 43.2785 38.5893 44.3081 40.1029 42.5217C41.6253 40.7353 42.6021 39.6441 39.7245 37.9721C36.8557 36.2825 23.9373 29.1105 23.9373 29.1105Z" fill="white"/>
</svg>
