<svg width="15" height="12" viewBox="0 0 15 12" fill="none" xmlns="http://www.w3.org/2000/svg">
<g id="Icon">
<path id="Icon_2" d="M5.09764 11.7363L0.205078 6.87306C0.0683591 6.73634 0 6.56056 0 6.34571C0 6.13087 0.0683591 5.95509 0.205078 5.81837L1.28906 4.76369C1.42578 4.60744 1.59668 4.52932 1.80175 4.52932C2.00683 4.52932 2.1875 4.60744 2.34374 4.76369L5.62499 8.04493L12.6562 1.01369C12.8125 0.857445 12.9931 0.77932 13.1982 0.77932C13.4033 0.77932 13.5742 0.857445 13.7109 1.01369L14.7949 2.06838C14.9316 2.2051 15 2.38088 15 2.59572C15 2.81056 14.9316 2.98635 14.7949 3.12306L6.15233 11.7363C6.01561 11.8926 5.83983 11.9707 5.62499 11.9707C5.41014 11.9707 5.23436 11.8926 5.09764 11.7363Z" fill="#12D576"/>
</g>
</svg>
