<svg width="40" height="41" viewBox="0 0 40 41" fill="none" xmlns="http://www.w3.org/2000/svg">
<path d="M4 24.9397C4 31.5671 9.37259 36.9397 16 36.9397L16 28.9397C16 22.3123 10.6274 16.9397 4 16.9397L4 24.9397Z" fill="#88CC00"/>
<path d="M24 12.9397C24 19.5671 29.3726 24.9397 36 24.9397L36 16.9397C36 10.3123 30.6274 4.9397 24 4.9397L24 12.9397Z" fill="#88CC00"/>
<path d="M26 22.9397C26 16.3123 20.6274 10.9397 14 10.9397V18.9397C14 25.5671 19.3726 30.9397 26 30.9397V22.9397Z" fill="#88CC00"/>
<path d="M24 36.9397C30.6274 36.9397 36 31.5671 36 24.9397L28 24.9397C21.3726 24.9397 16 30.3123 16 36.9397H24Z" fill="#8080FF"/>
</svg>
