<svg width="40" height="41" viewBox="0 0 40 41" fill="none" xmlns="http://www.w3.org/2000/svg">
<path d="M4 20.9398C6.10115 20.9398 8.18173 21.3537 10.1229 22.1577C12.0641 22.9618 13.828 24.1404 15.3137 25.6261C16.7994 27.1118 17.978 28.8757 18.7821 30.8169C19.5861 32.7581 20 34.8387 20 36.9398L4 36.9398L4 20.9398Z" fill="#8080FF"/>
<path d="M36 20.9398C33.8988 20.9398 31.8183 21.3537 29.8771 22.1577C27.9359 22.9618 26.172 24.1404 24.6863 25.6261C23.2006 27.1118 22.022 28.8757 21.2179 30.8169C20.4139 32.7581 20 34.8387 20 36.9398H36L36 20.9398Z" fill="#8080FF"/>
<path d="M4 20.9398C6.10115 20.9398 8.18173 20.526 10.1229 19.7219C12.0641 18.9178 13.828 17.7393 15.3137 16.2535C16.7994 14.7678 17.978 13.004 18.7821 11.0628C19.5861 9.12154 20 7.04097 20 4.93982L4 4.93982L4 20.9398Z" fill="#88CC00"/>
<path d="M36 20.9398C33.8988 20.9398 31.8183 20.526 29.8771 19.7219C27.9359 18.9178 26.172 17.7393 24.6863 16.2535C23.2006 14.7678 22.022 13.004 21.2179 11.0628C20.4139 9.12154 20 7.04097 20 4.93982L36 4.93982L36 20.9398Z" fill="#88CC00"/>
</svg>
