<svg width="19" height="32" viewBox="0 0 19 32" fill="none" xmlns="http://www.w3.org/2000/svg">
<path d="M18.377 21.372C18.377 22.572 18.077 23.7 17.477 24.756C16.901 25.812 16.037 26.7 14.885 27.42C13.757 28.14 12.413 28.572 10.853 28.716V31.632H8.51297V28.716C6.25697 28.5 4.43297 27.792 3.04097 26.592C1.64897 25.392 0.952969 23.808 0.952969 21.84H5.34497C5.41697 22.776 5.71697 23.556 6.24497 24.18C6.77297 24.78 7.52897 25.164 8.51297 25.332V17.412C6.90497 17.004 5.59697 16.596 4.58897 16.188C3.58097 15.756 2.71697 15.084 1.99697 14.172C1.30097 13.26 0.952969 12.012 0.952969 10.428C0.952969 8.436 1.64897 6.792 3.04097 5.496C4.43297 4.176 6.25697 3.408 8.51297 3.192V0.275999H10.853V3.192C12.965 3.384 14.657 4.056 15.929 5.208C17.225 6.336 17.957 7.896 18.125 9.888H13.733C13.661 9.144 13.373 8.484 12.869 7.908C12.365 7.308 11.693 6.9 10.853 6.684V14.46C12.461 14.844 13.769 15.252 14.777 15.684C15.785 16.092 16.637 16.752 17.333 17.664C18.029 18.552 18.377 19.788 18.377 21.372ZM5.12897 10.212C5.12897 11.196 5.41697 11.964 5.99297 12.516C6.59297 13.068 7.43297 13.512 8.51297 13.848V6.576C7.48097 6.696 6.65297 7.068 6.02897 7.692C5.42897 8.316 5.12897 9.156 5.12897 10.212ZM10.853 25.332C11.909 25.164 12.737 24.744 13.337 24.072C13.937 23.376 14.237 22.548 14.237 21.588C14.237 20.628 13.937 19.884 13.337 19.356C12.761 18.804 11.933 18.36 10.853 18.024V25.332Z" fill="white"/>
</svg>
