<svg width="28" height="31" viewBox="0 0 28 31" fill="none" xmlns="http://www.w3.org/2000/svg">
<path d="M27.9659 6.12001C27.9151 5.92849 27.8271 5.74903 27.7071 5.592C27.587 5.43497 27.4372 5.30348 27.2665 5.20514L19.5281 0.705804C19.3591 0.60602 19.1723 0.540826 18.9783 0.51396C18.7843 0.487094 18.5869 0.499085 18.3975 0.549244C18.2081 0.599403 18.0304 0.686745 17.8745 0.806261C17.7187 0.925778 17.5878 1.07512 17.4893 1.24572L14.0071 7.33483L10.5248 1.24572C10.4264 1.07512 10.2955 0.925778 10.1396 0.806261C9.98378 0.686745 9.80606 0.599403 9.61666 0.549244C9.42725 0.499085 9.22989 0.487094 9.03588 0.51396C8.84187 0.540826 8.65503 0.60602 8.48607 0.705804L0.747714 5.20514C0.576923 5.30348 0.42717 5.43497 0.307117 5.592C0.187063 5.74903 0.0990903 5.92849 0.048286 6.12001C-0.0502044 6.50012 0.00322978 6.90401 0.197101 7.24484L6.14968 17.4883C5.48559 18.7145 5.11846 20.0814 5.07822 21.4777C5.07467 22.84 5.37805 24.1852 5.96547 25.4121C6.5529 26.639 7.40904 27.7154 8.46933 28.5603C9.52963 29.4051 10.7664 29.9963 12.0864 30.2894C13.4065 30.5824 14.7753 30.5695 16.0897 30.2518C17.404 29.9341 18.6297 29.3197 19.6742 28.4551C20.7187 27.5905 21.5548 26.4982 22.1195 25.2605C22.6841 24.0229 22.9626 22.6722 22.9339 21.3102C22.9052 19.9483 22.5701 18.6107 21.9538 17.3983L27.7575 7.25984C27.8656 7.09328 27.9396 6.90671 27.9754 6.71102C28.0111 6.51533 28.0079 6.31443 27.9659 6.12001ZM3.59007 7.04987L8.73905 4.05031L13.5309 12.4791C11.4883 12.6063 9.55275 13.4438 8.0545 14.8487L3.59007 7.04987ZM14.0071 27.4769C12.4284 27.4769 10.9143 26.8448 9.79797 25.7198C8.68165 24.5947 8.0545 23.0688 8.0545 21.4777C8.0545 19.8867 8.68165 18.3608 9.79797 17.2357C10.9143 16.1107 12.4284 15.4786 14.0071 15.4786C15.5858 15.4786 17.0999 16.1107 18.2162 17.2357C19.3325 18.3608 19.9597 19.8867 19.9597 21.4777C19.9597 23.0688 19.3325 24.5947 18.2162 25.7198C17.0999 26.8448 15.5858 27.4769 14.0071 27.4769ZM19.9597 14.8037C19.1517 14.06 18.2129 13.475 17.1917 13.079L15.7333 10.3344L19.3346 4.05031L24.4836 7.04987L19.9597 14.8037Z" fill="white"/>
</svg>
