<svg width="37" height="33" viewBox="0 0 37 33" fill="none" xmlns="http://www.w3.org/2000/svg">
<path d="M33.7132 23.8649L33.5787 23.0624C33.6364 23.2642 33.7132 23.8169 33.7132 23.8649ZM24.8332 11.5535V13.7495C25.4291 12.7548 24.8332 11.5535 24.8332 11.5535ZM11.5709 10.5347C11.5709 10.5347 11.5709 10.4867 11.5709 10.4434V10.5347ZM11.4364 8.87205C11.4892 9.07868 11.5373 9.28051 11.5949 9.48233C11.616 9.80235 11.616 10.1234 11.5949 10.4434C11.667 10.3521 11.8832 10.2272 11.9697 10.2608C12.2723 10.6244 12.4552 11.0724 12.4935 11.5439C12.5576 11.8802 12.6104 12.2166 12.6521 12.553C12.6521 12.6395 12.9692 12.1541 12.9836 12.1109C13.0675 11.7822 13.1159 11.4455 13.1278 11.1066C13.1806 10.2416 13.0029 9.39584 13.0749 8.54047C13.1038 8.25215 13.1566 7.50731 13.3873 7.29587C13.5942 7.11106 13.736 6.86434 13.7914 6.59245C13.8468 6.32057 13.8129 6.03805 13.6948 5.78697C12.9404 4.60484 13.6468 4.17716 13.6468 4.17716L16.7269 4.6577C17.2838 4.80826 17.8639 4.85389 18.4375 4.79226L18.6345 4.76342L21.2294 6.56065L20.8305 5.76295C21.2146 6.30076 21.7402 6.7216 22.349 6.97872C22.7045 7.11807 23.3581 7.06521 23.5887 7.35354C23.7911 7.54831 23.9701 7.76603 24.1221 8.00227C24.1957 8.2515 24.217 8.51328 24.1845 8.77113C24.1845 9.19401 24.1845 9.62169 24.2134 10.0494C24.2518 10.8759 24.42 11.7217 24.42 12.5434C24.42 11.7889 24.8429 11.0056 25.0879 10.3089C25.1013 10.2711 25.1126 10.2326 25.1216 10.1935C25.3762 9.35739 25.2273 8.44917 25.2321 7.589C25.876 5.33046 25.7799 2.41838 23.31 1.30833C22.3201 0.861431 21.2149 0.827793 20.1818 0.544274C19.586 0.385696 19.0045 0.198285 18.4183 0.0925661C17.9105 -0.009418 17.3894 -0.0272757 16.8758 0.0397065C15.8235 0.198285 14.8192 0.606745 13.7861 0.84221C12.5223 1.13534 12.2052 2.97101 12.1331 4.06664C11.9142 4.12421 11.716 4.24248 11.5613 4.40782C10.8838 5.12383 11.0039 6.40207 11.1144 7.29107C11.1894 7.82413 11.2969 8.3521 11.4364 8.87205ZM12.3686 13.4516L12.1668 11.6544C12.1668 11.6544 11.7679 12.2551 12.3686 13.4516ZM36.5195 29.9486C36.5195 29.9726 36.4426 29.6458 36.2264 28.555C35.6257 25.6045 30.2439 24.4416 30.2439 24.4416C28.3843 23.6535 26.5247 22.8558 24.6651 22.0725C23.7925 21.3653 23.1145 20.4474 22.6949 19.4055C21.9116 20.2051 20.9299 20.7822 19.8503 21.0778C19.3943 21.2009 18.9242 21.2639 18.4519 21.2652C17.7872 21.2801 17.1284 21.1369 16.5299 20.8471C15.9102 20.5015 15.326 20.0959 14.7856 19.6362C14.5067 19.4248 14.2477 19.1884 14.0119 18.9298C13.9193 20.0437 13.5403 21.1147 12.9116 22.0389L3.78169 25.4026C0 26.6136 0 33 0 33L18.4519 32.9471L37 32.8991L36.5195 29.9486Z" fill="white"/>
</svg>
