<svg width="533" height="361" viewBox="0 0 533 361" fill="none" xmlns="http://www.w3.org/2000/svg">
<path d="M0 24C0 10.7452 10.7452 0 24 0H509C522.255 0 533 10.7452 533 24V361H0V24Z" fill="#1A1328"/>
<path d="M266.501 146.046V127.42C266.501 120.793 261.128 115.42 254.501 115.42H237.422C230.794 115.42 225.422 110.048 225.422 103.42V79.0521" stroke="#302C3C"/>
<path d="M266.5 146.046V127.42C266.5 120.793 271.872 115.42 278.5 115.42H293.668C300.295 115.42 305.668 110.048 305.668 103.42V79.0521" stroke="#302C3C"/>
<path d="M146.129 79.0521V103.42C146.129 110.048 151.501 115.42 158.129 115.42H213.42C220.048 115.42 225.42 110.048 225.42 103.42V79.0521" stroke="#302C3C"/>
<path d="M305.668 79.0521V103.42C305.668 110.048 311.041 115.42 317.668 115.42H348.657H373.915C380.542 115.42 385.915 110.048 385.915 103.42V79.0521" stroke="#302C3C"/>
<path d="M385.914 79.0521V103.42C385.914 110.048 391.287 115.42 397.914 115.42H430.865H454.161C460.788 115.42 466.161 110.048 466.161 103.42V79.2117" stroke="#302C3C"/>
<path d="M66.8398 79.0521V103.42C66.8398 110.048 72.2124 115.42 78.8398 115.42H109.829H134.131C140.759 115.42 146.131 110.048 146.131 103.42V79.0521" stroke="#302C3C"/>
<rect x="280.168" y="23.8834" width="51" height="51" rx="25.5" fill="#392C4C"/>
<rect x="280.168" y="23.8834" width="51" height="51" rx="25.5" stroke="#302C3C"/>
<rect width="20" height="20" transform="translate(295.668 39.3834)" fill="#392C4C"/>
<path d="M314.418 49.3834C314.418 54.2159 310.5 58.1334 305.668 58.1334C300.835 58.1334 296.918 54.2159 296.918 49.3834C296.918 44.5509 300.835 40.6334 305.668 40.6334C310.5 40.6334 314.418 44.5509 314.418 49.3834Z" fill="white"/>
<path fill-rule="evenodd" clip-rule="evenodd" d="M298.668 46.7648C298.668 46.7648 299.24 46.6939 299.622 47.0258C299.857 47.2305 299.926 47.5568 299.926 47.5568L300.705 50.5358L301.353 48.0976C301.416 47.8384 301.53 47.5181 301.71 47.3014C301.939 47.0254 302.405 47.008 302.455 47.008C302.505 47.008 302.971 47.0254 303.2 47.3014C303.38 47.5181 303.494 47.8384 303.557 48.0976L304.205 50.5358L304.984 47.5568C304.984 47.5568 305.053 47.2305 305.288 47.0258C305.67 46.6939 306.242 46.7648 306.242 46.7648L304.75 52.3319C304.75 52.3319 304.258 52.3671 304.011 52.2431C303.688 52.0805 303.534 51.9549 303.338 51.1974C303.164 50.522 302.675 48.5386 302.63 48.3972C302.608 48.3273 302.582 48.1607 302.455 48.1607C302.331 48.1607 302.302 48.3275 302.28 48.3972C302.234 48.5384 301.746 50.522 301.572 51.1974C301.376 51.9549 301.222 52.0805 300.899 52.2431C300.652 52.3671 300.16 52.3319 300.16 52.3319L298.668 46.7648ZM307.661 47.6881L307.662 51.2497C307.659 51.9393 307.591 52.0925 307.296 52.2512C307.066 52.3747 306.715 52.3278 306.715 52.3278V48.5637C306.715 48.3747 306.775 48.2508 306.995 48.1396C307.126 48.0732 307.248 48.0223 307.376 47.9471C307.55 47.8447 307.638 47.7232 307.657 47.6944L307.661 47.6881ZM308.135 46.7832C308.135 46.7832 308.906 46.6493 309.288 47.0039C309.532 47.231 309.805 47.6393 309.805 47.6393L310.477 48.6285C310.51 48.6799 310.552 48.736 310.62 48.736C310.688 48.736 310.731 48.6799 310.764 48.6285L311.436 47.6393C311.436 47.6393 311.709 47.231 311.953 47.0039C312.335 46.6493 313.105 46.7832 313.105 46.7832L311.279 49.5571L313.101 52.3225C313.101 52.3225 312.312 52.4261 311.93 52.0711C311.686 51.8442 311.436 51.475 311.436 51.475L310.764 50.486C310.731 50.4343 310.688 50.3785 310.62 50.3785C310.552 50.3785 310.51 50.4343 310.477 50.486L309.805 51.475C309.805 51.475 309.569 51.8442 309.324 52.0711C308.943 52.4261 308.14 52.3225 308.14 52.3225L309.961 49.5571L308.135 46.7832ZM307.662 46.7587C307.662 47.1284 307.627 47.3478 307.399 47.5184C307.327 47.5728 307.201 47.6561 307.053 47.7106C306.851 47.7857 306.715 47.9205 306.715 47.9205C306.715 47.2474 306.815 47.0036 307.084 46.8593C307.291 46.7484 307.662 46.7587 307.662 46.7587Z" fill="#0F172A"/>
<path d="M305.671 81.4234C304.364 81.4234 303.304 80.3623 303.304 79.0522C303.304 77.7421 304.364 76.681 305.671 76.681C306.978 76.681 308.039 77.7421 308.039 79.0522C308.039 80.3623 306.978 81.4234 305.671 81.4234Z" fill="#392C4C" stroke="#CBD5E1"/>
<rect x="360.414" y="23.8834" width="51" height="51" rx="25.5" fill="#392C4C"/>
<rect x="360.414" y="23.8834" width="51" height="51" rx="25.5" stroke="#302C3C"/>
<rect width="20" height="20" transform="translate(375.914 39.3834)" fill="#392C4C"/>
<path d="M394.664 49.3834C394.664 44.5534 390.744 40.6334 385.914 40.6334C381.084 40.6334 377.164 44.5534 377.164 49.3834C377.164 54.2134 381.084 58.1334 385.914 58.1334C390.744 58.1334 394.664 54.2134 394.664 49.3834ZM385.914 41.5172C390.263 41.5172 393.78 45.0347 393.78 49.3834C393.78 53.7322 390.263 57.2497 385.914 57.2497C381.565 57.2497 378.048 53.7322 378.048 49.3834C378.048 45.0347 381.565 41.5172 385.914 41.5172ZM384.173 53.6009L381.504 46.4172C381.933 46.3909 382.423 46.3472 382.423 46.3472C382.799 46.3034 382.755 45.4634 382.37 45.4809C382.37 45.4809 381.242 45.5684 380.507 45.5684C380.375 45.5684 380.218 45.5684 380.052 45.5597C381.312 43.6609 383.464 42.4097 385.914 42.4097C387.743 42.4097 389.405 43.1009 390.648 44.2384C390.123 44.1684 389.379 44.5447 389.379 45.4809C389.379 46.0584 389.712 46.5484 390.07 47.1259C390.342 47.5984 390.508 48.1934 390.508 49.0597C390.508 50.2322 389.397 52.9797 389.397 52.9797L387.025 46.4172C387.445 46.3909 387.682 46.2772 387.682 46.2772C388.058 46.2334 388.014 45.3147 387.638 45.3322C387.638 45.3322 386.5 45.4284 385.765 45.4284C385.083 45.4284 383.919 45.3322 383.919 45.3322C383.543 45.3147 383.499 46.2597 383.875 46.2772L384.61 46.3472L385.59 49.0072L384.173 53.6009ZM389.44 55.4822L391.724 49.3834C391.724 49.3834 392.31 47.9047 392.065 46.0497C392.617 47.0472 392.888 48.1672 392.888 49.3834C392.888 51.9734 391.523 54.2659 389.44 55.4822ZM379.509 46.5572L382.852 55.7272C380.515 54.5897 378.94 52.1572 378.94 49.3834C378.94 48.3684 379.115 47.4322 379.509 46.5572ZM386.028 50.5209L388.032 55.9897C387.375 56.2259 386.658 56.3572 385.914 56.3572C385.284 56.3572 384.68 56.2609 384.112 56.0947L386.028 50.5209Z" fill="#0073AA"/>
<path d="M385.913 81.4234C384.606 81.4234 383.546 80.3623 383.546 79.0522C383.546 77.7421 384.606 76.681 385.913 76.681C387.221 76.681 388.281 77.7421 388.281 79.0522C388.281 80.3623 387.221 81.4234 385.913 81.4234Z" fill="#392C4C" stroke="#CBD5E1"/>
<rect x="440.66" y="23.8834" width="51" height="51" rx="25.5" fill="#392C4C"/>
<rect x="440.66" y="23.8834" width="51" height="51" rx="25.5" stroke="#302C3C"/>
<rect width="20" height="20" transform="translate(456.16 39.3834)" fill="#392C4C"/>
<path d="M458.035 49.3834C458.035 44.8961 461.673 41.2584 466.16 41.2584C470.647 41.2584 474.285 44.8961 474.285 49.3834C474.285 53.8707 470.647 57.5084 466.16 57.5084C461.673 57.5084 458.035 53.8707 458.035 49.3834Z" fill="#F06A35"/>
<path fill-rule="evenodd" clip-rule="evenodd" d="M470.073 53.2031C469.567 53.7197 469.028 53.9953 468.34 54.0891C467.944 54.1431 464.082 54.1289 463.768 54.0724C463.111 53.9536 462.452 53.5329 462.013 52.9504C461.783 52.6446 461.671 52.4291 461.56 52.0776C461.426 51.6521 461.411 51.3367 461.425 49.1895C461.435 47.4755 461.444 47.1772 461.489 46.991C461.731 45.9998 462.393 45.2266 463.314 44.8598C463.814 44.6608 464.14 44.6307 465.608 44.648C466.543 44.6591 466.823 44.672 466.947 44.7098C467.468 44.868 467.925 45.1502 468.334 45.5671C468.909 46.1523 469.2 46.8007 469.201 47.4991C469.201 47.8647 469.26 47.9993 469.473 48.124C469.607 48.2026 469.654 48.2109 470.079 48.2297C470.333 48.241 470.571 48.2667 470.608 48.2869C470.729 48.3525 470.835 48.5097 470.872 48.6791C470.898 48.796 470.905 49.2588 470.896 50.2471C470.885 51.5565 470.88 51.6651 470.817 51.8881C470.668 52.4249 470.439 52.8294 470.073 53.2031ZM468.113 51.5614C468.419 51.3882 468.473 50.9662 468.219 50.7291L468.216 50.7267C468.06 50.5812 468.042 50.5643 466.756 50.5633L465.478 50.5647C464.372 50.5686 464.237 50.5859 464.12 50.6821L464.094 50.7051C463.975 50.8127 463.897 51.0249 463.92 51.1792C463.945 51.3411 464.085 51.5238 464.236 51.5896L464.239 51.5906C464.315 51.6211 464.691 51.6457 465.943 51.634L467.799 51.6126L468.113 51.5614ZM466.679 47.6933C466.679 47.4699 466.594 47.3296 466.397 47.23C466.285 47.1738 466.244 47.1621 465.728 47.1597L465.117 47.1593C464.306 47.1605 464.218 47.1744 464.08 47.3084L464.056 47.3323C463.797 47.5932 463.928 48.0976 464.28 48.1946C464.341 48.2115 464.725 48.2219 465.224 48.2209L465.626 48.2186C466.249 48.2137 466.328 48.2054 466.408 48.1574L466.44 48.137C466.605 48.0256 466.679 47.8874 466.679 47.6933Z" fill="#392C4C"/>
<path d="M466.163 81.4234C464.856 81.4234 463.796 80.3623 463.796 79.0522C463.796 77.7421 464.856 76.681 466.163 76.681C467.471 76.681 468.531 77.7421 468.531 79.0522C468.531 80.3623 467.471 81.4234 466.163 81.4234Z" fill="#392C4C" stroke="#CBD5E1"/>
<rect x="199.922" y="23.8834" width="51" height="51" rx="25.5" fill="#392C4C"/>
<rect x="199.922" y="23.8834" width="51" height="51" rx="25.5" stroke="#302C3C"/>
<path d="M234.124 45.7755C234.082 44.8438 233.931 44.2063 233.718 43.6493C233.494 43.0749 233.196 42.5845 232.71 42.1011C232.223 41.6177 231.736 41.313 231.162 41.0923C230.606 40.8751 229.969 40.728 229.037 40.686C228.103 40.6439 227.805 40.6334 225.432 40.6334C223.055 40.6334 222.757 40.6439 221.826 40.686C220.895 40.728 220.258 40.8786 219.701 41.0923C219.124 41.3165 218.633 41.6142 218.15 42.1011C217.667 42.588 217.363 43.0749 217.142 43.6493C216.929 44.2063 216.778 44.8438 216.736 45.7755C216.694 46.7108 216.684 47.0085 216.684 49.3834C216.684 51.7618 216.694 52.0596 216.736 52.9913C216.778 53.9231 216.929 54.5606 217.142 55.1175C217.366 55.692 217.664 56.1824 218.15 56.6657C218.633 57.1526 219.124 57.4539 219.698 57.6746C220.254 57.8917 220.891 58.0388 221.823 58.0809C222.757 58.1229 223.055 58.1334 225.428 58.1334C227.805 58.1334 228.103 58.1229 229.034 58.0809C229.965 58.0388 230.602 57.8882 231.159 57.6746C231.733 57.4504 232.223 57.1526 232.706 56.6657C233.189 56.1789 233.494 55.692 233.714 55.1175C233.931 54.5606 234.078 53.9231 234.12 52.9913C234.162 52.0561 234.173 51.7583 234.173 49.3834C234.173 47.0085 234.166 46.7073 234.124 45.7755ZM232.552 52.9213C232.514 53.7759 232.37 54.2418 232.251 54.5466C232.094 54.9529 231.901 55.2471 231.593 55.5554C231.285 55.8636 230.994 56.0493 230.585 56.2139C230.277 56.333 229.811 56.4766 228.96 56.5151C228.04 56.5572 227.763 56.5677 225.425 56.5677C223.086 56.5677 222.81 56.5572 221.889 56.5151C221.035 56.4766 220.569 56.333 220.265 56.2139C219.859 56.0563 219.565 55.8636 219.257 55.5554C218.949 55.2471 218.763 54.9564 218.598 54.5466C218.479 54.2383 218.336 53.7724 218.297 52.9213C218.255 52 218.245 51.7233 218.245 49.3834C218.245 47.0436 218.255 46.7668 218.297 45.8456C218.336 44.9909 218.479 44.525 218.598 44.2203C218.756 43.814 218.949 43.5197 219.257 43.2115C219.565 42.9032 219.855 42.7176 220.265 42.553C220.573 42.4339 221.038 42.2902 221.889 42.2517C222.81 42.2097 223.086 42.1992 225.425 42.1992C227.763 42.1992 228.04 42.2097 228.96 42.2517C229.815 42.2902 230.28 42.4339 230.585 42.553C230.991 42.7106 231.285 42.9032 231.593 43.2115C231.901 43.5197 232.087 43.8105 232.251 44.2203C232.37 44.5285 232.514 44.9944 232.552 45.8456C232.594 46.7668 232.605 47.0436 232.605 49.3834C232.605 51.7233 232.591 52 232.552 52.9213Z" fill="url(#paint0_linear_223_5462)"/>
<path d="M225.425 44.8859C222.939 44.8859 220.93 46.9 220.93 49.3835C220.93 51.8705 222.943 53.8811 225.425 53.8811C227.907 53.8811 229.919 51.8634 229.919 49.3835C229.919 46.8965 227.91 44.8859 225.425 44.8859ZM225.425 52.3013C223.814 52.3013 222.508 50.9948 222.508 49.3835C222.508 47.7722 223.814 46.4656 225.425 46.4656C227.035 46.4656 228.341 47.7722 228.341 49.3835C228.341 50.9948 227.035 52.3013 225.425 52.3013Z" fill="url(#paint1_linear_223_5462)"/>
<path d="M230.093 45.7615C230.673 45.7615 231.143 45.291 231.143 44.7106C231.143 44.1303 230.673 43.6598 230.093 43.6598C229.513 43.6598 229.043 44.1303 229.043 44.7106C229.043 45.291 229.513 45.7615 230.093 45.7615Z" fill="#BC30A0"/>
<path d="M216.672 49.3834C216.672 51.7618 216.682 52.0596 216.724 52.9913C216.766 53.9231 216.917 54.5606 217.13 55.1175C217.355 55.692 217.652 56.1824 218.139 56.6657C218.622 57.1491 219.112 57.4539 219.686 57.6746C220.243 57.8917 220.88 58.0388 221.811 58.0809C222.746 58.1229 223.043 58.1334 225.417 58.1334C227.793 58.1334 228.091 58.1229 229.022 58.0809C229.953 58.0388 230.591 57.8882 231.147 57.6746C231.721 57.4504 232.211 57.1526 232.694 56.6657C233.178 56.1824 233.482 55.692 233.703 55.1175C233.92 54.5606 234.067 53.9231 234.109 52.9913C234.151 52.0561 234.161 51.7583 234.161 49.3834C234.161 47.005 234.151 46.7073 234.109 45.7755C234.067 44.8438 233.916 44.2063 233.703 43.6493C233.479 43.0749 233.181 42.5845 232.694 42.1011C232.215 41.6142 231.725 41.313 231.151 41.0923C230.594 40.8751 229.957 40.728 229.026 40.686C228.091 40.6439 227.793 40.6334 225.42 40.6334C223.043 40.6334 222.746 40.6439 221.814 40.686C220.883 40.728 220.246 40.8786 219.689 41.0923C219.115 41.3165 218.625 41.6142 218.142 42.1011C217.659 42.588 217.355 43.0749 217.134 43.6493C216.917 44.2063 216.766 44.8438 216.724 45.7755C216.682 46.7073 216.672 47.005 216.672 49.3834ZM218.251 49.3834C218.251 47.0471 218.261 46.7668 218.303 45.8456C218.342 44.9909 218.485 44.525 218.604 44.2203C218.762 43.814 218.954 43.5197 219.262 43.2115C219.57 42.9032 219.861 42.7176 220.271 42.553C220.579 42.4339 221.044 42.2902 221.895 42.2517C222.816 42.2097 223.092 42.1992 225.431 42.1992C227.769 42.1992 228.046 42.2097 228.966 42.2517C229.82 42.2902 230.286 42.4339 230.591 42.553C230.997 42.7106 231.291 42.9032 231.599 43.2115C231.907 43.5197 232.092 43.8105 232.257 44.2203C232.376 44.5285 232.519 44.9944 232.558 45.8456C232.6 46.7668 232.61 47.0436 232.61 49.3834C232.61 51.7233 232.6 52 232.558 52.9213C232.519 53.7759 232.376 54.2418 232.257 54.5466C232.099 54.9529 231.907 55.2471 231.599 55.5554C231.291 55.8636 231 56.0493 230.591 56.2139C230.282 56.333 229.817 56.4766 228.966 56.5151C228.046 56.5572 227.769 56.5677 225.431 56.5677C223.092 56.5677 222.816 56.5572 221.895 56.5151C221.041 56.4766 220.575 56.333 220.271 56.2139C219.864 56.0563 219.57 55.8636 219.262 55.5554C218.954 55.2471 218.769 54.9564 218.604 54.5466C218.485 54.2383 218.342 53.7724 218.303 52.9213C218.258 52 218.251 51.7198 218.251 49.3834Z" fill="url(#paint2_linear_223_5462)"/>
<path d="M225.421 81.4234C224.114 81.4234 223.054 80.3623 223.054 79.0522C223.054 77.7421 224.114 76.681 225.421 76.681C226.728 76.681 227.789 77.7421 227.789 79.0522C227.789 80.3623 226.728 81.4234 225.421 81.4234Z" fill="#392C4C" stroke="#CBD5E1"/>
<rect x="121.629" y="23.8834" width="49" height="51" rx="24.5" fill="#392C4C"/>
<rect x="121.629" y="23.8834" width="49" height="51" rx="24.5" stroke="#302C3C"/>
<path d="M151.273 44.3875C151.263 44.3054 151.198 44.2599 151.144 44.2549C151.091 44.25 150.047 44.2324 150.047 44.2324C150.047 44.2324 149.174 43.2929 149.088 43.1973C149.002 43.1017 148.834 43.1306 148.768 43.1522C148.767 43.1526 148.604 43.2085 148.33 43.3028C148.284 43.1378 148.216 42.9349 148.12 42.7311C147.809 42.0738 147.354 41.7262 146.804 41.7253C146.803 41.7253 146.803 41.7253 146.802 41.7253C146.764 41.7253 146.726 41.7294 146.688 41.733C146.671 41.7113 146.655 41.6902 146.638 41.6694C146.399 41.3854 146.091 41.247 145.723 41.2592C145.013 41.2817 144.306 41.8502 143.732 42.8601C143.329 43.5706 143.022 44.4632 142.935 45.1543C142.119 45.4343 141.549 45.63 141.537 45.6345C141.125 45.7778 141.112 45.7918 141.058 46.2219C141.018 46.5469 139.941 55.7781 139.941 55.7781L148.967 57.5084L152.879 56.4305C152.879 56.4305 151.283 44.4695 151.273 44.3875ZM147.878 43.4579C147.67 43.5291 147.434 43.6102 147.177 43.6982C147.172 43.2996 147.129 42.7451 146.962 42.2659C147.501 42.379 147.766 43.0548 147.878 43.4579ZM146.705 43.8604C146.232 44.0227 145.716 44.1999 145.198 44.3776C145.344 43.7595 145.62 43.1441 145.959 42.7406C146.085 42.5905 146.262 42.4232 146.471 42.3276C146.667 42.7821 146.71 43.4254 146.705 43.8604ZM145.738 41.783C145.904 41.779 146.045 41.8195 146.165 41.907C145.973 42.0175 145.787 42.1761 145.613 42.3831C145.162 42.9196 144.816 43.7523 144.679 44.5556C144.249 44.7031 143.828 44.8478 143.441 44.9803C143.685 43.7157 144.642 41.8182 145.738 41.783Z" fill="#95BF47"/>
<path d="M151.144 44.2549C151.091 44.25 150.047 44.2324 150.047 44.2324C150.047 44.2324 149.174 43.2929 149.088 43.1973C149.056 43.1617 149.013 43.1436 148.967 43.136L148.967 57.5084L152.879 56.4305C152.879 56.4305 151.283 44.4695 151.273 44.3875C151.263 44.3054 151.198 44.2599 151.144 44.2549Z" fill="#5E8E3E"/>
<path d="M146.799 46.4847L146.345 48.3688C146.345 48.3688 145.838 48.1131 145.237 48.1551C144.356 48.2168 144.347 48.8327 144.356 48.9873C144.404 49.8299 146.404 50.0138 146.516 51.9876C146.604 53.5402 145.773 54.6024 144.575 54.6862C143.137 54.7868 142.346 53.8468 142.346 53.8468L142.651 52.4104C142.651 52.4104 143.447 53.0768 144.085 53.0321C144.502 53.0028 144.65 52.6273 144.635 52.3618C144.573 51.2626 142.944 51.3276 142.841 49.5215C142.755 48.0018 143.655 46.4618 145.642 46.3229C146.408 46.2683 146.799 46.4847 146.799 46.4847Z" fill="#392C4C"/>
<ellipse cx="146.128" cy="79.0522" rx="2.87117" ry="2.86776" transform="rotate(90 146.128 79.0522)" fill="#392C4C"/>
<rect x="41.3379" y="23.8834" width="51" height="51" rx="25.5" fill="#392C4C"/>
<rect x="41.3379" y="23.8834" width="51" height="51" rx="25.5" stroke="#302C3C"/>
<path d="M75.5859 49.4156C75.5859 44.5654 71.6684 40.6334 66.8359 40.6334C62.0035 40.6334 58.0859 44.5654 58.0859 49.4156C58.0859 53.534 60.9111 56.99 64.7223 57.9392V52.0994H62.918V49.4156H64.7223V48.2591C64.7223 45.27 66.0701 43.8846 68.994 43.8846C69.5484 43.8846 70.505 43.9938 70.8963 44.1027V46.5354C70.6898 46.5136 70.331 46.5027 69.8855 46.5027C68.4508 46.5027 67.8964 47.0483 67.8964 48.4664V49.4156H70.7545L70.2635 52.0994H67.8964V58.1334C72.2284 57.6083 75.5859 53.9057 75.5859 49.4156Z" fill="#007DFC"/>
<ellipse cx="66.8393" cy="79.0522" rx="2.87117" ry="2.86776" transform="rotate(90 66.8393 79.0522)" fill="#392C4C"/>
<path d="M266.499 148.29C265.192 148.29 264.132 147.23 264.132 145.922C264.132 144.614 265.192 143.554 266.499 143.554C267.807 143.554 268.867 144.614 268.867 145.922C268.867 147.23 267.807 148.29 266.499 148.29Z" fill="#392C4C" stroke="#CBD5E1"/>
<rect x="135" y="151.166" width="263" height="185" rx="11.5" fill="#201B2B"/>
<rect x="135" y="151.166" width="263" height="185" rx="11.5" stroke="#302C3C"/>
<rect x="197" y="176.166" width="24" height="24" rx="3.6" fill="#032125"/>
<g filter="url(#filter0_d_223_5462)">
<path d="M216.311 189.628C216.311 189.757 216.26 189.881 216.169 189.973C216.077 190.064 215.953 190.115 215.824 190.115H214.849V191.09C214.849 191.22 214.798 191.344 214.706 191.435C214.615 191.527 214.491 191.578 214.361 191.578C214.232 191.578 214.108 191.527 214.017 191.435C213.925 191.344 213.874 191.22 213.874 191.09V190.115H212.899C212.77 190.115 212.646 190.064 212.554 189.973C212.463 189.881 212.411 189.757 212.411 189.628C212.411 189.499 212.463 189.375 212.554 189.283C212.646 189.192 212.77 189.14 212.899 189.14H213.874V188.165C213.874 188.036 213.925 187.912 214.017 187.821C214.108 187.729 214.232 187.678 214.361 187.678C214.491 187.678 214.615 187.729 214.706 187.821C214.798 187.912 214.849 188.036 214.849 188.165V189.14H215.824C215.953 189.14 216.077 189.192 216.169 189.283C216.26 189.375 216.311 189.499 216.311 189.628ZM204.611 184.753H205.586V185.728C205.586 185.857 205.638 185.981 205.729 186.073C205.821 186.164 205.945 186.215 206.074 186.215C206.203 186.215 206.327 186.164 206.419 186.073C206.51 185.981 206.561 185.857 206.561 185.728V184.753H207.536C207.666 184.753 207.79 184.702 207.881 184.61C207.973 184.519 208.024 184.395 208.024 184.265C208.024 184.136 207.973 184.012 207.881 183.921C207.79 183.829 207.666 183.778 207.536 183.778H206.561V182.803C206.561 182.674 206.51 182.55 206.419 182.458C206.327 182.367 206.203 182.315 206.074 182.315C205.945 182.315 205.821 182.367 205.729 182.458C205.638 182.55 205.586 182.674 205.586 182.803V183.778H204.611C204.482 183.778 204.358 183.829 204.267 183.921C204.175 184.012 204.124 184.136 204.124 184.265C204.124 184.395 204.175 184.519 204.267 184.61C204.358 184.702 204.482 184.753 204.611 184.753ZM212.411 192.065H211.924V191.578C211.924 191.449 211.873 191.325 211.781 191.233C211.69 191.142 211.566 191.09 211.436 191.09C211.307 191.09 211.183 191.142 211.092 191.233C211 191.325 210.949 191.449 210.949 191.578V192.065H210.461C210.332 192.065 210.208 192.117 210.117 192.208C210.025 192.3 209.974 192.424 209.974 192.553C209.974 192.682 210.025 192.806 210.117 192.898C210.208 192.989 210.332 193.04 210.461 193.04H210.949V193.528C210.949 193.657 211 193.781 211.092 193.873C211.183 193.964 211.307 194.015 211.436 194.015C211.566 194.015 211.69 193.964 211.781 193.873C211.873 193.781 211.924 193.657 211.924 193.528V193.04H212.411C212.541 193.04 212.665 192.989 212.756 192.898C212.848 192.806 212.899 192.682 212.899 192.553C212.899 192.424 212.848 192.3 212.756 192.208C212.665 192.117 212.541 192.065 212.411 192.065ZM214.563 185.24L206.074 193.73C205.891 193.912 205.643 194.015 205.385 194.015C205.126 194.015 204.878 193.912 204.695 193.73L203.434 192.469C203.344 192.379 203.272 192.271 203.223 192.153C203.174 192.035 203.148 191.908 203.148 191.78C203.148 191.652 203.174 191.525 203.223 191.407C203.272 191.288 203.344 191.181 203.434 191.09L211.924 182.601C212.014 182.511 212.122 182.439 212.24 182.39C212.359 182.341 212.485 182.316 212.613 182.316C212.741 182.316 212.868 182.341 212.987 182.39C213.105 182.439 213.212 182.511 213.303 182.601L214.563 183.861C214.654 183.952 214.726 184.059 214.775 184.178C214.824 184.296 214.849 184.423 214.849 184.551C214.849 184.679 214.824 184.806 214.775 184.924C214.726 185.042 214.654 185.15 214.563 185.24ZM213.874 184.551L212.613 183.29L210.663 185.24L211.924 186.501L213.874 184.551Z" fill="#FBFBFB"/>
</g>
<path d="M234.152 193.666V180.976H237.464V193.666H234.152ZM240.043 193.666V184.81H243.157V186.016C243.469 185.56 243.871 185.212 244.363 184.972C244.855 184.732 245.407 184.612 246.019 184.612C247.075 184.612 247.855 184.924 248.359 185.548C248.875 186.172 249.133 187.132 249.133 188.428V193.666H245.929V188.554C245.929 188.014 245.833 187.63 245.641 187.402C245.461 187.174 245.191 187.06 244.831 187.06C244.351 187.06 243.967 187.216 243.679 187.528C243.391 187.828 243.247 188.236 243.247 188.752V193.666H240.043ZM256.103 193.864C254.759 193.864 253.763 193.552 253.115 192.928C252.467 192.304 252.143 191.362 252.143 190.102V187.168H250.487V184.81H252.143V182.236H255.347V184.81H257.867V187.168H255.347V189.994C255.347 190.858 255.785 191.29 256.661 191.29C256.805 191.29 256.961 191.278 257.129 191.254C257.309 191.218 257.507 191.17 257.723 191.11L258.155 193.414C257.879 193.558 257.555 193.666 257.183 193.738C256.811 193.822 256.451 193.864 256.103 193.864ZM264.36 193.864C263.28 193.864 262.344 193.678 261.552 193.306C260.772 192.922 260.172 192.382 259.752 191.686C259.332 190.99 259.122 190.168 259.122 189.22C259.122 188.32 259.32 187.522 259.716 186.826C260.124 186.13 260.676 185.59 261.372 185.206C262.08 184.81 262.884 184.612 263.784 184.612C264.672 184.612 265.44 184.798 266.088 185.17C266.748 185.542 267.252 186.076 267.6 186.772C267.96 187.456 268.14 188.26 268.14 189.184V189.886H262.182C262.29 190.462 262.53 190.876 262.902 191.128C263.274 191.38 263.79 191.506 264.45 191.506C264.906 191.506 265.38 191.44 265.872 191.308C266.376 191.164 266.82 190.96 267.204 190.696L267.996 192.802C267.54 193.126 266.982 193.384 266.322 193.576C265.662 193.768 265.008 193.864 264.36 193.864ZM263.928 186.682C263.448 186.682 263.052 186.826 262.74 187.114C262.44 187.402 262.248 187.822 262.164 188.374H265.512C265.476 187.81 265.32 187.39 265.044 187.114C264.78 186.826 264.408 186.682 263.928 186.682ZM274.412 197.104C273.524 197.104 272.69 197.02 271.91 196.852C271.142 196.684 270.482 196.408 269.93 196.024L270.758 193.864C271.214 194.14 271.754 194.356 272.378 194.512C273.014 194.668 273.59 194.746 274.106 194.746C274.838 194.746 275.384 194.59 275.744 194.278C276.116 193.978 276.302 193.504 276.302 192.856V192.028C276.05 192.46 275.672 192.802 275.168 193.054C274.664 193.306 274.124 193.432 273.548 193.432C272.756 193.432 272.066 193.252 271.478 192.892C270.89 192.52 270.428 192.004 270.092 191.344C269.768 190.684 269.606 189.91 269.606 189.022C269.606 188.134 269.768 187.36 270.092 186.7C270.428 186.04 270.89 185.53 271.478 185.17C272.066 184.798 272.756 184.612 273.548 184.612C274.148 184.612 274.694 184.744 275.186 185.008C275.69 185.26 276.056 185.596 276.284 186.016V184.81H279.416V192.478C279.416 194.026 278.984 195.184 278.12 195.952C277.256 196.72 276.02 197.104 274.412 197.104ZM274.538 191.074C275.066 191.074 275.486 190.894 275.798 190.534C276.11 190.174 276.266 189.67 276.266 189.022C276.266 188.374 276.11 187.87 275.798 187.51C275.486 187.15 275.066 186.97 274.538 186.97C274.022 186.97 273.608 187.15 273.296 187.51C272.984 187.87 272.828 188.374 272.828 189.022C272.828 189.67 272.984 190.174 273.296 190.534C273.608 190.894 274.022 191.074 274.538 191.074ZM281.788 193.666V184.81H284.902V186.304C285.31 185.284 286.192 184.726 287.548 184.63L288.43 184.558L288.61 187.258L286.864 187.42C286.228 187.48 285.766 187.66 285.478 187.96C285.19 188.248 285.046 188.68 285.046 189.256V193.666H281.788ZM293.082 193.864C292.398 193.864 291.792 193.738 291.264 193.486C290.748 193.234 290.34 192.892 290.04 192.46C289.752 192.016 289.608 191.512 289.608 190.948C289.608 190.312 289.776 189.808 290.112 189.436C290.448 189.052 290.988 188.782 291.732 188.626C292.476 188.458 293.466 188.374 294.702 188.374H295.386V188.122C295.386 187.69 295.272 187.384 295.044 187.204C294.828 187.024 294.45 186.934 293.91 186.934C293.454 186.934 292.95 187.006 292.398 187.15C291.846 187.294 291.306 187.516 290.778 187.816L289.968 185.71C290.268 185.494 290.652 185.302 291.12 185.134C291.588 184.966 292.08 184.84 292.596 184.756C293.112 184.66 293.598 184.612 294.054 184.612C295.53 184.612 296.622 184.93 297.33 185.566C298.05 186.202 298.41 187.204 298.41 188.572V193.666H295.422V192.406C295.266 192.862 294.984 193.222 294.576 193.486C294.168 193.738 293.67 193.864 293.082 193.864ZM293.802 191.776C294.246 191.776 294.618 191.632 294.918 191.344C295.23 191.056 295.386 190.678 295.386 190.21V189.886H294.702C293.994 189.886 293.472 189.964 293.136 190.12C292.812 190.264 292.65 190.498 292.65 190.822C292.65 191.098 292.746 191.326 292.938 191.506C293.142 191.686 293.43 191.776 293.802 191.776ZM305.379 193.864C304.035 193.864 303.039 193.552 302.391 192.928C301.743 192.304 301.419 191.362 301.419 190.102V187.168H299.763V184.81H301.419V182.236H304.623V184.81H307.143V187.168H304.623V189.994C304.623 190.858 305.061 191.29 305.937 191.29C306.081 191.29 306.237 191.278 306.405 191.254C306.585 191.218 306.783 191.17 306.999 191.11L307.431 193.414C307.155 193.558 306.831 193.666 306.459 193.738C306.087 193.822 305.727 193.864 305.379 193.864ZM308.809 183.28V180.382H312.175V183.28H308.809ZM308.899 193.666V184.81H312.103V193.666H308.899ZM318.943 193.864C317.959 193.864 317.101 193.678 316.369 193.306C315.637 192.934 315.067 192.4 314.659 191.704C314.251 191.008 314.047 190.186 314.047 189.238C314.047 188.278 314.251 187.456 314.659 186.772C315.067 186.076 315.637 185.542 316.369 185.17C317.101 184.798 317.959 184.612 318.943 184.612C319.927 184.612 320.785 184.798 321.517 185.17C322.249 185.542 322.813 186.076 323.209 186.772C323.617 187.456 323.821 188.278 323.821 189.238C323.821 190.186 323.617 191.008 323.209 191.704C322.813 192.4 322.249 192.934 321.517 193.306C320.785 193.678 319.927 193.864 318.943 193.864ZM318.943 191.506C319.423 191.506 319.819 191.326 320.131 190.966C320.443 190.606 320.599 190.03 320.599 189.238C320.599 188.434 320.443 187.858 320.131 187.51C319.819 187.15 319.423 186.97 318.943 186.97C318.451 186.97 318.049 187.15 317.737 187.51C317.425 187.858 317.269 188.434 317.269 189.238C317.269 190.03 317.425 190.606 317.737 190.966C318.049 191.326 318.451 191.506 318.943 191.506ZM325.79 193.666V184.81H328.904V186.016C329.216 185.56 329.618 185.212 330.11 184.972C330.602 184.732 331.154 184.612 331.766 184.612C332.822 184.612 333.602 184.924 334.106 185.548C334.622 186.172 334.88 187.132 334.88 188.428V193.666H331.676V188.554C331.676 188.014 331.58 187.63 331.388 187.402C331.208 187.174 330.938 187.06 330.578 187.06C330.098 187.06 329.714 187.216 329.426 187.528C329.138 187.828 328.994 188.236 328.994 188.752V193.666H325.79Z" fill="white"/>
<path d="M181.731 228.666V223.99L177.951 218.796H179.295L182.333 222.982L185.357 218.796H186.659L182.879 224.018V228.666H181.731ZM189.757 228.792C189.095 228.792 188.521 228.647 188.035 228.358C187.55 228.068 187.172 227.662 186.901 227.14C186.64 226.608 186.509 225.982 186.509 225.264C186.509 224.545 186.64 223.924 186.901 223.402C187.172 222.87 187.55 222.459 188.035 222.17C188.521 221.88 189.095 221.736 189.757 221.736C190.411 221.736 190.98 221.88 191.465 222.17C191.96 222.459 192.338 222.87 192.599 223.402C192.87 223.924 193.005 224.545 193.005 225.264C193.005 225.982 192.87 226.608 192.599 227.14C192.338 227.662 191.96 228.068 191.465 228.358C190.98 228.647 190.411 228.792 189.757 228.792ZM189.757 227.882C190.392 227.882 190.901 227.658 191.283 227.21C191.666 226.752 191.857 226.104 191.857 225.264C191.857 224.414 191.666 223.766 191.283 223.318C190.901 222.87 190.392 222.646 189.757 222.646C189.113 222.646 188.6 222.87 188.217 223.318C187.844 223.766 187.657 224.414 187.657 225.264C187.657 226.104 187.844 226.752 188.217 227.21C188.6 227.658 189.113 227.882 189.757 227.882ZM197.617 228.792C195.983 228.792 195.167 227.891 195.167 226.09V221.862H196.301V226.076C196.301 226.682 196.422 227.13 196.665 227.42C196.917 227.709 197.309 227.854 197.841 227.854C198.419 227.854 198.891 227.662 199.255 227.28C199.619 226.888 199.801 226.37 199.801 225.726V221.862H200.935V228.666H199.829V227.518C199.614 227.928 199.311 228.246 198.919 228.47C198.536 228.684 198.102 228.792 197.617 228.792ZM209.794 228.792C209.327 228.792 208.907 228.703 208.534 228.526C208.17 228.339 207.881 228.087 207.666 227.77C207.451 227.452 207.344 227.098 207.344 226.706C207.344 226.211 207.47 225.819 207.722 225.53C207.983 225.24 208.408 225.035 208.996 224.914C209.593 224.783 210.405 224.718 211.432 224.718H211.88V224.284C211.88 223.705 211.759 223.29 211.516 223.038C211.283 222.776 210.905 222.646 210.382 222.646C209.971 222.646 209.575 222.706 209.192 222.828C208.809 222.94 208.417 223.126 208.016 223.388L207.624 222.562C207.979 222.31 208.408 222.109 208.912 221.96C209.425 221.81 209.915 221.736 210.382 221.736C211.259 221.736 211.908 221.95 212.328 222.38C212.757 222.809 212.972 223.476 212.972 224.382V228.666H211.908V227.49C211.731 227.891 211.455 228.208 211.082 228.442C210.718 228.675 210.289 228.792 209.794 228.792ZM209.976 227.938C210.536 227.938 210.993 227.746 211.348 227.364C211.703 226.972 211.88 226.477 211.88 225.88V225.46H211.446C210.69 225.46 210.093 225.497 209.654 225.572C209.225 225.637 208.921 225.758 208.744 225.936C208.576 226.104 208.492 226.337 208.492 226.636C208.492 227.018 208.623 227.331 208.884 227.574C209.155 227.816 209.519 227.938 209.976 227.938ZM215.576 228.666V221.862H216.682V223.08C217.046 222.258 217.792 221.806 218.922 221.722L219.328 221.68L219.412 222.66L218.698 222.744C218.054 222.8 217.564 223.005 217.228 223.36C216.892 223.705 216.724 224.181 216.724 224.788V228.666H215.576ZM224.077 228.792C223.004 228.792 222.155 228.479 221.529 227.854C220.904 227.219 220.591 226.36 220.591 225.278C220.591 224.578 220.731 223.962 221.011 223.43C221.291 222.888 221.674 222.473 222.159 222.184C222.654 221.885 223.223 221.736 223.867 221.736C224.791 221.736 225.515 222.034 226.037 222.632C226.56 223.22 226.821 224.032 226.821 225.068V225.502H221.697C221.735 226.276 221.959 226.869 222.369 227.28C222.78 227.681 223.349 227.882 224.077 227.882C224.488 227.882 224.88 227.821 225.253 227.7C225.627 227.569 225.981 227.359 226.317 227.07L226.709 227.868C226.401 228.157 226.009 228.386 225.533 228.554C225.057 228.712 224.572 228.792 224.077 228.792ZM223.895 222.576C223.251 222.576 222.743 222.776 222.369 223.178C221.996 223.579 221.777 224.106 221.711 224.76H225.841C225.813 224.069 225.631 223.532 225.295 223.15C224.969 222.767 224.502 222.576 223.895 222.576ZM235.2 228.792C234.733 228.792 234.313 228.703 233.94 228.526C233.576 228.339 233.287 228.087 233.072 227.77C232.857 227.452 232.75 227.098 232.75 226.706C232.75 226.211 232.876 225.819 233.128 225.53C233.389 225.24 233.814 225.035 234.402 224.914C234.999 224.783 235.811 224.718 236.838 224.718H237.286V224.284C237.286 223.705 237.165 223.29 236.922 223.038C236.689 222.776 236.311 222.646 235.788 222.646C235.377 222.646 234.981 222.706 234.598 222.828C234.215 222.94 233.823 223.126 233.422 223.388L233.03 222.562C233.385 222.31 233.814 222.109 234.318 221.96C234.831 221.81 235.321 221.736 235.788 221.736C236.665 221.736 237.314 221.95 237.734 222.38C238.163 222.809 238.378 223.476 238.378 224.382V228.666H237.314V227.49C237.137 227.891 236.861 228.208 236.488 228.442C236.124 228.675 235.695 228.792 235.2 228.792ZM235.382 227.938C235.942 227.938 236.399 227.746 236.754 227.364C237.109 226.972 237.286 226.477 237.286 225.88V225.46H236.852C236.096 225.46 235.499 225.497 235.06 225.572C234.631 225.637 234.327 225.758 234.15 225.936C233.982 226.104 233.898 226.337 233.898 226.636C233.898 227.018 234.029 227.331 234.29 227.574C234.561 227.816 234.925 227.938 235.382 227.938ZM244.426 228.792C243.885 228.792 243.409 228.67 242.998 228.428C242.597 228.185 242.293 227.854 242.088 227.434V228.666H240.982V218.796H242.116V223.038C242.312 222.636 242.615 222.319 243.026 222.086C243.437 221.852 243.903 221.736 244.426 221.736C245.033 221.736 245.56 221.88 246.008 222.17C246.465 222.45 246.815 222.856 247.058 223.388C247.31 223.91 247.436 224.536 247.436 225.264C247.436 225.982 247.31 226.608 247.058 227.14C246.815 227.662 246.465 228.068 246.008 228.358C245.56 228.647 245.033 228.792 244.426 228.792ZM244.188 227.882C244.823 227.882 245.331 227.658 245.714 227.21C246.097 226.752 246.288 226.104 246.288 225.264C246.288 224.414 246.097 223.766 245.714 223.318C245.331 222.87 244.823 222.646 244.188 222.646C243.553 222.646 243.045 222.87 242.662 223.318C242.279 223.766 242.088 224.414 242.088 225.264C242.088 226.104 242.279 226.752 242.662 227.21C243.045 227.658 243.553 227.882 244.188 227.882ZM252.472 228.792C251.809 228.792 251.235 228.647 250.75 228.358C250.265 228.068 249.887 227.662 249.616 227.14C249.355 226.608 249.224 225.982 249.224 225.264C249.224 224.545 249.355 223.924 249.616 223.402C249.887 222.87 250.265 222.459 250.75 222.17C251.235 221.88 251.809 221.736 252.472 221.736C253.125 221.736 253.695 221.88 254.18 222.17C254.675 222.459 255.053 222.87 255.314 223.402C255.585 223.924 255.72 224.545 255.72 225.264C255.72 225.982 255.585 226.608 255.314 227.14C255.053 227.662 254.675 228.068 254.18 228.358C253.695 228.647 253.125 228.792 252.472 228.792ZM252.472 227.882C253.107 227.882 253.615 227.658 253.998 227.21C254.381 226.752 254.572 226.104 254.572 225.264C254.572 224.414 254.381 223.766 253.998 223.318C253.615 222.87 253.107 222.646 252.472 222.646C251.828 222.646 251.315 222.87 250.932 223.318C250.559 223.766 250.372 224.414 250.372 225.264C250.372 226.104 250.559 226.752 250.932 227.21C251.315 227.658 251.828 227.882 252.472 227.882ZM260.331 228.792C258.698 228.792 257.881 227.891 257.881 226.09V221.862H259.015V226.076C259.015 226.682 259.137 227.13 259.379 227.42C259.631 227.709 260.023 227.854 260.555 227.854C261.134 227.854 261.605 227.662 261.969 227.28C262.333 226.888 262.515 226.37 262.515 225.726V221.862H263.649V228.666H262.543V227.518C262.329 227.928 262.025 228.246 261.633 228.47C261.251 228.684 260.817 228.792 260.331 228.792ZM269.001 228.792C268.198 228.792 267.596 228.582 267.195 228.162C266.794 227.732 266.593 227.116 266.593 226.314V222.744H265.263V221.862H266.593V219.776H267.727V221.862H269.883V222.744H267.727V226.202C267.727 226.734 267.839 227.14 268.063 227.42C268.287 227.69 268.651 227.826 269.155 227.826C269.304 227.826 269.454 227.807 269.603 227.77C269.752 227.732 269.888 227.695 270.009 227.658L270.205 228.526C270.084 228.591 269.906 228.652 269.673 228.708C269.44 228.764 269.216 228.792 269.001 228.792ZM278.491 228.792C277.689 228.792 277.087 228.582 276.685 228.162C276.284 227.732 276.083 227.116 276.083 226.314V222.744H274.753V221.862H276.083V219.776H277.217V221.862H279.373V222.744H277.217V226.202C277.217 226.734 277.329 227.14 277.553 227.42C277.777 227.69 278.141 227.826 278.645 227.826C278.795 227.826 278.944 227.807 279.093 227.77C279.243 227.732 279.378 227.695 279.499 227.658L279.695 228.526C279.574 228.591 279.397 228.652 279.163 228.708C278.93 228.764 278.706 228.792 278.491 228.792ZM283.915 228.792C283.253 228.792 282.679 228.647 282.193 228.358C281.708 228.068 281.33 227.662 281.059 227.14C280.798 226.608 280.667 225.982 280.667 225.264C280.667 224.545 280.798 223.924 281.059 223.402C281.33 222.87 281.708 222.459 282.193 222.17C282.679 221.88 283.253 221.736 283.915 221.736C284.569 221.736 285.138 221.88 285.623 222.17C286.118 222.459 286.496 222.87 286.757 223.402C287.028 223.924 287.163 224.545 287.163 225.264C287.163 225.982 287.028 226.608 286.757 227.14C286.496 227.662 286.118 228.068 285.623 228.358C285.138 228.647 284.569 228.792 283.915 228.792ZM283.915 227.882C284.55 227.882 285.059 227.658 285.441 227.21C285.824 226.752 286.015 226.104 286.015 225.264C286.015 224.414 285.824 223.766 285.441 223.318C285.059 222.87 284.55 222.646 283.915 222.646C283.271 222.646 282.758 222.87 282.375 223.318C282.002 223.766 281.815 224.414 281.815 225.264C281.815 226.104 282.002 226.752 282.375 227.21C282.758 227.658 283.271 227.882 283.915 227.882ZM295.604 228.792C295.138 228.792 294.718 228.703 294.344 228.526C293.98 228.339 293.691 228.087 293.476 227.77C293.262 227.452 293.154 227.098 293.154 226.706C293.154 226.211 293.28 225.819 293.532 225.53C293.794 225.24 294.218 225.035 294.806 224.914C295.404 224.783 296.216 224.718 297.242 224.718H297.69V224.284C297.69 223.705 297.569 223.29 297.326 223.038C297.093 222.776 296.715 222.646 296.192 222.646C295.782 222.646 295.385 222.706 295.002 222.828C294.62 222.94 294.228 223.126 293.826 223.388L293.434 222.562C293.789 222.31 294.218 222.109 294.722 221.96C295.236 221.81 295.726 221.736 296.192 221.736C297.07 221.736 297.718 221.95 298.138 222.38C298.568 222.809 298.782 223.476 298.782 224.382V228.666H297.718V227.49C297.541 227.891 297.266 228.208 296.892 228.442C296.528 228.675 296.099 228.792 295.604 228.792ZM295.786 227.938C296.346 227.938 296.804 227.746 297.158 227.364C297.513 226.972 297.69 226.477 297.69 225.88V225.46H297.256C296.5 225.46 295.903 225.497 295.464 225.572C295.035 225.637 294.732 225.758 294.554 225.936C294.386 226.104 294.302 226.337 294.302 226.636C294.302 227.018 294.433 227.331 294.694 227.574C294.965 227.816 295.329 227.938 295.786 227.938ZM303.794 228.792C302.161 228.792 301.344 227.891 301.344 226.09V221.862H302.478V226.076C302.478 226.682 302.6 227.13 302.842 227.42C303.094 227.709 303.486 227.854 304.018 227.854C304.597 227.854 305.068 227.662 305.432 227.28C305.796 226.888 305.978 226.37 305.978 225.726V221.862H307.112V228.666H306.006V227.518C305.792 227.928 305.488 228.246 305.096 228.47C304.714 228.684 304.28 228.792 303.794 228.792ZM312.464 228.792C311.661 228.792 311.059 228.582 310.658 228.162C310.257 227.732 310.056 227.116 310.056 226.314V222.744H308.726V221.862H310.056V219.776H311.19V221.862H313.346V222.744H311.19V226.202C311.19 226.734 311.302 227.14 311.526 227.42C311.75 227.69 312.114 227.826 312.618 227.826C312.767 227.826 312.917 227.807 313.066 227.77C313.215 227.732 313.351 227.695 313.472 227.658L313.668 228.526C313.547 228.591 313.369 228.652 313.136 228.708C312.903 228.764 312.679 228.792 312.464 228.792ZM315.128 228.666V218.796H316.262V222.982C316.486 222.571 316.799 222.263 317.2 222.058C317.611 221.843 318.068 221.736 318.572 221.736C320.187 221.736 320.994 222.632 320.994 224.424V228.666H319.86V224.494C319.86 223.859 319.734 223.397 319.482 223.108C319.24 222.809 318.848 222.66 318.306 222.66C317.681 222.66 317.182 222.856 316.808 223.248C316.444 223.63 316.262 224.144 316.262 224.788V228.666H315.128ZM326.413 228.792C325.751 228.792 325.177 228.647 324.691 228.358C324.206 228.068 323.828 227.662 323.557 227.14C323.296 226.608 323.165 225.982 323.165 225.264C323.165 224.545 323.296 223.924 323.557 223.402C323.828 222.87 324.206 222.459 324.691 222.17C325.177 221.88 325.751 221.736 326.413 221.736C327.067 221.736 327.636 221.88 328.121 222.17C328.616 222.459 328.994 222.87 329.255 223.402C329.526 223.924 329.661 224.545 329.661 225.264C329.661 225.982 329.526 226.608 329.255 227.14C328.994 227.662 328.616 228.068 328.121 228.358C327.636 228.647 327.067 228.792 326.413 228.792ZM326.413 227.882C327.048 227.882 327.557 227.658 327.939 227.21C328.322 226.752 328.513 226.104 328.513 225.264C328.513 224.414 328.322 223.766 327.939 223.318C327.557 222.87 327.048 222.646 326.413 222.646C325.769 222.646 325.256 222.87 324.873 223.318C324.5 223.766 324.313 224.414 324.313 225.264C324.313 226.104 324.5 226.752 324.873 227.21C325.256 227.658 325.769 227.882 326.413 227.882ZM331.865 228.666V221.862H332.971V223.08C333.335 222.258 334.081 221.806 335.211 221.722L335.617 221.68L335.701 222.66L334.987 222.744C334.343 222.8 333.853 223.005 333.517 223.36C333.181 223.705 333.013 224.181 333.013 224.788V228.666H331.865ZM337.242 220.168V218.894H338.642V220.168H337.242ZM337.382 228.666V221.862H338.516V228.666H337.382ZM340.842 228.666V227.91L344.734 222.744H340.842V221.862H345.994V222.618L342.102 227.784H346.148V228.666H340.842ZM351.046 228.792C349.973 228.792 349.123 228.479 348.498 227.854C347.873 227.219 347.56 226.36 347.56 225.278C347.56 224.578 347.7 223.962 347.98 223.43C348.26 222.888 348.643 222.473 349.128 222.184C349.623 221.885 350.192 221.736 350.836 221.736C351.76 221.736 352.483 222.034 353.006 222.632C353.529 223.22 353.79 224.032 353.79 225.068V225.502H348.666C348.703 226.276 348.927 226.869 349.338 227.28C349.749 227.681 350.318 227.882 351.046 227.882C351.457 227.882 351.849 227.821 352.222 227.7C352.595 227.569 352.95 227.359 353.286 227.07L353.678 227.868C353.37 228.157 352.978 228.386 352.502 228.554C352.026 228.712 351.541 228.792 351.046 228.792ZM350.864 222.576C350.22 222.576 349.711 222.776 349.338 223.178C348.965 223.579 348.745 224.106 348.68 224.76H352.81C352.782 224.069 352.6 223.532 352.264 223.15C351.937 222.767 351.471 222.576 350.864 222.576ZM158.756 249.764L158.672 248.798L159.512 248.742C159.988 248.704 160.352 248.541 160.604 248.252C160.856 247.953 160.982 247.547 160.982 247.034V239.796H162.13V247.048C162.13 247.86 161.92 248.494 161.5 248.952C161.08 249.4 160.468 249.652 159.666 249.708L158.756 249.764ZM167.743 249.792C167.08 249.792 166.506 249.647 166.021 249.358C165.535 249.068 165.157 248.662 164.887 248.14C164.625 247.608 164.495 246.982 164.495 246.264C164.495 245.545 164.625 244.924 164.887 244.402C165.157 243.87 165.535 243.459 166.021 243.17C166.506 242.88 167.08 242.736 167.743 242.736C168.396 242.736 168.965 242.88 169.451 243.17C169.945 243.459 170.323 243.87 170.585 244.402C170.855 244.924 170.991 245.545 170.991 246.264C170.991 246.982 170.855 247.608 170.585 248.14C170.323 248.662 169.945 249.068 169.451 249.358C168.965 249.647 168.396 249.792 167.743 249.792ZM167.743 248.882C168.377 248.882 168.886 248.658 169.269 248.21C169.651 247.752 169.843 247.104 169.843 246.264C169.843 245.414 169.651 244.766 169.269 244.318C168.886 243.87 168.377 243.646 167.743 243.646C167.099 243.646 166.585 243.87 166.203 244.318C165.829 244.766 165.643 245.414 165.643 246.264C165.643 247.104 165.829 247.752 166.203 248.21C166.585 248.658 167.099 248.882 167.743 248.882ZM175.856 249.792C175.053 249.792 174.451 249.582 174.05 249.162C173.648 248.732 173.448 248.116 173.448 247.314V243.744H172.118V242.862H173.448V240.776H174.582V242.862H176.738V243.744H174.582V247.202C174.582 247.734 174.694 248.14 174.918 248.42C175.142 248.69 175.506 248.826 176.01 248.826C176.159 248.826 176.308 248.807 176.458 248.77C176.607 248.732 176.742 248.695 176.864 248.658L177.06 249.526C176.938 249.591 176.761 249.652 176.528 249.708C176.294 249.764 176.07 249.792 175.856 249.792ZM181.072 249.792C180.27 249.792 179.668 249.582 179.266 249.162C178.865 248.732 178.664 248.116 178.664 247.314V243.744H177.334V242.862H178.664V240.776H179.798V242.862H181.954V243.744H179.798V247.202C179.798 247.734 179.91 248.14 180.134 248.42C180.358 248.69 180.722 248.826 181.226 248.826C181.376 248.826 181.525 248.807 181.674 248.77C181.824 248.732 181.959 248.695 182.08 248.658L182.276 249.526C182.155 249.591 181.978 249.652 181.744 249.708C181.511 249.764 181.287 249.792 181.072 249.792ZM186.734 249.792C185.661 249.792 184.812 249.479 184.186 248.854C183.561 248.219 183.248 247.36 183.248 246.278C183.248 245.578 183.388 244.962 183.668 244.43C183.948 243.888 184.331 243.473 184.816 243.184C185.311 242.885 185.88 242.736 186.524 242.736C187.448 242.736 188.172 243.034 188.694 243.632C189.217 244.22 189.478 245.032 189.478 246.068V246.502H184.354C184.392 247.276 184.616 247.869 185.026 248.28C185.437 248.681 186.006 248.882 186.734 248.882C187.145 248.882 187.537 248.821 187.91 248.7C188.284 248.569 188.638 248.359 188.974 248.07L189.366 248.868C189.058 249.157 188.666 249.386 188.19 249.554C187.714 249.712 187.229 249.792 186.734 249.792ZM186.552 243.576C185.908 243.576 185.4 243.776 185.026 244.178C184.653 244.579 184.434 245.106 184.368 245.76H188.498C188.47 245.069 188.288 244.532 187.952 244.15C187.626 243.767 187.159 243.576 186.552 243.576ZM191.62 249.666V242.862H192.726V244.08C193.09 243.258 193.836 242.806 194.966 242.722L195.372 242.68L195.456 243.66L194.742 243.744C194.098 243.8 193.608 244.005 193.272 244.36C192.936 244.705 192.768 245.181 192.768 245.788V249.666H191.62ZM200.435 249.666L204.789 239.796H205.769L210.123 249.666H208.933L207.841 247.146H202.703L201.625 249.666H200.435ZM205.265 241.14L203.123 246.18H207.435L205.293 241.14H205.265ZM212.086 249.666V239.796H213.234V249.666H212.086ZM222.84 249.792C222.037 249.792 221.435 249.582 221.034 249.162C220.633 248.732 220.432 248.116 220.432 247.314V243.744H219.102V242.862H220.432V240.776H221.566V242.862H223.722V243.744H221.566V247.202C221.566 247.734 221.678 248.14 221.902 248.42C222.126 248.69 222.49 248.826 222.994 248.826C223.143 248.826 223.293 248.807 223.442 248.77C223.591 248.732 223.727 248.695 223.848 248.658L224.044 249.526C223.923 249.591 223.745 249.652 223.512 249.708C223.279 249.764 223.055 249.792 222.84 249.792ZM228.264 249.792C227.601 249.792 227.027 249.647 226.542 249.358C226.057 249.068 225.679 248.662 225.408 248.14C225.147 247.608 225.016 246.982 225.016 246.264C225.016 245.545 225.147 244.924 225.408 244.402C225.679 243.87 226.057 243.459 226.542 243.17C227.027 242.88 227.601 242.736 228.264 242.736C228.917 242.736 229.487 242.88 229.972 243.17C230.467 243.459 230.845 243.87 231.106 244.402C231.377 244.924 231.512 245.545 231.512 246.264C231.512 246.982 231.377 247.608 231.106 248.14C230.845 248.662 230.467 249.068 229.972 249.358C229.487 249.647 228.917 249.792 228.264 249.792ZM228.264 248.882C228.899 248.882 229.407 248.658 229.79 248.21C230.173 247.752 230.364 247.104 230.364 246.264C230.364 245.414 230.173 244.766 229.79 244.318C229.407 243.87 228.899 243.646 228.264 243.646C227.62 243.646 227.107 243.87 226.724 244.318C226.351 244.766 226.164 245.414 226.164 246.264C226.164 247.104 226.351 247.752 226.724 248.21C227.107 248.658 227.62 248.882 228.264 248.882ZM239.953 249.792C239.486 249.792 239.066 249.703 238.693 249.526C238.329 249.339 238.04 249.087 237.825 248.77C237.61 248.452 237.503 248.098 237.503 247.706C237.503 247.211 237.629 246.819 237.881 246.53C238.142 246.24 238.567 246.035 239.155 245.914C239.752 245.783 240.564 245.718 241.591 245.718H242.039V245.284C242.039 244.705 241.918 244.29 241.675 244.038C241.442 243.776 241.064 243.646 240.541 243.646C240.13 243.646 239.734 243.706 239.351 243.828C238.968 243.94 238.576 244.126 238.175 244.388L237.783 243.562C238.138 243.31 238.567 243.109 239.071 242.96C239.584 242.81 240.074 242.736 240.541 242.736C241.418 242.736 242.067 242.95 242.487 243.38C242.916 243.809 243.131 244.476 243.131 245.382V249.666H242.067V248.49C241.89 248.891 241.614 249.208 241.241 249.442C240.877 249.675 240.448 249.792 239.953 249.792ZM240.135 248.938C240.695 248.938 241.152 248.746 241.507 248.364C241.862 247.972 242.039 247.477 242.039 246.88V246.46H241.605C240.849 246.46 240.252 246.497 239.813 246.572C239.384 246.637 239.08 246.758 238.903 246.936C238.735 247.104 238.651 247.337 238.651 247.636C238.651 248.018 238.782 248.331 239.043 248.574C239.314 248.816 239.678 248.938 240.135 248.938ZM248.619 249.792C247.938 249.792 247.35 249.647 246.855 249.358C246.36 249.059 245.978 248.644 245.707 248.112C245.446 247.57 245.315 246.94 245.315 246.222C245.315 245.139 245.609 244.29 246.197 243.674C246.785 243.048 247.592 242.736 248.619 242.736C249.039 242.736 249.454 242.81 249.865 242.96C250.276 243.109 250.616 243.319 250.887 243.59L250.495 244.416C250.224 244.154 249.926 243.963 249.599 243.842C249.282 243.72 248.978 243.66 248.689 243.66C247.98 243.66 247.434 243.884 247.051 244.332C246.668 244.77 246.477 245.405 246.477 246.236C246.477 247.048 246.668 247.692 247.051 248.168C247.434 248.634 247.98 248.868 248.689 248.868C248.978 248.868 249.282 248.807 249.599 248.686C249.926 248.564 250.224 248.368 250.495 248.098L250.887 248.924C250.616 249.194 250.271 249.409 249.851 249.568C249.44 249.717 249.03 249.792 248.619 249.792ZM255.463 249.792C254.781 249.792 254.193 249.647 253.699 249.358C253.204 249.059 252.821 248.644 252.551 248.112C252.289 247.57 252.159 246.94 252.159 246.222C252.159 245.139 252.453 244.29 253.041 243.674C253.629 243.048 254.436 242.736 255.463 242.736C255.883 242.736 256.298 242.81 256.709 242.96C257.119 243.109 257.46 243.319 257.731 243.59L257.339 244.416C257.068 244.154 256.769 243.963 256.443 243.842C256.125 243.72 255.822 243.66 255.533 243.66C254.823 243.66 254.277 243.884 253.895 244.332C253.512 244.77 253.321 245.405 253.321 246.236C253.321 247.048 253.512 247.692 253.895 248.168C254.277 248.634 254.823 248.868 255.533 248.868C255.822 248.868 256.125 248.807 256.443 248.686C256.769 248.564 257.068 248.368 257.339 248.098L257.731 248.924C257.46 249.194 257.115 249.409 256.695 249.568C256.284 249.717 255.873 249.792 255.463 249.792ZM262.488 249.792C261.415 249.792 260.566 249.479 259.94 248.854C259.315 248.219 259.002 247.36 259.002 246.278C259.002 245.578 259.142 244.962 259.422 244.43C259.702 243.888 260.085 243.473 260.57 243.184C261.065 242.885 261.634 242.736 262.278 242.736C263.202 242.736 263.926 243.034 264.448 243.632C264.971 244.22 265.232 245.032 265.232 246.068V246.502H260.108C260.146 247.276 260.37 247.869 260.78 248.28C261.191 248.681 261.76 248.882 262.488 248.882C262.899 248.882 263.291 248.821 263.664 248.7C264.038 248.569 264.392 248.359 264.728 248.07L265.12 248.868C264.812 249.157 264.42 249.386 263.944 249.554C263.468 249.712 262.983 249.792 262.488 249.792ZM262.306 243.576C261.662 243.576 261.154 243.776 260.78 244.178C260.407 244.579 260.188 245.106 260.122 245.76H264.252C264.224 245.069 264.042 244.532 263.706 244.15C263.38 243.767 262.913 243.576 262.306 243.576ZM269.67 249.792C269.138 249.792 268.634 249.717 268.158 249.568C267.682 249.418 267.29 249.208 266.982 248.938L267.346 248.14C267.682 248.41 268.05 248.611 268.452 248.742C268.862 248.863 269.278 248.924 269.698 248.924C270.23 248.924 270.631 248.826 270.902 248.63C271.172 248.434 271.308 248.168 271.308 247.832C271.308 247.57 271.219 247.365 271.042 247.216C270.864 247.057 270.584 246.936 270.202 246.852L268.928 246.572C267.77 246.32 267.192 245.722 267.192 244.78C267.192 244.164 267.434 243.669 267.92 243.296C268.414 242.922 269.058 242.736 269.852 242.736C270.318 242.736 270.762 242.81 271.182 242.96C271.611 243.1 271.966 243.31 272.246 243.59L271.868 244.388C271.597 244.136 271.28 243.944 270.916 243.814C270.561 243.674 270.206 243.604 269.852 243.604C269.329 243.604 268.932 243.706 268.662 243.912C268.391 244.117 268.256 244.388 268.256 244.724C268.256 245.246 268.601 245.582 269.292 245.732L270.566 245.998C271.163 246.128 271.616 246.338 271.924 246.628C272.232 246.908 272.386 247.29 272.386 247.776C272.386 248.401 272.138 248.896 271.644 249.26C271.149 249.614 270.491 249.792 269.67 249.792ZM276.91 249.792C276.378 249.792 275.874 249.717 275.398 249.568C274.922 249.418 274.53 249.208 274.222 248.938L274.586 248.14C274.922 248.41 275.29 248.611 275.692 248.742C276.102 248.863 276.518 248.924 276.938 248.924C277.47 248.924 277.871 248.826 278.142 248.63C278.412 248.434 278.548 248.168 278.548 247.832C278.548 247.57 278.459 247.365 278.282 247.216C278.104 247.057 277.824 246.936 277.442 246.852L276.168 246.572C275.01 246.32 274.432 245.722 274.432 244.78C274.432 244.164 274.674 243.669 275.16 243.296C275.654 242.922 276.298 242.736 277.092 242.736C277.558 242.736 278.002 242.81 278.422 242.96C278.851 243.1 279.206 243.31 279.486 243.59L279.108 244.388C278.837 244.136 278.52 243.944 278.156 243.814C277.801 243.674 277.446 243.604 277.092 243.604C276.569 243.604 276.172 243.706 275.902 243.912C275.631 244.117 275.496 244.388 275.496 244.724C275.496 245.246 275.841 245.582 276.532 245.732L277.806 245.998C278.403 246.128 278.856 246.338 279.164 246.628C279.472 246.908 279.626 247.29 279.626 247.776C279.626 248.401 279.378 248.896 278.884 249.26C278.389 249.614 277.731 249.792 276.91 249.792ZM286.734 252.186L287.896 249.554L285.026 242.862H286.258L288.512 248.378L290.78 242.862H291.97L287.924 252.186H286.734ZM296.373 249.792C295.711 249.792 295.137 249.647 294.651 249.358C294.166 249.068 293.788 248.662 293.517 248.14C293.256 247.608 293.125 246.982 293.125 246.264C293.125 245.545 293.256 244.924 293.517 244.402C293.788 243.87 294.166 243.459 294.651 243.17C295.137 242.88 295.711 242.736 296.373 242.736C297.027 242.736 297.596 242.88 298.081 243.17C298.576 243.459 298.954 243.87 299.215 244.402C299.486 244.924 299.621 245.545 299.621 246.264C299.621 246.982 299.486 247.608 299.215 248.14C298.954 248.662 298.576 249.068 298.081 249.358C297.596 249.647 297.027 249.792 296.373 249.792ZM296.373 248.882C297.008 248.882 297.517 248.658 297.899 248.21C298.282 247.752 298.473 247.104 298.473 246.264C298.473 245.414 298.282 244.766 297.899 244.318C297.517 243.87 297.008 243.646 296.373 243.646C295.729 243.646 295.216 243.87 294.833 244.318C294.46 244.766 294.273 245.414 294.273 246.264C294.273 247.104 294.46 247.752 294.833 248.21C295.216 248.658 295.729 248.882 296.373 248.882ZM304.233 249.792C302.599 249.792 301.783 248.891 301.783 247.09V242.862H302.917V247.076C302.917 247.682 303.038 248.13 303.281 248.42C303.533 248.709 303.925 248.854 304.457 248.854C305.035 248.854 305.507 248.662 305.871 248.28C306.235 247.888 306.417 247.37 306.417 246.726V242.862H307.551V249.666H306.445V248.518C306.23 248.928 305.927 249.246 305.535 249.47C305.152 249.684 304.718 249.792 304.233 249.792ZM310.172 249.666V242.862H311.278V244.08C311.642 243.258 312.389 242.806 313.518 242.722L313.924 242.68L314.008 243.66L313.294 243.744C312.65 243.8 312.16 244.005 311.824 244.36C311.488 244.705 311.32 245.181 311.32 245.788V249.666H310.172ZM321.928 249.792C321.461 249.792 321.041 249.703 320.668 249.526C320.304 249.339 320.014 249.087 319.8 248.77C319.585 248.452 319.478 248.098 319.478 247.706C319.478 247.211 319.604 246.819 319.856 246.53C320.117 246.24 320.542 246.035 321.13 245.914C321.727 245.783 322.539 245.718 323.566 245.718H324.014V245.284C324.014 244.705 323.892 244.29 323.65 244.038C323.416 243.776 323.038 243.646 322.516 243.646C322.105 243.646 321.708 243.706 321.326 243.828C320.943 243.94 320.551 244.126 320.15 244.388L319.758 243.562C320.112 243.31 320.542 243.109 321.046 242.96C321.559 242.81 322.049 242.736 322.516 242.736C323.393 242.736 324.042 242.95 324.462 243.38C324.891 243.809 325.106 244.476 325.106 245.382V249.666H324.042V248.49C323.864 248.891 323.589 249.208 323.216 249.442C322.852 249.675 322.422 249.792 321.928 249.792ZM322.11 248.938C322.67 248.938 323.127 248.746 323.482 248.364C323.836 247.972 324.014 247.477 324.014 246.88V246.46H323.58C322.824 246.46 322.226 246.497 321.788 246.572C321.358 246.637 321.055 246.758 320.878 246.936C320.71 247.104 320.626 247.337 320.626 247.636C320.626 248.018 320.756 248.331 321.018 248.574C321.288 248.816 321.652 248.938 322.11 248.938ZM330.594 249.792C329.912 249.792 329.324 249.647 328.83 249.358C328.335 249.059 327.952 248.644 327.682 248.112C327.42 247.57 327.29 246.94 327.29 246.222C327.29 245.139 327.584 244.29 328.172 243.674C328.76 243.048 329.567 242.736 330.594 242.736C331.014 242.736 331.429 242.81 331.84 242.96C332.25 243.109 332.591 243.319 332.862 243.59L332.47 244.416C332.199 244.154 331.9 243.963 331.574 243.842C331.256 243.72 330.953 243.66 330.664 243.66C329.954 243.66 329.408 243.884 329.026 244.332C328.643 244.77 328.452 245.405 328.452 246.236C328.452 247.048 328.643 247.692 329.026 248.168C329.408 248.634 329.954 248.868 330.664 248.868C330.953 248.868 331.256 248.807 331.574 248.686C331.9 248.564 332.199 248.368 332.47 248.098L332.862 248.924C332.591 249.194 332.246 249.409 331.826 249.568C331.415 249.717 331.004 249.792 330.594 249.792ZM337.437 249.792C336.756 249.792 336.168 249.647 335.673 249.358C335.179 249.059 334.796 248.644 334.525 248.112C334.264 247.57 334.133 246.94 334.133 246.222C334.133 245.139 334.427 244.29 335.015 243.674C335.603 243.048 336.411 242.736 337.437 242.736C337.857 242.736 338.273 242.81 338.683 242.96C339.094 243.109 339.435 243.319 339.705 243.59L339.313 244.416C339.043 244.154 338.744 243.963 338.417 243.842C338.1 243.72 337.797 243.66 337.507 243.66C336.798 243.66 336.252 243.884 335.869 244.332C335.487 244.77 335.295 245.405 335.295 246.236C335.295 247.048 335.487 247.692 335.869 248.168C336.252 248.634 336.798 248.868 337.507 248.868C337.797 248.868 338.1 248.807 338.417 248.686C338.744 248.564 339.043 248.368 339.313 248.098L339.705 248.924C339.435 249.194 339.089 249.409 338.669 249.568C338.259 249.717 337.848 249.792 337.437 249.792ZM344.225 249.792C343.562 249.792 342.988 249.647 342.503 249.358C342.018 249.068 341.64 248.662 341.369 248.14C341.108 247.608 340.977 246.982 340.977 246.264C340.977 245.545 341.108 244.924 341.369 244.402C341.64 243.87 342.018 243.459 342.503 243.17C342.988 242.88 343.562 242.736 344.225 242.736C344.878 242.736 345.448 242.88 345.933 243.17C346.428 243.459 346.806 243.87 347.067 244.402C347.338 244.924 347.473 245.545 347.473 246.264C347.473 246.982 347.338 247.608 347.067 248.14C346.806 248.662 346.428 249.068 345.933 249.358C345.448 249.647 344.878 249.792 344.225 249.792ZM344.225 248.882C344.86 248.882 345.368 248.658 345.751 248.21C346.134 247.752 346.325 247.104 346.325 246.264C346.325 245.414 346.134 244.766 345.751 244.318C345.368 243.87 344.86 243.646 344.225 243.646C343.581 243.646 343.068 243.87 342.685 244.318C342.312 244.766 342.125 245.414 342.125 246.264C342.125 247.104 342.312 247.752 342.685 248.21C343.068 248.658 343.581 248.882 344.225 248.882ZM352.084 249.792C350.451 249.792 349.634 248.891 349.634 247.09V242.862H350.768V247.076C350.768 247.682 350.89 248.13 351.132 248.42C351.384 248.709 351.776 248.854 352.308 248.854C352.887 248.854 353.358 248.662 353.722 248.28C354.086 247.888 354.268 247.37 354.268 246.726V242.862H355.402V249.666H354.296V248.518C354.082 248.928 353.778 249.246 353.386 249.47C353.004 249.684 352.57 249.792 352.084 249.792ZM358.024 249.666V242.862H359.13V244.024C359.354 243.594 359.671 243.272 360.082 243.058C360.493 242.843 360.955 242.736 361.468 242.736C363.083 242.736 363.89 243.632 363.89 245.424V249.666H362.756V245.494C362.756 244.859 362.63 244.397 362.378 244.108C362.135 243.809 361.743 243.66 361.202 243.66C360.577 243.66 360.077 243.856 359.704 244.248C359.34 244.63 359.158 245.144 359.158 245.788V249.666H358.024ZM369.211 249.792C368.408 249.792 367.806 249.582 367.405 249.162C367.004 248.732 366.803 248.116 366.803 247.314V243.744H365.473V242.862H366.803V240.776H367.937V242.862H370.093V243.744H367.937V247.202C367.937 247.734 368.049 248.14 368.273 248.42C368.497 248.69 368.861 248.826 369.365 248.826C369.514 248.826 369.664 248.807 369.813 248.77C369.962 248.732 370.098 248.695 370.219 248.658L370.415 249.526C370.294 249.591 370.116 249.652 369.883 249.708C369.65 249.764 369.426 249.792 369.211 249.792ZM371.885 249.666V248.238H373.313V249.666H371.885Z" fill="#64748B"/>
<rect x="159" y="276.166" width="101" height="36" rx="9.5" stroke="#302C3C"/>
<path d="M193.148 298.666V288.796H196.634C198.258 288.796 199.509 289.22 200.386 290.07C201.273 290.919 201.716 292.137 201.716 293.724C201.716 295.31 201.273 296.533 200.386 297.392C199.509 298.241 198.258 298.666 196.634 298.666H193.148ZM194.604 297.448H196.55C198.986 297.448 200.204 296.206 200.204 293.724C200.204 291.25 198.986 290.014 196.55 290.014H194.604V297.448ZM207.214 298.792C206.094 298.792 205.212 298.479 204.568 297.854C203.924 297.219 203.602 296.356 203.602 295.264C203.602 294.564 203.742 293.948 204.022 293.416C204.311 292.874 204.708 292.454 205.212 292.156C205.716 291.857 206.294 291.708 206.948 291.708C207.89 291.708 208.632 292.011 209.174 292.618C209.715 293.215 209.986 294.041 209.986 295.096V295.572H204.974C205.076 296.99 205.828 297.7 207.228 297.7C207.62 297.7 208.002 297.639 208.376 297.518C208.758 297.396 209.118 297.196 209.454 296.916L209.874 297.896C209.566 298.176 209.169 298.395 208.684 298.554C208.198 298.712 207.708 298.792 207.214 298.792ZM207.004 292.702C206.416 292.702 205.949 292.884 205.604 293.248C205.258 293.612 205.048 294.097 204.974 294.704H208.796C208.768 294.069 208.6 293.579 208.292 293.234C207.984 292.879 207.554 292.702 207.004 292.702ZM212.027 298.666V291.834H213.399V292.968C213.633 292.557 213.95 292.244 214.351 292.03C214.762 291.815 215.219 291.708 215.723 291.708C217.338 291.708 218.145 292.622 218.145 294.452V298.666H216.731V294.536C216.731 293.948 216.615 293.518 216.381 293.248C216.157 292.977 215.803 292.842 215.317 292.842C214.748 292.842 214.291 293.024 213.945 293.388C213.609 293.742 213.441 294.214 213.441 294.802V298.666H212.027ZM221.225 301.186L222.443 298.484L219.587 291.834H221.099L223.199 297.028L225.327 291.834H226.783L222.709 301.186H221.225Z" fill="white"/>
<rect x="272.5" y="275.666" width="102" height="37" rx="10" fill="#032125"/>
<path d="M294.654 298.666L299.05 288.796H300.254L304.664 298.666H303.18L302.144 296.258H297.146L296.124 298.666H294.654ZM299.638 290.406L297.664 295.082H301.654L299.666 290.406H299.638ZM306.303 301.186V291.834H307.689V292.996C307.885 292.604 308.183 292.291 308.585 292.058C308.986 291.824 309.448 291.708 309.971 291.708C310.577 291.708 311.105 291.852 311.553 292.142C312.01 292.431 312.36 292.842 312.603 293.374C312.855 293.896 312.981 294.522 312.981 295.25C312.981 295.978 312.855 296.608 312.603 297.14C312.36 297.672 312.01 298.082 311.553 298.372C311.105 298.652 310.577 298.792 309.971 298.792C309.467 298.792 309.014 298.684 308.613 298.47C308.221 298.246 307.922 297.942 307.717 297.56V301.186H306.303ZM309.621 297.7C310.209 297.7 310.675 297.49 311.021 297.07C311.375 296.65 311.553 296.043 311.553 295.25C311.553 294.456 311.375 293.854 311.021 293.444C310.675 293.024 310.209 292.814 309.621 292.814C309.033 292.814 308.561 293.024 308.207 293.444C307.861 293.854 307.689 294.456 307.689 295.25C307.689 296.043 307.861 296.65 308.207 297.07C308.561 297.49 309.033 297.7 309.621 297.7ZM315.074 301.186V291.834H316.46V292.996C316.656 292.604 316.955 292.291 317.356 292.058C317.757 291.824 318.219 291.708 318.742 291.708C319.349 291.708 319.876 291.852 320.324 292.142C320.781 292.431 321.131 292.842 321.374 293.374C321.626 293.896 321.752 294.522 321.752 295.25C321.752 295.978 321.626 296.608 321.374 297.14C321.131 297.672 320.781 298.082 320.324 298.372C319.876 298.652 319.349 298.792 318.742 298.792C318.238 298.792 317.785 298.684 317.384 298.47C316.992 298.246 316.693 297.942 316.488 297.56V301.186H315.074ZM318.392 297.7C318.98 297.7 319.447 297.49 319.792 297.07C320.147 296.65 320.324 296.043 320.324 295.25C320.324 294.456 320.147 293.854 319.792 293.444C319.447 293.024 318.98 292.814 318.392 292.814C317.804 292.814 317.333 293.024 316.978 293.444C316.633 293.854 316.46 294.456 316.46 295.25C316.46 296.043 316.633 296.65 316.978 297.07C317.333 297.49 317.804 297.7 318.392 297.7ZM323.846 298.666V291.834H325.218V293.052C325.572 292.24 326.31 291.787 327.43 291.694L327.892 291.666L327.99 292.87L327.136 292.954C325.894 293.075 325.274 293.714 325.274 294.872V298.666H323.846ZM332.441 298.792C331.75 298.792 331.153 298.647 330.649 298.358C330.145 298.068 329.753 297.662 329.473 297.14C329.202 296.608 329.067 295.978 329.067 295.25C329.067 294.522 329.202 293.896 329.473 293.374C329.753 292.842 330.145 292.431 330.649 292.142C331.153 291.852 331.75 291.708 332.441 291.708C333.113 291.708 333.701 291.852 334.205 292.142C334.709 292.431 335.101 292.842 335.381 293.374C335.661 293.896 335.801 294.522 335.801 295.25C335.801 295.978 335.661 296.608 335.381 297.14C335.101 297.662 334.709 298.068 334.205 298.358C333.701 298.647 333.113 298.792 332.441 298.792ZM332.441 297.7C333.019 297.7 333.486 297.49 333.841 297.07C334.195 296.65 334.373 296.043 334.373 295.25C334.373 294.456 334.195 293.854 333.841 293.444C333.486 293.024 333.019 292.814 332.441 292.814C331.853 292.814 331.381 293.024 331.027 293.444C330.672 293.854 330.495 294.456 330.495 295.25C330.495 296.043 330.672 296.65 331.027 297.07C331.381 297.49 331.853 297.7 332.441 297.7ZM339.767 298.666L336.827 291.834H338.353L340.439 297.028L342.581 291.834H344.023L341.041 298.666H339.767ZM348.622 298.792C347.502 298.792 346.62 298.479 345.976 297.854C345.332 297.219 345.01 296.356 345.01 295.264C345.01 294.564 345.15 293.948 345.43 293.416C345.719 292.874 346.116 292.454 346.62 292.156C347.124 291.857 347.703 291.708 348.356 291.708C349.299 291.708 350.041 292.011 350.582 292.618C351.123 293.215 351.394 294.041 351.394 295.096V295.572H346.382C346.485 296.99 347.236 297.7 348.636 297.7C349.028 297.7 349.411 297.639 349.784 297.518C350.167 297.396 350.526 297.196 350.862 296.916L351.282 297.896C350.974 298.176 350.577 298.395 350.092 298.554C349.607 298.712 349.117 298.792 348.622 298.792ZM348.412 292.702C347.824 292.702 347.357 292.884 347.012 293.248C346.667 293.612 346.457 294.097 346.382 294.704H350.204C350.176 294.069 350.008 293.579 349.7 293.234C349.392 292.879 348.963 292.702 348.412 292.702Z" fill="#392C4C"/>
<defs>
<filter id="filter0_d_223_5462" x="199.999" y="179.765" width="18.0016" height="18.0001" filterUnits="userSpaceOnUse" color-interpolation-filters="sRGB">
<feFlood flood-opacity="0" result="BackgroundImageFix"/>
<feColorMatrix in="SourceAlpha" type="matrix" values="0 0 0 0 0 0 0 0 0 0 0 0 0 0 0 0 0 0 127 0" result="hardAlpha"/>
<feOffset dy="0.6"/>
<feGaussianBlur stdDeviation="0.6"/>
<feComposite in2="hardAlpha" operator="out"/>
<feColorMatrix type="matrix" values="0 0 0 0 0.901667 0 0 0 0 0.901667 0 0 0 0 0.901667 0 0 0 0.54 0"/>
<feBlend mode="normal" in2="BackgroundImageFix" result="effect1_dropShadow_223_5462"/>
<feBlend mode="normal" in="SourceGraphic" in2="effect1_dropShadow_223_5462" result="shape"/>
</filter>
<linearGradient id="paint0_linear_223_5462" x1="231.472" y1="41.9716" x2="218.812" y2="57.4826" gradientUnits="userSpaceOnUse">
<stop stop-color="#AE3DAE"/>
<stop offset="0.0468721" stop-color="#B23BA6"/>
<stop offset="0.1216" stop-color="#BD368E"/>
<stop offset="0.2148" stop-color="#CE2E69"/>
<stop offset="0.3216" stop-color="#E62335"/>
<stop offset="0.418" stop-color="#FF1800"/>
</linearGradient>
<linearGradient id="paint1_linear_223_5462" x1="227.568" y1="45.7762" x2="222.969" y2="53.5042" gradientUnits="userSpaceOnUse">
<stop stop-color="#E12F6A"/>
<stop offset="0.1705" stop-color="#EA3751"/>
<stop offset="0.3563" stop-color="#F13D3E"/>
<stop offset="0.5467" stop-color="#F64133"/>
<stop offset="0.7469" stop-color="#F7422F"/>
<stop offset="0.7946" stop-color="#F74C2F"/>
<stop offset="0.8743" stop-color="#F7652F"/>
<stop offset="0.9757" stop-color="#F78F2E"/>
<stop offset="1" stop-color="#F79A2E"/>
</linearGradient>
<linearGradient id="paint2_linear_223_5462" x1="229.387" y1="39.913" x2="221.64" y2="58.3786" gradientUnits="userSpaceOnUse">
<stop offset="0.2341" stop-color="#9E35A5" stop-opacity="0"/>
<stop offset="0.4512" stop-color="#D42F7F" stop-opacity="0.5"/>
<stop offset="0.7524" stop-color="#F7772E"/>
<stop offset="0.9624" stop-color="#FEF780"/>
</linearGradient>
</defs>
</svg>
