<svg width="20" height="20" viewBox="0 0 20 20" fill="none" xmlns="http://www.w3.org/2000/svg">
<path d="M18.25 0.25H1.75C1.35218 0.25 0.970644 0.408035 0.68934 0.68934C0.408035 0.970644 0.25 1.35218 0.25 1.75V18.25C0.25 18.6478 0.408035 19.0294 0.68934 19.3107C0.970644 19.592 1.35218 19.75 1.75 19.75H18.25C18.6478 19.75 19.0294 19.592 19.3107 19.3107C19.592 19.0294 19.75 18.6478 19.75 18.25V1.75C19.75 1.35218 19.592 0.970644 19.3107 0.68934C19.0294 0.408035 18.6478 0.25 18.25 0.25ZM18.25 18.25H1.75V1.75H18.25V18.25ZM7 8.5V14.5C7 14.6989 6.92098 14.8897 6.78033 15.0303C6.63968 15.171 6.44891 15.25 6.25 15.25C6.05109 15.25 5.86032 15.171 5.71967 15.0303C5.57902 14.8897 5.5 14.6989 5.5 14.5V8.5C5.5 8.30109 5.57902 8.11032 5.71967 7.96967C5.86032 7.82902 6.05109 7.75 6.25 7.75C6.44891 7.75 6.63968 7.82902 6.78033 7.96967C6.92098 8.11032 7 8.30109 7 8.5ZM15.25 11.125V14.5C15.25 14.6989 15.171 14.8897 15.0303 15.0303C14.8897 15.171 14.6989 15.25 14.5 15.25C14.3011 15.25 14.1103 15.171 13.9697 15.0303C13.829 14.8897 13.75 14.6989 13.75 14.5V11.125C13.75 10.6277 13.5525 10.1508 13.2008 9.79918C12.8492 9.44754 12.3723 9.25 11.875 9.25C11.3777 9.25 10.9008 9.44754 10.5492 9.79918C10.1975 10.1508 10 10.6277 10 11.125V14.5C10 14.6989 9.92098 14.8897 9.78033 15.0303C9.63968 15.171 9.44891 15.25 9.25 15.25C9.05109 15.25 8.86032 15.171 8.71967 15.0303C8.57902 14.8897 8.5 14.6989 8.5 14.5V8.5C8.50093 8.31629 8.56925 8.13931 8.69201 8.00264C8.81477 7.86596 8.98342 7.7791 9.16598 7.75852C9.34853 7.73794 9.53229 7.78508 9.68239 7.891C9.8325 7.99691 9.93851 8.15423 9.98031 8.33313C10.4877 7.98894 11.0792 7.78947 11.6914 7.75611C12.3036 7.72276 12.9133 7.85679 13.455 8.14381C13.9968 8.43083 14.4501 8.86 14.7664 9.38523C15.0826 9.91046 15.2498 10.5119 15.25 11.125ZM7.375 5.875C7.375 6.0975 7.30902 6.31501 7.1854 6.50002C7.06179 6.68502 6.88609 6.82922 6.68052 6.91436C6.47495 6.99951 6.24875 7.02179 6.03052 6.97838C5.81229 6.93498 5.61184 6.82783 5.4545 6.6705C5.29717 6.51316 5.19002 6.31271 5.14662 6.09448C5.10321 5.87625 5.12549 5.65005 5.21064 5.44448C5.29578 5.23891 5.43998 5.06321 5.62498 4.9396C5.80999 4.81598 6.0275 4.75 6.25 4.75C6.54837 4.75 6.83452 4.86853 7.0455 5.0795C7.25647 5.29048 7.375 5.57663 7.375 5.875Z" fill="#FAFAFA"/>
</svg>
