<svg width="40" height="40" viewBox="0 0 40 40" fill="none" xmlns="http://www.w3.org/2000/svg">
<path fill-rule="evenodd" clip-rule="evenodd" d="M8.26609 15.376L0 8.4798L12.0657 1L20 7.37185L27.9343 1L40 8.4798L32.0148 15.1378L39.0897 20.7896L27.1642 28.547L20.2802 22.8606L12.8363 29.01L0.912593 21.2531L8.26609 15.376ZM20.2119 22.8041L19.7101 22.3897L31.3687 15.1399L20 7.79198L8.26924 15.3747L20.2119 22.8041ZM32.4947 28.8701V30.7766L19.7256 38.779L6.95652 30.7779V28.8723L11.9136 32.1013C12.0709 32.2038 12.2495 32.253 12.4303 32.253C12.6431 32.253 12.8591 32.1767 13.0322 32.0336L19.7256 26.5072L26.419 32.0309C26.5926 32.1767 26.8054 32.2507 27.0209 32.2507C27.2017 32.2507 27.3803 32.2015 27.5372 32.099L32.4947 28.8701Z" fill="#005CFF"/>
</svg>
