<svg width="40" height="40" viewBox="0 0 40 40" fill="none" xmlns="http://www.w3.org/2000/svg">
<path d="M40.0004 20.4598C40.0004 19.1003 39.8879 17.7334 39.648 16.396H20.4033V24.0974H31.4238C30.9665 26.5812 29.4971 28.7785 27.3455 30.1747V35.1718H33.9203C37.7813 31.6885 40.0004 26.5445 40.0004 20.4598Z" fill="#4285F4"/>
<path d="M20.4025 40C25.9053 40 30.5459 38.229 33.927 35.172L27.3522 30.1749C25.5229 31.3948 23.1614 32.0855 20.41 32.0855C15.0872 32.0855 10.574 28.5655 8.95467 23.833H2.16992V28.9844C5.63351 35.7378 12.6881 40 20.4025 40Z" fill="#34A853"/>
<path d="M8.94761 23.8331C8.09296 21.3493 8.09296 18.6597 8.94761 16.1758V11.0244H2.17037C-0.723456 16.6755 -0.723456 23.3334 2.17037 28.9845L8.94761 23.8331Z" fill="#FBBC04"/>
<path d="M20.4025 7.91583C23.3113 7.87174 26.1227 8.94464 28.2293 10.9141L34.0545 5.20419C30.366 1.80911 25.4705 -0.0574414 20.4025 0.00134773C12.6881 0.00134773 5.63351 4.26356 2.16992 11.0243L8.94717 16.1757C10.559 11.4358 15.0797 7.91583 20.4025 7.91583Z" fill="#EA4335"/>
</svg>
