<svg width="40" height="40" viewBox="0 0 40 40" fill="none" xmlns="http://www.w3.org/2000/svg">
<path fill-rule="evenodd" clip-rule="evenodd" d="M10.6666 3.99987C10.6666 1.79108 12.4572 0 14.6664 0C16.8777 0.00221357 18.6686 1.79291 18.6668 3.99987V7.99973H14.6664C13.6045 7.99867 12.5865 7.57666 11.8364 6.82654C11.0864 6.07642 10.6656 5.05963 10.6666 3.99987ZM3.99973 10.6663H14.6664C16.8755 10.6663 18.6668 12.4574 18.6668 14.6668C18.6668 16.8756 16.8755 18.6667 14.667 18.6667H3.99973C1.7906 18.6667 0 16.8756 0 14.6668C0 12.4574 1.7906 10.6663 3.99973 10.6663Z" fill="#36C5F0"/>
<path fill-rule="evenodd" clip-rule="evenodd" d="M29.3331 3.99987V14.6668V14.6675C29.335 16.8745 27.5441 18.6652 25.3327 18.6674C23.1236 18.6674 21.333 16.8763 21.333 14.6662V3.99987C21.333 1.79108 23.1236 0 25.3327 0C27.5441 0.00221357 29.335 1.79291 29.3331 3.99987ZM35.9994 10.6663C38.2085 10.6663 39.9998 12.4574 39.9998 14.6668C40.0016 16.8738 38.2107 18.6645 35.9994 18.6667H31.9996V14.6668C31.9996 12.4574 33.7902 10.6663 35.9994 10.6663Z" fill="#2EB67D"/>
<path fill-rule="evenodd" clip-rule="evenodd" d="M36 29.3339H25.3327V29.3332C24.2709 29.3322 23.2529 28.9102 22.5028 28.16C21.7527 27.4099 21.3319 26.3931 21.333 25.3334C21.333 23.1246 23.1236 21.3335 25.3327 21.3335H35.9994C38.2107 21.3357 40.0016 23.1264 39.9998 25.3334C39.9998 27.5428 38.2085 29.3339 36 29.3339ZM29.3331 36.0003C29.335 38.2073 27.5441 39.998 25.3327 40.0002C23.1236 40.0002 21.333 38.2091 21.333 36.0003V32.0005H25.3327C27.5441 32.0027 29.335 33.7934 29.3331 36.0003Z" fill="#ECB22E"/>
<path fill-rule="evenodd" clip-rule="evenodd" d="M1.16983 28.16C0.419736 27.4099 -0.0010641 26.3931 2.02089e-06 25.3334C2.02089e-06 23.1246 1.79061 21.3335 3.99973 21.3335H8.00013V25.3334C8.00198 27.5403 6.21105 29.331 3.99973 29.3332C2.93787 29.3322 1.91993 28.9102 1.16983 28.16ZM10.6666 35.9997V25.3334C10.6666 23.1246 12.4572 21.3335 14.6664 21.3335C15.7283 21.3344 16.7464 21.7563 17.4967 22.5065C18.2469 23.2566 18.6678 24.2735 18.6668 25.3334V36.0003C18.6686 38.2073 16.8777 39.998 14.6664 40.0002C12.4572 40.0002 10.6666 38.2091 10.6666 35.9997Z" fill="#E01E5A"/>
</svg>
