<svg width="222" height="204" viewBox="0 0 222 204" fill="none" xmlns="http://www.w3.org/2000/svg">
<g id="noun-new-project-4147387 1">
<g id="New Project, New, Project, Start">
<path id="Vector" d="M183.359 95.3814C183.039 94.9907 182.637 94.6759 182.181 94.4599C181.725 94.2439 181.227 94.1321 180.722 94.1327H173.438V77.0664C173.438 76.1464 173.073 75.2641 172.422 74.6136C171.771 73.9631 170.889 73.5977 169.969 73.5977H52.0317C51.1118 73.5977 50.2295 73.9631 49.579 74.6136C48.9284 75.2641 48.563 76.1464 48.563 77.0664V94.4102H41.6255C41.1209 94.4096 40.6226 94.5214 40.1666 94.7374C39.7106 94.9534 39.3084 95.2682 38.9892 95.6589C38.649 96.0421 38.3979 96.4959 38.2539 96.9877C38.11 97.4795 38.0768 97.9971 38.1567 98.5033L52.0317 182.239C52.2828 182.951 52.7548 183.563 53.3789 183.988C54.0029 184.412 54.7463 184.626 55.5005 184.598H166.5C167.328 184.594 168.129 184.301 168.762 183.769C169.396 183.236 169.823 182.499 169.969 181.684L183.844 97.9483C184.023 97.0621 183.849 96.1411 183.359 95.3814ZM55.5005 80.5352H166.5V94.4102H55.5005V80.5352ZM163.864 177.66H58.1367L45.3717 101.348H176.629L163.864 177.66Z" fill="#6CF3B1"/>
<path id="Vector_2" d="M55.498 45.8477C58.2423 45.8477 60.9249 45.0339 63.2066 43.5093C65.4883 41.9847 67.2667 39.8177 68.3169 37.2824C69.367 34.7471 69.6418 31.9573 69.1064 29.2658C68.5711 26.5743 67.2496 24.102 65.3092 22.1616C63.3687 20.2211 60.8964 18.8996 58.2049 18.3643C55.5134 17.8289 52.7236 18.1037 50.1883 19.1538C47.653 20.204 45.486 21.9824 43.9614 24.2641C42.4368 26.5459 41.623 29.2284 41.623 31.9727C41.623 35.6525 43.0849 39.1817 45.6869 41.7838C48.289 44.3858 51.8182 45.8477 55.498 45.8477ZM55.498 25.0352C56.8702 25.0352 58.2115 25.442 59.3523 26.2043C60.4932 26.9666 61.3824 28.0501 61.9075 29.3178C62.4325 30.5855 62.5699 31.9804 62.3022 33.3261C62.0346 34.6718 61.3738 35.908 60.4036 36.8782C59.4334 37.8484 58.1972 38.5092 56.8515 38.7769C55.5057 39.0445 54.1108 38.9072 52.8432 38.3821C51.5755 37.857 50.492 36.9678 49.7297 35.8269C48.9674 34.6861 48.5605 33.3448 48.5605 31.9727C48.5605 30.1327 49.2915 28.3681 50.5925 27.0671C51.8935 25.7661 53.6581 25.0352 55.498 25.0352Z" fill="#6CF3B1"/>
<path id="Vector_3" d="M163.029 45.8477H166.498V49.3164C166.498 50.2364 166.864 51.1187 167.514 51.7692C168.165 52.4197 169.047 52.7852 169.967 52.7852C170.887 52.7852 171.769 52.4197 172.42 51.7692C173.07 51.1187 173.436 50.2364 173.436 49.3164V45.8477H176.904C177.824 45.8477 178.707 45.4822 179.357 44.8317C180.008 44.1812 180.373 43.2989 180.373 42.3789C180.373 41.4589 180.008 40.5766 179.357 39.9261C178.707 39.2756 177.824 38.9102 176.904 38.9102H173.436V35.4414C173.436 34.5214 173.07 33.6391 172.42 32.9886C171.769 32.3381 170.887 31.9727 169.967 31.9727C169.047 31.9727 168.165 32.3381 167.514 32.9886C166.864 33.6391 166.498 34.5214 166.498 35.4414V38.9102H163.029C162.109 38.9102 161.227 39.2756 160.577 39.9261C159.926 40.5766 159.561 41.4589 159.561 42.3789C159.561 43.2989 159.926 44.1812 160.577 44.8317C161.227 45.4822 162.109 45.8477 163.029 45.8477Z" fill="#6CF3B1"/>
<path id="Vector_4" d="M106.077 57.7095C106.745 58.3337 107.625 58.681 108.54 58.681C109.454 58.681 110.334 58.3337 111.003 57.7095L120.368 48.2745C120.7 47.9631 120.964 47.5869 121.145 47.1693C121.326 46.7517 121.419 46.3014 121.419 45.8463C121.419 45.3913 121.326 44.941 121.145 44.5234C120.964 44.1058 120.7 43.7296 120.368 43.4182L111.003 33.9832C110.342 33.3432 109.459 32.9854 108.54 32.9854C107.62 32.9854 106.737 33.3432 106.077 33.9832L96.7113 43.4182C96.3795 43.7296 96.115 44.1058 95.9342 44.5234C95.7534 44.941 95.6602 45.3913 95.6602 45.8463C95.6602 46.3014 95.7534 46.7517 95.9342 47.1693C96.115 47.5869 96.3795 47.9631 96.7113 48.2745L106.077 57.7095ZM108.574 41.337L113.014 45.8463L108.574 50.3557L104.065 45.8463L108.574 41.337Z" fill="#6CF3B1"/>
<path id="Vector_5" d="M74.8537 127.781C75.8201 126.461 77.0838 125.389 78.5422 124.649C80.0007 123.91 81.6129 123.524 83.2481 123.524C84.8833 123.524 86.4955 123.91 87.9539 124.649C89.4124 125.389 90.676 126.461 91.6424 127.781C91.9583 128.197 92.3678 128.534 92.8378 128.763C93.3079 128.992 93.8253 129.107 94.3481 129.099C95.1296 129.089 95.8858 128.82 96.4987 128.336C97.2134 127.763 97.6729 126.932 97.7768 126.022C97.8808 125.112 97.6209 124.198 97.0537 123.479C95.4297 121.338 93.332 119.601 90.9248 118.405C88.5177 117.21 85.8664 116.588 83.1787 116.588C80.491 116.588 77.8397 117.21 75.4326 118.405C73.0254 119.601 70.9277 121.338 69.3037 123.479C68.974 123.829 68.7204 124.243 68.559 124.695C68.3977 125.147 68.332 125.628 68.3662 126.108C68.4005 126.587 68.5338 127.053 68.7579 127.478C68.9819 127.903 69.2917 128.277 69.6678 128.576C70.0438 128.875 70.4778 129.092 70.9422 129.215C71.4067 129.337 71.8915 129.362 72.366 129.287C72.8405 129.212 73.2943 129.04 73.6986 128.78C74.103 128.521 74.449 128.181 74.7149 127.781H74.8537Z" fill="#6CF3B1"/>
<path id="Vector_6" d="M130.354 127.781C131.32 126.461 132.584 125.389 134.042 124.649C135.501 123.91 137.113 123.524 138.748 123.524C140.383 123.524 141.995 123.91 143.454 124.649C144.912 125.389 146.176 126.461 147.142 127.781C147.458 128.197 147.868 128.534 148.338 128.763C148.808 128.992 149.325 129.107 149.848 129.099C150.63 129.089 151.386 128.82 151.999 128.336C152.713 127.763 153.173 126.932 153.277 126.022C153.381 125.112 153.121 124.198 152.554 123.479C150.93 121.338 148.832 119.601 146.425 118.405C144.018 117.21 141.366 116.588 138.679 116.588C135.991 116.588 133.34 117.21 130.933 118.405C128.525 119.601 126.428 121.338 124.804 123.479C124.474 123.829 124.22 124.243 124.059 124.695C123.898 125.147 123.832 125.628 123.866 126.108C123.9 126.587 124.034 127.053 124.258 127.478C124.482 127.903 124.792 128.277 125.168 128.576C125.544 128.875 125.978 129.092 126.442 129.215C126.907 129.337 127.392 129.362 127.866 129.287C128.341 129.212 128.794 129.04 129.199 128.78C129.603 128.521 129.949 128.181 130.215 127.781H130.354Z" fill="#6CF3B1"/>
<path id="Vector_7" d="M135.005 142.973H86.9973C86.5003 142.977 86.0096 143.084 85.556 143.287C85.1023 143.49 84.6955 143.784 84.361 144.152C84.0416 144.534 83.8031 144.977 83.6599 145.454C83.5168 145.931 83.4721 146.432 83.5285 146.927C84.4711 153.542 87.7686 159.594 92.8154 163.973C97.8623 168.352 104.319 170.762 111.001 170.762C117.683 170.762 124.14 168.352 129.187 163.973C134.233 159.594 137.531 153.542 138.474 146.927C138.53 146.432 138.485 145.931 138.342 145.454C138.199 144.977 137.961 144.534 137.641 144.152C137.307 143.784 136.9 143.49 136.446 143.287C135.992 143.084 135.502 142.977 135.005 142.973ZM111.001 163.785C106.707 163.773 102.522 162.433 99.0195 159.949C95.517 157.465 92.8686 153.959 91.4373 149.91H130.565C129.133 153.959 126.485 157.465 122.983 159.949C119.48 162.433 115.295 163.773 111.001 163.785Z" fill="#6CF3B1"/>
</g>
</g>
</svg>
