<svg width="21" height="20" viewBox="0 0 21 20" fill="none" xmlns="http://www.w3.org/2000/svg">
<path d="M11.9998 8.33333L10.3332 9.16667M10.3332 9.16667L8.6665 8.33333M10.3332 9.16667V11.25M16.9998 5.83333L15.3332 6.66667M16.9998 5.83333L15.3332 5M16.9998 5.83333V7.91667M11.9998 3.33333L10.3332 2.5L8.6665 3.33333M3.6665 5.83333L5.33317 5M3.6665 5.83333L5.33317 6.66667M3.6665 5.83333V7.91667M10.3332 17.5L8.6665 16.6667M10.3332 17.5L11.9998 16.6667M10.3332 17.5V15.4167M5.33317 15L3.6665 14.1667V12.0833M15.3332 15L16.9998 14.1667V12.0833" stroke="#001938" stroke-width="1.5" stroke-linecap="round" stroke-linejoin="round"/>
</svg>
