<svg width="25" height="25" viewBox="0 0 25 25" fill="none" xmlns="http://www.w3.org/2000/svg">
<g clip-path="url(#clip0_274_25837)">
<path fill-rule="evenodd" clip-rule="evenodd" d="M12.7982 0.744904C6.18231 0.744904 0.833984 6.13266 0.833984 12.798C0.833984 18.126 4.26084 22.6361 9.0148 24.2323C9.60917 24.3523 9.82688 23.973 9.82688 23.6539C9.82688 23.3745 9.80729 22.4167 9.80729 21.4187C6.47913 22.1372 5.78607 19.9819 5.78607 19.9819C5.25121 18.585 4.45872 18.226 4.45872 18.226C3.36941 17.4876 4.53807 17.4876 4.53807 17.4876C5.74639 17.5674 6.38043 18.7248 6.38043 18.7248C7.4499 20.5606 9.17325 20.0419 9.86656 19.7225C9.96549 18.9443 10.2826 18.4055 10.6194 18.1062C7.96492 17.8268 5.17211 16.7891 5.17211 12.1594C5.17211 10.8423 5.64721 9.76474 6.40003 8.9267C6.28125 8.62743 5.86517 7.38997 6.51905 5.73372C6.51905 5.73372 7.52925 5.41437 9.80705 6.97094C10.7823 6.70711 11.788 6.57289 12.7982 6.57176C13.8084 6.57176 14.8382 6.7116 15.7892 6.97094C18.0672 5.41437 19.0774 5.73372 19.0774 5.73372C19.7313 7.38997 19.315 8.62743 19.1962 8.9267C19.9688 9.76474 20.4244 10.8423 20.4244 12.1594C20.4244 16.7891 17.6315 17.8067 14.9572 18.1062C15.3932 18.4853 15.7693 19.2036 15.7693 20.3411C15.7693 21.9575 15.7497 23.2547 15.7497 23.6536C15.7497 23.973 15.9677 24.3523 16.5618 24.2326C21.3158 22.6358 24.7426 18.126 24.7426 12.798C24.7622 6.13266 19.3943 0.744904 12.7982 0.744904Z" fill="#24292F"/>
</g>
<defs>
<clipPath id="clip0_274_25837">
<rect width="24" height="23.5102" fill="white" transform="translate(0.833984 0.744904)"/>
</clipPath>
</defs>
</svg>
