<svg width="18" height="18" viewBox="0 0 18 18" fill="none" xmlns="http://www.w3.org/2000/svg">
<path fill-rule="evenodd" clip-rule="evenodd" d="M8.99981 0.041748C7.28695 0.041748 5.64425 0.722178 4.43308 1.93335C3.22191 3.14452 2.54148 4.78722 2.54148 6.50008V7.08675C2.54143 7.66749 2.36948 8.23523 2.04731 8.71841L1.09148 10.1542C-0.0201907 11.8209 0.828143 14.0859 2.76064 14.6126C3.38981 14.7842 4.02481 14.9292 4.66398 15.0484L4.66564 15.0526C5.30564 16.7626 7.01814 17.9584 8.99981 17.9584C10.9815 17.9584 12.694 16.7626 13.3348 15.0526L13.3365 15.0484C13.9766 14.9293 14.6116 14.7839 15.2398 14.6126C17.1723 14.0859 18.0206 11.8209 16.909 10.1542L15.9523 8.71841C15.6301 8.23523 15.4582 7.66749 15.4581 7.08675V6.50008C15.4581 4.78722 14.7777 3.14452 13.5665 1.93335C12.3554 0.722178 10.7127 0.041748 8.99981 0.041748ZM11.8131 15.2809C9.94396 15.5043 8.05483 15.5043 6.18564 15.2809C6.77814 16.1317 7.80898 16.7084 8.99981 16.7084C10.1906 16.7084 11.2206 16.1317 11.8131 15.2809ZM3.79148 6.50008C3.79148 5.11874 4.34021 3.79398 5.31696 2.81723C6.29371 1.84048 7.61847 1.29175 8.99981 1.29175C10.3811 1.29175 11.7059 1.84048 12.6827 2.81723C13.6594 3.79398 14.2081 5.11874 14.2081 6.50008V7.08675C14.2081 7.91425 14.4531 8.72341 14.9123 9.41175L15.869 10.8476C16.0172 11.0696 16.1105 11.3237 16.1412 11.5888C16.1719 11.854 16.1391 12.1227 16.0455 12.3727C15.9519 12.6227 15.8001 12.8468 15.6028 13.0266C15.4055 13.2064 15.1682 13.3367 14.9106 13.4067C11.0405 14.4622 6.9583 14.4622 3.08814 13.4067C2.83078 13.3365 2.59379 13.2061 2.39667 13.0264C2.19956 12.8466 2.04797 12.6226 1.95439 12.3728C1.86081 12.123 1.82791 11.8545 1.85841 11.5895C1.88891 11.3244 1.98193 11.0704 2.12981 10.8484L3.08814 9.41175C3.54693 8.72315 3.79165 7.91418 3.79148 7.08675V6.50008Z" fill="#0D062D"/>
</svg>
