<svg width="20" height="20" viewBox="0 0 20 20" fill="none" xmlns="http://www.w3.org/2000/svg">
<path d="M2 9.79483C2 6.70067 2 5.15318 2.9376 4.19236C3.8744 3.23071 5.3832 3.23071 8.4 3.23071H11.6C14.6168 3.23071 16.1256 3.23071 17.0624 4.19236C18 5.15318 18 6.70067 18 9.79483V11.4359C18 14.53 18 16.0775 17.0624 17.0383C16.1256 18 14.6168 18 11.6 18H8.4C5.3832 18 3.8744 18 2.9376 17.0383C2 16.0775 2 14.53 2 11.4359V9.79483Z" stroke="black" stroke-width="1.37144"/>
<path d="M5.9999 3.23077V2M13.9999 3.23077V2M2.3999 7.33334H17.5999" stroke="black" stroke-width="1.37144" stroke-linecap="round"/>
<path d="M14.8004 13.8975C14.8004 14.1151 14.7162 14.3238 14.5661 14.4777C14.4161 14.6316 14.2126 14.718 14.0004 14.718C13.7883 14.718 13.5848 14.6316 13.4348 14.4777C13.2847 14.3238 13.2004 14.1151 13.2004 13.8975C13.2004 13.6799 13.2847 13.4712 13.4348 13.3173C13.5848 13.1634 13.7883 13.077 14.0004 13.077C14.2126 13.077 14.4161 13.1634 14.5661 13.3173C14.7162 13.4712 14.8004 13.6799 14.8004 13.8975ZM14.8004 10.6154C14.8004 10.8331 14.7162 11.0418 14.5661 11.1956C14.4161 11.3495 14.2126 11.436 14.0004 11.436C13.7883 11.436 13.5848 11.3495 13.4348 11.1956C13.2847 11.0418 13.2004 10.8331 13.2004 10.6154C13.2004 10.3978 13.2847 10.1891 13.4348 10.0352C13.5848 9.88137 13.7883 9.79492 14.0004 9.79492C14.2126 9.79492 14.4161 9.88137 14.5661 10.0352C14.7162 10.1891 14.8004 10.3978 14.8004 10.6154ZM10.8004 13.8975C10.8004 14.1151 10.7162 14.3238 10.5661 14.4777C10.4161 14.6316 10.2126 14.718 10.0004 14.718C9.78827 14.718 9.58478 14.6316 9.43475 14.4777C9.28473 14.3238 9.20044 14.1151 9.20044 13.8975C9.20044 13.6799 9.28473 13.4712 9.43475 13.3173C9.58478 13.1634 9.78827 13.077 10.0004 13.077C10.2126 13.077 10.4161 13.1634 10.5661 13.3173C10.7162 13.4712 10.8004 13.6799 10.8004 13.8975ZM10.8004 10.6154C10.8004 10.8331 10.7162 11.0418 10.5661 11.1956C10.4161 11.3495 10.2126 11.436 10.0004 11.436C9.78827 11.436 9.58478 11.3495 9.43475 11.1956C9.28473 11.0418 9.20044 10.8331 9.20044 10.6154C9.20044 10.3978 9.28473 10.1891 9.43475 10.0352C9.58478 9.88137 9.78827 9.79492 10.0004 9.79492C10.2126 9.79492 10.4161 9.88137 10.5661 10.0352C10.7162 10.1891 10.8004 10.3978 10.8004 10.6154ZM6.80044 13.8975C6.80044 14.1151 6.71615 14.3238 6.56612 14.4777C6.4161 14.6316 6.21261 14.718 6.00044 14.718C5.78827 14.718 5.58478 14.6316 5.43475 14.4777C5.28473 14.3238 5.20044 14.1151 5.20044 13.8975C5.20044 13.6799 5.28473 13.4712 5.43475 13.3173C5.58478 13.1634 5.78827 13.077 6.00044 13.077C6.21261 13.077 6.4161 13.1634 6.56612 13.3173C6.71615 13.4712 6.80044 13.6799 6.80044 13.8975ZM6.80044 10.6154C6.80044 10.8331 6.71615 11.0418 6.56612 11.1956C6.4161 11.3495 6.21261 11.436 6.00044 11.436C5.78827 11.436 5.58478 11.3495 5.43475 11.1956C5.28473 11.0418 5.20044 10.8331 5.20044 10.6154C5.20044 10.3978 5.28473 10.1891 5.43475 10.0352C5.58478 9.88137 5.78827 9.79492 6.00044 9.79492C6.21261 9.79492 6.4161 9.88137 6.56612 10.0352C6.71615 10.1891 6.80044 10.3978 6.80044 10.6154Z" fill="black"/>
</svg>
