<svg width="24" height="24" viewBox="0 0 24 24" fill="none" xmlns="http://www.w3.org/2000/svg">
<path fill-rule="evenodd" clip-rule="evenodd" d="M5.29279 11.7068C5.10532 11.5193 5 11.265 5 10.9998C5 10.7346 5.10532 10.4803 5.29279 10.2928L11.2928 4.29279C11.4803 4.10532 11.7346 4 11.9998 4C12.265 4 12.5193 4.10532 12.7068 4.29279L18.7068 10.2928C18.8889 10.4814 18.9897 10.734 18.9875 10.9962C18.9852 11.2584 18.88 11.5092 18.6946 11.6946C18.5092 11.88 18.2584 11.9852 17.9962 11.9875C17.734 11.9897 17.4814 11.8889 17.2928 11.7068L12.9998 7.41379V18.9998C12.9998 19.265 12.8944 19.5194 12.7069 19.7069C12.5194 19.8944 12.265 19.9998 11.9998 19.9998C11.7346 19.9998 11.4802 19.8944 11.2927 19.7069C11.1051 19.5194 10.9998 19.265 10.9998 18.9998V7.41379L6.70679 11.7068C6.51926 11.8943 6.26495 11.9996 5.99979 11.9996C5.73462 11.9996 5.48031 11.8943 5.29279 11.7068Z" fill="#5B6871"/>
</svg>
