<svg width="25" height="23" viewBox="0 0 25 23" fill="none" xmlns="http://www.w3.org/2000/svg">
<g clip-path="url(#clip0_274_25806)">
<path d="M23.2831 0.397217L13.9365 7.33875L15.6653 3.24321L23.2831 0.397217Z" fill="#E2761B" stroke="#E2761B" stroke-width="0.0472599" stroke-linecap="round" stroke-linejoin="round"/>
<path d="M1.70703 0.397217L10.9785 7.40444L9.33431 3.24321L1.70703 0.397217Z" fill="#E4761B" stroke="#E4761B" stroke-width="0.0472599" stroke-linecap="round" stroke-linejoin="round"/>
<path d="M19.9189 16.4878L17.4297 20.3017L22.7559 21.7668L24.2871 16.5724L19.9189 16.4878Z" fill="#E4761B" stroke="#E4761B" stroke-width="0.0472599" stroke-linecap="round" stroke-linejoin="round"/>
<path d="M0.72168 16.5724L2.24345 21.7668L7.56964 20.3017L5.08046 16.4878L0.72168 16.5724Z" fill="#E4761B" stroke="#E4761B" stroke-width="0.0472599" stroke-linecap="round" stroke-linejoin="round"/>
<path d="M7.26861 10.0439L5.78418 12.2892L11.0726 12.5241L10.8849 6.84109L7.26861 10.0439Z" fill="#E4761B" stroke="#E4761B" stroke-width="0.0472599" stroke-linecap="round" stroke-linejoin="round"/>
<path d="M17.722 10.0439L14.0589 6.77542L13.9365 12.5241L19.2159 12.2892L17.722 10.0439Z" fill="#E4761B" stroke="#E4761B" stroke-width="0.0472599" stroke-linecap="round" stroke-linejoin="round"/>
<path d="M7.57031 20.3017L10.7452 18.7515L8.00227 16.6097L7.57031 20.3017Z" fill="#E4761B" stroke="#E4761B" stroke-width="0.0472599" stroke-linecap="round" stroke-linejoin="round"/>
<path d="M14.2471 18.7515L17.4314 20.3017L16.99 16.6097L14.2471 18.7515Z" fill="#E4761B" stroke="#E4761B" stroke-width="0.0472599" stroke-linecap="round" stroke-linejoin="round"/>
<path d="M17.4314 20.3017L14.2471 18.7515L14.5009 20.8277L14.4725 21.701L17.4314 20.3017Z" fill="#D7C1B3" stroke="#D7C1B3" stroke-width="0.0472599" stroke-linecap="round" stroke-linejoin="round"/>
<path d="M7.57031 20.3017L10.5293 21.701L10.5104 20.8277L10.7452 18.7515L7.57031 20.3017Z" fill="#D7C1B3" stroke="#D7C1B3" stroke-width="0.0472599" stroke-linecap="round" stroke-linejoin="round"/>
<path d="M10.5737 15.2387L7.9248 14.4589L9.79393 13.604L10.5737 15.2387Z" fill="#233447" stroke="#233447" stroke-width="0.0472599" stroke-linecap="round" stroke-linejoin="round"/>
<path d="M14.416 15.2387L15.1958 13.604L17.0744 14.4589L14.416 15.2387Z" fill="#233447" stroke="#233447" stroke-width="0.0472599" stroke-linecap="round" stroke-linejoin="round"/>
<path d="M7.5673 20.3017L8.01816 16.4878L5.07812 16.5724L7.5673 20.3017Z" fill="#CD6116" stroke="#CD6116" stroke-width="0.0472599" stroke-linecap="round" stroke-linejoin="round"/>
<path d="M16.9814 16.4878L17.4323 20.3017L19.9215 16.5724L16.9814 16.4878Z" fill="#CD6116" stroke="#CD6116" stroke-width="0.0472599" stroke-linecap="round" stroke-linejoin="round"/>
<path d="M19.2159 12.2892L13.9365 12.5241L14.4252 15.2387L15.205 13.604L17.0836 14.4589L19.2159 12.2892Z" fill="#CD6116" stroke="#CD6116" stroke-width="0.0472599" stroke-linecap="round" stroke-linejoin="round"/>
<path d="M7.926 14.4589L9.80458 13.604L10.5749 15.2387L11.0726 12.5241L5.78418 12.2892L7.926 14.4589Z" fill="#CD6116" stroke="#CD6116" stroke-width="0.0472599" stroke-linecap="round" stroke-linejoin="round"/>
<path d="M5.78418 12.2892L8.00114 16.6097L7.926 14.4589L5.78418 12.2892Z" fill="#E4751F" stroke="#E4751F" stroke-width="0.0472599" stroke-linecap="round" stroke-linejoin="round"/>
<path d="M17.0833 14.4589L16.9893 16.6097L19.2157 12.2892L17.0833 14.4589Z" fill="#E4751F" stroke="#E4751F" stroke-width="0.0472599" stroke-linecap="round" stroke-linejoin="round"/>
<path d="M11.0709 12.5241L10.5732 15.2387L11.1933 18.4415L11.3341 14.224L11.0709 12.5241Z" fill="#E4751F" stroke="#E4751F" stroke-width="0.0472599" stroke-linecap="round" stroke-linejoin="round"/>
<path d="M13.9369 12.5241L13.6836 14.2146L13.7961 18.4415L14.4256 15.2387L13.9369 12.5241Z" fill="#E4751F" stroke="#E4751F" stroke-width="0.0472599" stroke-linecap="round" stroke-linejoin="round"/>
<path d="M14.4254 15.2387L13.7959 18.4415L14.2468 18.7516L16.9897 16.6098L17.0838 14.459L14.4254 15.2387Z" fill="#F6851B" stroke="#F6851B" stroke-width="0.0472599" stroke-linecap="round" stroke-linejoin="round"/>
<path d="M7.9248 14.459L7.99995 16.6098L10.7429 18.7516L11.1938 18.4415L10.5737 15.2387L7.9248 14.459Z" fill="#F6851B" stroke="#F6851B" stroke-width="0.0472599" stroke-linecap="round" stroke-linejoin="round"/>
<path d="M14.474 21.7011L14.5024 20.8277L14.2675 20.6207H10.7263L10.5104 20.8277L10.5293 21.7011L7.57031 20.3017L8.60341 21.1467L10.698 22.6028H14.2959L16.3999 21.1467L17.433 20.3017L14.474 21.7011Z" fill="#C0AD9E" stroke="#C0AD9E" stroke-width="0.0472599" stroke-linecap="round" stroke-linejoin="round"/>
<path d="M14.247 18.7515L13.7962 18.4415H11.1945L10.7437 18.7515L10.5088 20.8277L10.7248 20.6207H14.266L14.5008 20.8277L14.247 18.7515Z" fill="#161616" stroke="#161616" stroke-width="0.0472599" stroke-linecap="round" stroke-linejoin="round"/>
<path d="M23.6783 7.78964L24.4765 3.95734L23.2836 0.397247L14.2471 7.1039L17.7226 10.0439L22.6352 11.4811L23.725 10.2131L23.2553 9.87522L24.0067 9.18948L23.4245 8.73862L24.1759 8.16536L23.6783 7.78964Z" fill="#763D16" stroke="#763D16" stroke-width="0.0472599" stroke-linecap="round" stroke-linejoin="round"/>
<path d="M0.523438 3.95731L1.32166 7.78961L0.814559 8.16533L1.56599 8.73859L0.993201 9.18945L1.74463 9.87519L1.27487 10.2131L2.35523 11.4811L7.2679 10.0439L10.7434 7.10387L1.70683 0.397217L0.523438 3.95731Z" fill="#763D16" stroke="#763D16" stroke-width="0.0472599" stroke-linecap="round" stroke-linejoin="round"/>
<path d="M22.6345 11.4811L17.7218 10.0439L19.2157 12.2892L16.9893 16.6097L19.9198 16.5724H24.2881L22.6345 11.4811Z" fill="#F6851B" stroke="#F6851B" stroke-width="0.0472599" stroke-linecap="round" stroke-linejoin="round"/>
<path d="M7.26907 10.044L2.3564 11.4811L0.72168 16.5725H5.08046L8.0016 16.6098L5.78463 12.2893L7.26907 10.044Z" fill="#F6851B" stroke="#F6851B" stroke-width="0.0472599" stroke-linecap="round" stroke-linejoin="round"/>
<path d="M13.9376 12.5241L14.2476 7.10389L15.6758 3.24323H9.33496L10.7443 7.10389L11.0727 12.5241L11.1857 14.2335L11.1951 18.4415H13.7968L13.8157 14.2335L13.9376 12.5241Z" fill="#F6851B" stroke="#F6851B" stroke-width="0.0472599" stroke-linecap="round" stroke-linejoin="round"/>
</g>
<defs>
<clipPath id="clip0_274_25806">
<rect width="24" height="22.2528" fill="white" transform="translate(0.5 0.373596)"/>
</clipPath>
</defs>
</svg>
