<svg width="21" height="20" viewBox="0 0 21 20" fill="none" xmlns="http://www.w3.org/2000/svg">
<g clip-path="url(#clip0_224_3734)">
<path d="M15.5303 2.19971H5.136C4.89623 2.20629 4.66138 2.26921 4.45043 2.38337C4.23949 2.49753 4.05836 2.65973 3.92171 2.85685L1.32171 6.45685C1.12865 6.72967 1.03223 7.05915 1.04776 7.39301C1.06329 7.72687 1.18988 8.04599 1.40743 8.29971L9.20457 17.2854C9.33794 17.4577 9.509 17.5972 9.70462 17.6932C9.90025 17.7891 10.1152 17.839 10.3331 17.839C10.551 17.839 10.766 17.7891 10.9617 17.6932C11.1573 17.5972 11.3283 17.4577 11.4617 17.2854L19.2574 8.29971C19.475 8.04599 19.6016 7.72687 19.6171 7.39301C19.6326 7.05915 19.5362 6.72967 19.3431 6.45685L16.7446 2.85685C16.6079 2.65973 16.4268 2.49753 16.2159 2.38337C16.0049 2.26921 15.7701 2.20629 15.5303 2.19971Z" stroke="#001938" stroke-width="1.2" stroke-linecap="round" stroke-linejoin="round"/>
<path d="M9.59021 2.18555L6.1045 7.58555L10.3331 17.7998L14.5902 7.58555L11.1188 2.18555M1.07593 7.58555H19.5902" stroke="#001938" stroke-width="1.2" stroke-linecap="round" stroke-linejoin="round"/>
</g>
<defs>
<clipPath id="clip0_224_3734">
<rect width="20" height="20" fill="white" transform="translate(0.333252)"/>
</clipPath>
</defs>
</svg>
