<svg width="20" height="20" viewBox="0 0 20 20" fill="none" xmlns="http://www.w3.org/2000/svg">
<g clip-path="url(#clip0_224_3757)">
<path d="M15.1968 2.19971H4.8025C4.56274 2.20629 4.32788 2.26921 4.11694 2.38337C3.90599 2.49753 3.72487 2.65973 3.58822 2.85685L0.988218 6.45685C0.795156 6.72967 0.698739 7.05915 0.714267 7.39301C0.729796 7.72687 0.85638 8.04599 1.07393 8.29971L8.87108 17.2854C9.00445 17.4577 9.1755 17.5972 9.37113 17.6932C9.56675 17.7891 9.78175 17.839 9.99965 17.839C10.2175 17.839 10.4325 17.7891 10.6282 17.6932C10.8238 17.5972 10.9948 17.4577 11.1282 17.2854L18.9239 8.29971C19.1415 8.04599 19.2681 7.72687 19.2836 7.39301C19.2991 7.05915 19.2027 6.72967 19.0096 6.45685L16.4111 2.85685C16.2744 2.65973 16.0933 2.49753 15.8824 2.38337C15.6714 2.26921 15.4366 2.20629 15.1968 2.19971Z" stroke="#001938" stroke-width="1.2" stroke-linecap="round" stroke-linejoin="round"/>
<path d="M9.25672 2.18555L5.771 7.58555L9.99957 17.7998L14.2567 7.58555L10.7853 2.18555M0.742432 7.58555H19.2567" stroke="#001938" stroke-width="1.2" stroke-linecap="round" stroke-linejoin="round"/>
</g>
<defs>
<clipPath id="clip0_224_3757">
<rect width="20" height="20" fill="white" transform="translate(-0.000244141)"/>
</clipPath>
</defs>
</svg>
