<svg width="24" height="25" viewBox="0 0 24 25" fill="none" xmlns="http://www.w3.org/2000/svg">
<path d="M7.25998 2.26953H16.73C17.38 2.26953 17.96 2.28956 18.48 2.35956C21.25 2.66956 22 3.96954 22 7.52954V13.8495C22 17.4095 21.25 18.7095 18.48 19.0195C17.96 19.0895 17.39 19.1096 16.73 19.1096H7.25998C6.60998 19.1096 6.02998 19.0895 5.50998 19.0195C2.73998 18.7095 1.98999 17.4095 1.98999 13.8495V7.52954C1.98999 3.96954 2.73998 2.66956 5.50998 2.35956C6.02998 2.28956 6.60998 2.26953 7.25998 2.26953Z" stroke="#12D576" stroke-width="1.5" stroke-linecap="round" stroke-linejoin="round"/>
<path d="M13.5801 8.58936H17.2601" stroke="#12D576" stroke-width="1.5" stroke-linecap="round" stroke-linejoin="round"/>
<path d="M6.73999 14.3794H6.75998H17.27" stroke="#12D576" stroke-width="1.5" stroke-linecap="round" stroke-linejoin="round"/>
<path d="M7 22.2695H17" stroke="#12D576" stroke-width="1.5" stroke-linecap="round" stroke-linejoin="round"/>
<path d="M7.1947 8.56934H7.20368" stroke="#12D576" stroke-width="2" stroke-linecap="round" stroke-linejoin="round"/>
<path d="M10.4945 8.56934H10.5035" stroke="#12D576" stroke-width="2" stroke-linecap="round" stroke-linejoin="round"/>
</svg>
