<svg width="24" height="25" viewBox="0 0 24 25" fill="none" xmlns="http://www.w3.org/2000/svg">
<path d="M12 15.2695C13.6569 15.2695 15 13.9264 15 12.2695C15 10.6127 13.6569 9.26953 12 9.26953C10.3431 9.26953 9 10.6127 9 12.2695C9 13.9264 10.3431 15.2695 12 15.2695Z" stroke="#B2ABAB" stroke-width="1.5"/>
<path d="M13.765 2.42153C13.398 2.26953 12.932 2.26953 12 2.26953C11.068 2.26953 10.602 2.26953 10.235 2.42153C9.99214 2.52204 9.77151 2.66943 9.58569 2.85525C9.39986 3.04108 9.25248 3.26171 9.15196 3.50453C9.05996 3.72753 9.02296 3.98853 9.00896 4.36753C9.00273 4.64152 8.92696 4.90943 8.78877 5.1461C8.65059 5.38277 8.45451 5.58044 8.21896 5.72053C7.97986 5.85457 7.71061 5.92563 7.4365 5.92703C7.16239 5.92843 6.89242 5.86013 6.65196 5.72853C6.31596 5.55053 6.07296 5.45253 5.83196 5.42053C5.30628 5.3514 4.77466 5.49384 4.35396 5.81653C4.03996 6.05953 3.80596 6.46253 3.33996 7.26953C2.87396 8.07653 2.63996 8.47953 2.58896 8.87453C2.5546 9.13498 2.57188 9.39966 2.63983 9.65343C2.70778 9.9072 2.82505 10.1451 2.98496 10.3535C3.13296 10.5455 3.33996 10.7065 3.66096 10.9085C4.13396 11.2055 4.43796 11.7115 4.43796 12.2695C4.43796 12.8275 4.13396 13.3335 3.66096 13.6295C3.33996 13.8325 3.13196 13.9935 2.98496 14.1855C2.82505 14.394 2.70778 14.6319 2.63983 14.8856C2.57188 15.1394 2.5546 15.4041 2.58896 15.6645C2.64096 16.0585 2.87396 16.4625 3.33896 17.2695C3.80596 18.0765 4.03896 18.4795 4.35396 18.7225C4.5624 18.8824 4.8003 18.9997 5.05407 19.0677C5.30784 19.1356 5.57251 19.1529 5.83296 19.1185C6.07296 19.0865 6.31596 18.9885 6.65196 18.8105C6.89242 18.6789 7.16239 18.6106 7.4365 18.612C7.71061 18.6134 7.97986 18.6845 8.21896 18.8185C8.70196 19.0985 8.98896 19.6135 9.00896 20.1715C9.02296 20.5515 9.05896 20.8115 9.15196 21.0345C9.25248 21.2773 9.39986 21.498 9.58569 21.6838C9.77151 21.8696 9.99214 22.017 10.235 22.1175C10.602 22.2695 11.068 22.2695 12 22.2695C12.932 22.2695 13.398 22.2695 13.765 22.1175C14.0078 22.017 14.2284 21.8696 14.4142 21.6838C14.6001 21.498 14.7474 21.2773 14.848 21.0345C14.94 20.8115 14.977 20.5515 14.991 20.1715C15.011 19.6135 15.298 19.0975 15.781 18.8185C16.0201 18.6845 16.2893 18.6134 16.5634 18.612C16.8375 18.6106 17.1075 18.6789 17.348 18.8105C17.684 18.9885 17.927 19.0865 18.167 19.1185C18.4274 19.1529 18.6921 19.1356 18.9459 19.0677C19.1996 18.9997 19.4375 18.8824 19.646 18.7225C19.961 18.4805 20.194 18.0765 20.66 17.2695C21.126 16.4625 21.36 16.0595 21.411 15.6645C21.4453 15.4041 21.428 15.1394 21.3601 14.8856C21.2921 14.6319 21.1749 14.394 21.015 14.1855C20.867 13.9935 20.66 13.8325 20.339 13.6305C20.1047 13.4881 19.9105 13.2885 19.7746 13.0505C19.6386 12.8124 19.5655 12.5437 19.562 12.2695C19.562 11.7115 19.866 11.2055 20.339 10.9095C20.66 10.7065 20.868 10.5455 21.015 10.3535C21.1749 10.1451 21.2921 9.9072 21.3601 9.65343C21.428 9.39966 21.4453 9.13498 21.411 8.87453C21.359 8.48053 21.126 8.07653 20.661 7.26953C20.194 6.46253 19.961 6.05953 19.646 5.81653C19.4375 5.65662 19.1996 5.53934 18.9459 5.4714C18.6921 5.40345 18.4274 5.38617 18.167 5.42053C17.927 5.45253 17.684 5.55053 17.347 5.72853C17.1066 5.85995 16.8368 5.92815 16.5629 5.92675C16.289 5.92536 16.0199 5.8544 15.781 5.72053C15.5454 5.58044 15.3493 5.38277 15.2112 5.1461C15.073 4.90943 14.9972 4.64152 14.991 4.36753C14.977 3.98753 14.941 3.72753 14.848 3.50453C14.7474 3.26171 14.6001 3.04108 14.4142 2.85525C14.2284 2.66943 14.0078 2.52204 13.765 2.42153Z" stroke="#B2ABAB" stroke-width="1.5"/>
</svg>
