<svg width="24" height="25" viewBox="0 0 24 25" fill="none" xmlns="http://www.w3.org/2000/svg">
<path fill-rule="evenodd" clip-rule="evenodd" d="M6.25 13.2695C10.319 13.2695 10.5 14.6495 10.5 17.5195C10.5 18.9575 10.5 19.9805 9.896 20.7295C9.201 21.5925 7.936 21.7695 6.25 21.7695C4.564 21.7695 3.299 21.5925 2.604 20.7295C2 19.9805 2 18.9585 2 17.5445L2.75 17.5195H2C2 14.6495 2.181 13.2695 6.25 13.2695ZM17.25 13.2695C21.319 13.2695 21.5 14.6495 21.5 17.5195C21.5 18.9575 21.5 19.9805 20.896 20.7295C20.201 21.5925 18.936 21.7695 17.25 21.7695C15.564 21.7695 14.299 21.5925 13.604 20.7295C13 19.9805 13 18.9585 13 17.5445L13.75 17.5195H13C13 14.6495 13.181 13.2695 17.25 13.2695ZM6.45616 14.77L6.25 14.7695C3.64103 14.7695 3.50723 14.9567 3.50037 17.1466L3.50079 17.9997C3.50553 18.8707 3.53871 19.4998 3.771 19.7895C4.036 20.1175 4.823 20.2695 6.25 20.2695C7.677 20.2695 8.464 20.1165 8.729 19.7885C9 19.4515 9 18.6515 9 17.5435C9 15.0433 9 14.7817 6.45616 14.77ZM17.4562 14.77L17.25 14.7695C14.641 14.7695 14.5072 14.9567 14.5004 17.1466L14.5008 17.9997C14.5055 18.8707 14.5387 19.4998 14.771 19.7895C15.036 20.1175 15.823 20.2695 17.25 20.2695C18.677 20.2695 19.464 20.1165 19.729 19.7885C20 19.4515 20 18.6515 20 17.5435C20 15.0433 20 14.7817 17.4562 14.77ZM6.25 2.26953C10.319 2.26953 10.5 3.64953 10.5 6.51953C10.5 7.95753 10.5 8.98053 9.896 9.72953C9.201 10.5925 7.936 10.7695 6.25 10.7695C4.564 10.7695 3.299 10.5925 2.604 9.72953C2 8.98053 2 7.95853 2 6.54453L2.75 6.51953H2C2 3.64953 2.181 2.26953 6.25 2.26953ZM17.25 2.26953C21.319 2.26953 21.5 3.64953 21.5 6.51953C21.5 7.95753 21.5 8.98053 20.896 9.72953C20.201 10.5925 18.936 10.7695 17.25 10.7695C15.564 10.7695 14.299 10.5925 13.604 9.72953C13 8.98053 13 7.95853 13 6.54453L13.75 6.51953H13C13 3.64953 13.181 2.26953 17.25 2.26953ZM6.45616 3.76998L6.25 3.76953C3.64103 3.76953 3.50723 3.95674 3.50037 6.14658L3.50079 6.99971C3.50553 7.87067 3.53871 8.49982 3.771 8.78953C4.036 9.11753 4.823 9.26953 6.25 9.26953C7.677 9.26953 8.464 9.11653 8.729 8.78853C9 8.45153 9 7.65153 9 6.54353C9 4.04333 9 3.78175 6.45616 3.76998ZM17.4562 3.76998L17.25 3.76953C14.641 3.76953 14.5072 3.95674 14.5004 6.14658L14.5008 6.99971C14.5055 7.87067 14.5387 8.49982 14.771 8.78953C15.036 9.11753 15.823 9.26953 17.25 9.26953C18.677 9.26953 19.464 9.11653 19.729 8.78853C20 8.45153 20 7.65153 20 6.54353C20 4.04333 20 3.78175 17.4562 3.76998Z" fill="#B2ABAB"/>
</svg>
