<svg width="24" height="25" viewBox="0 0 24 25" fill="none" xmlns="http://www.w3.org/2000/svg">
<path d="M14.945 1.51953C13.578 1.51953 12.475 1.51953 11.608 1.63653C10.708 1.75653 9.94996 2.01653 9.34796 2.61753C8.82396 3.14253 8.55796 3.78753 8.41896 4.54553C8.28396 5.28253 8.25796 6.18353 8.25196 7.26553C8.2509 7.46444 8.3289 7.65563 8.46881 7.79703C8.60871 7.93844 8.79905 8.01847 8.99796 8.01953C9.19688 8.02059 9.38806 7.94259 9.52947 7.80269C9.67087 7.66279 9.7509 7.47244 9.75196 7.27353C9.75796 6.18053 9.78596 5.40553 9.89396 4.81653C9.99896 4.25053 10.166 3.92153 10.409 3.67853C10.686 3.40153 11.075 3.22153 11.809 3.12253C12.564 3.02153 13.565 3.01953 15 3.01953H16C17.436 3.01953 18.437 3.02153 19.192 3.12253C19.926 3.22153 20.314 3.40253 20.592 3.67853C20.868 3.95553 21.048 4.34353 21.147 5.07853C21.249 5.83253 21.25 6.83453 21.25 8.26953V16.2695C21.25 17.7045 21.249 18.7055 21.147 19.4615C21.048 20.1955 20.868 20.5835 20.591 20.8605C20.314 21.1375 19.926 21.3175 19.192 21.4165C18.437 21.5175 17.436 21.5195 16 21.5195H15C13.565 21.5195 12.564 21.5175 11.808 21.4165C11.075 21.3175 10.686 21.1365 10.409 20.8605C10.166 20.6165 9.99896 20.2885 9.89396 19.7225C9.78596 19.1335 9.75796 18.3585 9.75196 17.2655C9.75144 17.167 9.73152 17.0696 9.69334 16.9788C9.65517 16.888 9.59948 16.8056 9.52947 16.7364C9.45945 16.6671 9.37648 16.6123 9.28528 16.5751C9.19409 16.5379 9.09646 16.519 8.99796 16.5195C8.89947 16.5201 8.80205 16.54 8.71126 16.5782C8.62046 16.6163 8.53808 16.672 8.46881 16.742C8.39953 16.812 8.34473 16.895 8.30752 16.9862C8.27032 17.0774 8.25144 17.175 8.25196 17.2735C8.25796 18.3555 8.28396 19.2565 8.41896 19.9935C8.55896 20.7515 8.82396 21.3965 9.34896 21.9215C9.94996 22.5235 10.709 22.7815 11.609 22.9035C12.475 23.0195 13.578 23.0195 14.945 23.0195H16.055C17.423 23.0195 18.525 23.0195 19.392 22.9035C20.292 22.7815 21.05 22.5235 21.652 21.9215C22.254 21.3195 22.512 20.5615 22.634 19.6615C22.75 18.7945 22.75 17.6915 22.75 16.3245V8.21453C22.75 6.84753 22.75 5.74453 22.634 4.87753C22.513 3.97753 22.254 3.21953 21.652 2.61753C21.05 2.01553 20.292 1.75753 19.392 1.63653C18.525 1.51953 17.422 1.51953 16.055 1.51953H14.945Z" fill="#B2ABAB"/>
<path d="M14.9999 11.5194C15.1989 11.5194 15.3896 11.5984 15.5303 11.7391C15.6709 11.8797 15.7499 12.0705 15.7499 12.2694C15.7499 12.4683 15.6709 12.6591 15.5303 12.7997C15.3896 12.9404 15.1989 13.0194 14.9999 13.0194H4.02695L5.98795 14.6994C6.13912 14.8288 6.23269 15.013 6.24807 15.2114C6.26344 15.4098 6.19937 15.6062 6.06995 15.7574C5.94052 15.9086 5.75634 16.0021 5.55793 16.0175C5.35952 16.0329 5.16312 15.9688 5.01195 15.8394L1.51195 12.8394C1.42961 12.769 1.36351 12.6816 1.31818 12.5832C1.27286 12.4848 1.24939 12.3777 1.24939 12.2694C1.24939 12.1611 1.27286 12.054 1.31818 11.9556C1.36351 11.8572 1.42961 11.7698 1.51195 11.6994L5.01195 8.69941C5.0868 8.63532 5.17354 8.58661 5.26722 8.55605C5.3609 8.52548 5.45969 8.51367 5.55793 8.52129C5.65617 8.5289 5.75196 8.55579 5.83981 8.60042C5.92766 8.64505 6.00586 8.70655 6.06995 8.78141C6.13403 8.85626 6.18275 8.943 6.21331 9.03668C6.24387 9.13036 6.25568 9.22914 6.24807 9.32739C6.24045 9.42563 6.21356 9.52142 6.16893 9.60927C6.1243 9.69712 6.0628 9.77532 5.98795 9.83941L4.02795 11.5194H14.9999Z" fill="#B2ABAB"/>
</svg>
